<svg width="291" height="113" viewBox="0 0 291 113" fill="none" xmlns="http://www.w3.org/2000/svg">
    <g clip-path="url(#clip0_402_1135)">
        <rect width="290.667" height="113" rx="12" fill="#F1F7FF"/>
        <path fill-rule="evenodd" clip-rule="evenodd" d="M188 80.8889V88C188 90.2091 189.791 92 192 92H203C205.209 92 207 90.2091 207 88V26C207 23.7909 205.209 22 203 22H192C189.791 22 188 23.7909 188 26V33.1111H101V26C101 23.7909 99.2091 22 97 22H86C83.7909 22 82 23.7909 82 26V88C82 90.2091 83.7909 92 86 92H97C99.2091 92 101 90.2091 101 88V80.8889H188ZM101 37.1111C98.7909 37.1111 97 35.3202 97 33.1111V26L86 26V88H97V80.8889C97 78.6797 98.7909 76.8889 101 76.8889H188C190.209 76.8889 192 78.6797 192 80.8889V88H203V26L192 26V33.1111C192 35.3202 190.209 37.1111 188 37.1111H101Z" fill="#5999F8" fill-opacity="0.3"/>
        <path d="M-65.5 45C-65.5 44.1716 -64.8284 43.5 -64 43.5H-62.4881C-61.6597 43.5 -60.9881 44.1716 -60.9881 45C-60.9881 45.8284 -61.6597 46.5 -62.4881 46.5H-64C-64.8284 46.5 -65.5 45.8284 -65.5 45Z" fill="#5999F8" fill-opacity="0.3"/>
        <path d="M-57.9405 45C-57.9405 44.1716 -57.2689 43.5 -56.4405 43.5H-53.4167C-52.5882 43.5 -51.9167 44.1716 -51.9167 45C-51.9167 45.8284 -52.5882 46.5 -53.4167 46.5H-56.4405C-57.2689 46.5 -57.9405 45.8284 -57.9405 45Z" fill="#5999F8" fill-opacity="0.3"/>
        <path d="M-48.869 45C-48.869 44.1716 -48.1975 43.5 -47.369 43.5H-44.3452C-43.5168 43.5 -42.8452 44.1716 -42.8452 45C-42.8452 45.8284 -43.5168 46.5 -44.3452 46.5H-47.369C-48.1975 46.5 -48.869 45.8284 -48.869 45Z" fill="#5999F8" fill-opacity="0.3"/>
        <path d="M-39.7976 45C-39.7976 44.1716 -39.126 43.5 -38.2976 43.5H-35.2738C-34.4454 43.5 -33.7738 44.1716 -33.7738 45C-33.7738 45.8284 -34.4454 46.5 -35.2738 46.5H-38.2976C-39.126 46.5 -39.7976 45.8284 -39.7976 45Z" fill="#5999F8" fill-opacity="0.3"/>
        <path d="M-30.7262 45C-30.7262 44.1716 -30.0546 43.5 -29.2262 43.5H-26.2024C-25.374 43.5 -24.7024 44.1716 -24.7024 45C-24.7024 45.8284 -25.374 46.5 -26.2024 46.5H-29.2262C-30.0546 46.5 -30.7262 45.8284 -30.7262 45Z" fill="#5999F8" fill-opacity="0.3"/>
        <path d="M-21.6548 45C-21.6548 44.1716 -20.9832 43.5 -20.1548 43.5H-17.131C-16.3025 43.5 -15.631 44.1716 -15.631 45C-15.631 45.8284 -16.3025 46.5 -17.131 46.5H-20.1548C-20.9832 46.5 -21.6548 45.8284 -21.6548 45Z" fill="#5999F8" fill-opacity="0.3"/>
        <path d="M-12.5833 45C-12.5833 44.1716 -11.9118 43.5 -11.0833 43.5H-8.05953C-7.23111 43.5 -6.55953 44.1716 -6.55953 45C-6.55953 45.8284 -7.23111 46.5 -8.05953 46.5H-11.0833C-11.9118 46.5 -12.5833 45.8284 -12.5833 45Z" fill="#5999F8" fill-opacity="0.3"/>
        <path d="M-3.51192 45C-3.51192 44.1716 -2.84034 43.5 -2.01192 43.5H1.01189C1.84032 43.5 2.51189 44.1716 2.51189 45C2.51189 45.8284 1.84032 46.5 1.01189 46.5H-2.01192C-2.84034 46.5 -3.51192 45.8284 -3.51192 45Z" fill="#5999F8" fill-opacity="0.3"/>
        <path d="M5.55951 45C5.55951 44.1716 6.23109 43.5 7.05951 43.5H10.0833C10.9118 43.5 11.5833 44.1716 11.5833 45C11.5833 45.8284 10.9118 46.5 10.0833 46.5H7.05951C6.23109 46.5 5.55951 45.8284 5.55951 45Z" fill="#5999F8" fill-opacity="0.3"/>
        <path d="M14.6309 45C14.6309 44.1716 15.3025 43.5 16.1309 43.5H19.1547C19.9832 43.5 20.6547 44.1716 20.6547 45C20.6547 45.8284 19.9832 46.5 19.1547 46.5H16.1309C15.3025 46.5 14.6309 45.8284 14.6309 45Z" fill="#5999F8" fill-opacity="0.3"/>
        <path d="M23.7024 45C23.7024 44.1716 24.3739 43.5 25.2024 43.5H28.2262C29.0546 43.5 29.7262 44.1716 29.7262 45C29.7262 45.8284 29.0546 46.5 28.2262 46.5H25.2024C24.3739 46.5 23.7024 45.8284 23.7024 45Z" fill="#5999F8" fill-opacity="0.3"/>
        <path d="M32.7738 45C32.7738 44.1716 33.4454 43.5 34.2738 43.5H37.2976C38.126 43.5 38.7976 44.1716 38.7976 45C38.7976 45.8284 38.126 46.5 37.2976 46.5H34.2738C33.4454 46.5 32.7738 45.8284 32.7738 45Z" fill="#5999F8" fill-opacity="0.3"/>
        <path d="M41.8452 45C41.8452 44.1716 42.5168 43.5 43.3452 43.5H46.369C47.1975 43.5 47.869 44.1716 47.869 45C47.869 45.8284 47.1975 46.5 46.369 46.5H43.3452C42.5168 46.5 41.8452 45.8284 41.8452 45Z" fill="#5999F8" fill-opacity="0.3"/>
        <path d="M50.9166 45C50.9166 44.1716 51.5882 43.5 52.4166 43.5H55.4405C56.2689 43.5 56.9405 44.1716 56.9405 45C56.9405 45.8284 56.2689 46.5 55.4405 46.5H52.4166C51.5882 46.5 50.9166 45.8284 50.9166 45Z" fill="#5999F8" fill-opacity="0.3"/>
        <path d="M59.9881 45C59.9881 44.1716 60.6596 43.5 61.4881 43.5H63C63.8284 43.5 64.5 44.1716 64.5 45C64.5 45.8284 63.8284 46.5 63 46.5H61.4881C60.6596 46.5 59.9881 45.8284 59.9881 45Z" fill="#5999F8" fill-opacity="0.3"/>
        <path d="M235 55.5C234.172 55.5 233.5 56.1716 233.5 57C233.5 57.8284 234.172 58.5 235 58.5H236.512C237.34 58.5 238.012 57.8284 238.012 57C238.012 56.1716 237.34 55.5 236.512 55.5H235Z" fill="#5999F8" fill-opacity="0.3"/>
        <path d="M242.56 55.5C241.731 55.5 241.06 56.1716 241.06 57C241.06 57.8284 241.731 58.5 242.56 58.5H245.583C246.412 58.5 247.083 57.8284 247.083 57C247.083 56.1716 246.412 55.5 245.583 55.5H242.56Z" fill="#5999F8" fill-opacity="0.3"/>
        <path d="M251.631 55.5C250.803 55.5 250.131 56.1716 250.131 57C250.131 57.8284 250.803 58.5 251.631 58.5H254.655C255.483 58.5 256.155 57.8284 256.155 57C256.155 56.1716 255.483 55.5 254.655 55.5H251.631Z" fill="#5999F8" fill-opacity="0.3"/>
        <path d="M260.702 55.5C259.874 55.5 259.202 56.1716 259.202 57C259.202 57.8284 259.874 58.5 260.702 58.5H263.726C264.555 58.5 265.226 57.8284 265.226 57C265.226 56.1716 264.555 55.5 263.726 55.5H260.702Z" fill="#5999F8" fill-opacity="0.3"/>
        <path d="M269.774 55.5C268.945 55.5 268.274 56.1716 268.274 57C268.274 57.8284 268.945 58.5 269.774 58.5H272.798C273.626 58.5 274.298 57.8284 274.298 57C274.298 56.1716 273.626 55.5 272.798 55.5H269.774Z" fill="#5999F8" fill-opacity="0.3"/>
        <path d="M278.845 55.5C278.017 55.5 277.345 56.1716 277.345 57C277.345 57.8284 278.017 58.5 278.845 58.5H281.869C282.697 58.5 283.369 57.8284 283.369 57C283.369 56.1716 282.697 55.5 281.869 55.5H278.845Z" fill="#5999F8" fill-opacity="0.3"/>
        <path d="M287.917 55.5C287.088 55.5 286.417 56.1716 286.417 57C286.417 57.8284 287.088 58.5 287.917 58.5H290.94C291.769 58.5 292.44 57.8284 292.44 57C292.44 56.1716 291.769 55.5 290.94 55.5H287.917Z" fill="#5999F8" fill-opacity="0.3"/>
        <path d="M296.988 55.5C296.16 55.5 295.488 56.1716 295.488 57C295.488 57.8284 296.16 58.5 296.988 58.5H300.012C300.84 58.5 301.512 57.8284 301.512 57C301.512 56.1716 300.84 55.5 300.012 55.5H296.988Z" fill="#5999F8" fill-opacity="0.3"/>
        <path d="M306.06 55.5C305.231 55.5 304.56 56.1716 304.56 57C304.56 57.8284 305.231 58.5 306.06 58.5H309.083C309.912 58.5 310.583 57.8284 310.583 57C310.583 56.1716 309.912 55.5 309.083 55.5H306.06Z" fill="#5999F8" fill-opacity="0.3"/>
        <path d="M315.131 55.5C314.302 55.5 313.631 56.1716 313.631 57C313.631 57.8284 314.302 58.5 315.131 58.5H318.155C318.983 58.5 319.655 57.8284 319.655 57C319.655 56.1716 318.983 55.5 318.155 55.5H315.131Z" fill="#5999F8" fill-opacity="0.3"/>
        <path d="M324.202 55.5C323.374 55.5 322.702 56.1716 322.702 57C322.702 57.8284 323.374 58.5 324.202 58.5H327.226C328.055 58.5 328.726 57.8284 328.726 57C328.726 56.1716 328.055 55.5 327.226 55.5H324.202Z" fill="#5999F8" fill-opacity="0.3"/>
        <path d="M333.274 55.5C332.445 55.5 331.774 56.1716 331.774 57C331.774 57.8284 332.445 58.5 333.274 58.5H336.298C337.126 58.5 337.798 57.8284 337.798 57C337.798 56.1716 337.126 55.5 336.298 55.5H333.274Z" fill="#5999F8" fill-opacity="0.3"/>
        <path d="M342.345 55.5C341.517 55.5 340.845 56.1716 340.845 57C340.845 57.8284 341.517 58.5 342.345 58.5H345.369C346.197 58.5 346.869 57.8284 346.869 57C346.869 56.1716 346.197 55.5 345.369 55.5H342.345Z" fill="#5999F8" fill-opacity="0.3"/>
        <path d="M351.417 55.5C350.588 55.5 349.917 56.1716 349.917 57C349.917 57.8284 350.588 58.5 351.417 58.5H354.44C355.269 58.5 355.94 57.8284 355.94 57C355.94 56.1716 355.269 55.5 354.44 55.5H351.417Z" fill="#5999F8" fill-opacity="0.3"/>
        <path d="M360.488 55.5C359.66 55.5 358.988 56.1716 358.988 57C358.988 57.8284 359.66 58.5 360.488 58.5H362C362.828 58.5 363.5 57.8284 363.5 57C363.5 56.1716 362.828 55.5 362 55.5H360.488Z" fill="#5999F8" fill-opacity="0.3"/>
        <path d="M-77.5 58C-77.5 57.1716 -76.8284 56.5 -76 56.5H-74.4881C-73.6597 56.5 -72.9881 57.1716 -72.9881 58C-72.9881 58.8284 -73.6597 59.5 -74.4881 59.5H-76C-76.8284 59.5 -77.5 58.8284 -77.5 58Z" fill="#5999F8" fill-opacity="0.3"/>
        <path d="M-69.9405 58C-69.9405 57.1716 -69.2689 56.5 -68.4405 56.5H-65.4167C-64.5882 56.5 -63.9167 57.1716 -63.9167 58C-63.9167 58.8284 -64.5882 59.5 -65.4167 59.5H-68.4405C-69.2689 59.5 -69.9405 58.8284 -69.9405 58Z" fill="#5999F8" fill-opacity="0.3"/>
        <path d="M-60.869 58C-60.869 57.1716 -60.1975 56.5 -59.369 56.5H-56.3452C-55.5168 56.5 -54.8452 57.1716 -54.8452 58C-54.8452 58.8284 -55.5168 59.5 -56.3452 59.5H-59.369C-60.1975 59.5 -60.869 58.8284 -60.869 58Z" fill="#5999F8" fill-opacity="0.3"/>
        <path d="M-51.7976 58C-51.7976 57.1716 -51.126 56.5 -50.2976 56.5H-47.2738C-46.4454 56.5 -45.7738 57.1716 -45.7738 58C-45.7738 58.8284 -46.4454 59.5 -47.2738 59.5H-50.2976C-51.126 59.5 -51.7976 58.8284 -51.7976 58Z" fill="#5999F8" fill-opacity="0.3"/>
        <path d="M-42.7262 58C-42.7262 57.1716 -42.0546 56.5 -41.2262 56.5H-38.2024C-37.374 56.5 -36.7024 57.1716 -36.7024 58C-36.7024 58.8284 -37.374 59.5 -38.2024 59.5H-41.2262C-42.0546 59.5 -42.7262 58.8284 -42.7262 58Z" fill="#5999F8" fill-opacity="0.3"/>
        <path d="M-33.6548 58C-33.6548 57.1716 -32.9832 56.5 -32.1548 56.5H-29.131C-28.3025 56.5 -27.631 57.1716 -27.631 58C-27.631 58.8284 -28.3025 59.5 -29.131 59.5H-32.1548C-32.9832 59.5 -33.6548 58.8284 -33.6548 58Z" fill="#5999F8" fill-opacity="0.3"/>
        <path d="M-24.5833 58C-24.5833 57.1716 -23.9118 56.5 -23.0833 56.5H-20.0595C-19.2311 56.5 -18.5595 57.1716 -18.5595 58C-18.5595 58.8284 -19.2311 59.5 -20.0595 59.5H-23.0833C-23.9118 59.5 -24.5833 58.8284 -24.5833 58Z" fill="#5999F8" fill-opacity="0.3"/>
        <path d="M-15.5119 58C-15.5119 57.1716 -14.8403 56.5 -14.0119 56.5H-10.9881C-10.1597 56.5 -9.48811 57.1716 -9.48811 58C-9.48811 58.8284 -10.1597 59.5 -10.9881 59.5H-14.0119C-14.8403 59.5 -15.5119 58.8284 -15.5119 58Z" fill="#5999F8" fill-opacity="0.3"/>
        <path d="M-6.44049 58C-6.44049 57.1716 -5.76891 56.5 -4.94049 56.5H-1.91668C-1.08825 56.5 -0.416679 57.1716 -0.416679 58C-0.416679 58.8284 -1.08825 59.5 -1.91668 59.5H-4.94049C-5.76891 59.5 -6.44049 58.8284 -6.44049 58Z" fill="#5999F8" fill-opacity="0.3"/>
        <path d="M2.63094 58C2.63094 57.1716 3.30251 56.5 4.13094 56.5H7.15475C7.98318 56.5 8.65475 57.1716 8.65475 58C8.65475 58.8284 7.98318 59.5 7.15475 59.5H4.13094C3.30251 59.5 2.63094 58.8284 2.63094 58Z" fill="#5999F8" fill-opacity="0.3"/>
        <path d="M11.7024 58C11.7024 57.1716 12.3739 56.5 13.2024 56.5H16.2262C17.0546 56.5 17.7262 57.1716 17.7262 58C17.7262 58.8284 17.0546 59.5 16.2262 59.5H13.2024C12.3739 59.5 11.7024 58.8284 11.7024 58Z" fill="#5999F8" fill-opacity="0.3"/>
        <path d="M20.7738 58C20.7738 57.1716 21.4454 56.5 22.2738 56.5H25.2976C26.126 56.5 26.7976 57.1716 26.7976 58C26.7976 58.8284 26.126 59.5 25.2976 59.5H22.2738C21.4454 59.5 20.7738 58.8284 20.7738 58Z" fill="#5999F8" fill-opacity="0.3"/>
        <path d="M29.8452 58C29.8452 57.1716 30.5168 56.5 31.3452 56.5H34.369C35.1975 56.5 35.869 57.1716 35.869 58C35.869 58.8284 35.1975 59.5 34.369 59.5H31.3452C30.5168 59.5 29.8452 58.8284 29.8452 58Z" fill="#5999F8" fill-opacity="0.3"/>
        <path d="M38.9166 58C38.9166 57.1716 39.5882 56.5 40.4166 56.5H43.4405C44.2689 56.5 44.9405 57.1716 44.9405 58C44.9405 58.8284 44.2689 59.5 43.4405 59.5H40.4166C39.5882 59.5 38.9166 58.8284 38.9166 58Z" fill="#5999F8" fill-opacity="0.3"/>
        <path d="M47.9881 58C47.9881 57.1716 48.6596 56.5 49.4881 56.5H51C51.8284 56.5 52.5 57.1716 52.5 58C52.5 58.8284 51.8284 59.5 51 59.5H49.4881C48.6596 59.5 47.9881 58.8284 47.9881 58Z" fill="#5999F8" fill-opacity="0.3"/>
        <path d="M-66 72.5C-66.8284 72.5 -67.5 73.1716 -67.5 74C-67.5 74.8284 -66.8284 75.5 -66 75.5H-64.4881C-63.6597 75.5 -62.9881 74.8284 -62.9881 74C-62.9881 73.1716 -63.6597 72.5 -64.4881 72.5H-66Z" fill="#5999F8" fill-opacity="0.3"/>
        <path d="M-58.4405 72.5C-59.2689 72.5 -59.9405 73.1716 -59.9405 74C-59.9405 74.8284 -59.2689 75.5 -58.4405 75.5H-55.4167C-54.5882 75.5 -53.9167 74.8284 -53.9167 74C-53.9167 73.1716 -54.5882 72.5 -55.4167 72.5H-58.4405Z" fill="#5999F8" fill-opacity="0.3"/>
        <path d="M-49.369 72.5C-50.1975 72.5 -50.869 73.1716 -50.869 74C-50.869 74.8284 -50.1975 75.5 -49.369 75.5H-46.3452C-45.5168 75.5 -44.8452 74.8284 -44.8452 74C-44.8452 73.1716 -45.5168 72.5 -46.3452 72.5H-49.369Z" fill="#5999F8" fill-opacity="0.3"/>
        <path d="M-40.2976 72.5C-41.126 72.5 -41.7976 73.1716 -41.7976 74C-41.7976 74.8284 -41.126 75.5 -40.2976 75.5H-37.2738C-36.4454 75.5 -35.7738 74.8284 -35.7738 74C-35.7738 73.1716 -36.4454 72.5 -37.2738 72.5H-40.2976Z" fill="#5999F8" fill-opacity="0.3"/>
        <path d="M-31.2262 72.5C-32.0546 72.5 -32.7262 73.1716 -32.7262 74C-32.7262 74.8284 -32.0546 75.5 -31.2262 75.5H-28.2024C-27.374 75.5 -26.7024 74.8284 -26.7024 74C-26.7024 73.1716 -27.374 72.5 -28.2024 72.5H-31.2262Z" fill="#5999F8" fill-opacity="0.3"/>
        <path d="M-22.1548 72.5C-22.9832 72.5 -23.6548 73.1716 -23.6548 74C-23.6548 74.8284 -22.9832 75.5 -22.1548 75.5H-19.131C-18.3025 75.5 -17.631 74.8284 -17.631 74C-17.631 73.1716 -18.3025 72.5 -19.131 72.5H-22.1548Z" fill="#5999F8" fill-opacity="0.3"/>
        <path d="M-13.0833 72.5C-13.9118 72.5 -14.5833 73.1716 -14.5833 74C-14.5833 74.8284 -13.9118 75.5 -13.0833 75.5H-10.0595C-9.23111 75.5 -8.55953 74.8284 -8.55953 74C-8.55953 73.1716 -9.23111 72.5 -10.0595 72.5H-13.0833Z" fill="#5999F8" fill-opacity="0.3"/>
        <path d="M-4.01192 72.5C-4.84034 72.5 -5.51192 73.1716 -5.51192 74C-5.51192 74.8284 -4.84034 75.5 -4.01192 75.5H-0.988106C-0.159683 75.5 0.511894 74.8284 0.511894 74C0.511894 73.1716 -0.159683 72.5 -0.988106 72.5H-4.01192Z" fill="#5999F8" fill-opacity="0.3"/>
        <path d="M5.05951 72.5C4.23109 72.5 3.55951 73.1716 3.55951 74C3.55951 74.8284 4.23109 75.5 5.05951 75.5H8.08332C8.91175 75.5 9.58332 74.8284 9.58332 74C9.58332 73.1716 8.91175 72.5 8.08332 72.5H5.05951Z" fill="#5999F8" fill-opacity="0.3"/>
        <path d="M14.1309 72.5C13.3025 72.5 12.6309 73.1716 12.6309 74C12.6309 74.8284 13.3025 75.5 14.1309 75.5H17.1547C17.9832 75.5 18.6547 74.8284 18.6547 74C18.6547 73.1716 17.9832 72.5 17.1547 72.5H14.1309Z" fill="#5999F8" fill-opacity="0.3"/>
        <path d="M23.2024 72.5C22.3739 72.5 21.7024 73.1716 21.7024 74C21.7024 74.8284 22.3739 75.5 23.2024 75.5H26.2262C27.0546 75.5 27.7262 74.8284 27.7262 74C27.7262 73.1716 27.0546 72.5 26.2262 72.5H23.2024Z" fill="#5999F8" fill-opacity="0.3"/>
        <path d="M32.2738 72.5C31.4454 72.5 30.7738 73.1716 30.7738 74C30.7738 74.8284 31.4454 75.5 32.2738 75.5H35.2976C36.126 75.5 36.7976 74.8284 36.7976 74C36.7976 73.1716 36.126 72.5 35.2976 72.5H32.2738Z" fill="#5999F8" fill-opacity="0.3"/>
        <path d="M41.3452 72.5C40.5168 72.5 39.8452 73.1716 39.8452 74C39.8452 74.8284 40.5168 75.5 41.3452 75.5H44.369C45.1975 75.5 45.869 74.8284 45.869 74C45.869 73.1716 45.1975 72.5 44.369 72.5H41.3452Z" fill="#5999F8" fill-opacity="0.3"/>
        <path d="M50.4166 72.5C49.5882 72.5 48.9166 73.1716 48.9166 74C48.9166 74.8284 49.5882 75.5 50.4166 75.5H53.4405C54.2689 75.5 54.9405 74.8284 54.9405 74C54.9405 73.1716 54.2689 72.5 53.4405 72.5H50.4166Z" fill="#5999F8" fill-opacity="0.3"/>
        <path d="M59.4881 72.5C58.6596 72.5 57.9881 73.1716 57.9881 74C57.9881 74.8284 58.6596 75.5 59.4881 75.5H61C61.8284 75.5 62.5 74.8284 62.5 74C62.5 73.1716 61.8284 72.5 61 72.5H59.4881Z" fill="#5999F8" fill-opacity="0.3"/>
        <path d="M225.5 71C225.5 70.1716 226.172 69.5 227 69.5H228.512C229.34 69.5 230.012 70.1716 230.012 71C230.012 71.8284 229.34 72.5 228.512 72.5H227C226.172 72.5 225.5 71.8284 225.5 71Z" fill="#5999F8" fill-opacity="0.3"/>
        <path d="M233.06 71C233.06 70.1716 233.731 69.5 234.56 69.5H237.583C238.412 69.5 239.083 70.1716 239.083 71C239.083 71.8284 238.412 72.5 237.583 72.5H234.56C233.731 72.5 233.06 71.8284 233.06 71Z" fill="#5999F8" fill-opacity="0.3"/>
        <path d="M242.131 71C242.131 70.1716 242.803 69.5 243.631 69.5H246.655C247.483 69.5 248.155 70.1716 248.155 71C248.155 71.8284 247.483 72.5 246.655 72.5H243.631C242.803 72.5 242.131 71.8284 242.131 71Z" fill="#5999F8" fill-opacity="0.3"/>
        <path d="M251.202 71C251.202 70.1716 251.874 69.5 252.702 69.5H255.726C256.555 69.5 257.226 70.1716 257.226 71C257.226 71.8284 256.555 72.5 255.726 72.5H252.702C251.874 72.5 251.202 71.8284 251.202 71Z" fill="#5999F8" fill-opacity="0.3"/>
        <path d="M260.274 71C260.274 70.1716 260.945 69.5 261.774 69.5H264.798C265.626 69.5 266.298 70.1716 266.298 71C266.298 71.8284 265.626 72.5 264.798 72.5H261.774C260.945 72.5 260.274 71.8284 260.274 71Z" fill="#5999F8" fill-opacity="0.3"/>
        <path d="M269.345 71C269.345 70.1716 270.017 69.5 270.845 69.5H273.869C274.697 69.5 275.369 70.1716 275.369 71C275.369 71.8284 274.697 72.5 273.869 72.5H270.845C270.017 72.5 269.345 71.8284 269.345 71Z" fill="#5999F8" fill-opacity="0.3"/>
        <path d="M278.417 71C278.417 70.1716 279.088 69.5 279.917 69.5H282.94C283.769 69.5 284.44 70.1716 284.44 71C284.44 71.8284 283.769 72.5 282.94 72.5H279.917C279.088 72.5 278.417 71.8284 278.417 71Z" fill="#5999F8" fill-opacity="0.3"/>
        <path d="M287.488 71C287.488 70.1716 288.16 69.5 288.988 69.5H292.012C292.84 69.5 293.512 70.1716 293.512 71C293.512 71.8284 292.84 72.5 292.012 72.5H288.988C288.16 72.5 287.488 71.8284 287.488 71Z" fill="#5999F8" fill-opacity="0.3"/>
        <path d="M296.56 71C296.56 70.1716 297.231 69.5 298.06 69.5H301.083C301.912 69.5 302.583 70.1716 302.583 71C302.583 71.8284 301.912 72.5 301.083 72.5H298.06C297.231 72.5 296.56 71.8284 296.56 71Z" fill="#5999F8" fill-opacity="0.3"/>
        <path d="M305.631 71C305.631 70.1716 306.302 69.5 307.131 69.5H310.155C310.983 69.5 311.655 70.1716 311.655 71C311.655 71.8284 310.983 72.5 310.155 72.5H307.131C306.302 72.5 305.631 71.8284 305.631 71Z" fill="#5999F8" fill-opacity="0.3"/>
        <path d="M314.702 71C314.702 70.1716 315.374 69.5 316.202 69.5H319.226C320.055 69.5 320.726 70.1716 320.726 71C320.726 71.8284 320.055 72.5 319.226 72.5H316.202C315.374 72.5 314.702 71.8284 314.702 71Z" fill="#5999F8" fill-opacity="0.3"/>
        <path d="M323.774 71C323.774 70.1716 324.445 69.5 325.274 69.5H328.298C329.126 69.5 329.798 70.1716 329.798 71C329.798 71.8284 329.126 72.5 328.298 72.5H325.274C324.445 72.5 323.774 71.8284 323.774 71Z" fill="#5999F8" fill-opacity="0.3"/>
        <path d="M332.845 71C332.845 70.1716 333.517 69.5 334.345 69.5H337.369C338.197 69.5 338.869 70.1716 338.869 71C338.869 71.8284 338.197 72.5 337.369 72.5H334.345C333.517 72.5 332.845 71.8284 332.845 71Z" fill="#5999F8" fill-opacity="0.3"/>
        <path d="M341.917 71C341.917 70.1716 342.588 69.5 343.417 69.5H346.44C347.269 69.5 347.94 70.1716 347.94 71C347.94 71.8284 347.269 72.5 346.44 72.5H343.417C342.588 72.5 341.917 71.8284 341.917 71Z" fill="#5999F8" fill-opacity="0.3"/>
        <path d="M350.988 71C350.988 70.1716 351.66 69.5 352.488 69.5H354C354.828 69.5 355.5 70.1716 355.5 71C355.5 71.8284 354.828 72.5 354 72.5H352.488C351.66 72.5 350.988 71.8284 350.988 71Z" fill="#5999F8" fill-opacity="0.3"/>
        <path d="M219 39.5C218.172 39.5 217.5 40.1716 217.5 41C217.5 41.8284 218.172 42.5 219 42.5H220.542C221.37 42.5 222.042 41.8284 222.042 41C222.042 40.1716 221.37 39.5 220.542 39.5H219Z" fill="#5999F8" fill-opacity="0.3"/>
        <path d="M226.708 39.5C225.88 39.5 225.208 40.1716 225.208 41C225.208 41.8284 225.88 42.5 226.708 42.5L229.792 42.5C230.62 42.5 231.292 41.8284 231.292 41C231.292 40.1716 230.62 39.5 229.792 39.5L226.708 39.5Z" fill="#5999F8" fill-opacity="0.3"/>
        <path d="M235.958 39.5C235.13 39.5 234.458 40.1716 234.458 41C234.458 41.8284 235.13 42.5 235.958 42.5H239.042C239.87 42.5 240.542 41.8284 240.542 41C240.542 40.1716 239.87 39.5 239.042 39.5H235.958Z" fill="#5999F8" fill-opacity="0.3"/>
        <path d="M245.208 39.5C244.38 39.5 243.708 40.1716 243.708 41C243.708 41.8284 244.38 42.5 245.208 42.5H248.292C249.12 42.5 249.792 41.8284 249.792 41C249.792 40.1716 249.12 39.5 248.292 39.5H245.208Z" fill="#5999F8" fill-opacity="0.3"/>
        <path d="M254.458 39.5C253.63 39.5 252.958 40.1716 252.958 41C252.958 41.8284 253.63 42.5 254.458 42.5H257.542C258.37 42.5 259.042 41.8284 259.042 41C259.042 40.1716 258.37 39.5 257.542 39.5H254.458Z" fill="#5999F8" fill-opacity="0.3"/>
        <path d="M263.708 39.5C262.88 39.5 262.208 40.1716 262.208 41C262.208 41.8284 262.88 42.5 263.708 42.5H266.792C267.62 42.5 268.292 41.8284 268.292 41C268.292 40.1716 267.62 39.5 266.792 39.5H263.708Z" fill="#5999F8" fill-opacity="0.3"/>
        <path d="M272.958 39.5C272.13 39.5 271.458 40.1716 271.458 41C271.458 41.8284 272.13 42.5 272.958 42.5H276.042C276.87 42.5 277.542 41.8284 277.542 41C277.542 40.1716 276.87 39.5 276.042 39.5H272.958Z" fill="#5999F8" fill-opacity="0.3"/>
        <path d="M282.208 39.5C281.38 39.5 280.708 40.1716 280.708 41C280.708 41.8284 281.38 42.5 282.208 42.5H285.292C286.12 42.5 286.792 41.8284 286.792 41C286.792 40.1716 286.12 39.5 285.292 39.5H282.208Z" fill="#5999F8" fill-opacity="0.3"/>
        <path d="M291.458 39.5C290.63 39.5 289.958 40.1716 289.958 41C289.958 41.8284 290.63 42.5 291.458 42.5H293C293.828 42.5 294.5 41.8284 294.5 41C294.5 40.1716 293.828 39.5 293 39.5H291.458Z" fill="#5999F8" fill-opacity="0.3"/>
        <path fill-rule="evenodd" clip-rule="evenodd" d="M145.159 57.2368L144.18 58.2163C144.049 58.3471 143.837 58.3471 143.706 58.2163L142.726 57.2369C142.596 57.1061 142.596 56.894 142.726 56.7633L143.706 55.7837C143.837 55.6528 144.049 55.6528 144.18 55.7837L145.159 56.7632C145.29 56.894 145.29 57.106 145.159 57.2368ZM147.208 56.0035L144.939 53.7346C144.389 53.1843 143.497 53.1843 142.946 53.7346L140.677 56.0037C140.127 56.554 140.127 57.4462 140.677 57.9967L142.946 60.2655C143.497 60.8158 144.389 60.8158 144.939 60.2655L147.208 57.9964C147.759 57.446 147.759 56.5537 147.208 56.0035Z" fill="#2CBDEE"/>
        <path fill-rule="evenodd" clip-rule="evenodd" d="M140.173 41C139.055 41 138.15 41.9057 138.15 43.023V47.2119L134.494 45.1015C133.527 44.5429 132.29 44.8744 131.731 45.842C131.172 46.8096 131.504 48.0468 132.471 48.6054L138.889 52.3105C139.238 52.5976 139.685 52.7701 140.173 52.7701C141.29 52.7701 142.196 51.8644 142.196 50.7471V43.023C142.196 41.9057 141.29 41 140.173 41Z" fill="#2CBDEE"/>
        <path fill-rule="evenodd" clip-rule="evenodd" d="M138.582 57.7677C138.595 57.7374 138.607 57.7071 138.618 57.6762C138.63 57.6416 138.641 57.6069 138.651 57.572C138.659 57.5451 138.667 57.5185 138.674 57.4914C138.683 57.454 138.691 57.4166 138.698 57.3789C138.703 57.3523 138.708 57.3258 138.712 57.2991C138.718 57.2623 138.722 57.2256 138.725 57.1886C138.728 57.1593 138.73 57.13 138.732 57.1006C138.734 57.0671 138.734 57.0336 138.734 57C138.734 56.9665 138.734 56.9331 138.732 56.8995C138.73 56.87 138.728 56.8408 138.725 56.8115C138.722 56.7745 138.718 56.7379 138.712 56.7009C138.708 56.6742 138.703 56.6477 138.698 56.6212C138.691 56.5836 138.683 56.5461 138.674 56.5087C138.667 56.4817 138.659 56.4549 138.651 56.4282C138.641 56.3932 138.63 56.3585 138.618 56.3239C138.607 56.293 138.595 56.2626 138.582 56.2323C138.57 56.2031 138.558 56.1741 138.545 56.1453C138.528 56.1089 138.509 56.0733 138.49 56.0379C138.481 56.0215 138.474 56.0047 138.465 55.9885C138.461 55.9823 138.457 55.9768 138.453 55.9706C138.431 55.9328 138.406 55.8963 138.381 55.86C138.368 55.8404 138.355 55.8202 138.342 55.8013C138.318 55.7688 138.292 55.7377 138.266 55.7064C138.248 55.6854 138.231 55.6637 138.213 55.6435C138.19 55.6185 138.166 55.595 138.142 55.5709C138.118 55.5469 138.094 55.5223 138.069 55.4997C138.049 55.4816 138.027 55.4647 138.006 55.4472C137.975 55.4212 137.944 55.3951 137.911 55.3712C137.892 55.3573 137.872 55.3445 137.853 55.3312C137.816 55.3064 137.78 55.282 137.742 55.2597C137.736 55.2561 137.73 55.2517 137.724 55.2481L131.035 51.386C130.067 50.8273 128.83 51.1589 128.271 52.1264C127.713 53.0941 128.044 54.3313 129.012 54.8899L132.667 57L129.012 59.1102C128.044 59.6688 127.713 60.9061 128.271 61.8736C128.83 62.8412 130.067 63.1727 131.035 62.6141L137.724 58.752C137.73 58.7483 137.736 58.744 137.742 58.7403C137.78 58.7181 137.816 58.6936 137.853 58.6689C137.872 58.6555 137.892 58.6429 137.911 58.6288C137.944 58.6049 137.975 58.5789 138.006 58.5529C138.027 58.5355 138.049 58.5186 138.069 58.5003C138.094 58.4777 138.118 58.4533 138.142 58.4292C138.166 58.4052 138.19 58.3815 138.213 58.3564C138.231 58.3364 138.248 58.3147 138.266 58.2938C138.292 58.2626 138.318 58.2314 138.342 58.1987C138.355 58.1798 138.368 58.1597 138.381 58.1402C138.406 58.1037 138.431 58.0672 138.453 58.0295C138.457 58.0233 138.461 58.0178 138.465 58.0115C138.474 57.9954 138.481 57.9786 138.49 57.9623C138.509 57.9267 138.528 57.8912 138.545 57.8546C138.558 57.826 138.57 57.7968 138.582 57.7677Z" fill="#2CBDEE"/>
        <path fill-rule="evenodd" clip-rule="evenodd" d="M140.173 61.23C139.685 61.23 139.238 61.4024 138.889 61.6896L132.471 65.3946C131.504 65.9532 131.172 67.1905 131.731 68.1581C132.29 69.1256 133.527 69.4572 134.494 68.8986L138.15 66.7882V70.9771C138.15 72.0944 139.055 73.0001 140.173 73.0001C141.29 73.0001 142.196 72.0944 142.196 70.9771V63.253C142.196 62.1357 141.29 61.23 140.173 61.23Z" fill="#2CBDEE"/>
        <path fill-rule="evenodd" clip-rule="evenodd" d="M155.414 65.3946L148.997 61.6896C148.647 61.4024 148.2 61.23 147.713 61.23C146.596 61.23 145.69 62.1357 145.69 63.253V70.9771C145.69 72.0944 146.596 73.0001 147.713 73.0001C148.83 73.0001 149.736 72.0944 149.736 70.9771V66.7882L153.391 68.8985C154.359 69.4572 155.596 69.1256 156.155 68.1581C156.713 67.1905 156.382 65.9532 155.414 65.3946Z" fill="#2CBDEE"/>
        <path fill-rule="evenodd" clip-rule="evenodd" d="M158.874 59.1101L155.219 57.0001L158.874 54.8899C159.841 54.3313 160.173 53.094 159.614 52.1265C159.056 51.1589 157.818 50.8274 156.851 51.386L150.161 55.2481C150.155 55.2517 150.15 55.2561 150.143 55.2597C150.106 55.282 150.069 55.3065 150.033 55.3312C150.013 55.3445 149.993 55.3572 149.974 55.3712C149.941 55.3952 149.91 55.4212 149.879 55.4471C149.858 55.4646 149.837 55.4815 149.816 55.4997C149.791 55.5223 149.768 55.5468 149.744 55.5709C149.72 55.5949 149.695 55.6185 149.672 55.6436C149.654 55.6638 149.637 55.6854 149.62 55.7064C149.594 55.7376 149.568 55.7687 149.544 55.8014C149.53 55.8203 149.517 55.8403 149.504 55.8599C149.479 55.8963 149.455 55.9328 149.433 55.9705C149.429 55.9768 149.424 55.9822 149.421 55.9886C149.412 56.0048 149.404 56.0215 149.396 56.0379C149.377 56.0734 149.358 56.1088 149.341 56.1454C149.327 56.174 149.315 56.2032 149.303 56.2323C149.291 56.2626 149.278 56.2929 149.268 56.3238C149.255 56.3584 149.245 56.3932 149.234 56.4281C149.226 56.4549 149.219 56.4816 149.212 56.5087C149.202 56.5461 149.194 56.5835 149.187 56.6212C149.182 56.6478 149.177 56.6743 149.173 56.7009C149.168 56.7378 149.164 56.7746 149.16 56.8115C149.157 56.8407 149.155 56.87 149.154 56.8995C149.152 56.933 149.151 56.9665 149.151 57.0001C149.151 57.0335 149.152 57.067 149.154 57.1006C149.155 57.1301 149.157 57.1592 149.16 57.1887C149.164 57.2255 149.168 57.2622 149.173 57.2991C149.177 57.3259 149.182 57.3523 149.187 57.3788C149.194 57.4165 149.202 57.454 149.212 57.4914C149.219 57.5184 149.226 57.5451 149.234 57.5719C149.245 57.6069 149.255 57.6415 149.268 57.6761C149.278 57.7071 149.291 57.7374 149.303 57.7677C149.315 57.7969 149.327 57.8259 149.341 57.8547C149.358 57.8912 149.377 57.9268 149.396 57.9624C149.404 57.9786 149.412 57.9954 149.421 58.0116C149.424 58.0177 149.429 58.0233 149.432 58.0295C149.455 58.0672 149.479 58.1038 149.504 58.1401C149.517 58.1597 149.53 58.1798 149.544 58.1987C149.568 58.2313 149.594 58.2625 149.62 58.2938C149.638 58.3147 149.654 58.3363 149.672 58.3565C149.695 58.3815 149.72 58.4051 149.744 58.4292C149.768 58.4532 149.791 58.4777 149.816 58.5003C149.837 58.5185 149.858 58.5354 149.879 58.5528C149.91 58.5789 149.941 58.6049 149.974 58.6289C149.993 58.6428 150.013 58.6555 150.033 58.6689C150.069 58.6937 150.106 58.7181 150.143 58.7404C150.15 58.7441 150.155 58.7483 150.161 58.752L156.851 62.6141C157.818 63.1728 159.056 62.8412 159.614 61.8736C160.173 60.906 159.841 59.6688 158.874 59.1101Z" fill="#2CBDEE"/>
        <path fill-rule="evenodd" clip-rule="evenodd" d="M156.155 45.842C155.596 44.8745 154.359 44.5429 153.391 45.1015L149.736 47.2119V43.023C149.736 41.9057 148.83 41 147.713 41C146.596 41 145.69 41.9057 145.69 43.023V50.7471C145.69 51.8645 146.596 52.7701 147.713 52.7701C148.2 52.7701 148.647 52.5976 148.997 52.3105L155.414 48.6054C156.382 48.0469 156.713 46.8096 156.155 45.842Z" fill="#2CBDEE"/>
    </g>
    <defs>
        <clipPath id="clip0_402_1135">
            <rect width="290.667" height="113" rx="12" fill="white"/>
        </clipPath>
    </defs>
</svg>
