<svg width="291" height="113" viewBox="0 0 291 113" fill="none" xmlns="http://www.w3.org/2000/svg">
    <rect width="290.667" height="113" rx="12" fill="#F1F7FF"/>
    <path fill-rule="evenodd" clip-rule="evenodd" d="M206.258 46.1254C203.573 38.4807 196.29 33 187.727 33C177.274 33 168.728 41.1686 168.125 51.4709C168.102 51.8565 168.091 52.2451 168.091 52.6364C168.091 53.374 168.132 54.1022 168.211 54.8187C168.171 54.8184 168.131 54.8182 168.091 54.8182C167.058 54.8182 166.053 54.9378 165.09 55.1638C159.306 56.5205 155 61.7119 155 67.9091C155 75.139 160.861 81 168.091 81H207.364C217.004 81 224.818 73.1853 224.818 63.5455C224.818 53.9056 217.004 46.0909 207.364 46.0909C206.992 46.0909 206.624 46.1025 206.258 46.1254ZM107.5 56.5C106.672 56.5 106 57.1716 106 58C106 58.8284 106.672 59.5 107.5 59.5H108.917C109.745 59.5 110.417 58.8284 110.417 58C110.417 57.1716 109.745 56.5 108.917 56.5H107.5ZM114.583 56.5C113.755 56.5 113.083 57.1716 113.083 58C113.083 58.8284 113.755 59.5 114.583 59.5H117.417C118.245 59.5 118.917 58.8284 118.917 58C118.917 57.1716 118.245 56.5 117.417 56.5H114.583ZM123.083 56.5C122.255 56.5 121.583 57.1716 121.583 58C121.583 58.8284 122.255 59.5 123.083 59.5H125.917C126.745 59.5 127.417 58.8284 127.417 58C127.417 57.1716 126.745 56.5 125.917 56.5H123.083ZM131.583 56.5C130.755 56.5 130.083 57.1716 130.083 58C130.083 58.8284 130.755 59.5 131.583 59.5H134.417C135.245 59.5 135.917 58.8284 135.917 58C135.917 57.1716 135.245 56.5 134.417 56.5H131.583ZM140.083 56.5C139.255 56.5 138.583 57.1716 138.583 58C138.583 58.8284 139.255 59.5 140.083 59.5H142.917C143.745 59.5 144.417 58.8284 144.417 58C144.417 57.1716 143.745 56.5 142.917 56.5H140.083ZM148.583 56.5C147.755 56.5 147.083 57.1716 147.083 58C147.083 58.8284 147.755 59.5 148.583 59.5H150C150.828 59.5 151.5 58.8284 151.5 58C151.5 57.1716 150.828 56.5 150 56.5H148.583Z" fill="#5999F8" fill-opacity="0.3"/>
    <path d="M73.3555 63.1445H91.3555V61.1445H73.3555V63.1445Z" fill="#5393F2"/>
    <path d="M91.3555 58.1445H73.3555V56.1445H91.3555V58.1445Z" fill="#5393F2"/>
    <path d="M73.3555 68.1445H87.3555V66.1445H73.3555V68.1445Z" fill="#5393F2"/>
    <path fill-rule="evenodd" clip-rule="evenodd" d="M72 38L82.5787 38C84.0134 38 85.4005 38.5141 86.4887 39.449L96.6187 48.1522C97.9454 49.2921 98.7087 50.9541 98.7087 52.7032V70.2829C98.7087 73.6009 96.0157 76.2889 92.6977 76.2829L71.989 76.245C68.6796 76.239 66 73.5545 66 70.2451V44C66 40.6863 68.6863 38 72 38ZM82.5787 40L72 40C69.7909 40 68 41.7909 68 44V70.2451C68 72.4513 69.7864 74.241 71.9927 74.245L92.7014 74.2829C94.9134 74.2869 96.7087 72.4949 96.7087 70.2829V52.7032C96.7087 52.3498 96.6619 52.0016 96.5721 51.6669H89.4556C86.1419 51.6669 83.4556 48.9806 83.4556 45.6669V40.0973C83.1697 40.033 82.8757 40 82.5787 40ZM85.4556 41.1981L95.3127 49.6669H89.4556C87.2464 49.6669 85.4556 47.876 85.4556 45.6669V41.1981Z" fill="#5393F2"/>
</svg>
