<svg width="291" height="113" viewBox="0 0 291 113" fill="none" xmlns="http://www.w3.org/2000/svg">
    <rect width="290.667" height="113" rx="12" fill="#F1F7FF"/>
    <path d="M122.714 81.8H137.286V79.4H122.714V81.8Z" fill="#5393F2"/>
    <path fill-rule="evenodd" clip-rule="evenodd" d="M147 84.2V76.3756C147 74.9434 146.482 73.5583 145.538 72.4709L140.876 67.0953C139.722 65.7654 138.038 65 136.266 65H123.734C121.962 65 120.278 65.7654 119.124 67.0953L114.462 72.4709C113.518 73.5583 113 74.9434 113 76.3756V84.2C113 86.851 115.175 89 117.857 89H142.143C144.825 89 147 86.851 147 84.2ZM123.734 67.4C122.671 67.4 121.66 67.8592 120.968 68.6572L117.895 72.2H142.105L139.032 68.6572C138.34 67.8592 137.329 67.4 136.266 67.4H123.734ZM115.429 77C115.429 75.6745 116.516 74.6 117.857 74.6H142.143C143.484 74.6 144.571 75.6745 144.571 77V84.2C144.571 85.5255 143.484 86.6 142.143 86.6H117.857C116.516 86.6 115.429 85.5255 115.429 84.2V77Z" fill="#5393F2"/>
    <path fill-rule="evenodd" clip-rule="evenodd" d="M205.143 39.1909H236.855C238.67 39.1909 240.141 40.6622 240.141 42.4771V49.6196L201.857 49.6196V42.4771C201.857 40.6622 203.328 39.1909 205.143 39.1909ZM199.666 51.8105V49.6196V42.4771C199.666 39.4522 202.118 37 205.143 37H236.855C239.88 37 242.332 39.4522 242.332 42.4771V49.6196V51.8105V71.1413C242.332 74.1662 239.88 76.6184 236.855 76.6184H205.143C202.118 76.6184 199.666 74.1662 199.666 71.1413V51.8105ZM240.141 63.9999V71.1413C240.141 72.9563 238.67 74.4276 236.855 74.4276H222.094V63.9999H240.141ZM240.141 61.8091V51.8105L222.094 51.8105V61.8091H240.141ZM219.903 61.8091V51.8105L201.857 51.8105V61.8091H219.903ZM201.857 63.9999V71.1413C201.857 72.9563 203.328 74.4276 205.143 74.4276H219.903V63.9999H201.857Z" fill="#5393F2"/>
    <path d="M120.642 27.7376C122.476 27.7376 123.963 26.2292 123.963 24.3687C123.963 22.5082 122.476 21 120.642 21C118.807 21 117.32 22.5082 117.32 24.3687C117.32 26.2292 118.808 27.7376 120.642 27.7376Z" fill="#5393F2"/>
    <path d="M120.642 27.7376C116.431 27.7376 114.675 30.7212 114.076 32.7799C113.816 33.6713 114.569 34.4382 115.486 34.4382H125.848C126.764 34.4382 127.517 33.6713 127.258 32.7799C126.658 30.7212 124.853 27.7376 120.642 27.7376Z" fill="#5393F2"/>
    <path d="M114 43.4973V36.7431H116.214V43.4973C116.214 44.7407 117.206 45.7486 118.429 45.7486H140.571C141.794 45.7486 142.786 44.7407 142.786 43.4973V36.7431C142.786 35.4997 141.794 34.4918 140.571 34.4918H129.5V32.2404H140.537L137.735 28.9169C137.104 28.1684 136.183 27.7376 135.213 27.7376H129.5V25.4863H135.213C136.829 25.4863 138.364 26.2042 139.416 27.4518L143.667 32.4945C144.527 33.5146 145 34.8139 145 36.1574V43.4973C145 45.9841 143.017 48 140.571 48H118.429C115.983 48 114 45.9841 114 43.4973Z" fill="#5393F2"/>
    <path d="M136.143 41.2459V38.9945H122.857V41.2459H136.143Z" fill="#5393F2"/>
    <path d="M49 34C49 31.7909 50.7909 30 53 30H62C64.2091 30 66 31.7909 66 34V49C66 51.2091 64.2091 53 62 53H53C50.7909 53 49 51.2091 49 49V34Z" fill="#5999F8" fill-opacity="0.3"/>
    <path d="M49 74C49 71.7909 50.7909 70 53 70H62C64.2091 70 66 71.7909 66 74V89C66 91.2091 64.2091 93 62 93H53C50.7909 93 49 91.2091 49 89V74Z" fill="#5999F8" fill-opacity="0.3"/>
    <path d="M149.166 39C148.338 39 147.666 39.6716 147.666 40.5C147.666 41.3284 148.338 42 149.166 42H150.784C151.613 42 152.284 41.3284 152.284 40.5C152.284 39.6716 151.613 39 150.784 39H149.166Z" fill="#5999F8" fill-opacity="0.3"/>
    <path d="M157.257 39C156.428 39 155.757 39.6716 155.757 40.5C155.757 41.3284 156.428 42 157.257 42H158.875C159.31 42 159.742 42.0179 160.171 42.0532C160.997 42.1212 161.721 41.5069 161.789 40.6813C161.857 39.8556 161.243 39.1313 160.417 39.0633C159.907 39.0213 159.392 39 158.875 39H157.257Z" fill="#5999F8" fill-opacity="0.3"/>
    <path d="M71.666 39.5C70.8376 39.5 70.166 40.1716 70.166 41C70.166 41.8284 70.8376 42.5 71.666 42.5H73.2077C74.0361 42.5 74.7077 41.8284 74.7077 41C74.7077 40.1716 74.0361 39.5 73.2077 39.5H71.666Z" fill="#5999F8" fill-opacity="0.3"/>
    <path d="M79.3743 39.5C78.5459 39.5 77.8743 40.1716 77.8743 41C77.8743 41.8284 78.5459 42.5 79.3743 42.5H82.4577C83.2861 42.5 83.9577 41.8284 83.9577 41C83.9577 40.1716 83.2861 39.5 82.4577 39.5H79.3743Z" fill="#5999F8" fill-opacity="0.3"/>
    <path d="M88.6243 39.5C87.7959 39.5 87.1243 40.1716 87.1243 41C87.1243 41.8284 87.7959 42.5 88.6243 42.5H91.7077C92.5361 42.5 93.2077 41.8284 93.2077 41C93.2077 40.1716 92.5361 39.5 91.7077 39.5H88.6243Z" fill="#5999F8" fill-opacity="0.3"/>
    <path d="M97.8743 39.5C97.0459 39.5 96.3743 40.1716 96.3743 41C96.3743 41.8284 97.0459 42.5 97.8743 42.5H100.958C101.786 42.5 102.458 41.8284 102.458 41C102.458 40.1716 101.786 39.5 100.958 39.5H97.8743Z" fill="#5999F8" fill-opacity="0.3"/>
    <path d="M107.124 39.5C106.296 39.5 105.624 40.1716 105.624 41C105.624 41.8284 106.296 42.5 107.124 42.5H108.666C109.494 42.5 110.166 41.8284 110.166 41C110.166 40.1716 109.494 39.5 108.666 39.5H107.124Z" fill="#5999F8" fill-opacity="0.3"/>
    <path d="M166.38 40.5646C165.621 40.2336 164.737 40.5808 164.406 41.3402C164.075 42.0996 164.422 42.9836 165.181 43.3147C165.975 43.6606 166.738 44.0711 167.465 44.5421C168.16 44.993 169.089 44.795 169.539 44.0999C169.99 43.4049 169.792 42.476 169.097 42.0252C168.233 41.4648 167.324 40.9762 166.38 40.5646Z" fill="#5999F8" fill-opacity="0.3"/>
    <path d="M173.639 46.1709C173.126 45.5197 172.183 45.4069 171.532 45.919C170.881 46.4311 170.768 47.3741 171.28 48.0253C171.546 48.3638 171.8 48.7146 172.04 49.0774C172.325 49.5089 172.627 49.9263 172.943 50.3291C173.456 50.9803 174.399 51.0931 175.05 50.581C175.701 50.0689 175.814 49.1259 175.302 48.4747C175.036 48.1362 174.782 47.7854 174.542 47.4226C174.257 46.9911 173.955 46.5737 173.639 46.1709Z" fill="#5999F8" fill-opacity="0.3"/>
    <path d="M179.117 51.9579C178.422 51.507 177.493 51.705 177.043 52.4001C176.592 53.0951 176.79 54.024 177.485 54.4748C178.349 55.0352 179.258 55.5238 180.202 55.9354C180.961 56.2664 181.845 55.9192 182.176 55.1598C182.507 54.4004 182.16 53.5164 181.401 53.1853C180.607 52.8394 179.844 52.4289 179.117 51.9579Z" fill="#5999F8" fill-opacity="0.3"/>
    <path d="M186.411 54.4468C185.585 54.3788 184.861 54.9931 184.793 55.8187C184.725 56.6444 185.339 57.3687 186.165 57.4367C186.675 57.4787 187.19 57.5 187.707 57.5H188.784C189.612 57.5 190.284 56.8284 190.284 56C190.284 55.1716 189.612 54.5 188.784 54.5H187.707C187.272 54.5 186.84 54.4821 186.411 54.4468Z" fill="#5999F8" fill-opacity="0.3"/>
    <path d="M193.09 54.5C192.261 54.5 191.59 55.1716 191.59 56C191.59 56.8284 192.261 57.5 193.09 57.5H194.166C194.994 57.5 195.666 56.8284 195.666 56C195.666 55.1716 194.994 54.5 194.166 54.5H193.09Z" fill="#5999F8" fill-opacity="0.3"/>
    <path d="M188.829 62.5725C189.314 62.5245 189.804 62.5 190.299 62.5H191.082C191.911 62.5 192.582 61.8284 192.582 61C192.582 60.1716 191.911 59.5 191.082 59.5H190.299C189.705 59.5 189.116 59.5294 188.534 59.5871C187.709 59.6688 187.107 60.4033 187.189 61.2276C187.271 62.052 188.005 62.6542 188.829 62.5725Z" fill="#5999F8" fill-opacity="0.3"/>
    <path d="M194.216 59.5C193.388 59.5 192.716 60.1716 192.716 61C192.716 61.8284 193.388 62.5 194.216 62.5H195C195.828 62.5 196.5 61.8284 196.5 61C196.5 60.1716 195.828 59.5 195 59.5H194.216Z" fill="#5999F8" fill-opacity="0.3"/>
    <path d="M183.241 64.2836C183.97 63.8898 184.241 62.9798 183.848 62.2509C183.454 61.522 182.544 61.2503 181.815 61.644C180.777 62.2045 179.797 62.8665 178.89 63.6199C178.253 64.1491 178.165 65.0948 178.694 65.7321C179.223 66.3695 180.169 66.4572 180.806 65.928C181.561 65.301 182.377 64.75 183.241 64.2836Z" fill="#5999F8" fill-opacity="0.3"/>
    <path d="M177.132 70.4738C177.516 69.7395 177.232 68.8334 176.497 68.4498C175.763 68.0663 174.857 68.3507 174.473 69.085C174.202 69.6039 173.955 70.1393 173.733 70.69C173.549 71.1488 173.343 71.5945 173.118 72.0262C172.734 72.7605 173.018 73.6666 173.753 74.0502C174.487 74.4337 175.393 74.1493 175.777 73.415C176.048 72.8961 176.295 72.3607 176.517 71.81C176.701 71.3512 176.907 70.9055 177.132 70.4738Z" fill="#5999F8" fill-opacity="0.3"/>
    <path d="M171.36 78.8801C171.998 78.3509 172.085 77.4052 171.556 76.7679C171.027 76.1305 170.081 76.0428 169.444 76.572C168.689 77.199 167.873 77.75 167.009 78.2164C166.28 78.6102 166.009 79.5202 166.402 80.2491C166.796 80.978 167.706 81.2497 168.435 80.856C169.473 80.2955 170.453 79.6335 171.36 78.8801Z" fill="#5999F8" fill-opacity="0.3"/>
    <path d="M161.716 82.9129C162.541 82.8312 163.143 82.0967 163.061 81.2724C162.979 80.448 162.245 79.8458 161.421 79.9275C160.936 79.9755 160.446 80 159.951 80H158.626C157.797 80 157.126 80.6716 157.126 81.5C157.126 82.3284 157.797 83 158.626 83H159.951C160.545 83 161.134 82.9706 161.716 82.9129Z" fill="#5999F8" fill-opacity="0.3"/>
    <path d="M152 80C151.172 80 150.5 80.6716 150.5 81.5C150.5 82.3284 151.172 83 152 83H153.325C154.154 83 154.825 82.3284 154.825 81.5C154.825 80.6716 154.154 80 153.325 80H152Z" fill="#5999F8" fill-opacity="0.3"/>
    <path d="M68.5 81C68.5 80.1716 69.1716 79.5 70 79.5H71.5417C72.3701 79.5 73.0417 80.1716 73.0417 81C73.0417 81.8284 72.3701 82.5 71.5417 82.5H70C69.1716 82.5 68.5 81.8284 68.5 81Z" fill="#5999F8" fill-opacity="0.3"/>
    <path d="M76.2083 81C76.2083 80.1716 76.8799 79.5 77.7083 79.5H80.7917C81.6201 79.5 82.2917 80.1716 82.2917 81C82.2917 81.8284 81.6201 82.5 80.7917 82.5H77.7083C76.8799 82.5 76.2083 81.8284 76.2083 81Z" fill="#5999F8" fill-opacity="0.3"/>
    <path d="M85.4583 81C85.4583 80.1716 86.1299 79.5 86.9583 79.5H90.0417C90.8701 79.5 91.5417 80.1716 91.5417 81C91.5417 81.8284 90.8701 82.5 90.0417 82.5H86.9583C86.1299 82.5 85.4583 81.8284 85.4583 81Z" fill="#5999F8" fill-opacity="0.3"/>
    <path d="M94.7083 81C94.7083 80.1716 95.3799 79.5 96.2083 79.5H99.2917C100.12 79.5 100.792 80.1716 100.792 81C100.792 81.8284 100.12 82.5 99.2917 82.5H96.2083C95.3799 82.5 94.7083 81.8284 94.7083 81Z" fill="#5999F8" fill-opacity="0.3"/>
    <path d="M103.958 81C103.958 80.1716 104.63 79.5 105.458 79.5H107C107.828 79.5 108.5 80.1716 108.5 81C108.5 81.8284 107.828 82.5 107 82.5H105.458C104.63 82.5 103.958 81.8284 103.958 81Z" fill="#5999F8" fill-opacity="0.3"/>
</svg>
