<svg width="16" height="16" viewBox="0 0 16 16" fill="black" stroke="black" stroke-width="1%" xmlns="http://www.w3.org/2000/svg" role="presentation"><path d="M 6 6.5501 C 6 5.64738 6.65965 4.93871 7.5 4.73403 V 4 H 8.5V4.73403 C 9.34035 4.93871 10 5.64738 10 6.5501 H 9 C 9 6.106 8.59376 5.67406 8 5.67406 C 7.40624 5.67406 7 6.106 7 6.5501 C 7 6.99421 7.40624 7.42615 8 7.42615 C 9.0631 7.42615 10 8.22636 10 9.30219 C 10 10.2081 9.33035 10.9142 8.48975 11.1183 V 12 H 7.48975 V 11.1182 C 6.64962 10.9129 6 10.2016 6 9.30219 H 7 C 7 9.75057 7.40063 10.1782 7.98975 10.1782 C 8.58811 10.1782 9 9.7421 9 9.30219 C 9 8.85809 8.59376 8.42615 8 8.42615 C 6.9369 8.42615 6 7.62594 6 6.5501 Z"></path><path fill-rule="evenodd" clip-rule="evenodd" d="M 3.5 1 C 2.11929 1 1 2.11929 1 3.5 V 12.5 C 1 13.8807 2.11929 15 3.5 15 H 12.5 C 13.8807 15 15 13.8807 15 12.5 V 3.5 C 15 2.11929 13.8807 1 12.5 1 H 3.5 Z M 2 3.5 C 2 2.67157 2.67157 2 3.5 2 H 12.5 C 13.3284 2 14 2.67157 14 3.5 V 12.5C 14 13.3284 13.3284 14 12.5 14 H 3.5 C 2.67157 14 2 13.3284 2 12.5 V 3.5 Z"></path></svg>
