<svg width="168" height="60" viewBox="0 0 168 60" fill="none" xmlns="http://www.w3.org/2000/svg">
<path d="M104.25 4H63.75C60.0221 4 57 7.01319 57 10.7302V50.2698C57 53.9868 60.0221 57 63.75 57H104.25C107.978 57 111 53.9868 111 50.2698V10.7302C111 7.01319 107.978 4 104.25 4Z" fill="#1C70FF"/>
<path d="M68.1383 49.5699C69.8351 49.5699 70.9666 48.5923 70.9666 47.3842C70.9666 46.2889 70.2216 45.8262 69.2133 45.4973L67.3106 44.8874C66.8466 44.746 66.6339 44.534 66.6339 44.2228C66.6339 43.8097 67.0786 43.4572 67.7755 43.4572C68.5729 43.4572 69.2293 43.8501 69.5221 44.4238L70.8046 44.0511C70.4215 43.0744 69.2901 42.2382 67.7654 42.2382C66.2905 42.2382 65.2198 43.1653 65.2299 44.2623C65.2198 45.1692 65.8965 45.7631 66.8255 46.055L68.6336 46.6187C69.3103 46.8408 69.5626 47.0923 69.5626 47.465C69.5626 47.9277 69.0479 48.3509 68.2193 48.3509C67.1992 48.3509 66.4821 47.767 66.1994 47.0318L64.8764 47.4347C65.2704 48.5326 66.412 49.5699 68.1383 49.5699V49.5699ZM75.8553 44.333V44.9471C75.4916 44.4844 74.9255 44.1925 74.2083 44.1925C72.795 44.1925 71.6838 45.3299 71.6838 46.8812C71.6838 48.4215 72.795 49.5699 74.2083 49.5699C74.9255 49.5699 75.4908 49.267 75.8553 48.8043V51.5435H77.1985V44.3338H75.8553V44.333ZM74.4412 48.3811C73.6025 48.3811 73.0068 47.7569 73.0068 46.8711C73.0068 45.9945 73.6025 45.3803 74.4412 45.3803C75.2486 45.3803 75.8949 45.9945 75.8949 46.8711C75.8949 47.7569 75.2486 48.3811 74.4412 48.3811ZM78.5114 49.4285H79.8445V42.0775H78.5114V49.4285V49.4285ZM84.2278 42.3795H81.1566V49.4285H84.2278C86.3077 49.4285 87.6112 47.9378 87.6112 45.9036C87.6112 43.8299 86.2882 42.3795 84.2278 42.3795ZM84.1974 48.1801H82.531V43.6179H84.1974C85.4091 43.6179 86.2174 44.5349 86.2174 45.8742C86.2174 47.2337 85.4091 48.1792 84.1974 48.1792V48.1801ZM93.4584 45.7328C94.0043 45.4409 94.3376 44.937 94.3376 44.2623C94.3275 43.1451 93.3876 42.3795 92.0047 42.3795H88.6313V49.4285H92.1962C93.7014 49.4285 94.6 48.6428 94.6 47.4347C94.6 46.6389 94.1554 46.0449 93.4584 45.7328V45.7328ZM91.9945 43.5674C92.5801 43.5573 92.9733 43.93 92.9733 44.4238C92.9842 44.9067 92.6003 45.3097 92.0249 45.3097H89.9847V43.5682H91.9945V43.5674ZM92.1861 48.2306H89.9839V46.3974H92.1962C92.8526 46.3974 93.2264 46.8004 93.2264 47.3035C93.2264 47.8167 92.8425 48.2306 92.1861 48.2306V48.2306ZM101.569 42.3795H102.892V49.4285H101.508V44.7864L99.2558 47.8983L97.003 44.7856V49.4285H95.6193V42.3795H96.9431L99.2558 45.7126L101.569 42.3795V42.3795Z" fill="black"/>
<path d="M68.1383 49.5699C69.8351 49.5699 70.9666 48.5923 70.9666 47.3842C70.9666 46.2889 70.2216 45.8262 69.2133 45.4973L67.3106 44.8874C66.8466 44.746 66.6339 44.534 66.6339 44.2228C66.6339 43.8097 67.0786 43.4572 67.7755 43.4572C68.5729 43.4572 69.2293 43.8501 69.5221 44.4238L70.8046 44.0511C70.4215 43.0744 69.2901 42.2382 67.7654 42.2382C66.2905 42.2382 65.2198 43.1653 65.2299 44.2623C65.2198 45.1692 65.8965 45.7631 66.8255 46.055L68.6336 46.6187C69.3103 46.8408 69.5626 47.0923 69.5626 47.465C69.5626 47.9277 69.0479 48.3509 68.2193 48.3509C67.1992 48.3509 66.4821 47.767 66.1994 47.0318L64.8764 47.4347C65.2704 48.5326 66.412 49.5699 68.1383 49.5699V49.5699ZM75.8553 44.333V44.9471C75.4916 44.4844 74.9255 44.1925 74.2083 44.1925C72.795 44.1925 71.6838 45.3299 71.6838 46.8812C71.6838 48.4215 72.795 49.5699 74.2083 49.5699C74.9255 49.5699 75.4908 49.267 75.8553 48.8043V51.5435H77.1985V44.3338H75.8553V44.333ZM74.4412 48.3811C73.6025 48.3811 73.0068 47.7569 73.0068 46.8711C73.0068 45.9945 73.6025 45.3803 74.4412 45.3803C75.2486 45.3803 75.8949 45.9945 75.8949 46.8711C75.8949 47.7569 75.2486 48.3811 74.4412 48.3811ZM78.5114 49.4285H79.8445V42.0775H78.5114V49.4285V49.4285ZM84.2278 42.3795H81.1566V49.4285H84.2278C86.3077 49.4285 87.6112 47.9378 87.6112 45.9036C87.6112 43.8299 86.2882 42.3795 84.2278 42.3795ZM84.1974 48.1801H82.531V43.6179H84.1974C85.4091 43.6179 86.2174 44.5349 86.2174 45.8742C86.2174 47.2337 85.4091 48.1792 84.1974 48.1792V48.1801ZM93.4584 45.7328C94.0043 45.4409 94.3376 44.937 94.3376 44.2623C94.3275 43.1451 93.3876 42.3795 92.0047 42.3795H88.6313V49.4285H92.1962C93.7014 49.4285 94.6 48.6428 94.6 47.4347C94.6 46.6389 94.1554 46.0449 93.4584 45.7328V45.7328ZM91.9945 43.5674C92.5801 43.5573 92.9733 43.93 92.9733 44.4238C92.9842 44.9067 92.6003 45.3097 92.0249 45.3097H89.9847V43.5682H91.9945V43.5674ZM92.1861 48.2306H89.9839V46.3974H92.1962C92.8526 46.3974 93.2264 46.8004 93.2264 47.3035C93.2264 47.8167 92.8425 48.2306 92.1861 48.2306V48.2306ZM101.569 42.3795H102.892V49.4285H101.508V44.7864L99.2558 47.8983L97.003 44.7856V49.4285H95.6193V42.3795H96.9431L99.2558 45.7126L101.569 42.3795V42.3795Z" fill="white"/>
<path d="M78.9375 31.0048C79.3028 33.7322 84.4101 35.9262 90.6909 35.9683C96.971 36.0095 102.095 33.866 102.495 31.1394L102.562 15.6937C102.197 12.9579 97.0899 10.7723 90.8091 10.7302C84.529 10.689 79.4218 12.8325 78.9966 15.5591L78.9375 31.0048Z" fill="#1359CE"/>
<path d="M90.75 26.7605H75.5625V28.3505H90.75V26.7605ZM90.75 21.7129H82.3125V23.3029H90.75V21.7129ZM87.375 16.6653H76.4062V18.2553H87.375V16.6653Z" fill="#AEDAFF"/>
</svg>
