<?xml version="1.0" encoding="utf-8"?>
<!-- Generator: Adobe Illustrator 27.2.0, SVG Export Plug-In . SVG Version: 6.00 Build 0)  -->
<svg version="1.1" id="Layer_1" xmlns="http://www.w3.org/2000/svg" xmlns:xlink="http://www.w3.org/1999/xlink" x="0px" y="0px"
	 viewBox="0 0 256 100" style="enable-background:new 0 0 256 100;" xml:space="preserve">
<style type="text/css">
	.st0{fill:#0071CE;}
	.st1{fill:#FFFFFF;}
</style>
<g>
	<rect y="141" class="st0" width="256" height="100"/>
	<g>
		<polygon class="st1" points="135.6,174 123.9,199.2 112.2,174 106.2,174 121.7,207.4 126.1,207.4 141.6,174 		"/>
		<path class="st1" d="M62.6,178.1c-3.2-3.1-7.5-5-12.2-5c-9.7,0-17.7,7.9-17.7,17.7c0,9.7,7.9,17.7,17.7,17.7c4.7,0,9-1.9,12.2-5v4
			H68v-44.7h-5.4V178.1z M50.4,203c-6.7,0-12.2-5.5-12.2-12.2c0-6.7,5.5-12.2,12.2-12.2c6.7,0,12.2,5.5,12.2,12.2
			C62.6,197.5,57.1,203,50.4,203z"/>
		<path class="st1" d="M210.7,190v-10.5h12.2V174h-12.2v-11.3h-5.4V190c0,9.7,7.9,17.7,17.7,17.7v-5.4
			C216.2,202.2,210.7,196.7,210.7,190z"/>
		<path class="st1" d="M186.3,179v-4.9h-5.4v33.4h5.4v-15.8c0-6.7,5.5-12.2,12.2-12.2h2.1V174h-2.1C193.8,174,189.5,175.9,186.3,179
			z"/>
		<path class="st1" d="M170.1,178.1c-3.2-3.1-7.5-5-12.2-5c-9.7,0-17.7,7.9-17.7,17.7c0,9.7,7.9,17.7,17.7,17.7c4.7,0,9-1.9,12.2-5
			v4h5.4v-33.4h-5.4V178.1z M157.8,203c-6.7,0-12.2-5.5-12.2-12.2c0-6.7,5.5-12.2,12.2-12.2c6.7,0,12.2,5.5,12.2,12.2
			C170.1,197.5,164.6,203,157.8,203z"/>
		<path class="st1" d="M89.8,173.1c-9.7,0-17.7,7.9-17.7,17.7c0,9.7,7.9,17.7,17.7,17.7c6.9,0,12.8-4,15.7-9.8h-6.4
			c-2.2,2.7-5.6,4.4-9.3,4.4c-5.8,0-10.7-4.1-11.9-9.5h29.6v-2.7C107.4,181,99.5,173.1,89.8,173.1z M77.9,188
			c1.2-5.4,6.1-9.5,11.9-9.5c5.8,0,10.7,4.1,11.9,9.5H77.9z"/>
	</g>
</g>
<g>
	<rect class="st1" width="256" height="100"/>
	<g>
		<polygon class="st0" points="135.2,33.2 123.7,57.9 112.2,33.2 105.8,33.2 105.8,33.2 121.3,66.6 126.1,66.6 141.6,33.2 		"/>
		<path class="st0" d="M62.2,36.8c-3.2-2.9-7.4-4.7-12-4.7c-9.8,0-17.9,8-17.9,17.8s8,17.8,17.9,17.8c4.6,0,8.8-1.8,12-4.7v3.6H68
			V21.9h-5.8V36.8z M50.2,61.9c-6.6,0-12-5.4-12-12c0-6.6,5.4-12,12-12c6.6,0,12,5.4,12,12C62.2,56.5,56.8,61.9,50.2,61.9z"/>
		<path class="st0" d="M210.7,48.7v-9.9h12V33h-12V21.9h-5.8v26.8c0,9.8,8,17.8,17.8,17.8v-5.8C216.1,60.7,210.7,55.3,210.7,48.7z"
			/>
		<path class="st0" d="M186.3,37.7v-4.5h-5.8v33.4h5.8V50.8c0-6.6,5.4-12,12-12h2.1V33h-2.1C193.7,33,189.5,34.8,186.3,37.7z"/>
		<path class="st0" d="M169.7,36.8c-3.2-2.9-7.4-4.7-12-4.7c-9.8,0-17.8,8-17.8,17.8s8,17.8,17.8,17.8c4.6,0,8.8-1.8,12-4.7v3.6h5.8
			V33.2h-5.8V36.8z M157.7,61.9c-6.6,0-12-5.4-12-12c0-6.6,5.4-12,12-12c6.6,0,12,5.4,12,12C169.7,56.5,164.3,61.9,157.7,61.9z"/>
		<path class="st0" d="M89.6,32.1c-9.8,0-17.8,8-17.8,17.8s8,17.8,17.8,17.8c7,0,13-4.1,16-10h-6.9c-2.2,2.5-5.4,4.2-9,4.2
			c-5.6,0-10.4-3.9-11.7-9.1h29.5v-2.9C107.4,40.1,99.4,32.1,89.6,32.1z M77.9,47c1.3-5.2,6-9.1,11.7-9.1c5.6,0,10.4,3.9,11.7,9.1
			H77.9z"/>
	</g>
</g>
</svg>
