<?xml version="1.0" encoding="UTF-8"?> <svg xmlns="http://www.w3.org/2000/svg" width="100" height="25" viewBox="0 0 100 25"><g fill="none" fill-rule="evenodd"><g fill-rule="nonzero"><path fill="#BFA34B" d="M17.634 10.11a9.607 9.607 0 0 1-1.47 11.58 9.414 9.414 0 0 1-11.485 1.49c.962-8.478 13.634-5.655 12.955-13.07z"></path><path fill="#F2D25C" d="M9.478 24.483a9.399 9.399 0 0 1-4.809-1.307c7.388.694 4.427-12.191 12.965-13.066.118.205.227.41.326.618l.075.152c.094.21.189.419.269.633l.028.08c.07.19.137.385.193.58 0 .057.033.11.048.162.06.214.113.428.16.646l.028.143c.033.18.061.366.085.546 0 .062 0 .12.024.181a9.4 9.4 0 0 1 .051.637v.893c0 .21-.028.419-.051.623l-.029.223c-.023.167-.047.333-.08.5 0 .057 0 .114-.033.175-.042.2-.09.404-.146.604 0 .033 0 .071-.028.11 0 .037 0 .075-.038.118l-.042.143c-.08.247-.17.475-.27.732a5.889 5.889 0 0 1-.315.694 9.503 9.503 0 0 1-1.73 2.405 8.75 8.75 0 0 1-.373.356l-.099.086-.07.061-.104.086-.113.1-.109.085-.297.224-.047.033-.094.066-.274.186-.037.024-.288.175h-.033a8.138 8.138 0 0 1-.599.324l-.108.052c-.203.1-.41.185-.618.27l-.132.048c-.212.081-.424.152-.641.219h-.066a7.113 7.113 0 0 1-.627.157l-.108.024c-.217.042-.439.08-.656.109h-.141a10.43 10.43 0 0 1-.665.052H9.47l.01.038z"></path><path fill="#223CAA" d="M1.303 19.783A9.607 9.607 0 0 1 2.77 8.203a9.414 9.414 0 0 1 11.485-1.496C13.297 15.191.62 12.363 1.304 19.783z"></path><path fill="#304FFE" d="M1.303 19.783a11.246 11.246 0 0 1-.33-.623l-.07-.147c-.095-.21-.19-.419-.27-.633l-.028-.08a8.349 8.349 0 0 1-.193-.58l-.052-.167a10.573 10.573 0 0 1-.155-.641l-.029-.147c-.033-.181-.06-.362-.09-.547 0-.057 0-.119-.023-.176a9.886 9.886 0 0 1-.047-.637v-.195-.518-.18c0-.21.028-.419.052-.628 0-.071 0-.147.028-.218 0-.167.047-.333.08-.5v-.132a.139.139 0 0 0 0-.043c.043-.205.095-.404.151-.604 0-.076.043-.152.066-.228l.043-.147A9.491 9.491 0 0 1 2.75 8.176c.122-.124.245-.238.372-.352l.094-.085.076-.067.099-.085.118-.095.108-.086.297-.228.047-.033.094-.067c.09-.062.18-.123.274-.18l.033-.029c.094-.062.188-.124.287-.18h.033c.194-.115.397-.22.6-.319l.108-.057c.202-.095.41-.185.617-.266l.128-.048a8.61 8.61 0 0 1 .645-.218h.066c.208-.057.415-.11.627-.157l.109-.024c.217-.043.434-.076.655-.105h.142c.217-.023.438-.042.66-.052H9.46a9.37 9.37 0 0 1 4.803 1.302c-7.383-.689-4.422 12.192-12.96 13.07v-.032z"></path></g><ellipse cx="97.534" cy="2.038" fill="#001156" rx="2.021" ry="2.038"></ellipse><path fill="#001156" d="M34.79 10.426c-1.228-.751-2.812-1.274-4.397-1.274-2.06 0-3.13.882-3.13 2.025 0 .85.555 1.307 1.704 1.895l3.407 1.667c2.496 1.241 3.248 2.613 3.248 4.117 0 2.712-2.535 4.443-6.615 4.443-1.982 0-3.804-.457-4.992-.948v-2.94c.99.72 2.852 1.503 4.833 1.503 2.179 0 3.368-.85 3.368-2.058 0-.817-.516-1.438-1.981-2.157l-3.565-1.764c-2.021-.98-2.853-2.32-2.853-3.823 0-2.482 2.297-4.378 6.537-4.378 1.703 0 3.327.36 4.437.817v2.875zM44.908 21.208c2.007 0 3.64-1.405 3.64-3.202 0-1.732-1.701-3.137-3.64-3.137-2.007 0-3.64 1.405-3.64 3.137 0 1.797 1.667 3.202 3.64 3.202zm-4.66-13.363c1.224-.588 2.925-1.11 4.762-1.11 3.742 0 6.395 1.83 6.395 6.11v10.127h-2.823V21.24c-.885 1.242-2.45 2.059-4.354 2.059-3.64 0-5.784-2.418-5.784-5.293 0-2.941 2.416-5.227 5.817-5.227 1.804 0 3.505.882 4.321 1.862v-1.83c0-2.549-1.871-3.594-3.844-3.594-1.633 0-3.164.523-4.49 1.307V7.845zM57.069 22.972V9.413h-3.096V7.061h3.232V3.173l2.688-.686V7.06h3.266v2.352h-3.266v13.559zM72.504 20.653c2.946 0 5.155-2.516 5.155-5.653 0-3.104-2.209-5.587-5.155-5.587-2.915 0-5.125 2.483-5.125 5.587 0 3.137 2.21 5.653 5.125 5.653m0-13.919c4.42 0 7.764 3.626 7.764 8.266 0 4.705-3.345 8.299-7.764 8.299-4.358 0-7.764-3.594-7.764-8.299 0-4.64 3.406-8.266 7.764-8.266M86.53 9.217c.784-1.47 2.178-2.483 4.288-2.483.442 0 .952.066 1.394.163v2.908a5.321 5.321 0 0 0-2.007-.392c-2.381 0-3.572 1.634-3.674 4.084v9.475h-2.823V7.062h2.823v2.155zM96.122 22.972h2.824V7.062h-2.824z"></path></g></svg> 