<svg width="168" height="60" viewBox="0 0 168 60" fill="none" xmlns="http://www.w3.org/2000/svg">
<path d="M106.747 22.637H110.473V29.8043C110.473 34.6757 107.289 37.6208 103.028 37.6208C98.7009 37.6208 95.7636 34.6757 95.7636 29.8043V22.637H99.441V29.8043C99.441 32.6404 100.696 34.3298 103.028 34.3298C105.316 34.3298 106.751 32.6449 106.751 29.8043L106.747 22.637ZM53.5814 33.4413L48.2671 22.637H44.186V37.3602H47.8634V29.847L51.5188 37.3602H55.6219L59.2773 29.847V37.3602H62.9767V22.637H58.8736L53.5814 33.4413ZM88.9691 22.637H84.866L79.5738 33.4413L74.2595 22.637H70.1784V37.3602H73.8558V29.847L77.5112 37.3602H81.6143L85.2697 29.847V37.3602H88.9691V22.637ZM130.342 22.637H115.81V25.928H121.215V37.3602H124.937V25.928H130.342V22.637ZM150.156 37.3602H146.231L145.245 35.0655H137.89L136.881 37.3602H132.978L139.504 22.637H143.607L150.156 37.3602ZM143.967 32.1642L141.59 26.6604L139.169 32.1642H143.967ZM37.7187 19V40.9972H15V19H37.7187ZM32.923 22.637H29.2456V37.3602H32.923V22.637ZM152.541 22.637L151.65 24.0972L150.759 22.637H150.295V25.0048H150.814V23.6142L151.51 24.7543H151.767L152.463 23.6142V25.0048H152.984V22.637H152.541ZM147.744 23.0863H148.511V25.0048H149.065V23.0829H149.831V22.6336H147.743L147.744 23.0863Z" fill="#1C2029"/>
</svg>
