<svg width="125" height="30" viewBox="0 0 125 30" fill="none" xmlns="http://www.w3.org/2000/svg">
<path fill-rule="evenodd" clip-rule="evenodd" d="M51.2413 4.66718C46.0762 4.66718 42.4811 8.54488 42.4811 14.1409C42.4811 19.7368 46.0762 23.6145 51.2413 23.6145C53.2436 23.6145 55.0639 23.0573 56.5201 21.9427V18.4365C54.9501 19.9226 53.2208 20.6656 51.3323 20.6656C47.8282 20.6656 45.5756 18.0882 45.5756 14.1409C45.5756 10.1238 47.8282 7.61609 51.3323 7.61609C53.2208 7.61609 54.9729 8.35913 56.5201 9.84519V6.339C55.0639 5.22445 53.2436 4.66718 51.2413 4.66718ZM61.9355 17.5774H70.9687H70.9915V16.3932C70.9915 12.3761 68.6934 9.72907 65.2803 9.72907C61.617 9.72907 59.1141 12.5851 59.1141 16.7415C59.1141 20.9675 61.7307 23.6145 65.9402 23.6145C67.5784 23.6145 69.1029 23.1966 70.2861 22.4303V19.7136C69.1257 20.5263 67.6467 20.9675 66.0312 20.9675C63.5965 20.9675 62.2086 19.8529 61.9355 17.5774ZM68.261 15.3018H62.0038C62.3451 13.3746 63.5283 12.2833 65.3031 12.3065C67.0324 12.3065 68.0563 13.3281 68.261 15.3018ZM85.0305 14.582V23.3359H82.1635V15.1393C82.1635 13.4675 81.2306 12.469 79.7516 12.469C78.5229 12.469 77.408 13.1888 76.8619 14.3498V23.3359H73.9949V10.0077H76.6571V11.935C77.5218 10.5185 78.887 9.72907 80.5708 9.72907C83.2785 9.72907 85.0305 11.6563 85.0305 14.582ZM87.8065 19.4582V22.4303C89.0807 23.1966 90.6507 23.6145 92.4482 23.5681C95.8385 23.5681 97.9318 21.9891 97.9318 19.3653C97.9318 17.4148 96.7714 16.161 94.5643 15.6269L92.1069 15.0464C91.1968 14.8607 90.7417 14.4195 90.7417 13.7229C90.7417 12.7709 91.5836 12.26 93.1991 12.26C94.7918 12.26 96.1571 12.7476 97.2947 13.6997V10.7275C96.2708 10.0774 94.8601 9.72907 93.2446 9.72907C89.9681 9.72907 87.9657 11.308 87.9657 13.839C87.9657 15.7894 89.0807 17.0898 91.174 17.5774L93.6314 18.1346C94.6553 18.3668 95.1104 18.8312 95.1104 19.5975C95.1104 20.5727 94.2913 21.0371 92.562 21.0371C90.7189 21.0371 89.1489 20.5263 87.8065 19.4582ZM108.512 10.0078H111.356V23.3127H108.763V21.3158C107.898 22.7786 106.555 23.5913 104.849 23.5913C102.21 23.5913 100.412 21.6409 100.412 18.7616V10.0078H103.279V18.1811C103.279 19.8297 104.235 20.8514 105.691 20.8514C106.92 20.8514 107.989 20.1316 108.512 18.9242V10.0078ZM114.428 19.4582V22.4303C115.702 23.1966 117.25 23.6145 119.07 23.5681C122.46 23.5681 124.554 21.9891 124.554 19.3653C124.554 17.4148 123.393 16.161 121.186 15.6269L118.729 15.0464C117.818 14.8607 117.363 14.4195 117.363 13.7229C117.363 12.7709 118.205 12.26 119.821 12.26C121.414 12.26 122.779 12.7476 123.916 13.6997V10.7275C122.893 10.0774 121.482 9.72907 119.866 9.72907C116.59 9.72907 114.587 11.308 114.587 13.839C114.587 15.7894 115.702 17.0898 117.796 17.5774L120.253 18.1346C121.277 18.3668 121.732 18.8312 121.732 19.5975C121.732 20.5727 120.913 21.0371 119.184 21.0371C117.341 21.0371 115.771 20.5263 114.428 19.4582Z" fill="#161368"/>
<path d="M33.9712 15.0232L26.3943 1.62539C25.8254 0.626935 24.7787 0 23.6411 0H10.3302C9.19248 0 8.14581 0.626935 7.57697 1.62539L6.62132 3.32043H23.6183L21.7298 6.64087H4.73276L2.84421 9.98452H19.8412L17.9526 13.305H0.955654L0 15.0232L0.9329 16.6486H17.9299L19.7957 19.969H2.7987L4.68726 23.2895H21.6842L23.5728 26.6099H6.57581L7.57697 28.3746C8.14581 29.3731 9.19248 30 10.3302 30H23.6411C24.7787 30 25.8254 29.3731 26.3943 28.3746L33.9712 15.0232Z" fill="#EF54AC"/>
</svg>
