<svg width="168" height="60" viewBox="0 0 168 60" fill="none" xmlns="http://www.w3.org/2000/svg">
<path d="M49.2548 3.30917C47.4271 3.31356 45.6355 3.82039 44.0745 4.77466L30.2131 12.7955C28.623 13.7061 27.3057 15.0285 26.3985 16.6246C25.4401 18.1701 24.9392 19.9572 24.9543 21.7775V37.8979C24.9469 39.5776 25.38 41.2298 26.2101 42.6883C26.6915 40.639 27.8164 38.7994 29.4188 37.4409C29.4525 37.4175 29.484 37.3911 29.513 37.3621C29.9056 37.0554 30.3261 36.7863 30.7688 36.5585C31.01 36.4322 31.2854 36.388 31.5537 36.4324C31.684 36.4708 31.8027 36.5412 31.8991 36.6372C32.0348 36.7846 32.1177 36.9731 32.1346 37.173C32.1568 37.3087 32.1568 37.4471 32.1346 37.5827C32.1126 37.7182 32.0875 37.8601 32.0561 38.0082L31.9619 38.4494L31.8991 38.67C31.313 41.7901 31.9619 44.8261 33.8456 47.7781L34.0026 47.9987C34.3051 48.4198 34.6355 48.8199 34.9916 49.1963L36.5457 50.6146C39.0341 52.4279 41.6947 53.9903 44.4889 55.2789C45.9489 56.0175 47.5634 56.3957 49.1983 56.382C51.01 56.3815 52.7921 55.9207 54.3786 55.0425L68.1772 47.006C69.8316 46.1096 71.1817 44.7379 72.0546 43.0665C72.9364 41.4889 73.3911 39.7068 73.3732 37.8979V21.7775C73.3907 19.9736 72.936 18.1968 72.0546 16.6246L72.1488 16.8137C71.2327 15.1487 69.8882 13.761 68.2557 12.7955L54.3786 4.77466C52.8447 3.80608 51.067 3.29762 49.2548 3.30917V3.30917ZM37.0732 23.8575L37.2615 23.8891L37.4185 23.9836L37.497 24.0624L38.4389 25.3545L38.8784 24.9764C42.0599 22.2975 46.3978 20.0809 51.8921 18.3265C55.1991 17.2655 58.3597 16.9766 61.3737 17.4598C62.5586 17.6265 63.7028 18.0112 64.7487 18.5944C65.6592 19.1302 66.2087 19.771 66.397 20.5169C66.7026 21.6913 66.3206 23.1096 65.2511 24.7715C64.2363 26.3488 62.9373 27.7222 61.4208 28.8213C59.5194 30.2093 57.4586 31.3627 55.2828 32.2565C55.2324 32.2796 55.1768 32.2888 55.1216 32.2832C55.0665 32.2777 55.0138 32.2576 54.9689 32.225C54.86 32.1204 54.7697 31.9978 54.702 31.8626C54.365 31.2638 53.2452 31.2533 51.3426 31.8311C50.1143 32.1928 48.9257 32.6785 47.7949 33.2808C48.0649 33.1957 48.6269 33.0066 49.4746 32.7135C50.3223 32.4204 51.0444 32.225 51.5938 32.0832C53.2997 31.6924 54.1526 31.9025 54.1526 32.7135L54.2154 34.3839C54.2154 34.6675 54.2154 34.8597 54.1997 34.9669C54.1869 35.1649 54.1097 35.3531 53.9799 35.5027C53.9187 35.5742 53.8361 35.6239 53.7444 35.6445L53.4776 35.6918L48.517 36.2591C48.3056 36.2827 48.0916 36.2612 47.8891 36.196C47.6947 36.1331 47.5317 35.9978 47.4338 35.8178L46.8059 34.5572C45.9676 34.6833 45.211 34.7715 44.5297 34.8251C43.0107 34.9611 41.4837 34.9822 39.9616 34.8881L39.4436 37.0154L39.3965 37.1573L39.2866 37.3464L39.2081 37.4251C39.1471 37.4916 39.0625 37.5312 38.9726 37.5354H36.5708L36.2098 35.4396C36.1692 35.2919 36.1861 35.1342 36.2569 34.9984C36.3122 34.9442 36.3791 34.9032 36.4525 34.8786C36.526 34.8541 36.604 34.8465 36.6807 34.8566H38.3447L38.3918 34.7621C37.2802 34.6563 36.1904 34.3855 35.158 33.9584C34.2569 33.5361 33.7703 33.0129 33.6981 32.3826C33.6761 32.1731 33.6761 31.9618 33.6981 31.7523H33.5003C33.4375 31.9414 32.8619 32.0622 31.7735 32.1147C30.6118 32.1336 29.9473 32.1494 29.7799 32.162C29.7121 32.17 29.6436 32.17 29.5758 32.162C29.5538 32.162 29.5507 32.1399 29.5601 32.1305C29.5695 32.121 29.6323 32.0548 29.7171 32.0359L31.538 31.3111L33.877 30.8856C34.1829 30.0599 34.635 29.2965 35.2114 28.6322L35.1172 28.4116L34.7341 25.4018C34.7162 25.3081 34.7162 25.2119 34.7341 25.1182C34.7559 25.0381 34.7933 24.9631 34.844 24.8976C34.9109 24.8274 34.9845 24.7641 35.0638 24.7085L36.9005 23.8891L37.0732 23.8575Z" fill="#532F72"/>
<path d="M95.768 23.4794C95.772 23.1266 95.6366 22.7866 95.3913 22.5339C95.2757 22.4023 95.133 22.2975 94.9731 22.2267C94.8132 22.156 94.6398 22.121 94.4651 22.1242H84.4655C84.1197 22.1367 83.7915 22.2802 83.5469 22.5257C83.3022 22.7713 83.1593 23.1008 83.1468 23.4478C83.143 23.6265 83.1759 23.8041 83.2434 23.9695C83.3109 24.1348 83.4116 24.2845 83.5393 24.4091C83.6582 24.5397 83.8041 24.6427 83.9668 24.7107C84.1295 24.7788 84.305 24.8103 84.4812 24.803H92.3773L83.2253 33.659C82.745 34.1191 82.5032 34.5414 82.5032 34.9196V36.0385C82.499 36.2163 82.5334 36.393 82.6038 36.5562C82.6743 36.7194 82.7792 36.8654 82.9114 36.9839C83.0329 37.1112 83.1792 37.2118 83.3413 37.2796C83.5034 37.3474 83.6777 37.3809 83.8532 37.3779H94.4086C94.5837 37.3778 94.7571 37.3429 94.9187 37.2753C95.0804 37.2077 95.2271 37.1087 95.3505 36.9839C95.4742 36.8605 95.5715 36.7129 95.6363 36.5503C95.7011 36.3877 95.732 36.2135 95.7272 36.0385C95.7294 35.8655 95.694 35.6942 95.6235 35.5363C95.553 35.3785 95.4491 35.238 95.3191 35.1245C95.2037 34.9979 95.0629 34.8974 94.9059 34.8295C94.749 34.7616 94.5795 34.7279 94.4086 34.7305H85.9882L95.3285 25.6224C95.4689 25.482 95.58 25.315 95.6555 25.131C95.731 24.947 95.7692 24.7498 95.768 24.5509V23.4794ZM109.049 22.1399H105.36C104.481 22.144 103.631 22.4561 102.958 23.0224L101.859 23.9048C101.417 24.2653 101.071 24.7312 100.854 25.26C100.634 25.703 100.501 26.1846 100.462 26.6782V32.745C100.478 33.2505 100.607 33.7458 100.838 34.1948C101.034 34.6705 101.341 35.0921 101.733 35.4239L102.911 36.4639C103.263 36.7238 103.649 36.9357 104.057 37.0942C104.511 37.2761 104.996 37.3722 105.485 37.3779H112.439C112.782 37.3695 113.108 37.2283 113.35 36.9839C113.474 36.8605 113.571 36.7129 113.636 36.5503C113.7 36.3877 113.731 36.2135 113.727 36.0385C113.724 35.695 113.588 35.3661 113.348 35.1218C113.107 34.8775 112.781 34.7371 112.439 34.7305H105.658C105.217 34.7055 104.797 34.5336 104.465 34.242L103.696 33.5802C103.518 33.4463 103.375 33.2725 103.276 33.0727C103.178 32.8729 103.128 32.6527 103.13 32.4299V31.6735H112.439C112.61 31.6733 112.778 31.6383 112.935 31.5705C113.091 31.5028 113.233 31.4038 113.35 31.2796C113.593 31.0255 113.728 30.6864 113.727 30.3341V27.1195C113.727 25.8462 113.371 24.8902 112.659 24.2515L111.702 23.306C111.001 22.5868 110.05 22.1688 109.049 22.1399V22.1399ZM108.851 24.8345C109.247 24.8699 109.619 25.0426 109.903 25.323L110.672 25.9849C110.828 26.1275 110.95 26.3036 111.028 26.5C111.107 26.6964 111.141 26.9082 111.127 27.1195V28.9631H103.146V26.9146C103.142 26.7147 103.189 26.517 103.282 26.3405C103.375 26.1639 103.512 26.0144 103.68 25.9061L104.433 25.2443C104.739 24.9806 105.129 24.8353 105.532 24.8345H108.851V24.8345ZM131.99 27.671C132.01 26.7694 131.74 25.8854 131.22 25.1497C131.029 24.9123 130.819 24.6909 130.593 24.4879L128.395 22.5654C128.213 22.4075 128.019 22.2652 127.814 22.1399C127.232 21.7356 126.543 21.516 125.836 21.5096H125.224C123.991 21.5096 122.73 22.224 121.441 23.6527V22.8333C121.442 22.4844 121.306 22.1492 121.062 21.901C120.817 21.6529 120.485 21.5121 120.138 21.5096C119.777 21.5038 119.427 21.6394 119.164 21.8878C119.042 22.0123 118.946 22.1601 118.881 22.3224C118.816 22.4848 118.785 22.6585 118.788 22.8333V41.7428C118.783 41.9207 118.818 42.0973 118.888 42.2606C118.959 42.4238 119.064 42.5698 119.196 42.6883C119.317 42.8165 119.463 42.9178 119.625 42.9856C119.787 43.0535 119.962 43.0864 120.138 43.0823C120.309 43.0864 120.479 43.0533 120.636 42.9853C120.793 42.9173 120.934 42.816 121.048 42.6883C121.176 42.5671 121.277 42.4203 121.344 42.2574C121.412 42.0945 121.445 41.9192 121.441 41.7428V35.8494L122.461 36.8579C122.796 37.2115 123.201 37.4909 123.649 37.6781C124.098 37.8654 124.581 37.9563 125.067 37.9452H125.632C126.623 37.9791 127.59 37.6294 128.332 36.9682L130.498 35.1087C130.975 34.7047 131.358 34.2001 131.618 33.6309C131.879 33.0616 132.011 32.4417 132.005 31.8153V27.671H131.99ZM121.441 28.0649C121.444 27.8432 121.492 27.6244 121.58 27.4214C121.669 27.2184 121.798 27.0354 121.959 26.8831L123.921 24.9449C124.392 24.4595 124.775 24.22 125.067 24.22H125.836C126.139 24.2278 126.429 24.3453 126.652 24.5509L128.834 26.4734C129.015 26.5951 129.164 26.7591 129.268 26.9512C129.372 27.1433 129.428 27.3579 129.431 27.5764V31.8311C129.44 32.0479 129.398 32.2639 129.308 32.4611C129.218 32.6584 129.083 32.8314 128.913 32.9657L126.856 34.7621C126.588 35.0464 126.225 35.2206 125.836 35.2506H125.161C124.806 35.2506 124.392 35.0173 123.921 34.5572L122.037 32.6505C121.862 32.4986 121.719 32.313 121.616 32.1045C121.514 31.8961 121.454 31.6692 121.441 31.4371V28.0649ZM140.916 16.861C140.801 16.7326 140.66 16.6297 140.504 16.5591C140.347 16.4885 140.177 16.4518 140.005 16.4513H135.986C135.814 16.4474 135.643 16.4822 135.485 16.553C135.328 16.6239 135.188 16.7291 135.076 16.861C134.941 16.9773 134.834 17.1228 134.763 17.2866C134.693 17.4504 134.66 17.6282 134.668 17.8065C134.668 17.9837 134.704 18.159 134.774 18.3216C134.845 18.4842 134.947 18.6307 135.076 18.752C135.196 18.8705 135.338 18.9637 135.494 19.026C135.651 19.0882 135.818 19.1183 135.986 19.1144H138.655V34.7463H136.033C135.856 34.7421 135.68 34.7766 135.518 34.8473C135.355 34.918 135.21 35.0234 135.092 35.156C134.967 35.2786 134.869 35.4261 134.804 35.5889C134.739 35.7517 134.709 35.9263 134.715 36.1015C134.719 36.4527 134.853 36.7898 135.092 37.047C135.215 37.1712 135.362 37.2689 135.524 37.3339C135.685 37.3989 135.859 37.43 136.033 37.4252H143.961C144.135 37.43 144.309 37.3989 144.471 37.3339C144.633 37.2689 144.78 37.1712 144.903 37.047C145.141 36.7898 145.276 36.4527 145.28 36.1015C145.271 35.7517 145.13 35.4183 144.885 35.1694C144.64 34.9205 144.309 34.7748 143.961 34.7621H141.308V17.7907C141.31 17.617 141.276 17.4447 141.209 17.2847C141.141 17.1247 141.041 16.9805 140.916 16.861Z" fill="#532F72"/>
</svg>
