<svg width="168" height="60" viewBox="0 0 168 60" fill="none" xmlns="http://www.w3.org/2000/svg">
<path d="M122.104 46.9868L102.223 14.0533H76.2317L81.4523 22.6794H97.0028L111.676 46.9868H122.104Z" fill="black"/>
<path d="M96.0284 38.334H80.4639L65.7905 14H55.3632L75.2433 46.9734H101.235L96.0284 38.334Z" fill="black"/>
<path d="M117.857 22.6795H128.856C131.334 22.6928 133.338 24.6231 133.338 26.9926C133.324 29.2955 131.417 31.1858 129.009 31.279H123.036L128.299 39.9183L132.517 46.9736H143L137.097 37.2294C143.028 32.8764 144.142 24.7562 139.589 19.0987C137.028 15.9171 133.074 14.0402 128.869 14.0402H112.637L117.857 22.6795Z" fill="black"/>
<path d="M64.6768 47L44.9359 14L39.6317 22.7858L54.2355 47H64.6768Z" fill="black"/>
<path d="M35.4273 46.9868L39.6317 40.0514L34.411 31.412L25 46.9868H35.4273Z" fill="black"/>
</svg>
