<svg width="168" height="60" viewBox="0 0 168 60" fill="none" xmlns="http://www.w3.org/2000/svg">
<path d="M41.4829 37.5537C41.3513 37.1104 40.9812 36.8384 40.5365 36.8384C40.4166 36.8443 40.3064 36.8523 40.1626 36.8855C39.5293 37.0374 39.1772 37.0848 38.691 37.118C37.7664 37.1634 37.603 36.8011 37.5422 35.7605V21.5142C37.5145 21.1851 37.3432 20.856 37.0895 20.6571L36.9969 20.5979C36.9676 20.5744 36.9378 20.5446 36.8988 20.5249C36.1272 20.0698 34.8426 19.7034 33.7507 19.4276L33.6699 19.4037C32.3752 19.0906 30.943 18.9248 29.5263 18.9248C28.6939 18.9248 27.9424 18.9881 27.6414 19.0255C27.0195 19.0864 25.3392 19.3663 24.7746 19.5594C24.6112 19.6127 24.0801 19.865 24.0625 20.3654C24.0722 20.6256 24.3655 21.4588 24.3655 21.4588C24.5562 22.0423 24.7587 22.1841 25.1267 22.2589C25.4218 22.2924 26.0593 22.1585 26.4843 22.0855C27.5803 21.8827 28.2966 21.8059 28.81 21.8C29.4731 21.79 30.3072 21.7803 31.2854 21.9222C33.1426 22.2077 33.8589 22.7793 33.8589 22.7793V28.3121L33.6954 28.318L29.7271 28.4166C24.4205 28.5841 21.9648 30.6925 22.0004 34.9408C21.9924 36.8699 22.5964 38.4167 23.7456 39.4178C24.814 40.3576 26.3803 40.8521 28.2651 40.8521H28.2731C30.4371 40.8521 32.2985 40.1843 34.1125 38.7458L34.2856 38.6136L34.3744 38.8129C34.8111 39.7763 35.5547 40.3988 36.5761 40.659C37.0342 40.787 37.5577 40.8521 38.2267 40.8521C38.398 40.8521 38.5712 40.8424 38.7246 40.8244C39.3306 40.7417 40.1354 40.6313 41.0323 40.2078C41.5244 39.9732 41.8727 39.6835 41.8471 39.1635C41.8274 38.7043 41.4829 37.5537 41.4829 37.5537ZM34.0399 36.2571L33.9691 36.3104L33.8941 36.3557C32.5738 37.2699 30.6026 37.8807 28.9852 37.8807H28.9831C26.6121 37.8295 25.7487 36.99 25.7013 34.7044C25.7525 32.0718 26.6318 31.26 29.593 31.0728L33.6799 30.8818L33.8626 30.8738L34.0399 30.8679V36.2571V36.2571Z" fill="#0093D0"/>
<path d="M100.134 40.7577H100.128H98.2035C97.9063 40.7577 97.6586 40.6591 97.5052 40.4895C97.3497 40.3085 97.2806 40.0621 97.2806 39.7272V21.4215C97.2671 21.0769 97.3556 20.8267 97.5307 20.6589C97.6841 20.5035 97.9122 20.4363 98.2194 20.4363H99.9643C100.289 20.4363 100.51 20.4993 100.681 20.6433C100.856 20.791 100.948 21.0333 100.942 21.325L100.962 21.8098L100.98 22.2216L101.253 21.9222C102.072 21.0391 103.474 19.9851 105.495 19.9851C105.781 19.9851 106.276 20.0284 106.711 20.1093C107.073 20.1761 107.211 20.5446 107.185 20.736C107.185 20.8343 107.181 20.9094 107.17 20.9782L106.882 22.8247C106.863 23.1458 106.568 23.3822 106.322 23.3822C106.097 23.3742 105.971 23.3565 105.83 23.3309C105.619 23.2995 105.383 23.2541 104.966 23.2541C103.618 23.2541 102.111 24.1507 101.106 25.5397L101.072 25.5812V25.6404V39.7272C101.072 40.0424 100.995 40.2905 100.838 40.4698C100.685 40.6511 100.433 40.7577 100.134 40.7577Z" fill="#0093D0"/>
<path d="M84.0767 19.207C79.1163 19.207 75.3781 22.665 75.3781 30.5273C75.3781 37.7352 78.7504 41.2759 85.0939 41.2759C86.0973 41.2759 87.2915 41.1579 88.4327 40.9253C88.6117 40.8918 88.7948 40.8426 88.9738 40.8032C89.6939 40.6042 90.4219 40.3045 90.6894 40.1786C91.0871 40.0267 91.3939 39.7194 91.4174 39.3353C91.3092 38.7616 91.1638 38.1764 90.9965 37.6131C90.8449 37.2345 90.5024 36.9961 90.1503 37.0179C90.0305 37.0179 88.3246 37.3885 88.2261 37.4179C87.2483 37.6702 86.1758 37.8179 85.1744 37.8179C80.6629 37.8179 79.3191 35.6583 79.3191 31.2169V30.8899H91.1382C91.4882 30.8581 91.7598 30.5923 91.8089 30.2415C91.8089 30.194 91.813 30.1411 91.821 30.0878C91.86 29.3113 91.8856 28.4957 91.8856 27.8375C91.8856 22.3812 89.2395 19.207 84.0767 19.207ZM88.2261 28.3694H79.3623C79.4843 23.8906 81.1902 22.0601 83.9937 22.0601C86.7231 22.0601 88.2676 23.5598 88.2676 27.0711C88.2676 27.3469 88.2676 28.0445 88.2261 28.3694Z" fill="#0093D0"/>
<path d="M112.051 49H111.923C111.227 49 110.648 48.9509 110.085 48.8384C109.739 48.7775 109.611 48.3263 109.68 47.7096C109.68 47.7096 109.722 47.0515 109.82 46.5864C109.912 46.1133 110.137 45.8985 110.386 45.8985H110.396H110.457L110.648 45.9064C110.762 45.9144 110.924 45.9362 111.073 45.9479C111.417 45.9853 111.768 46.0227 112.041 46.0227C114.345 45.9971 115.589 45.1538 116.47 43.016L117.533 40.4169L117.633 40.1411L117.67 40.0266L117.633 39.9023L110.536 21.1084C110.505 21.0257 110.495 20.9409 110.495 20.8641C110.495 20.7911 110.505 20.6572 110.603 20.5447C110.676 20.4658 110.802 20.4087 110.94 20.4087H113.629C114.021 20.4087 114.312 20.6156 114.398 20.9171L119.071 34.3813L119.382 35.2817L119.703 34.3813L124.533 21.0177C124.636 20.6433 124.939 20.4028 125.291 20.4028H125.31L125.383 20.4087H127.614C127.795 20.4087 127.929 20.4444 128.022 20.5191C128.114 20.598 128.152 20.7181 128.146 20.807C128.146 20.9351 128.114 21.0434 128.077 21.1479L120.138 42.4817C118.408 47.2345 116.216 49 112.051 49Z" fill="#0093D0"/>
<path d="M144.047 40.7066C143.585 40.7066 143.203 40.4896 142.987 40.0917L138.745 33.534L138.595 33.3135L138.452 33.534L134.216 40.0858C133.991 40.4896 133.61 40.7066 133.141 40.7066L133.072 40.6986H130.806C130.621 40.6986 130.487 40.6533 130.375 40.5706C130.263 40.4779 130.184 40.3163 130.198 40.1626C130.198 39.9734 130.263 39.7744 130.375 39.6111L136.512 30.2847L136.583 30.1902L136.512 30.0937L130.857 21.3646C130.757 21.203 130.708 21.0652 130.711 20.9351C130.711 20.5687 131.048 20.3479 131.369 20.3438H133.497C133.956 20.3438 134.316 20.5431 134.473 20.8562L138.456 26.9056L138.595 27.1143L138.731 26.9056L142.692 20.8936C142.869 20.5448 143.233 20.3438 143.648 20.3438H145.828C146.143 20.3438 146.487 20.5687 146.487 20.933C146.487 21.0652 146.438 21.203 146.338 21.349L140.683 30.0937L140.616 30.1902L140.683 30.2847L146.802 39.5913C146.934 39.7744 146.999 39.9657 146.999 40.153C147.011 40.3163 146.936 40.4779 146.827 40.5706C146.711 40.6533 146.576 40.6986 146.385 40.6986H144.132L144.047 40.7066Z" fill="#0093D0"/>
<path d="M52.159 40.7598C51.1573 40.7598 50.1916 40.5982 49.3533 40.2927C48.5859 40.0248 47.9778 39.6404 47.5452 39.1636C46.339 37.8355 46.2329 36.1825 46.217 33.999V13.1378C46.217 13.0157 46.2702 12.8914 46.3486 12.799C47.0632 11.999 47.9857 11.4018 49.0935 11.0256C49.1623 11 49.2096 11 49.2649 11C49.3533 11 49.5872 11.0156 49.7783 11.2028C49.9494 11.3803 50.0302 11.6225 50.0281 11.9398V34.1312C50.0361 35.2859 50.3115 36.2039 50.8191 36.7773C51.252 37.2541 51.9524 37.4967 52.8438 37.4967C53.0601 37.4967 53.3041 37.4787 53.5954 37.4434C54.2446 37.3507 54.8683 37.1676 55.2795 37.0375C55.3917 36.9901 55.492 36.9687 55.6119 36.9687C55.9643 36.9687 56.2711 37.2188 56.3893 37.5891C56.3893 37.5891 56.7041 38.6552 56.7435 39.1577C56.769 39.5913 56.3813 39.883 56.0234 40.0089C55.5669 40.1923 53.9575 40.7598 52.159 40.7598Z" fill="#0093D0"/>
<path d="M71.6218 37.5772C71.504 37.2049 71.1968 36.9565 70.835 36.9565C70.7227 36.9565 70.6167 36.9783 70.5064 37.0215C69.9083 37.2146 69.0072 37.4631 68.1589 37.4786L68.0684 37.4925C67.1538 37.4925 66.4669 37.2423 66.0281 36.7596C65.6152 36.3045 65.318 35.5654 65.2942 34.1802C65.2942 34.1508 65.2942 34.129 65.2942 34.1034L65.4085 23.1181H69.8962C70.1364 23.1181 70.3351 23.0904 70.5203 22.9486C70.7445 22.7735 70.7798 22.4835 70.7739 22.324V20.9409C70.7798 20.6433 70.6913 20.4284 70.5241 20.2924C70.3254 20.1488 70.1049 20.1367 69.9356 20.1367H65.4085V20.0737V15.4354V13.2973C65.4085 12.9744 65.3297 12.7377 65.1625 12.5623C64.9756 12.3792 64.7334 12.3574 64.6491 12.3574C64.5917 12.3574 64.5426 12.3574 64.458 12.383C64.1964 12.4796 63.4902 12.726 62.7186 13.2699C62.4512 13.4647 62.1796 13.7073 61.9063 13.9831C61.8313 14.0776 61.7881 14.1959 61.7881 14.3122L61.68 20.0657H59.3622C59.1358 20.0657 58.8898 20.1232 58.7147 20.3083C58.5398 20.4993 58.4963 20.736 58.4963 20.9782V22.2413C58.5004 22.5133 58.4887 22.7496 58.6991 22.98C58.9372 23.1991 59.1694 23.1811 59.4389 23.1911H61.6171L61.4104 33.5241L61.4142 33.9674C61.4222 36.1568 61.5283 37.8178 62.7383 39.1597C63.6692 40.1705 65.3612 40.7518 67.3739 40.7597C69.1941 40.7597 70.6087 40.2767 71.2559 40.0089C71.6021 39.8632 71.9918 39.5832 71.976 39.1496C71.976 38.7379 71.6218 37.5772 71.6218 37.5772Z" fill="#0093D0"/>
</svg>
