<svg width="168" height="60" viewBox="0 0 168 60" fill="none" xmlns="http://www.w3.org/2000/svg">
<g clip-path="url(#clip0)">
<path d="M28.1214 32.0247C28.0681 32.6 27.9895 33.1847 27.888 33.7622C27.7861 34.3394 27.6514 34.9104 27.4845 35.4724C27.3301 35.9949 27.1322 36.5037 26.8931 36.9935C26.6003 37.6297 26.1888 38.2045 25.6806 38.6871C25.1715 39.1589 24.5937 39.5508 23.9667 39.8493C23.4937 40.0771 22.9979 40.2545 22.4877 40.3786C21.9811 40.5026 21.4664 40.5912 20.9474 40.644C20.4302 40.6943 19.9007 40.7159 19.3625 40.721H17.805H9V20H17.8057C18.6563 20 19.5225 20.0415 20.4042 20.1244C21.2636 20.2032 22.1102 20.3856 22.9257 20.6674C23.7194 20.9452 24.4654 21.3435 25.1374 21.8483C25.8098 22.3555 26.3652 23.0239 26.8037 23.8534C27.2778 24.7845 27.6291 25.8512 27.8577 27.0537C28.0754 28.159 28.1894 29.2822 28.1985 30.4087C28.1999 30.9056 28.1733 31.4428 28.1214 32.0247ZM23.0482 27.8347C22.8695 26.935 22.5756 26.1504 22.1585 25.478C21.6619 24.6835 21.0296 24.176 20.2616 23.9555C19.4613 23.7309 18.6334 23.6196 17.8021 23.6247H13.4075V37.0949H17.7978C18.3563 37.0894 18.9135 37.0374 19.4634 36.9395C20.0117 36.8549 20.5433 36.6851 21.0389 36.4361C21.5079 36.1718 21.8963 35.7856 22.1628 35.3185C22.456 34.8151 22.6849 34.277 22.8443 33.7169C23.0122 33.142 23.1327 32.5544 23.2045 31.9599C23.2738 31.4338 23.3108 30.904 23.3155 30.3734C23.308 29.5206 23.2185 28.6705 23.0482 27.8347V27.8347ZM35.8817 40.7008C35.3198 40.7008 34.7528 40.6951 34.1808 40.6836C33.6182 40.6761 33.0587 40.5985 32.5152 40.4527C31.5595 40.2048 30.8314 39.6717 30.3309 38.8533C29.84 38.0653 29.5811 37.1554 29.5838 36.2275C29.587 35.4901 29.741 34.7611 30.0363 34.0851C30.3276 33.3954 30.796 32.7946 31.3943 32.3433C31.6866 32.1278 32.0153 31.9663 32.3647 31.8664C32.7485 31.7518 33.1409 31.6683 33.5382 31.6169C33.9445 31.5689 34.3446 31.538 34.7384 31.5241C35.1368 31.5148 35.4992 31.509 35.8342 31.5104H40.9585V31.2623C40.9585 30.7237 40.8865 30.2936 40.7424 29.9728C40.6098 29.6657 40.3873 29.4057 40.1041 29.2271C39.7952 29.0411 39.4497 28.9241 39.0912 28.884C38.6579 28.8304 38.2217 28.8042 37.7851 28.8056H30.7466V25.5751H37.7829C38.0711 25.5751 38.3593 25.5751 38.641 25.5902C38.9226 25.6053 39.2058 25.6067 39.4954 25.606C40.7777 25.6448 41.8752 25.9121 42.7877 26.4079C43.6954 26.907 44.356 27.806 44.7703 29.1141C44.9311 29.6068 45.0301 30.1175 45.0649 30.6345C45.0952 31.1336 45.111 31.6507 45.1096 32.1908V40.7008H35.8817ZM40.9585 34.7432H35.4293C35.0316 34.7307 34.641 34.8501 34.3184 35.0826C34.0173 35.3089 33.8665 35.6589 33.866 36.1326C33.866 36.4627 33.933 36.7151 34.0706 36.8906C34.2066 37.0671 34.3907 37.2007 34.6008 37.2754C34.8367 37.3615 35.0836 37.4138 35.3342 37.4307C35.6037 37.4501 35.8652 37.4609 36.1152 37.4609H40.9557L40.9585 34.7432ZM54.3144 40.7224C53.2799 40.7224 52.3469 40.5419 51.5249 40.1773C50.7029 39.8126 50.0841 39.115 49.6951 38.0773C49.5317 37.588 49.4279 37.081 49.386 36.567C49.3442 36.0585 49.3226 35.5443 49.3241 35.0272V28.8063H46.678V25.57H49.3241V20.0007H53.4751V25.5693H57.3351V28.8056H53.4758V34.3116C53.4758 34.6432 53.4802 35.0574 53.4895 35.5544C53.4989 36.0513 53.6098 36.4469 53.8188 36.7374C54 36.9838 54.2479 37.1734 54.5334 37.284C54.834 37.3991 55.1492 37.4717 55.47 37.4998C55.8012 37.5305 56.1343 37.5358 56.4663 37.5156C56.8006 37.4962 57.0887 37.4854 57.3387 37.4847V40.721L54.3144 40.7224ZM64.7965 40.7008C64.236 40.7008 63.6669 40.7008 63.097 40.6843C62.5331 40.6762 61.9724 40.5979 61.4278 40.4513C60.4721 40.2048 59.7447 39.6717 59.2457 38.8518C58.7553 38.0639 58.496 37.1545 58.4972 36.2268C58.5011 35.4895 58.6555 34.7608 58.951 34.0851C59.2411 33.3944 59.7104 32.7934 60.3105 32.344C60.6015 32.1278 60.9293 31.966 61.278 31.8664C61.6613 31.7504 62.0536 31.6662 62.4508 31.6147C62.8557 31.5658 63.257 31.5349 63.6511 31.5234C64.0451 31.5119 64.4125 31.509 64.7454 31.5076L69.8755 31.5068V31.2573C69.8755 30.7193 69.8034 30.2893 69.6594 29.9685C69.5271 29.661 69.3046 29.4007 69.0211 29.222C68.7137 29.0362 68.3696 28.9194 68.0125 28.8797C67.5782 28.8262 67.141 28.8003 66.7035 28.802H59.6599V25.5715H66.6963C66.9844 25.5715 67.2726 25.5751 67.5543 25.5859C67.836 25.5966 68.1184 25.6024 68.4087 25.601C69.6944 25.6432 70.7916 25.9124 71.7003 26.4086C72.609 26.9048 73.2701 27.8067 73.6836 29.1141C73.8431 29.6078 73.9413 30.1191 73.9761 30.6366C74.0114 31.1343 74.0251 31.6514 74.0229 32.1922V40.7015L64.7965 40.7008ZM69.8755 34.7432H64.3412C63.944 34.7306 63.5537 34.85 63.2318 35.0826C62.9285 35.3106 62.7793 35.6615 62.7793 36.1348C62.7793 36.4641 62.8463 36.7173 62.9832 36.8913C63.1195 37.0679 63.3038 37.2015 63.5142 37.2761C63.7494 37.3631 63.9959 37.4159 64.2461 37.4329C64.5184 37.4516 64.78 37.4638 65.0307 37.4638H69.8755V34.7432Z" fill="#0A0A0C"/>
<path d="M91.2273 40.7217C91.0623 40.2499 90.9582 39.7591 90.9175 39.261C90.8757 38.7648 90.8234 38.2681 90.7604 37.7709C90.6553 36.8194 90.4874 36.0262 90.2461 35.3976C90.0047 34.769 89.6697 34.2627 89.2375 33.8931C88.8052 33.5234 88.2505 33.2566 87.5848 33.102C86.9192 32.9474 86.1109 32.8683 85.1541 32.8683H81.6046V40.7253H77.1899V20H87.3392C88.1076 20 88.8917 20.0259 89.6913 20.0777C90.4653 20.1253 91.2318 20.2555 91.978 20.466C93.2041 20.8184 94.1589 21.4815 94.8424 22.4553C95.5258 23.429 95.8687 24.5368 95.8711 25.7786C95.8711 27.2083 95.5693 28.4566 94.9655 29.5234C94.3618 30.5901 93.3451 31.3508 91.9153 31.8053C92.3699 31.9707 92.7596 32.1318 93.0816 32.2857C93.3906 32.4343 93.6787 32.6229 93.9382 32.8467C94.1947 33.0717 94.4163 33.3335 94.596 33.6234C94.8113 33.9858 94.9973 34.3648 95.1521 34.7568C95.4411 35.4253 95.6049 36.1409 95.6355 36.8683C95.6679 37.5925 95.7249 38.3196 95.8091 39.0431C95.8776 39.6133 96.0024 40.1753 96.1816 40.721L91.2273 40.7217ZM90.736 24.9501C90.5908 24.6238 90.3595 24.3431 90.0667 24.1382C89.7624 23.9359 89.4187 23.8001 89.0581 23.7397C88.6384 23.6612 88.2121 23.6229 87.7851 23.6254H81.601V29.2386H87.7829C88.7983 29.2386 89.5852 29.0319 90.1438 28.6186C90.7057 28.2037 90.9831 27.4313 90.9823 26.3072C90.9833 25.7544 90.9012 25.302 90.736 24.9501V24.9501ZM112.802 36.6008C112.423 37.5073 111.85 38.3199 111.123 38.9813C110.382 39.6378 109.514 40.1348 108.572 40.4412C107.588 40.7739 106.506 40.9401 105.325 40.9396C102.796 40.9396 100.838 40.2506 99.4487 38.8727C98.0597 37.4947 97.365 35.5395 97.3645 33.0071C97.3645 31.8262 97.5617 30.7587 97.956 29.8046C98.3224 28.89 98.8851 28.0667 99.6043 27.3924C100.338 26.7227 101.201 26.2089 102.139 25.8822C103.173 25.5223 104.261 25.3437 105.356 25.3543C107.885 25.3543 109.859 26.0495 111.279 27.4399C112.698 28.8303 113.409 30.8009 113.411 33.3515C113.41 34.5722 113.207 35.6546 112.802 36.5986V36.6008ZM108.941 31.3508C108.833 30.8353 108.623 30.3464 108.324 29.9124C108.026 29.4966 107.627 29.1643 107.163 28.9473C106.682 28.7121 106.088 28.5942 105.386 28.5927C104.645 28.5927 104.031 28.715 103.549 28.9617C103.087 29.1878 102.693 29.5313 102.406 29.9577C102.114 30.4048 101.914 30.9055 101.817 31.4306C101.699 32.0318 101.642 32.6433 101.647 33.2559C101.642 33.8496 101.709 34.4418 101.847 35.0193C101.966 35.528 102.187 36.0076 102.495 36.4296C102.802 36.835 103.207 37.1566 103.671 37.3646C104.152 37.5889 104.748 37.7004 105.447 37.7011C106.146 37.7018 106.736 37.5796 107.21 37.3336C107.665 37.1042 108.058 36.7675 108.354 36.3527C108.653 35.9138 108.858 35.4176 108.956 34.8956C109.071 34.3145 109.128 33.7237 109.127 33.1315C109.131 32.5329 109.069 31.9357 108.941 31.3508V31.3508ZM130.4 36.7396C129.882 37.8994 129.033 38.853 127.853 39.6005C127.001 40.1413 126.146 40.4635 125.276 40.5678C124.359 40.6733 123.435 40.7242 122.512 40.7202H115.74V20H119.891V25.57H123.589C125.976 25.57 127.837 26.1974 129.171 27.4521C130.505 28.7068 131.174 30.5379 131.178 32.9452C131.191 34.2507 130.925 35.544 130.4 36.7396V36.7396ZM126.068 29.9247C125.431 29.1796 124.409 28.8063 123.003 28.8049H119.892V37.4847H123.003C124.348 37.4847 125.354 37.0647 126.021 36.2247C126.689 35.3847 127.025 34.3325 127.03 33.0682C127.025 31.7226 126.704 30.6726 126.068 29.9247ZM147.94 36.5986C147.562 37.5047 146.988 38.3164 146.259 38.9762C145.521 39.6351 144.654 40.1333 143.712 40.439C142.727 40.7718 141.643 40.9382 140.461 40.9382C137.932 40.9382 135.974 40.2482 134.586 38.8684C133.199 37.4885 132.505 35.534 132.504 33.0049C132.504 31.8226 132.7 30.7553 133.092 29.8024C133.46 28.8885 134.023 28.0658 134.743 27.3917C135.474 26.7209 136.336 26.2069 137.274 25.8814C138.309 25.5211 139.398 25.3418 140.493 25.3514C143.023 25.3514 144.998 26.0466 146.417 27.437C147.836 28.8274 148.546 30.7975 148.545 33.3472C148.545 34.5713 148.344 35.6551 147.94 36.5986ZM144.08 31.3486C143.972 30.8315 143.761 30.3411 143.461 29.906C143.163 29.4912 142.764 29.1589 142.302 28.9401C141.819 28.7057 141.222 28.5877 140.524 28.5877C139.784 28.5877 139.167 28.7114 138.685 28.9559C138.223 29.1833 137.829 29.5269 137.541 29.9527C137.251 30.4005 137.051 30.9006 136.953 31.4249C136.837 32.0257 136.78 32.6367 136.785 33.2487C136.782 33.8425 136.848 34.4346 136.983 35.0128C137.103 35.5211 137.324 36.0004 137.632 36.4224C137.939 36.8276 138.344 37.1491 138.809 37.3574C139.289 37.5827 139.881 37.6951 140.585 37.6947C141.287 37.6947 141.873 37.5738 142.346 37.3257C142.803 37.0983 143.196 36.7618 143.492 36.3462C143.791 35.9075 143.996 35.4116 144.095 34.8899C144.207 34.3086 144.264 33.7178 144.262 33.1257C144.267 32.5296 144.206 31.9348 144.079 31.3522L144.08 31.3486ZM156.958 40.7181C155.922 40.7181 154.993 40.5369 154.165 40.1737C153.338 39.8105 152.73 39.1129 152.338 38.0737C152.174 37.5861 152.07 37.0804 152.028 36.5677C151.986 36.0578 151.966 35.5429 151.966 35.0258V28.8035H149.316V25.5672H151.964V20H156.115V25.57H159.977V28.8063H156.117V34.3116C156.117 34.6446 156.121 35.0589 156.131 35.558C156.141 36.0571 156.251 36.4483 156.459 36.7396C156.642 36.986 156.892 37.1749 157.18 37.284C157.48 37.3995 157.795 37.4721 158.116 37.4998C158.447 37.5326 158.78 37.5381 159.112 37.5163C159.445 37.4962 159.734 37.4847 159.983 37.4854V40.7217L156.958 40.7181Z" fill="#2D8FE2"/>
</g>
<defs>
<clipPath id="clip0">
<rect width="150.978" height="20.9382" fill="white" transform="translate(9 20)"/>
</clipPath>
</defs>
</svg>
