<svg width="161" height="40" viewBox="0 0 161 40" fill="none" xmlns="http://www.w3.org/2000/svg">
								<path fill-rule="evenodd" clip-rule="evenodd" d="M5 0L0 3V32L14 40V34.2412L5 29.0984V0Z" fill="#284048"></path>
								<path fill-rule="evenodd" clip-rule="evenodd" d="M5 0L0 3V32L14 40V34.2412L5 29.0984V0Z" fill="#F07830"></path>
								<path fill-rule="evenodd" clip-rule="evenodd" d="M14 40V34.2412L23 29.0984V18.9016L28 16V32L14 40Z" fill="#C86828"></path>
								<path d="M28 16L14 8L9 10.8571V16.6159L14 13.7588L23 18.9016L28 16Z" fill="#284048"></path>
								<path d="M28 16L14 8L9 10.8571V16.6159L14 13.7588L23 18.9016L28 16Z" fill="#F0A870"></path>
								<path fill-rule="evenodd" clip-rule="evenodd" d="M9 1L5 0V29.125L14 34.25V30L9 27V21V16.5V1Z" fill="white"></path>
								<path d="M14 34.25L23 29.125V18.875L19 21V27L14 30V34.25Z" fill="white"></path>
								<path d="M23 18.875L14 13.75L9 16.5V21L14 18L19 21L23 18.875Z" fill="white"></path>
								<path d="M9 21L14 24V30L9 27V21Z" fill="#F07830"></path>
								<path d="M9 21L14 24V30L9 27V21Z" fill="#507088"></path>
								<path d="M19 21L14 24V30L19 27V21Z" fill="#C86828"></path>
								<path d="M19 21L14 24V30L19 27V21Z" fill="#284048"></path>
								<path d="M9 21L14 24L19 21L14 18L9 21Z" fill="#FFD8B8"></path>
								<path d="M9 21L14 24L19 21L14 18L9 21Z" fill="#80A8C0"></path>
								<path d="M50.5898 24.4609C50.5898 25.1875 50.4453 25.8672 50.1562 26.5C49.875 27.125 49.4414 27.6719 48.8555 28.1406C48.2695 28.6016 47.5234 28.9648 46.6172 29.2305C45.7109 29.4883 44.6367 29.6172 43.3945 29.6172C42.7148 29.6172 42.0391 29.6094 41.3672 29.5938C40.7031 29.5859 40.1016 29.5742 39.5625 29.5586C38.9297 29.543 38.3281 29.5234 37.7578 29.5C37.8047 29.2656 37.8398 28.9648 37.8633 28.5977C37.8867 28.2305 37.9023 27.8164 37.9102 27.3555C37.9258 26.8945 37.9336 26.3945 37.9336 25.8555V16.1055C37.9336 15.5586 37.9258 15.0508 37.9102 14.582C37.9023 14.1055 37.8867 13.6797 37.8633 13.3047C37.8398 12.9297 37.8047 12.625 37.7578 12.3906C38.0469 12.375 38.3867 12.3594 38.7773 12.3438C39.168 12.3281 39.5977 12.3164 40.0664 12.3086C40.5352 12.293 41.0352 12.2852 41.5664 12.2852C42.0977 12.2773 42.6445 12.2734 43.207 12.2734C44.1523 12.2734 45.0195 12.3477 45.8086 12.4961C46.6055 12.6367 47.293 12.875 47.8711 13.2109C48.4492 13.5391 48.8984 13.9727 49.2188 14.5117C49.5469 15.0508 49.7109 15.7109 49.7109 16.4922C49.7109 16.9688 49.6367 17.3984 49.4883 17.7812C49.3477 18.1641 49.1523 18.5078 48.9023 18.8125C48.6523 19.1094 48.3594 19.3672 48.0234 19.5859C47.6953 19.7969 47.3398 19.9766 46.957 20.125C47.3945 20.2422 47.8281 20.4023 48.2578 20.6055C48.6953 20.8008 49.0859 21.0664 49.4297 21.4023C49.7734 21.7383 50.0508 22.1562 50.2617 22.6562C50.4805 23.1484 50.5898 23.75 50.5898 24.4609ZM41.2734 26.9219C41.4688 26.9375 41.7656 26.9531 42.1641 26.9688C42.5625 26.9766 43.0547 26.9805 43.6406 26.9805C44.1484 26.9805 44.6289 26.9375 45.082 26.8516C45.543 26.7578 45.9414 26.6055 46.2773 26.3945C46.6211 26.1836 46.8906 25.9023 47.0859 25.5508C47.2891 25.1992 47.3906 24.7578 47.3906 24.2266C47.3906 23.4219 47.0547 22.8164 46.3828 22.4102C45.7188 21.9961 44.7695 21.7891 43.5352 21.7891H41.2734V26.9219ZM41.2734 19.2461H43.0898C44.207 19.2461 45.0547 19.0391 45.6328 18.625C46.2188 18.2031 46.5117 17.6211 46.5117 16.8789C46.5117 16.1836 46.2656 15.668 45.7734 15.332C45.2812 14.9883 44.4883 14.8164 43.3945 14.8164C42.9883 14.8164 42.5859 14.8242 42.1875 14.8398C41.7969 14.8477 41.4922 14.8594 41.2734 14.875V19.2461ZM58.9781 23.5586C58.9781 24.1211 59.0289 24.625 59.1305 25.0703C59.2398 25.5078 59.3961 25.8828 59.5992 26.1953C59.8102 26.5078 60.068 26.7461 60.3727 26.9102C60.6852 27.0742 61.0406 27.1562 61.4391 27.1562C61.8141 27.1562 62.1539 27.0742 62.4586 26.9102C62.7633 26.7461 63.0211 26.5078 63.232 26.1953C63.4508 25.8828 63.6148 25.5078 63.7242 25.0703C63.8414 24.625 63.9 24.1211 63.9 23.5586C63.9 22.4336 63.6891 21.5508 63.2672 20.9102C62.8531 20.2695 62.2437 19.9492 61.4391 19.9492C61.0641 19.9492 60.7242 20.0312 60.4195 20.1953C60.1148 20.3594 59.8531 20.5977 59.6344 20.9102C59.4234 21.2227 59.2594 21.6016 59.1422 22.0469C59.0328 22.4922 58.9781 22.9961 58.9781 23.5586ZM55.6969 23.5586C55.6969 22.5508 55.8531 21.6602 56.1656 20.8867C56.4781 20.1055 56.9 19.4531 57.4312 18.9297C57.9703 18.3984 58.5953 17.9961 59.3062 17.7227C60.0172 17.4492 60.7672 17.3125 61.5562 17.3125C62.3844 17.3125 63.1422 17.4492 63.8297 17.7227C64.525 17.9961 65.1187 18.3984 65.6109 18.9297C66.1109 19.4531 66.4977 20.1055 66.7711 20.8867C67.0445 21.6602 67.1812 22.5508 67.1812 23.5586C67.1812 24.5664 67.025 25.4609 66.7125 26.2422C66.4 27.0156 65.9742 27.668 65.4352 28.1992C64.9039 28.7227 64.2828 29.1211 63.5719 29.3945C62.8609 29.6602 62.1109 29.793 61.3219 29.793C60.4937 29.793 59.7359 29.6602 59.0484 29.3945C58.3609 29.1211 57.7672 28.7227 57.2672 28.1992C56.775 27.668 56.3883 27.0156 56.107 26.2422C55.8336 25.4609 55.6969 24.5664 55.6969 23.5586ZM74.9719 23.5586C74.9719 24.1211 75.0227 24.625 75.1242 25.0703C75.2336 25.5078 75.3898 25.8828 75.593 26.1953C75.8039 26.5078 76.0617 26.7461 76.3664 26.9102C76.6789 27.0742 77.0344 27.1562 77.4328 27.1562C77.8078 27.1562 78.1477 27.0742 78.4523 26.9102C78.757 26.7461 79.0148 26.5078 79.2258 26.1953C79.4445 25.8828 79.6086 25.5078 79.718 25.0703C79.8352 24.625 79.8937 24.1211 79.8937 23.5586C79.8937 22.4336 79.6828 21.5508 79.2609 20.9102C78.8469 20.2695 78.2375 19.9492 77.4328 19.9492C77.0578 19.9492 76.718 20.0312 76.4133 20.1953C76.1086 20.3594 75.8469 20.5977 75.6281 20.9102C75.4172 21.2227 75.2531 21.6016 75.1359 22.0469C75.0266 22.4922 74.9719 22.9961 74.9719 23.5586ZM71.6906 23.5586C71.6906 22.5508 71.8469 21.6602 72.1594 20.8867C72.4719 20.1055 72.8937 19.4531 73.425 18.9297C73.9641 18.3984 74.5891 17.9961 75.3 17.7227C76.0109 17.4492 76.7609 17.3125 77.55 17.3125C78.3781 17.3125 79.1359 17.4492 79.8234 17.7227C80.5187 17.9961 81.1125 18.3984 81.6047 18.9297C82.1047 19.4531 82.4914 20.1055 82.7648 20.8867C83.0383 21.6602 83.175 22.5508 83.175 23.5586C83.175 24.5664 83.0187 25.4609 82.7062 26.2422C82.3937 27.0156 81.968 27.668 81.4289 28.1992C80.8977 28.7227 80.2766 29.1211 79.5656 29.3945C78.8547 29.6602 78.1047 29.793 77.3156 29.793C76.4875 29.793 75.7297 29.6602 75.0422 29.3945C74.3547 29.1211 73.7609 28.7227 73.2609 28.1992C72.7687 27.668 72.382 27.0156 72.1008 26.2422C71.8273 25.4609 71.6906 24.5664 71.6906 23.5586ZM96.7781 21.0508C96.5594 20.9336 96.3094 20.8125 96.0281 20.6875C95.7469 20.5547 95.4422 20.4336 95.1141 20.3242C94.7859 20.2148 94.4344 20.125 94.0594 20.0547C93.6922 19.9766 93.3055 19.9375 92.8992 19.9375C92.5555 19.9375 92.2664 19.9688 92.032 20.0312C91.8055 20.0938 91.6219 20.1719 91.4813 20.2656C91.3406 20.3594 91.2391 20.4688 91.1766 20.5938C91.1141 20.7109 91.0828 20.8281 91.0828 20.9453C91.0828 21.0859 91.1063 21.2109 91.1531 21.3203C91.2078 21.4297 91.3172 21.5312 91.4813 21.625C91.6453 21.7188 91.8797 21.8086 92.1844 21.8945C92.4969 21.9805 92.9109 22.0742 93.4266 22.1758C94.0359 22.3008 94.6102 22.457 95.1492 22.6445C95.6883 22.8242 96.1609 23.0586 96.5672 23.3477C96.9734 23.6289 97.2938 23.9727 97.5281 24.3789C97.7625 24.7773 97.8797 25.2539 97.8797 25.8086C97.8797 26.3711 97.7469 26.8945 97.4813 27.3789C97.2156 27.8633 96.8523 28.2852 96.3914 28.6445C95.9383 29.0039 95.3992 29.2852 94.7742 29.4883C94.157 29.6914 93.493 29.793 92.782 29.793C92.2586 29.793 91.7508 29.7578 91.2586 29.6875C90.7742 29.6172 90.3172 29.5195 89.8875 29.3945C89.4578 29.2695 89.0672 29.125 88.7156 28.9609C88.3641 28.7969 88.0594 28.625 87.8016 28.4453L88.4461 25.5859C88.7352 25.8203 89.0633 26.0352 89.4305 26.2305C89.7977 26.4258 90.1766 26.5938 90.5672 26.7344C90.9578 26.875 91.3484 26.9844 91.7391 27.0625C92.1297 27.1328 92.4969 27.168 92.8406 27.168C93.1141 27.168 93.3641 27.1406 93.5906 27.0859C93.825 27.0234 94.0242 26.9414 94.1883 26.8398C94.3523 26.7383 94.4813 26.625 94.575 26.5C94.6688 26.375 94.7156 26.2422 94.7156 26.1016C94.7156 25.9297 94.6766 25.7695 94.5984 25.6211C94.5203 25.4727 94.3797 25.332 94.1766 25.1992C93.9734 25.0664 93.6922 24.9375 93.3328 24.8125C92.9813 24.6875 92.5242 24.5625 91.9617 24.4375C91.1258 24.2656 90.4461 24.0625 89.9227 23.8281C89.3992 23.5938 88.9891 23.332 88.6922 23.043C88.3953 22.7539 88.1922 22.4453 88.0828 22.1172C87.9734 21.7812 87.9188 21.4297 87.9188 21.0625C87.9188 20.875 87.95 20.6523 88.0125 20.3945C88.0828 20.1289 88.1922 19.8594 88.3406 19.5859C88.4969 19.3047 88.7 19.0312 88.95 18.7656C89.2078 18.4922 89.5242 18.25 89.8992 18.0391C90.282 17.8203 90.7273 17.6445 91.2352 17.5117C91.7508 17.3789 92.3445 17.3125 93.0164 17.3125C93.493 17.3125 93.9383 17.3398 94.3523 17.3945C94.7664 17.4492 95.1492 17.5234 95.5008 17.6172C95.8523 17.7031 96.1727 17.8047 96.4617 17.9219C96.7508 18.0312 97.0086 18.1406 97.2352 18.25L96.7781 21.0508ZM107.03 20.0664V24.0859C107.03 24.75 107.057 25.2812 107.112 25.6797C107.166 26.0703 107.252 26.3711 107.37 26.582C107.495 26.793 107.651 26.9297 107.838 26.9922C108.026 27.0547 108.252 27.0859 108.518 27.0859C108.815 27.0859 109.147 27.0117 109.514 26.8633C109.889 26.7148 110.311 26.4961 110.78 26.207V28.832C110.217 29.1836 109.678 29.4297 109.162 29.5703C108.655 29.7188 108.19 29.793 107.768 29.793C107.213 29.793 106.69 29.7383 106.198 29.6289C105.713 29.5273 105.287 29.3438 104.92 29.0781C104.561 28.8125 104.276 28.4609 104.065 28.0234C103.854 27.5781 103.748 27.0156 103.748 26.3359V20.0664H101.522V17.7227H103.748V14.0312H107.03V17.7227H110.604V20.0664H107.03ZM119.227 19.75L125.016 12.3906H128.953L121.746 20.4531L129.891 29.5H125.555L119.227 21.8125V29.5H115.711C115.797 29.0312 115.848 28.3555 115.863 27.4727C115.879 26.582 115.887 25.5586 115.887 24.4023V17.4883C115.887 16.332 115.879 15.3125 115.863 14.4297C115.848 13.5391 115.797 12.8594 115.711 12.3906H119.227V19.75ZM138.384 24.4023C138.384 25.5664 138.392 26.5938 138.408 27.4844C138.423 28.3672 138.474 29.0391 138.56 29.5H134.869C134.955 29.0312 135.005 28.3555 135.021 27.4727C135.037 26.582 135.045 25.5586 135.045 24.4023V16.1055C135.045 15.5586 135.037 15.0508 135.021 14.582C135.013 14.1055 134.998 13.6797 134.974 13.3047C134.951 12.9297 134.916 12.625 134.869 12.3906C135.541 12.375 136.22 12.3555 136.908 12.332C137.197 12.3242 137.505 12.3203 137.834 12.3203C138.162 12.3125 138.494 12.3047 138.83 12.2969C139.173 12.2891 139.513 12.2852 139.849 12.2852C140.185 12.2773 140.509 12.2734 140.822 12.2734C141.767 12.2734 142.63 12.3867 143.412 12.6133C144.193 12.8398 144.861 13.1797 145.416 13.6328C145.97 14.0781 146.4 14.6367 146.705 15.3086C147.017 15.9805 147.173 16.7656 147.173 17.6641C147.173 18.5703 147.017 19.3828 146.705 20.1016C146.392 20.8203 145.951 21.4297 145.38 21.9297C144.818 22.4297 144.138 22.8164 143.341 23.0898C142.545 23.3555 141.666 23.4883 140.705 23.4883C140.275 23.4883 139.877 23.4805 139.509 23.4648C139.142 23.4414 138.767 23.4102 138.384 23.3711V24.4023ZM138.384 20.8281C138.634 20.8672 138.931 20.8984 139.275 20.9219C139.627 20.9375 139.986 20.9453 140.353 20.9453C141.494 20.9453 142.357 20.6836 142.943 20.1602C143.537 19.6367 143.834 18.8438 143.834 17.7812C143.834 17.3594 143.771 16.9727 143.646 16.6211C143.521 16.2617 143.318 15.957 143.037 15.707C142.763 15.457 142.408 15.2617 141.97 15.1211C141.541 14.9805 141.017 14.9102 140.4 14.9102C140.173 14.9102 139.97 14.9141 139.791 14.9219C139.611 14.9219 139.443 14.9258 139.287 14.9336C139.138 14.9336 138.99 14.9375 138.841 14.9453C138.701 14.9531 138.548 14.9609 138.384 14.9688V20.8281ZM160.952 12.3906V14.793H158.14V27.0977H160.952V29.5H151.988V27.0977H154.8V14.793H151.988V12.3906H160.952Z" fill="#283848"></path>
							</svg>