<svg xmlns="http://www.w3.org/2000/svg" xmlns:xlink="http://www.w3.org/1999/xlink" viewBox="0 0 1146.72 135.67"><defs><style>.cls-1{fill:#261447;}.cls-2{fill:#33b1ff;}.cls-3{fill:#d12771;}.cls-4{opacity:0.35;fill:url(#linear-gradient);}</style><linearGradient id="linear-gradient" x1="58.28" y1="35.48" x2="95.64" y2="100.2" gradientUnits="userSpaceOnUse"><stop offset="0" stop-color="#33b1ff"/><stop offset="1" stop-color="#2e53cc"/></linearGradient></defs><g id="Layer_2" data-name="Layer 2"><g id="Logos"><path class="cls-1" d="M306.24,18.07h64V33.14c0,2.56-1.13,3.42-3.55,3.42H328c-1.42,0-1.85.57-1.85,1.85V58.32h35.7c2.42,0,3.56,1,3.56,3.55V76.81H326.15V97.29c0,1.28.43,1.85,1.85,1.85h38.83c2.42,0,3.56.85,3.56,3.41v15.08H306.24Z"/><path class="cls-1" d="M475.4,18.07h64V33.14c0,2.56-1.14,3.42-3.56,3.42H497.16c-1.42,0-1.85.57-1.85,1.85V58.32h33c2.42,0,3.55,1,3.55,3.55V76.81H495.31V97.29c0,1.28.43,1.85,1.85,1.85H536c2.41,0,3.55.85,3.55,3.41v15.08H475.4Z"/><path class="cls-1" d="M456.62,102.55v15.08H389.17V18.07h16.35c2.56,0,3.56,1,3.56,3.41V97.29c0,1.28.42,1.85,1.85,1.85h42.13C455.48,99.14,456.62,100,456.62,102.55Z"/><path class="cls-1" d="M221,92.31c.85-1.14,1.56-1.85,2.42-1.85A4.28,4.28,0,0,1,226,91.74C232.79,97,241.61,101,251,101c11.23,0,17.49-4.41,17.49-11.38,0-6.68-5.12-9.39-19.91-13.08-19.63-4.84-31.16-12.1-31.16-29.6,0-19.63,15.37-30.58,36-30.58a53.87,53.87,0,0,1,36.21,13.91l-7.9,12.41c-.71,1.13-1.42,1.85-2.41,1.85a4.86,4.86,0,0,1-2.56-1.14c-7-5-14.52-8.68-23.48-8.68-9.24,0-15.08,4.27-15.08,11,0,7.39,6.12,9.81,19.07,13.08C278.59,64,289.12,72,289.12,88.32c0,19.35-15.65,31-38.27,31A56.19,56.19,0,0,1,213,104.67l8-12.36"/><path class="cls-1" d="M607.33,16.34a56.48,56.48,0,0,1,38.93,15.48l-8.2,11.55a3.44,3.44,0,0,1-2.56,1.71,4.93,4.93,0,0,1-2.56-1.14c-7.11-5.27-15.93-9.11-25.89-9.11C589,34.83,575,48.2,575,68c0,18.92,13.66,32.86,32,32.86a41,41,0,0,0,26.17-9.24,4.27,4.27,0,0,1,2.71-1.29c.85,0,1.56.57,2.27,1.57l8.1,11.59a58,58,0,0,1-40,15.87c-29.31,0-51.93-21.49-51.93-51.08C554.41,38.39,576.89,16.34,607.33,16.34Z"/><path class="cls-1" d="M723,36.54H706.32c-1.42,0-1.84.57-1.84,1.85v75.82c0,2.42-1,3.42-3.56,3.42H684.56V38.39c0-1.28-.57-1.85-2-1.85H662.43V18.05h64.16V33.13C726.59,35.54,725.59,36.54,723,36.54Z"/><path class="cls-1" d="M939.49,36.54H922.78c-1.42,0-1.85.57-1.85,1.85v75.82c0,2.42-1,3.42-3.55,3.42H901V38.39c0-1.28-.57-1.85-2-1.85H878.89V18.05h64.16V33.13C943.05,35.54,942.05,36.54,939.49,36.54Z"/><path class="cls-1" d="M997.66,23.45c-2.85-5.83-4.27-7.4-6.69-7.4s-3.84,1.57-6.68,7.4l-45.9,94.18h17.44c3.28,0,4.27-.57,5.69-3.84L970,95.63a1.82,1.82,0,0,1,1.64-1h38.68a1.8,1.8,0,0,1,1.64,1l8.47,18.17c1.42,3.27,2.42,3.84,5.69,3.84h17.44ZM978.9,76.51,991,50.62,1003,76.51a1,1,0,0,1-.91,1.43H979.81A1,1,0,0,1,978.9,76.51Z"/><path class="cls-1" d="M1123.59,113.79c1.42,3.27,2.42,3.84,5.69,3.84h17.44l-20-42.9c7.47-5.2,12.11-13.35,12.11-25,0-20.77-13.37-31.72-41-31.72h-35.14v99.58h16.36c2.56,0,3.56-1,3.56-3.42V84.91c0-1.57.43-2,1.85-2h24.85c18.51,39.7,14.25,30.87,14.25,30.87m-26.15-48.51h-13c-1.42,0-1.85-.43-1.85-2V38.39c0-1.28.43-1.85,1.85-1.85H1097c13.51,0,21.2,3.84,21.2,14.22C1118.21,60.72,1111.38,65.28,1097.44,65.28Z"/><path class="cls-1" d="M793.65,92.31c.85-1.14,1.57-1.85,2.42-1.85a4.28,4.28,0,0,1,2.56,1.28c6.83,5.26,15.65,9.24,25,9.24,11.24,0,17.5-4.41,17.5-11.38,0-6.68-5.13-9.39-19.92-13.08-19.63-4.84-31.16-12.1-31.16-29.6,0-19.63,15.37-30.58,36-30.58a53.84,53.84,0,0,1,36.2,13.91L854.4,42.66c-.72,1.13-1.43,1.85-2.42,1.85a4.9,4.9,0,0,1-2.56-1.14c-7-5-14.51-8.68-23.48-8.68-9.24,0-15.08,4.27-15.08,11,0,7.39,6.12,9.81,19.07,13.08C851.27,64,861.79,72,861.79,88.32c0,19.35-15.65,31-38.26,31a56.2,56.2,0,0,1-37.87-14.67l8-12.36"/><polygon class="cls-2" points="114.33 58.76 92.68 58.76 103.5 40.02 87.78 30.94 76.96 49.68 66.14 30.94 50.42 40.02 61.24 58.76 39.59 58.76 39.59 76.91 39.59 76.91 61.24 76.91 50.42 95.66 66.14 104.73 76.96 85.99 87.78 104.73 103.5 95.66 92.68 76.91 114.33 76.91 114.33 58.76"/><path class="cls-3" d="M30.4,117.67H18L17.89,18H30.4V0H17.89A17.94,17.94,0,0,0,0,17.84v100a17.93,17.93,0,0,0,17.89,17.79H30.4Z"/><path class="cls-3" d="M136,0H123.52V18h12.4l.11,99.67H123.52v18H136a17.94,17.94,0,0,0,17.89-17.84v-100A17.93,17.93,0,0,0,136,0Z"/><polygon class="cls-4" points="114.33 58.76 92.68 58.76 103.5 40.02 87.78 30.94 76.96 49.68 66.14 30.94 50.42 40.02 61.24 58.76 39.59 58.76 39.59 76.91 39.59 76.91 61.24 76.91 50.42 95.66 66.14 104.73 76.96 85.99 87.78 104.73 103.5 95.66 92.68 76.91 114.33 76.91 114.33 58.76"/></g></g></svg>