<?xml version="1.0" encoding="utf-8"?>
<!-- Generator: Adobe Illustrator 24.1.0, SVG Export Plug-In . SVG Version: 6.00 Build 0)  -->
<svg version="1.1" id="Layer_1" xmlns="http://www.w3.org/2000/svg" xmlns:xlink="http://www.w3.org/1999/xlink" x="0px" y="0px"
	 viewBox="0 0 500 73.1" style="enable-background:new 0 0 500 73.1;" xml:space="preserve">
<style type="text/css">
	.st0{fill:#6080C0;}
</style>
<g id="logo-knoema-blue" transform="translate(-64.346 -54)">
	<path id="Path_35290" class="st0" d="M134.2,125.4h-25.8L86.1,90.8h-0.3v34.6H64.3V55.7h21.5v32.2h0.3l20.8-32.2h25.5l-25,32.7
		L134.2,125.4z"/>
	<path id="Path_35291" class="st0" d="M209.6,125.4h-21.5V86.7c0-10.8-3.9-16.2-11.6-16.2c-3.6-0.1-7,1.5-9.2,4.3
		c-2.5,3.1-3.8,6.9-3.6,10.9v39.8h-21.5V55.7h21.5v11h0.3c4.5-8.1,13.1-13,22.4-12.7c15.4,0,23.2,9.6,23.2,28.7V125.4z"/>
	<path id="Path_35292" class="st0" d="M257,127.1c-11.6,0-20.8-3.3-27.4-9.8c-6.9-7.1-10.5-16.7-10-26.5c0-11.5,3.4-20.5,10.3-27.1
		c6.9-6.5,16.2-9.8,28-9.8c11.6,0,20.6,3.3,27.2,9.8c6.7,6.9,10.3,16.2,9.9,25.8c0,11.6-3.4,20.7-10.2,27.4
		C278.1,123.8,268.8,127.1,257,127.1z M257.5,70.5c-4.6-0.2-9,1.7-11.8,5.2c-3.1,4.3-4.6,9.6-4.2,14.8c0,13.4,5.4,20.1,16.2,20.1
		c10.3,0,15.5-6.9,15.5-20.6C273.1,77,267.9,70.5,257.5,70.5z"/>
	<path id="Path_35293" class="st0" d="M371.6,96.7h-45.5c0.7,10.1,7.1,15.2,19.1,15.2c7.1,0.1,14.1-1.7,20.2-5.4v15.5
		c-7.8,3.8-16.5,5.5-25.1,5.2c-11.3,0-20-3.1-26.2-9.4c-6.2-6.2-9.3-14.9-9.3-26.1c0-11.6,3.4-20.7,10.1-27.5
		c6.5-6.7,15.5-10.3,24.8-10.1c10.2,0,18,3,23.6,9.1c5.8,6.8,8.8,15.6,8.3,24.6L371.6,96.7z M351.7,83.5c0-10-4-15-12.1-15
		c-3.5,0-6.8,1.6-9,4.3c-2.6,3-4.2,6.7-4.6,10.7H351.7z"/>
	<path id="Path_35294" class="st0" d="M492.2,125.4h-21.5V85.7c0-10.1-3.7-15.2-11.2-15.2c-3.5,0-6.7,1.7-8.6,4.6
		c-2.3,3.3-3.5,7.3-3.3,11.4v39h-21.5V85.3c0-9.8-3.7-14.8-11-14.8c-3.5-0.1-6.8,1.5-8.8,4.4c-2.4,3.5-3.5,7.6-3.3,11.8v38.7h-21.5
		V55.7H403v10.9h0.3c4.8-7.8,13.3-12.6,22.5-12.6c8.9-0.6,17.1,4.7,20.2,13c4.8-8.4,13.8-13.4,23.4-13c15.2,0,22.7,9.3,22.7,28
		L492.2,125.4z"/>
	<path id="Path_35295" class="st0" d="M564.3,125.4H544v-10h-0.3c-4.2,7.5-12.2,12-20.8,11.7c-5.9,0.3-11.6-1.7-16-5.8
		c-4-4.1-6.1-9.7-5.8-15.4c0-13.5,8-21.3,24-23.4l18.9-2.5c0-7.6-4.1-11.4-12.4-11.4c-8.5,0-16.7,2.6-23.7,7.4V59.9
		c3.9-1.9,8-3.2,12.3-4.1c4.7-1.1,9.4-1.7,14.2-1.8c19.9,0,29.8,9.9,29.8,29.8L564.3,125.4z M544.1,97.1v-4.7L531.5,94
		c-7,0.9-10.5,4.1-10.5,9.5c-0.1,2.3,0.9,4.5,2.6,6c1.9,1.6,4.4,2.5,6.9,2.4c3.7,0.1,7.4-1.4,9.9-4.2
		C542.9,104.8,544.3,101,544.1,97.1L544.1,97.1z"/>
</g>
</svg>
