<svg width="168" height="60" viewBox="0 0 168 60" fill="none" xmlns="http://www.w3.org/2000/svg">
<g clip-path="url(#clip0)">
<path fill-rule="evenodd" clip-rule="evenodd" d="M96.9562 21.1215C96.4855 21.4359 96.0411 21.7884 95.6273 22.1754L98.3672 24.9308C98.9107 24.4293 99.5364 24.0262 100.217 23.7391V23.7391C100.606 23.5782 101.009 23.456 101.422 23.374C101.842 23.2912 102.269 23.2496 102.696 23.25C103.563 23.2217 104.426 23.3688 105.235 23.6826C106.043 23.9965 106.781 24.4706 107.404 25.077C108.027 25.6833 108.522 26.4093 108.86 27.212C109.198 28.0146 109.373 28.8775 109.373 29.7492C109.373 30.621 109.198 31.4839 108.86 32.2865C108.522 33.0892 108.027 33.8152 107.404 34.4215C106.781 35.0279 106.043 35.502 105.235 35.8159C104.426 36.1297 103.563 36.2768 102.696 36.2485C102.236 36.2518 101.777 36.208 101.326 36.1176C100.912 36.0391 100.51 35.9095 100.128 35.7318C99.7307 35.5413 99.3543 35.3105 99.0042 35.043C98.6218 34.7519 98.2602 34.4343 97.922 34.0924V34.0924L90.4695 26.6047L87.7297 29.3601L95.1821 36.8546C95.6733 37.3569 96.2048 37.8177 96.7712 38.2323C97.3203 38.6305 97.9051 38.9764 98.5179 39.2656C99.1499 39.5693 99.8139 39.8004 100.497 39.9544C101.22 40.1095 101.957 40.1857 102.696 40.1817C104.052 40.1816 105.395 39.9148 106.648 39.3965C109.176 38.3325 111.187 36.311 112.245 33.7686C113.29 31.2217 113.288 28.3615 112.239 25.816C111.19 23.2705 109.179 21.2476 106.648 20.1916C105.396 19.6677 104.053 19.3985 102.696 19.3994C102.022 19.3989 101.349 19.4681 100.689 19.6061C100.025 19.7374 99.3754 19.9358 98.7508 20.1985C98.1247 20.4479 97.5237 20.757 96.9562 21.1215V21.1215Z" fill="#29B5E8"/>
<path fill-rule="evenodd" clip-rule="evenodd" d="M26.5211 39.2724C27.4599 39.2766 28.3973 39.1982 29.3226 39.0382C30.1946 38.8931 31.0503 38.6624 31.8775 38.3493C32.6854 38.0175 33.4567 37.6019 34.179 37.1094C34.9178 36.6296 35.6062 36.0757 36.2339 35.4562V35.4562C36.8676 34.8451 37.4411 34.1738 37.9463 33.4517C38.4326 32.7585 38.8437 32.0149 39.1724 31.2336C39.5009 30.4643 39.751 29.6634 39.919 28.8433C40.0809 27.9595 40.1612 27.0625 40.1588 26.1637C40.1605 25.2651 40.0803 24.3681 39.919 23.4842C39.758 22.6461 39.5124 21.8267 39.1861 21.0388C38.8574 20.2575 38.4463 19.5139 37.96 18.8207C37.4564 18.0994 36.8828 17.4303 36.2476 16.8231V16.8231C35.6168 16.2071 34.9287 15.6535 34.1927 15.1698C33.4681 14.6964 32.6968 14.2994 31.8912 13.985C31.064 13.6719 30.2083 13.4412 29.3363 13.2962C28.4084 13.1145 27.4663 13.0154 26.5211 13L16 13V39.2724H26.5211ZM51.0086 19.3993C50.3674 19.3983 49.7275 19.4582 49.0976 19.5784C48.5025 19.6981 47.9217 19.8805 47.3646 20.1226C46.8055 20.3662 46.2749 20.6711 45.7823 21.0319C45.2903 21.386 44.8317 21.7849 44.4124 22.2236L44.3234 22.32C43.8865 22.7953 43.4965 23.312 43.1589 23.863C42.8241 24.4067 42.5464 24.9838 42.3301 25.5851C42.1009 26.2076 41.9335 26.8514 41.8301 27.507C41.7156 28.2083 41.6583 28.9179 41.6588 29.6286C41.6472 31.0066 41.8792 32.3757 42.3438 33.6721V33.6721C42.7833 34.882 43.4508 35.9953 44.3097 36.951V36.951C44.7489 37.4175 45.2305 37.8419 45.7481 38.2185C46.2402 38.5723 46.7683 38.8725 47.3235 39.114C47.8833 39.3551 48.4663 39.5375 49.0633 39.6581C49.6933 39.7783 50.3332 39.8383 50.9744 39.8372C51.5068 39.8396 52.0385 39.7958 52.5635 39.7064C53.072 39.6242 53.5718 39.4951 54.0567 39.3206C54.5462 39.1443 55.0205 38.9278 55.4746 38.6731C55.9488 38.4176 56.4022 38.1251 56.8308 37.7983L57.0158 37.6467L57.5432 37.2196V39.2862H61.4544V19.9986H57.5432V22.0651L57.0158 21.6381L56.8308 21.4865C56.4162 21.1469 55.974 20.8427 55.5089 20.5772C55.0576 20.317 54.5828 20.1002 54.091 19.9297C53.6063 19.753 53.1064 19.6216 52.5977 19.5371C52.0728 19.4477 51.5411 19.4039 51.0086 19.4062V19.3993ZM55.8034 25.1787C56.0732 25.4749 56.3183 25.7928 56.5363 26.1293V26.1293C56.7468 26.4654 56.9256 26.8206 57.0706 27.1901C57.217 27.5685 57.3249 27.9609 57.3925 28.3611C57.5386 29.1997 57.5386 30.0575 57.3925 30.8961C57.3249 31.2964 57.217 31.6887 57.0706 32.0671C56.9256 32.4366 56.7468 32.7918 56.5363 33.1279V33.1279C56.3183 33.4644 56.0732 33.7824 55.8034 34.0785C55.5319 34.3701 55.2338 34.6353 54.9129 34.8707C54.6029 35.0942 54.2699 35.2836 53.9197 35.4355C53.5706 35.5893 53.2052 35.7026 52.8306 35.7731C52.445 35.8509 52.0527 35.8901 51.6593 35.8902C51.2615 35.8897 50.8647 35.8505 50.4744 35.7731C50.0956 35.6981 49.7259 35.5826 49.3716 35.4287C49.0177 35.2798 48.6821 35.0903 48.3715 34.8638C48.0517 34.6323 47.7557 34.3692 47.4879 34.0785C47.2123 33.7849 46.9667 33.4641 46.755 33.121C46.5462 32.7861 46.3718 32.4306 46.2344 32.0602C46.0848 31.6884 45.9701 31.3032 45.8919 30.9099C45.7549 30.0705 45.7549 29.2143 45.8919 28.3749C45.9582 27.978 46.0614 27.5883 46.2002 27.2108C46.3375 26.8404 46.512 26.4849 46.7207 26.15C46.9325 25.8069 47.178 25.4861 47.4536 25.1925C47.7215 24.9018 48.0175 24.6387 48.3373 24.4072C48.6495 24.1833 48.9847 23.994 49.3373 23.8424C49.6917 23.6884 50.0614 23.573 50.4401 23.4979C50.8279 23.4187 51.2225 23.3771 51.6182 23.3739C52.0113 23.3717 52.4037 23.4087 52.7895 23.4842C53.1641 23.5547 53.5295 23.6679 53.8786 23.8217C54.2288 23.9737 54.5618 24.1631 54.8718 24.3865C55.1927 24.6219 55.4908 24.8871 55.7623 25.1787H55.8034ZM26.5553 16.9126C27.1755 16.9111 27.7945 16.9664 28.4047 17.0779C28.9907 17.1846 29.5645 17.3508 30.1172 17.5739C30.6637 17.7994 31.1869 18.0785 31.6789 18.4074C32.1718 18.745 32.6306 19.1303 33.0488 19.5578C33.4742 19.9799 33.8595 20.4412 34.1996 20.9354C34.527 21.4289 34.8025 21.9552 35.0215 22.506C35.2456 23.0616 35.4131 23.6386 35.5215 24.2281C35.6324 24.8418 35.6874 25.4643 35.6859 26.088C35.6871 26.7071 35.6321 27.325 35.5215 27.9341V27.9341C35.4122 28.5189 35.2447 29.0912 35.0215 29.6424C34.8025 30.1954 34.5271 30.724 34.1996 31.2198C33.8618 31.7267 33.4789 32.2017 33.0557 32.6389V32.6389C32.6374 33.0663 32.1786 33.4516 31.6857 33.7892C31.1968 34.1233 30.6732 34.4028 30.124 34.6227C29.5713 34.8458 28.9976 35.012 28.4116 35.1187C27.8021 35.2359 27.1827 35.2936 26.5622 35.2909H20.2947V16.9333H26.5211L26.5553 16.9126Z" fill="#24323D"/>
<path fill-rule="evenodd" clip-rule="evenodd" d="M63.0435 23.3325H65.8998V33.3552C65.8947 33.764 65.9291 34.1723 66.0025 34.5744C66.0729 34.9533 66.1855 35.323 66.3382 35.6766C66.4925 36.0285 66.683 36.3633 66.9067 36.6754C67.1438 36.9976 67.4122 37.2953 67.7081 37.564C68.0107 37.8443 68.3386 38.0957 68.6876 38.3148C69.0322 38.5232 69.3943 38.7007 69.7699 38.8452C70.1593 38.9879 70.5604 39.0962 70.9685 39.169C71.4011 39.2395 71.8387 39.274 72.2768 39.2723H74.8112V35.5388H72.7563C72.3695 35.541 71.9858 35.4685 71.6261 35.3252C71.2728 35.1924 70.9513 34.9864 70.6822 34.7206C70.4132 34.4548 70.2027 34.1351 70.0644 33.7822C69.917 33.4242 69.8425 33.0401 69.8452 32.6525V23.3325H74.8249V19.9848H69.8452V16.0239H65.8998V19.9848H63.0435V23.3325Z" fill="#24323D"/>
<path fill-rule="evenodd" clip-rule="evenodd" d="M118.656 47.9999V37.2058L119.176 37.6328L119.361 37.7844C119.774 38.1216 120.214 38.4235 120.677 38.6868C121.114 38.9416 121.572 39.1582 122.046 39.3343C122.53 39.5078 123.027 39.6392 123.533 39.7269C125.3 40.0217 127.115 39.8166 128.773 39.1345C129.327 38.8915 129.855 38.5914 130.348 38.239C130.865 37.8642 131.345 37.4397 131.78 36.9715L131.835 36.9164C132.695 35.9696 133.367 34.866 133.814 33.6651C134.042 33.0392 134.211 32.3936 134.321 31.7364C134.54 30.3305 134.54 28.8989 134.321 27.4931C134.212 26.838 134.042 26.1945 133.814 25.5712C133.595 24.9689 133.312 24.3916 132.972 23.8491C132.629 23.2983 132.232 22.7836 131.787 22.313V22.313C131.362 21.8425 130.894 21.4135 130.389 21.0318C129.897 20.671 129.366 20.3661 128.807 20.1225C128.25 19.8804 127.669 19.698 127.074 19.5783C126.442 19.4578 125.8 19.3979 125.156 19.3992C124.626 19.4003 124.097 19.4441 123.574 19.5301C123.068 19.6178 122.571 19.7492 122.088 19.9227C121.613 20.0988 121.155 20.3154 120.718 20.5703C120.255 20.8335 119.815 21.1354 119.403 21.4726L119.218 21.6242L118.697 22.0513V19.9847H114.704V47.9999H118.656ZM150.623 24.0213C150.343 22.6947 149.572 21.5248 148.466 20.7494C147.798 20.2858 147.053 19.9452 146.267 19.7436C145.349 19.4993 144.402 19.3811 143.452 19.3923C142.393 19.382 141.337 19.5164 140.315 19.7919C139.474 20.0216 138.687 20.4174 137.999 20.956C137.405 21.4432 136.935 22.0669 136.629 22.7745C136.302 23.5543 136.141 24.3944 136.157 25.2406C136.148 25.8422 136.231 26.4415 136.403 27.0178C136.569 27.5223 136.829 27.9901 137.171 28.3955C137.562 28.8434 138.025 29.2228 138.54 29.5183C139.202 29.8975 139.903 30.2046 140.63 30.4345L140.773 30.4827L144.739 31.7501C145.097 31.8674 145.445 32.0125 145.781 32.1841C146.063 32.3205 146.325 32.4943 146.561 32.7007C146.779 32.8781 146.959 33.0985 147.089 33.3482C147.215 33.5805 147.281 33.8412 147.281 34.106C147.282 34.4684 147.183 34.8241 146.993 35.1323C146.789 35.453 146.512 35.7199 146.185 35.9107C145.823 36.126 145.43 36.2818 145.02 36.3723C144.555 36.4778 144.079 36.5286 143.602 36.5238C143.082 36.5258 142.562 36.468 142.054 36.3516C141.599 36.2447 141.162 36.0681 140.76 35.8281C140.407 35.6219 140.092 35.3563 139.828 35.0428C139.635 34.7922 139.48 34.5135 139.369 34.2162L135.67 34.7604C135.819 35.4512 136.08 36.1124 136.444 36.7167C136.856 37.3869 137.399 37.9658 138.04 38.4181V38.4181C138.765 38.9204 139.572 39.2911 140.424 39.5134C141.427 39.7699 142.458 39.8949 143.493 39.8853C144.568 39.8975 145.641 39.7584 146.678 39.472C147.544 39.2368 148.356 38.8344 149.068 38.2872C149.692 37.7904 150.188 37.1502 150.514 36.4205C150.847 35.6494 151.013 34.8157 151 33.9751C151.009 33.3466 150.916 32.7208 150.726 32.1221C150.541 31.5715 150.253 31.0617 149.877 30.6204C149.436 30.1267 148.92 29.706 148.349 29.3736C147.621 28.9498 146.852 28.6013 146.055 28.3335L145.904 28.2853L141.938 26.9076C141.647 26.8043 141.366 26.6776 141.095 26.5287C140.866 26.4088 140.652 26.2607 140.458 26.0879C140.281 25.9284 140.134 25.7368 140.027 25.523C139.923 25.3088 139.871 25.0726 139.876 24.8342C139.873 24.5065 139.961 24.1844 140.13 23.9042C140.31 23.6189 140.557 23.3824 140.849 23.2154C141.168 23.0266 141.515 22.8895 141.876 22.809C142.288 22.7155 142.708 22.6693 143.13 22.6712C143.59 22.6677 144.049 22.7115 144.5 22.8021C144.895 22.8856 145.276 23.0271 145.63 23.2223C145.945 23.3997 146.226 23.6331 146.459 23.9111C146.632 24.1208 146.777 24.3524 146.89 24.6L150.616 23.9869L150.623 24.0213ZM128.663 25.1717C128.937 25.466 129.185 25.7841 129.403 26.1223V26.1223C129.613 26.4585 129.792 26.8136 129.937 27.1831C130.081 27.5625 130.188 27.9546 130.259 28.3542C130.405 29.1927 130.405 30.0505 130.259 30.8891C130.188 31.2886 130.081 31.6807 129.937 32.0601C129.792 32.4296 129.613 32.7848 129.403 33.1209V33.1209C129.185 33.4591 128.937 33.7772 128.663 34.0715C128.395 34.3664 128.097 34.6319 127.773 34.8637C127.466 35.0885 127.135 35.278 126.786 35.4285C126.437 35.5823 126.072 35.6956 125.697 35.7661C125.312 35.8439 124.919 35.8831 124.526 35.8832C124.135 35.8831 123.745 35.8439 123.362 35.7661C122.987 35.6966 122.621 35.5833 122.273 35.4285C121.922 35.2766 121.589 35.0872 121.279 34.8637C120.957 34.6301 120.659 34.3647 120.389 34.0715C120.115 33.7761 119.87 33.4555 119.656 33.114C119.449 32.7789 119.277 32.4234 119.142 32.0532C119 31.6768 118.897 31.2867 118.834 30.8891C118.697 30.0497 118.697 29.1935 118.834 28.3542C118.897 27.9566 119 27.5665 119.142 27.19C119.277 26.8198 119.449 26.4644 119.656 26.1292C119.87 25.7877 120.115 25.4671 120.389 25.1717C120.659 24.8785 120.957 24.6131 121.279 24.3795C121.589 24.1561 121.922 23.9667 122.273 23.8147C122.621 23.6599 122.987 23.5467 123.362 23.4772C123.745 23.4017 124.135 23.3647 124.526 23.3669C124.919 23.3647 125.311 23.4017 125.697 23.4772C126.072 23.5477 126.437 23.6609 126.786 23.8147C127.135 23.9652 127.466 24.1547 127.773 24.3795C128.097 24.6135 128.395 24.8813 128.663 25.1786V25.1717Z" fill="#29B5E8"/>
<path fill-rule="evenodd" clip-rule="evenodd" d="M92.223 38.384C92.6929 38.0659 93.1372 37.7112 93.5519 37.3232L90.812 34.5678C90.5773 34.7806 90.3278 34.9763 90.0654 35.1533C89.7167 35.3904 89.3449 35.5912 88.9558 35.7526C88.5686 35.9188 88.1643 36.0412 87.7502 36.1177C87.3306 36.2006 86.9039 36.2421 86.4762 36.2417C85.6286 36.245 84.7887 36.08 84.0047 35.7561C83.2207 35.4322 82.508 34.9558 81.9075 34.3543C81.3056 33.7524 80.8286 33.0364 80.5041 32.2477C80.1795 31.4589 80.014 30.6133 80.0169 29.7597C80.0149 28.9053 80.1809 28.0589 80.5054 27.2692C80.8298 26.4795 81.3063 25.7621 81.9075 25.1583C82.5125 24.5689 83.2239 24.1013 84.0034 23.7806C84.7876 23.4545 85.6276 23.2861 86.4762 23.2846C86.9359 23.2847 87.3946 23.3285 87.8461 23.4155C88.2594 23.4996 88.6616 23.6313 89.0448 23.8081C89.4418 23.9984 89.8182 24.2292 90.1681 24.497C90.551 24.7728 90.9148 25.0743 91.2572 25.3994L98.7097 32.8939L101.45 30.1386L93.9903 22.644C93.499 22.1417 92.9675 21.6809 92.4011 21.2663C91.8522 20.8642 91.2648 20.518 90.6476 20.2331C90.0171 19.9315 89.3556 19.7005 88.6749 19.5442C87.9518 19.3925 87.2149 19.3163 86.4762 19.3169C84.0943 19.3295 81.7898 20.169 79.9525 21.6934C78.1152 23.2178 76.8579 25.3336 76.3931 27.683C75.9283 30.0323 76.2845 32.471 77.4017 34.5865C78.5188 36.7021 80.3282 38.3648 82.5239 39.2933C84.4095 40.075 86.4828 40.2788 88.4831 39.8788C89.1459 39.7411 89.7947 39.5428 90.4216 39.2864C91.0493 39.0439 91.6525 38.7418 92.223 38.384V38.384Z" fill="#24323D"/>
</g>
<defs>
<clipPath id="clip0">
<rect width="135" height="35" fill="white" transform="translate(16 13)"/>
</clipPath>
</defs>
</svg>
