<svg width="168" height="60" viewBox="0 0 168 60" fill="none" xmlns="http://www.w3.org/2000/svg">
<g clip-path="url(#clip0)">
<path d="M84 36.4152C92.8089 36.4152 99.95 29.2742 99.95 20.4653C99.95 11.6564 92.8089 4.51532 84 4.51532C75.1911 4.51532 68.05 11.6564 68.05 20.4653C68.05 29.2742 75.1911 36.4152 84 36.4152Z" fill="#AFD8F3"/>
<path d="M83.9437 31.0217C83.847 30.9263 83.7299 30.8543 83.6012 30.811V27.8375H83.1799V30.6194C82.9781 30.5183 82.749 30.4851 82.5268 30.5249C82.3046 30.5648 82.1013 30.6754 81.9472 30.8403C81.5368 31.256 81.8858 32.4728 81.8919 32.2721C81.8955 32.1545 82.0771 32.0009 82.3142 31.8337C82.3262 32.2557 82.4538 32.6475 82.4575 32.5268C82.469 32.1483 84.3236 31.3968 83.9437 31.0217Z" fill="#F4D3AA"/>
<path d="M84.0153 30.9655C83.9273 30.8882 83.7191 30.8099 83.6963 30.7617C83.6813 30.6667 83.6813 30.5699 83.6963 30.4748V27.8315C83.6963 27.7821 83.6515 27.7649 83.6084 27.7649H83.1871C83.1482 27.7649 83.0848 27.7981 83.0848 27.8435V30.6254L83.2332 30.5533C82.7051 30.2963 81.8953 30.4904 81.7075 31.1012C81.6379 31.3758 81.6309 31.6625 81.6868 31.9401C81.7024 32.0382 81.716 32.3179 81.8332 32.3601C81.8595 32.3692 81.8883 32.3689 81.9144 32.3592C81.9406 32.3495 81.9625 32.331 81.9765 32.3068C82.0756 32.1357 82.2127 31.9897 82.3773 31.8801L82.219 31.8397C82.2263 31.9795 82.2176 32.5589 82.4003 32.6135C82.4148 32.619 82.4302 32.6214 82.4456 32.6207C82.461 32.62 82.4762 32.6162 82.4901 32.6095C82.504 32.6027 82.5164 32.5932 82.5264 32.5815C82.5365 32.5698 82.5441 32.5561 82.5487 32.5414C82.6268 32.1293 84.4551 31.4694 84.0291 30.9793C83.97 30.9114 83.793 30.989 83.8582 31.064C84.0703 31.308 83.1968 31.7845 83.0425 31.888C82.803 32.0488 82.4174 32.2418 82.3584 32.5534L82.5068 32.4813C82.4439 32.4625 82.4104 31.8478 82.4093 31.8277C82.4051 31.7463 82.3017 31.7508 82.2511 31.7873C82.0624 31.9135 81.9065 32.0827 81.7963 32.2812L81.9397 32.2279C81.9279 32.1339 81.9094 32.0408 81.8842 31.9494C81.8469 31.7569 81.8348 31.5604 81.8482 31.3648C81.861 31.2216 81.9094 31.0839 81.9889 30.9641C82.0683 30.8443 82.1764 30.7463 82.3034 30.6788C82.4303 30.6114 82.5721 30.5767 82.7159 30.5778C82.8596 30.579 83.0008 30.616 83.1266 30.6855C83.1739 30.7085 83.2751 30.6756 83.2751 30.6134V27.8315L83.1727 27.9101H83.5939L83.506 27.8435V30.8171C83.5055 30.8303 83.5094 30.8432 83.5169 30.8541C83.5245 30.8649 83.5354 30.873 83.5479 30.8771C83.6669 30.9245 83.7766 30.9924 83.872 31.0779C83.9388 31.1365 84.0988 31.0389 84.0153 30.9655Z" fill="#6290C3"/>
<path d="M84.1657 31.0874C84.2624 30.9921 84.3795 30.92 84.5082 30.8768V27.9032H84.9295V30.6851C85.1313 30.584 85.3604 30.5508 85.5826 30.5907C85.8048 30.6305 86.0081 30.7411 86.1622 30.9061C86.5726 31.3217 86.2236 32.5385 86.2174 32.3378C86.2139 32.2202 86.0323 32.0666 85.7952 31.8994C85.7832 32.3214 85.6556 32.7132 85.6519 32.5926C85.6404 32.2141 83.7858 31.4625 84.1657 31.0874Z" fill="#F4D3AA"/>
<path d="M84.2394 31.0976C84.3249 31.012 84.4288 30.9472 84.5433 30.9082C84.5677 30.8984 84.6018 30.8818 84.6018 30.8517V27.8781L84.4701 27.95C84.5587 27.95 84.8143 27.9014 84.8795 27.95C84.8043 27.894 84.8358 28.0431 84.8358 28.0896V30.7103C84.8358 30.7606 84.9693 30.7146 84.9858 30.7066C85.1182 30.6445 85.2638 30.6157 85.4098 30.6227C85.5558 30.6297 85.698 30.6723 85.8238 30.7467C85.9497 30.8211 86.0554 30.9252 86.1319 31.0498C86.2084 31.1744 86.2533 31.3158 86.2627 31.4617C86.276 31.6599 86.2636 31.859 86.2257 32.054C86.2129 32.1248 86.13 32.3492 86.1878 32.3284L86.3166 32.3347C86.2113 32.1458 86.0625 31.9848 85.8827 31.8648C85.8481 31.8398 85.705 31.8574 85.7021 31.9132C85.6957 32.0705 85.6769 32.2271 85.6456 32.3815C85.6246 32.4791 85.5406 32.6049 85.6452 32.5737L85.7494 32.5881C85.6757 32.1987 83.9486 31.4346 84.2519 31.0857C84.299 31.0315 84.115 31.0484 84.0795 31.0892C83.6937 31.533 85.4825 32.2176 85.5622 32.6383C85.5688 32.6732 85.6486 32.6579 85.6664 32.6526C85.9038 32.5818 85.8788 32.0681 85.8883 31.8858L85.7077 31.9342C85.8818 32.049 86.0263 32.2034 86.1293 32.3849C86.1524 32.4247 86.2258 32.4027 86.258 32.3912C86.3824 32.3464 86.3924 32.1344 86.412 32.0266C86.4783 31.7362 86.4752 31.4343 86.4029 31.1453C86.2058 30.5189 85.3905 30.4119 84.8731 30.6638L85.0231 30.6601V27.8782C85.0231 27.8574 84.9789 27.8565 84.9676 27.8565H84.5463C84.5074 27.8565 84.4146 27.8764 84.4146 27.9284V30.9019L84.4731 30.8454C84.3332 30.8993 84.2042 30.9778 84.092 31.0773C84.0148 31.1451 84.1996 31.1326 84.2394 31.0976Z" fill="#6290C3"/>
<path d="M93.7679 18.8635C93.6331 18.5752 93.4095 18.3377 93.1299 18.1857C92.8503 18.0337 92.5293 17.9752 92.2141 18.0189C92.0573 18.0459 91.9065 18.1006 91.7689 18.1806C91.7541 16.3632 91.7 14.6112 91.6069 12.9244C91.6067 12.608 91.5441 12.2948 91.4226 12.0027C91.3011 11.7106 91.1232 11.4454 90.8989 11.2222C90.8242 11.1477 90.7446 11.0781 90.6607 11.0141C90.6451 10.9689 90.6289 10.9232 90.6115 10.877C90.3431 10.1635 90.5872 9.53453 90.3331 9.23622C89.6118 9.28445 88.9023 9.44404 88.2299 9.70931C87.914 9.86296 87.6229 10.0628 87.366 10.3023C86.7138 10.2433 86.0291 10.1988 85.3142 10.1742C84.0261 9.85477 82.8198 9.26747 81.7739 8.45057L83.5614 10.0136C82.4381 9.67683 81.3875 9.13348 80.4635 8.41145L82.492 10.1853C81.9929 10.2064 81.5095 10.2364 81.042 10.2753C80.7629 9.99582 80.4392 9.76489 80.0842 9.59196C79.4118 9.3267 78.7023 9.16711 77.981 9.11888C77.7269 9.41719 77.971 10.0462 77.7026 10.7596C77.6907 10.7911 77.6793 10.8223 77.6684 10.8532C77.4956 10.9562 77.3363 11.0801 77.194 11.2223C76.747 11.6769 76.4933 12.2869 76.486 12.9244C76.3464 14.5619 76.2529 16.3162 76.2286 18.1744C76.0941 18.0978 75.9473 18.0452 75.7947 18.0189C75.4795 17.9753 75.1586 18.0337 74.8789 18.1857C74.5993 18.3377 74.3758 18.5753 74.241 18.8636C73.8315 20.0251 73.6935 21.2651 73.8377 22.4882C73.9819 23.7114 74.4044 24.8852 75.0728 25.9197C75.578 24.9531 75.993 23.942 76.3127 22.8993L76.3189 22.8789C76.3622 23.7222 76.418 24.5388 76.486 25.3288C76.4862 25.6451 76.5488 25.9583 76.6703 26.2505C76.7918 26.5426 76.9697 26.8078 77.194 27.0309C77.6487 27.4779 78.2586 27.7316 78.8962 27.7389C80.7164 27.926 82.5454 28.0138 84.3752 28.0019C86.112 27.9905 87.7255 27.8901 89.1967 27.7389C89.5131 27.7388 89.8263 27.6762 90.1184 27.5547C90.4105 27.4332 90.6757 27.2552 90.8989 27.0309C91.3459 26.5763 91.5996 25.9663 91.6069 25.3288C91.6488 24.5488 91.6831 23.7536 91.7099 22.9433C92.0277 23.9705 92.4381 24.9667 92.936 25.9197C93.6044 24.8852 94.0269 23.7114 94.1711 22.4882C94.3153 21.2651 94.1774 20.0251 93.7679 18.8636L93.7679 18.8635Z" fill="#78A6D1"/>
<path d="M93.9647 19.005C93.5379 18.1972 92.4373 17.5779 91.5721 18.0392L91.9657 18.3221C91.9528 16.8455 91.9126 15.3695 91.8451 13.8941C91.8153 13.2511 91.8454 12.5865 91.5515 11.9958C91.4265 11.7456 91.259 11.5191 91.0565 11.3263C90.8219 11.0939 90.6873 10.7789 90.6816 10.4487C90.6396 10.0312 90.766 9.5466 90.3867 9.27194C90.3035 9.19312 90.2043 9.13315 90.0958 9.09614C89.8854 9.09002 89.6753 9.11558 89.4726 9.17197C88.9582 9.23813 88.4565 9.37995 87.9836 9.59285C87.7349 9.71791 87.5022 9.87244 87.2904 10.0531C87.1447 10.1768 87.077 10.1522 86.8793 10.1359C86.682 10.1196 86.4846 10.1049 86.2871 10.0918C85.88 10.091 85.4733 10.0672 85.0689 10.0205C84.7158 9.94246 84.3704 9.83341 84.0365 9.69459C83.2955 9.42798 82.5973 9.05467 81.9641 8.58646C81.8399 8.49029 81.695 8.41222 81.5771 8.30915L83.0485 9.59581C83.1504 9.66405 83.2431 9.74511 83.3243 9.83701C83.3292 9.84494 83.3651 9.86317 83.3646 9.87217C83.3652 9.86004 82.8347 9.69617 82.8026 9.68424C82.0334 9.41488 81.3091 9.03165 80.6537 8.54734C80.5295 8.45116 80.3846 8.37309 80.2667 8.27L81.5672 9.40718C81.8057 9.57614 82.0263 9.76908 82.2256 9.98298C82.2334 9.99368 82.2866 10.024 82.2855 10.0353C82.2833 10.0566 82.0947 10.0528 82.0469 10.0551C81.6459 10.0748 81.2453 10.101 80.8452 10.1338L81.2388 10.4167C80.8269 10.006 80.3478 9.66903 79.8221 9.42026C79.5037 9.28839 79.1723 9.19014 78.8335 9.1271C78.5222 9.02905 78.1975 8.97991 77.871 8.98143C77.7333 9.00129 77.7082 9.07641 77.6775 9.22259C77.6526 9.3934 77.643 9.56608 77.6487 9.73859C77.6472 9.91657 77.6316 10.0942 77.602 10.2697C77.5873 10.3899 77.5548 10.5074 77.5058 10.6182C77.4333 10.748 77.3435 10.7879 77.2227 10.8819C76.9518 11.097 76.729 11.3667 76.5689 11.6734C76.4088 11.9801 76.3148 12.317 76.2931 12.6623C76.23 13.5095 76.1673 14.3573 76.1234 15.206C76.1004 15.6492 76.0815 16.0925 76.0667 16.5361C76.0584 16.7835 76.0513 17.0311 76.0456 17.2786C76.0426 17.4038 76.04 17.5291 76.0378 17.6543C76.0362 17.7384 76.0348 17.8224 76.0336 17.9064C76.0694 18.0484 76.0346 18.0731 75.9292 17.9804C75.8321 17.9767 75.7 17.8948 75.598 17.8775C75.5112 17.8628 75.4233 17.8569 75.3354 17.8597C75.1593 17.8658 74.9859 17.9048 74.8242 17.9746C74.4642 18.1274 74.1778 18.4144 74.0258 18.7748C73.798 19.3941 73.6602 20.0429 73.6165 20.7013C73.4655 22.4862 73.9083 24.271 74.8761 25.7783C74.9039 25.8217 75.2783 26.0445 75.2697 26.0612C75.7785 25.0885 76.1957 24.0705 76.5157 23.0204L76.1221 22.7375C76.1699 23.6513 76.1897 24.5891 76.3091 25.4963C76.355 25.8233 76.4661 26.1378 76.6359 26.421C76.8057 26.7042 77.0306 26.9504 77.2974 27.1449C77.6887 27.4757 78.1511 27.7118 78.6485 27.8346C79.2449 27.925 79.8461 27.9806 80.449 28.0012C82.2361 28.1362 84.0292 28.1758 85.8205 28.1197C86.6829 28.0927 87.5441 28.0435 88.4043 27.9722C89.1898 27.9072 90.037 27.9322 90.7183 27.4809C91.0154 27.2815 91.2653 27.0195 91.4503 26.7133C91.6354 26.4071 91.7512 26.064 91.7895 25.7083C91.885 24.8435 91.8776 23.9539 91.9067 23.0847L91.5131 22.8018C91.8339 23.828 92.2441 24.824 92.7392 25.7783C92.7616 25.8215 93.1403 26.0495 93.1328 26.0612C93.7947 25.0239 94.2133 23.8504 94.3574 22.6284C94.5014 21.4064 94.3672 20.1677 93.9647 19.005C93.9205 18.8783 93.6138 18.8449 93.5711 18.7221C93.9736 19.8848 94.1078 21.1236 93.9638 22.3455C93.8197 23.5675 93.4011 24.741 92.7392 25.7783L93.1328 26.0612C92.6377 25.1068 92.2274 24.1109 91.9067 23.0847C91.8769 22.9896 91.5102 22.8894 91.5131 22.8018C91.4859 23.6136 91.4529 24.4255 91.4093 25.2366C91.3902 25.7455 91.2178 26.2367 90.9147 26.6459C90.7055 26.9194 90.4404 27.1453 90.1371 27.3084C89.8337 27.4715 89.4992 27.5682 89.1556 27.5919C88.3916 27.6413 87.6296 27.7252 86.8648 27.7712C85.1525 27.8739 83.4361 27.8891 81.7222 27.8165C80.9636 27.7845 80.2059 27.7352 79.4492 27.6689C78.9511 27.6592 78.4554 27.5955 77.9709 27.479C77.6313 27.3813 77.3366 27.1677 77.1379 26.8754C76.9243 26.5796 76.7807 26.2392 76.7179 25.8798C76.6408 25.4343 76.6398 24.961 76.6074 24.5097C76.5718 24.0136 76.5412 23.5171 76.5156 23.0204C76.5118 22.9476 76.1052 22.7934 76.122 22.7375C75.802 23.7876 75.3849 24.8056 74.876 25.7783L75.2696 26.0612C74.1753 24.3542 73.7579 22.3 74.0994 20.3013C74.2457 19.4611 74.4474 18.4731 75.3838 18.1979C75.5998 18.1341 75.8283 18.1255 76.0485 18.1727C76.077 18.1789 76.4094 18.3248 76.4254 18.3159C76.4504 18.1279 76.4536 17.9377 76.435 17.749C76.4486 17.095 76.471 16.4412 76.5021 15.7876C76.55 14.7817 76.5627 13.7425 76.7075 12.7452C76.7711 12.2971 76.9565 11.8751 77.2435 11.5251C77.4137 11.3197 77.6411 11.2042 77.8225 11.0213C77.9807 10.7679 78.0557 10.4714 78.0369 10.1732C78.0312 9.9501 78.0427 9.72687 78.0711 9.5055C78.1207 9.2689 78.1866 9.25439 78.4041 9.27677C78.831 9.32147 79.2534 9.40136 79.6671 9.51563C79.8778 9.56997 80.0832 9.64285 80.281 9.73342C80.3498 9.7663 80.7894 10.0411 80.5984 9.9033C80.4209 9.77523 80.6411 9.94439 80.698 9.99523C80.7481 10.04 80.7938 10.0907 80.8451 10.1338C80.9302 10.2053 81.0259 10.2674 81.1165 10.3316C81.3019 10.4631 81.4864 10.3966 81.7114 10.3811C81.8036 10.3747 82.6865 10.3129 82.688 10.3261C82.6851 10.3004 82.5811 10.2326 82.564 10.2177L81.8904 9.62858L80.6603 8.55291L80.2733 8.27558C80.7329 8.63793 81.2155 8.96993 81.7182 9.26947C82.1358 9.51295 82.5715 9.72388 83.0215 9.90037C83.2731 9.96649 83.5194 10.0516 83.7581 10.155C83.7534 10.1387 83.7107 10.1171 83.701 10.105C83.5843 9.98456 83.4578 9.87396 83.3228 9.77437L82.7213 9.24837L81.9707 8.59198L81.5838 8.31464C82.823 9.27426 84.3467 10.259 85.9486 10.3333C86.2128 10.3456 86.4768 10.3606 86.7407 10.3786C86.9926 10.4261 87.2488 10.4463 87.505 10.4386C87.6615 10.4108 87.8311 10.2119 87.9735 10.1143C88.1474 9.99367 88.3326 9.89031 88.5267 9.80573C89.1636 9.54487 89.842 9.39991 90.5299 9.37767L90.1363 9.09478C90.2644 9.36251 90.3125 9.66157 90.2746 9.95597C90.2623 10.2749 90.3296 10.5919 90.4705 10.8783C90.5816 11.0429 90.7998 11.1717 90.9256 11.3387C91.0339 11.4825 91.126 11.6378 91.2001 11.8019C91.3382 12.1313 91.4106 12.4846 91.4132 12.8418C91.4865 14.5744 91.557 16.3047 91.5721 18.0392C91.6926 18.1475 91.8246 18.2424 91.9657 18.3221C92.2597 18.1569 92.604 18.105 92.9336 18.1759C93.2789 18.2528 93.3899 18.3791 93.5711 18.7221C93.6393 18.8513 93.8979 18.8786 93.9647 19.005Z" fill="#6290C3"/>
<path d="M83.554 14.2829C84.1675 15.9187 84.5361 19.2823 82.0112 20.8461C80.9363 21.5118 79.6409 21.7233 78.4101 21.434C77.1793 21.1446 76.1138 20.3782 75.448 19.3033C73.9068 16.8148 75.5913 13.983 76.9908 12.7401C77.314 12.453 79.0809 10.8838 81.0254 11.4765C82.6919 11.9844 83.3476 13.7326 83.554 14.2829Z" fill="white"/>
<path d="M83.3601 14.2828C83.9122 15.777 84.0323 17.5996 83.3673 19.0764C82.9037 20.0448 82.094 20.8042 81.098 21.205C80.102 21.6057 78.9919 21.6187 77.9868 21.2413C77.0144 20.8689 76.1907 20.1882 75.6419 19.3033C75.3434 18.8082 75.1489 18.2576 75.0703 17.6849C74.9918 17.1122 75.0307 16.5295 75.1848 15.9724C75.4186 15.1084 75.8242 14.3005 76.3774 13.597C76.9305 12.8934 77.6199 12.3086 78.4043 11.8776C79.0487 11.483 79.8079 11.3187 80.5578 11.4116C81.1506 11.5343 81.6952 11.8262 82.1256 12.2519C82.6828 12.8288 83.1046 13.5226 83.3601 14.2829C83.385 14.3493 83.7429 14.2696 83.7479 14.2829C83.4923 13.5226 83.0706 12.8288 82.5133 12.2519C82.1419 11.9048 81.6989 11.6433 81.2154 11.486C80.732 11.3286 80.2199 11.2793 79.7153 11.3413C77.7875 11.5149 76.1336 13.0645 75.2819 14.7173C74.9673 15.2746 74.7662 15.8888 74.6904 16.5243C74.6146 17.1598 74.6655 17.804 74.8403 18.4197C75.2335 19.5467 76.0449 20.4794 77.1066 21.0249C78.9063 21.9627 81.4055 21.7488 82.8904 20.3149C84.4645 18.7949 84.4616 16.2144 83.7479 14.2829C83.7235 14.2168 83.3648 14.2955 83.3601 14.2828Z" fill="#6290C3"/>
<path d="M84.6999 14.4801C84.0863 16.1159 83.7178 19.4795 86.2427 21.0433C87.3176 21.7091 88.613 21.9205 89.8438 21.6312C91.0746 21.3419 92.1401 20.5754 92.8059 19.5005C94.3471 17.012 92.6625 14.1802 91.2631 12.9373C90.9399 12.6503 89.173 11.081 87.2285 11.6737C85.562 12.1817 84.9063 13.9298 84.6999 14.4801Z" fill="white"/>
<path d="M84.506 14.4801C83.8854 16.1594 83.8017 18.2889 84.8051 19.839C85.9823 21.6575 88.4992 22.2134 90.4711 21.5259C91.5169 21.1635 92.4069 20.4537 92.9928 19.5147C93.3233 18.96 93.5265 18.3388 93.5877 17.696C93.6489 17.0532 93.5665 16.4048 93.3467 15.7976C92.7427 13.9893 91.2673 12.3242 89.4326 11.7066C88.8613 11.4969 88.2464 11.4343 87.6445 11.5243C87.0427 11.6144 86.4731 11.8543 85.9882 12.2221C85.3011 12.8287 84.7893 13.6084 84.506 14.4801C84.4925 14.5162 84.8562 14.5802 84.8938 14.4801C85.123 13.8144 85.4749 13.1975 85.9312 12.6613C86.3063 12.216 86.8052 11.8921 87.3647 11.7306C87.9241 11.5692 88.5189 11.5775 89.0736 11.7545C90.7618 12.2872 92.1396 13.7923 92.806 15.3912C93.2985 16.414 93.3715 17.5888 93.0094 18.6647C92.6474 19.7406 91.8791 20.6323 90.8685 21.1494C88.9889 22.1723 86.4879 21.7055 85.2454 19.9095C84.1784 18.3671 84.2666 16.1774 84.8938 14.4801C84.9073 14.4434 84.543 14.3801 84.506 14.4801Z" fill="#6290C3"/>
<path d="M84.0363 21.5787C81.3297 21.5792 78.9314 26.1281 79.5164 27.7914C79.523 27.81 79.5304 27.8277 79.5376 27.8455C80.9528 27.9659 82.4901 28.0365 84.1345 28.0258L84.1552 28.0256C84.1648 28.0235 84.1744 28.0221 84.1842 28.0215C84.1983 28.0216 84.2123 28.0227 84.2262 28.0249C85.7604 28.0121 87.1974 27.93 88.5245 27.8051C88.5358 27.7794 88.5464 27.753 88.5561 27.7257C89.1424 26.0717 86.7477 21.5782 84.0363 21.5787Z" fill="white"/>
<path d="M84.0976 21.543C82.9616 21.5587 81.9771 22.2373 81.2361 23.0505C80.3765 23.9828 79.7625 25.1146 79.4495 26.3435C79.2953 26.8406 79.2934 27.3724 79.444 27.8706C79.4456 27.8735 79.4479 27.8759 79.4508 27.8775C79.4536 27.8792 79.4569 27.8801 79.4602 27.88C82.4632 28.1323 85.4825 28.1188 88.4831 27.8398C88.5118 27.8371 88.6028 27.8225 88.6166 27.7877C88.7886 27.2275 88.7761 26.627 88.5811 26.0744C88.3667 25.3279 88.0374 24.6193 87.6051 23.9741C86.8253 22.7867 85.6131 21.5632 84.0976 21.543C84.0604 21.5425 83.8868 21.6133 83.9749 21.6145C85.5103 21.635 86.7415 22.9479 87.5021 24.1554C87.8938 24.7648 88.1942 25.4282 88.3938 26.1246C88.5878 26.6719 88.6014 27.267 88.4324 27.8225L88.5659 27.7705C87.1217 27.9048 85.6755 27.9715 84.2256 27.9869C83.4801 27.9948 82.7346 27.9845 81.989 27.956C81.6582 27.9436 81.3275 27.928 80.997 27.9091C80.6079 27.9072 80.2194 27.8805 79.8337 27.8291C79.5796 27.7806 79.5697 27.6916 79.5387 27.4557C79.5179 27.2815 79.5154 27.1056 79.5314 26.9309C79.5699 26.5306 79.6583 26.1367 79.7945 25.7584C80.103 24.8709 80.5652 24.0446 81.1602 23.3174C81.8516 22.4696 82.8236 21.6304 83.9749 21.6145C84.0119 21.614 84.1851 21.5418 84.0976 21.543Z" fill="#6290C3"/>
<g opacity="0.3">
<path opacity="0.3" d="M79.7413 18.7417C80.4326 18.7417 80.993 17.7959 80.993 16.6293C80.993 15.4627 80.4326 14.517 79.7413 14.517C79.05 14.517 78.4895 15.4627 78.4895 16.6293C78.4895 17.7959 79.05 18.7417 79.7413 18.7417Z" fill="#EEF3F9"/>
<g opacity="0.9">
<g opacity="0.9">
<path opacity="0.9" d="M80.7886 17.5898L80.8094 17.535C80.8007 17.533 80.7926 17.529 80.7856 17.5235C80.7786 17.5179 80.773 17.5108 80.7692 17.5027C80.765 17.4319 80.7127 17.6361 80.6109 17.8408C80.6332 17.8617 80.6951 17.8095 80.7886 17.5898Z" fill="#F0F2F8"/>
<path opacity="0.9" d="M81.2489 16.7194L81.2341 16.6293C81.233 16.6327 81.2317 16.6359 81.2301 16.639L81.2489 16.7194Z" fill="#EDF0F7"/>
<path opacity="0.9" d="M81.0054 16.9454C80.9949 17.0199 80.9897 17.0807 80.9824 17.1368C80.9754 17.1928 80.975 17.2453 80.9636 17.3003C80.9828 17.253 81.0076 17.2082 81.0376 17.1669C81.0716 17.1159 81.0981 17.0602 81.1162 17.0016C81.1145 16.9517 81.1175 16.8807 81.1206 16.8176C81.1132 16.8432 81.1108 16.87 81.1136 16.8964C81.1135 16.8734 81.1121 16.839 81.109 16.8103L81.1047 16.7589C81.0888 16.7995 81.0793 16.8424 81.0764 16.886C81.065 16.9507 81.0581 17.0285 81.0513 17.0899C81.0518 17.0147 81.0491 16.9094 81.0445 16.8246C81.0378 16.8471 81.0285 16.8708 81.02 16.8955C81.0148 16.9278 81.01 16.9613 81.0066 16.9902L81.0054 16.9454Z" fill="#F0F2F8"/>
<path opacity="0.9" d="M80.1958 18.1414L80.2193 18.1237C80.2349 18.089 80.256 18.054 80.2725 18.0115L80.235 18.0457L80.1948 18.0754L80.1626 18.1361L80.1488 18.1351C80.148 18.1244 80.1506 18.1137 80.1563 18.1045L80.1534 18.1068C80.139 18.1177 80.1237 18.1274 80.1077 18.1359L80.1282 18.135C80.1088 18.1525 80.0881 18.169 80.073 18.184C80.0577 18.1985 80.0463 18.207 80.0479 18.2184C80.0687 18.2275 80.1352 18.1829 80.1958 18.1414Z" fill="#F0F2F8"/>
<path opacity="0.9" d="M79.5579 18.3008C79.5561 18.3107 79.5522 18.3201 79.5466 18.3285C79.541 18.3368 79.5337 18.3439 79.5252 18.3493C79.555 18.3584 79.5834 18.3712 79.6098 18.3876C79.639 18.3976 79.6689 18.4159 79.6948 18.4086C79.6593 18.4526 79.7401 18.5104 79.8708 18.5113C79.9925 18.5007 80.1115 18.4694 80.2228 18.419C80.3284 18.3742 80.4228 18.3065 80.4991 18.2209C80.586 18.1243 80.6669 18.0224 80.7412 17.9158C80.7419 17.8718 80.7505 17.8282 80.7665 17.7871C80.7315 17.8387 80.7035 17.8947 80.6833 17.9536C80.6789 17.9663 80.6729 17.9782 80.6682 17.9911C80.673 17.9782 80.6789 17.9662 80.6833 17.9536C80.7002 17.9049 80.7197 17.8587 80.7436 17.8024C80.7338 17.8206 80.725 17.8319 80.7219 17.8245C80.7237 17.8115 80.7269 17.7986 80.7314 17.7862C80.6811 17.8625 80.6218 17.9324 80.5549 17.9946C80.5009 18.0445 80.4515 18.0656 80.4205 18.0509L80.3874 18.0925C80.2479 18.2562 80.178 18.2679 80.1645 18.243C80.0952 18.3124 80.0086 18.3619 79.9137 18.3866C79.8684 18.3938 79.8221 18.3914 79.7778 18.3798C79.7334 18.3682 79.6919 18.3475 79.656 18.319C79.6426 18.3185 79.6286 18.3215 79.6147 18.3202C79.601 18.3176 79.5871 18.3159 79.5732 18.315C79.5684 18.3102 79.5633 18.3054 79.5579 18.3008Z" fill="#EEF1F8"/>
<path opacity="0.9" d="M81.0539 16.6293C81.0912 16.5962 81.1171 16.5522 81.128 16.5035C81.1415 16.4646 81.1523 16.4248 81.1602 16.3844C81.168 16.3392 81.1748 16.2888 81.1803 16.2339C81.2009 15.9645 81.1648 15.6938 81.0744 15.4392C80.9777 15.1265 80.8125 14.8394 80.5907 14.5987C80.4633 14.4613 80.3075 14.3531 80.1342 14.2816C79.9405 14.2038 79.7286 14.1828 79.5233 14.2211C79.5548 14.2244 79.573 14.2336 79.5776 14.2455C79.5821 14.2572 79.5723 14.2685 79.5504 14.2863C79.5174 14.3096 79.4822 14.3298 79.4454 14.3465C79.4186 14.3595 79.3927 14.3742 79.3679 14.3906L79.2748 14.446C79.2428 14.4699 79.2031 14.4949 79.1605 14.5205C79.119 14.5469 79.0799 14.5788 79.0401 14.6069C79.0054 14.6327 78.9728 14.6613 78.9426 14.6923C78.922 14.7103 78.9041 14.7313 78.8896 14.7546C78.8157 14.8642 78.7563 14.9828 78.7127 15.1076C78.6747 15.2149 78.6331 15.3276 78.5796 15.5136C78.617 15.4564 78.6452 15.4589 78.6794 15.389C78.8102 15.1612 78.9586 14.9441 79.1233 14.7395C79.1587 14.7049 79.2017 14.6793 79.2489 14.6647C79.2843 14.6618 79.2826 14.6745 79.2087 14.7459C79.2973 14.6789 79.3939 14.6231 79.4962 14.5797C79.5436 14.5672 79.5883 14.5484 79.6349 14.541L79.7055 14.5325L79.7411 14.5285L79.7771 14.5312C79.8113 14.5335 79.8422 14.5354 79.8695 14.5385L79.9404 14.5583C79.9584 14.5633 79.9761 14.5694 79.9934 14.5766C80.0076 14.5845 80.0194 14.5916 80.029 14.5981C80.0675 14.6242 80.0718 14.6402 80.0652 14.6538C80.0502 14.6814 80.0001 14.6983 80.0547 14.7568C80.0727 14.7877 80.0959 14.8152 80.1233 14.8381C80.272 14.9213 80.4033 15.0324 80.51 15.1652C80.6254 15.3048 80.7227 15.4585 80.7996 15.6225C80.8347 15.703 80.8435 15.8318 80.8692 15.9148C80.9151 16.0706 80.9521 16.2583 80.9839 16.403C81.0096 16.5478 81.0347 16.6497 81.0539 16.6293Z" fill="#C2CFE6"/>
<path opacity="0.9" d="M78.1939 16.4101C78.1864 16.2909 78.1889 16.1713 78.2014 16.0526C78.1541 16.2359 78.1201 16.4223 78.0998 16.6105C78.1094 16.6611 78.1225 16.714 78.1339 16.7606C78.1333 16.6411 78.1536 16.5225 78.1939 16.4101V16.4101Z" fill="#CAD5E9"/>
<path opacity="0.9" d="M79.7705 14.7288C79.7895 14.7062 79.772 14.6894 79.7348 14.6757L79.6682 14.6627C79.6557 14.6607 79.6423 14.6562 79.6292 14.6553C79.6162 14.6545 79.6029 14.6533 79.5897 14.6515C79.4301 14.7279 79.2757 14.815 79.1277 14.9119C79.1266 14.9257 79.0576 15.0012 79.0356 15.0366C79.0324 15.0193 78.9592 15.081 79.0023 15.007C78.9791 15.0429 78.9553 15.0811 78.9304 15.1137C78.9185 15.1304 78.9071 15.1463 78.898 15.1617C78.8904 15.176 78.8849 15.1913 78.8815 15.2072C78.8018 15.3207 78.9031 15.0925 78.8394 15.1652C78.7486 15.3986 78.6681 15.6035 78.6081 15.7339C78.5885 15.7801 78.5609 15.8224 78.5266 15.859C78.5046 15.8752 78.488 15.863 78.482 15.8136C78.4763 15.7648 78.4758 15.7156 78.4806 15.6667C78.4836 15.6131 78.4835 15.5593 78.4802 15.5056C78.5121 15.3201 78.5913 15.146 78.7102 15.0001C78.654 15.0323 78.5097 15.2852 78.5591 15.1297C78.5886 15.0563 78.6192 14.9777 78.6559 14.9062C78.6738 14.8704 78.6879 14.8345 78.7057 14.8027C78.7231 14.7708 78.7388 14.741 78.7518 14.7145C78.6116 14.8968 78.5009 15.1001 78.4237 15.3167C78.3523 15.5173 78.3057 15.6959 78.2744 15.8043L78.2345 15.9284C78.222 15.9697 78.2125 16.0112 78.2014 16.0526C78.1888 16.1714 78.1863 16.2909 78.1939 16.4101C78.1536 16.5225 78.1332 16.6412 78.1338 16.7606C78.1424 16.806 78.1576 16.8498 78.1788 16.8908C78.2089 16.9565 78.2098 16.8619 78.2192 16.7366L78.2246 16.6386C78.2273 16.6054 78.2319 16.5721 78.2359 16.5409C78.2408 16.4911 78.2506 16.4419 78.2652 16.394C78.2537 16.5566 78.2795 16.7198 78.3403 16.8711C78.3802 16.9331 78.4144 16.9071 78.4441 16.8201C78.4638 16.7562 78.4801 16.6914 78.4928 16.6257C78.5124 16.5537 78.5258 16.4712 78.5495 16.3719C78.5595 16.3191 78.5666 16.2553 78.5755 16.1889C78.5864 16.1227 78.592 16.0528 78.5969 15.9873C78.5926 16.031 78.5906 16.1622 78.6019 16.132C78.6664 15.8954 78.7359 15.81 78.826 15.5126C78.8338 15.5278 78.8506 15.5022 78.8324 15.5838C78.8498 15.5017 78.8686 15.491 78.8862 15.4803C78.9037 15.4694 78.921 15.4592 78.9443 15.3805C78.9763 15.3533 79.0064 15.3548 79.0384 15.3383C79.0896 15.3043 79.1309 15.2575 79.1584 15.2026L79.1787 15.1674L79.2001 15.1397C79.2139 15.1223 79.2268 15.107 79.2394 15.0925C79.3136 14.9626 79.426 14.8589 79.5613 14.7954C79.6605 14.7554 79.7683 14.742 79.8743 14.7565L79.8375 14.7461C79.826 14.7427 79.8151 14.7435 79.8058 14.7415C79.7871 14.7386 79.774 14.7344 79.7705 14.7288Z" fill="#CAD5E9"/>
<path opacity="0.9" d="M80.0547 14.7568C80.0001 14.6983 80.0502 14.6814 80.0652 14.6538C80.0718 14.6402 80.0675 14.6242 80.029 14.5981C80.0194 14.5916 80.0076 14.5845 79.9934 14.5766C79.9761 14.5694 79.9584 14.5633 79.9404 14.5583L79.8696 14.5385C79.8422 14.5354 79.8113 14.5335 79.7771 14.5312L79.7411 14.5285L79.7055 14.5325L79.6349 14.541C79.5883 14.5484 79.5436 14.5672 79.4962 14.5797C79.3939 14.6231 79.2973 14.6789 79.2087 14.7459C79.2827 14.6745 79.2843 14.6618 79.2489 14.6647C79.2017 14.6793 79.1587 14.7049 79.1233 14.7395C78.9587 14.9441 78.8102 15.1612 78.6794 15.389C78.6452 15.4589 78.617 15.4564 78.5796 15.5136C78.6331 15.3276 78.6748 15.2149 78.7128 15.1076C78.7563 14.9828 78.8157 14.8642 78.8896 14.7546C78.9041 14.7313 78.922 14.7103 78.9426 14.6923C78.9728 14.6613 79.0054 14.6327 79.0401 14.6069C79.0799 14.5788 79.119 14.5469 79.1605 14.5205C79.2031 14.4949 79.2428 14.4699 79.2748 14.4461L79.3679 14.3906C79.3927 14.3742 79.4186 14.3595 79.4454 14.3465C79.4822 14.3298 79.5174 14.3096 79.5504 14.2863C79.5723 14.2685 79.5822 14.2572 79.5776 14.2455C79.573 14.2336 79.5548 14.2244 79.5233 14.2211C79.4502 14.235 79.3789 14.2567 79.3104 14.2858C79.2768 14.3003 79.2417 14.3138 79.2096 14.3305L79.117 14.3856C79.057 14.423 79 14.4651 78.9466 14.5115C78.8928 14.5564 78.8479 14.6069 78.7985 14.6559C78.7821 14.6746 78.7676 14.6945 78.7518 14.7144C78.7389 14.741 78.7232 14.7708 78.7057 14.8027C78.6879 14.8345 78.6738 14.8704 78.656 14.9062C78.6192 14.9777 78.5887 15.0563 78.5591 15.1297C78.5098 15.2852 78.654 15.0323 78.7102 15.0001C78.5914 15.146 78.5122 15.3201 78.4803 15.5056C78.4835 15.5593 78.4836 15.6131 78.4807 15.6667C78.4759 15.7156 78.4763 15.7648 78.482 15.8136C78.488 15.8629 78.5047 15.8752 78.5267 15.859C78.5609 15.8224 78.5885 15.7801 78.6081 15.7339C78.6682 15.6034 78.7487 15.3985 78.8395 15.1652C78.9031 15.0925 78.8018 15.3207 78.8815 15.2071C78.8849 15.1913 78.8905 15.176 78.898 15.1617C78.9071 15.1463 78.9185 15.1304 78.9305 15.1137C78.9554 15.0811 78.9791 15.0429 79.0023 15.007C78.9592 15.0809 79.0324 15.0193 79.0356 15.0366C79.0576 15.0012 79.1266 14.9257 79.1277 14.9119C79.2758 14.8149 79.4301 14.7279 79.5897 14.6515C79.603 14.6533 79.6162 14.6545 79.6293 14.6553C79.6424 14.6562 79.6557 14.6607 79.6682 14.6627L79.7349 14.6757C79.772 14.6894 79.7896 14.7062 79.7705 14.7288C79.7741 14.7344 79.7872 14.7386 79.8059 14.7415C79.8152 14.7435 79.8261 14.7427 79.8376 14.7461L79.8744 14.7565C79.9615 14.7691 80.0457 14.7967 80.1234 14.8381C80.096 14.8152 80.0727 14.7877 80.0547 14.7568V14.7568Z" fill="#C5D2E7"/>
<path opacity="0.9" d="M79.1584 15.2026C79.131 15.2575 79.0896 15.3043 79.0385 15.3383C79.0064 15.3547 78.9763 15.3533 78.9443 15.3805C78.9211 15.4592 78.9037 15.4694 78.8862 15.4803C78.8686 15.4909 78.8498 15.5017 78.8325 15.5838C78.8507 15.5021 78.8338 15.5278 78.8261 15.5126C78.7359 15.81 78.6665 15.8954 78.6019 16.132C78.5907 16.1622 78.5927 16.031 78.5969 15.9872C78.592 16.0527 78.5865 16.1227 78.5755 16.1888C78.5667 16.2553 78.5596 16.319 78.5496 16.3718C78.5258 16.4712 78.5124 16.5537 78.4928 16.6257C78.4801 16.6913 78.4639 16.7562 78.4441 16.82C78.4144 16.907 78.3803 16.933 78.3404 16.871C78.2795 16.7197 78.2538 16.5566 78.2652 16.3939C78.2506 16.4418 78.2408 16.491 78.2359 16.5409C78.232 16.5721 78.2273 16.6053 78.2246 16.6386L78.2192 16.7366C78.2099 16.8619 78.2089 16.9565 78.1789 16.8907C78.1576 16.8498 78.1424 16.8059 78.1339 16.7606C78.1306 16.9584 78.1514 17.1559 78.1959 17.3486C78.2433 17.5521 78.3091 17.7508 78.3925 17.9424C78.4142 17.9471 78.4214 17.9299 78.4075 17.8714C78.3953 17.8152 78.3876 17.7697 78.3831 17.7325C78.3801 17.7025 78.3801 17.6723 78.383 17.6422C78.385 17.6092 78.3955 17.5773 78.4134 17.5495C78.4621 17.4785 78.483 17.392 78.4721 17.3066C78.4706 17.2733 78.4693 17.209 78.4652 17.1497C78.4608 17.1062 78.4596 17.0623 78.4617 17.0186C78.4964 16.8653 78.5643 17.0271 78.5994 16.8781C78.5958 16.7937 78.5969 16.7091 78.6028 16.6248C78.6395 16.5439 78.6872 16.5905 78.7044 16.4173C78.7144 16.3585 78.7244 16.3052 78.7345 16.2565C78.7444 16.2077 78.7598 16.1646 78.7719 16.1248C78.793 16.0572 78.821 15.9918 78.8552 15.9297C78.8806 15.882 78.9103 15.8367 78.944 15.7945L78.9881 15.7372L79.036 15.6831C79.0695 15.476 79.1384 15.2762 79.2395 15.0924C79.2269 15.1069 79.214 15.1223 79.2002 15.1397L79.1788 15.1674L79.1584 15.2026Z" fill="#CDD7EA"/>
<path opacity="0.9" d="M81.032 18.494L81.0839 18.4068C81.1001 18.3781 81.1133 18.3498 81.1278 18.322C81.1554 18.2664 81.1859 18.2131 81.2072 18.1603C81.1039 18.3496 80.9667 18.5183 80.8025 18.658C80.6974 18.7471 80.5753 18.8138 80.4435 18.854C80.4271 18.8597 80.3636 18.8947 80.2783 18.9434C80.2327 18.9651 80.178 18.9869 80.1208 19.01C80.0577 19.0297 79.9936 19.0461 79.9288 19.059C79.8614 19.0667 79.7937 19.0702 79.7259 19.0696C79.6647 19.0647 79.6039 19.0559 79.5438 19.043C79.4981 19.0294 79.4532 19.0131 79.4093 18.9944C79.3832 18.9834 79.3597 18.9669 79.3405 18.946C79.3577 18.9438 79.3751 18.9449 79.3918 18.9492L79.4861 18.9617C79.5787 18.9769 79.6727 18.982 79.7665 18.9769C79.7185 18.973 79.6709 18.9652 79.6242 18.9537C79.5834 18.9455 79.5438 18.9323 79.5062 18.9146C79.4728 18.9018 79.4406 18.8862 79.4099 18.868C79.3821 18.8498 79.3568 18.8322 79.3337 18.8152C79.2929 18.785 79.2561 18.7498 79.2241 18.7104C79.2097 18.6946 79.1961 18.678 79.1835 18.6608L79.1519 18.6097C79.132 18.578 79.1138 18.5454 79.0972 18.5119C79.0818 18.4777 79.0662 18.4435 79.0487 18.4081C79.0303 18.3735 79.0168 18.3316 78.9964 18.2898C78.9753 18.2485 78.957 18.1996 78.9337 18.1462C78.8542 17.9603 78.8148 17.7597 78.8181 17.5575C78.8198 17.4898 78.8304 17.4226 78.8496 17.3577C78.8598 17.3173 78.8832 17.2814 78.9163 17.2559C78.9586 17.2356 78.9362 16.9531 78.9689 16.7242C78.9504 16.6346 78.9428 16.5436 78.9328 16.4529C78.9164 16.5168 78.8998 16.5763 78.883 16.624C78.8754 16.6598 78.8602 16.6936 78.8385 16.7231C78.7691 16.7827 78.7238 16.8657 78.7112 16.9563C78.6757 17.14 78.6758 17.3288 78.7113 17.5125C78.7356 17.6798 78.61 17.5882 78.6209 17.6861L78.6321 17.8251C78.6365 17.8691 78.643 17.9103 78.6476 17.9507C78.6552 18.0321 78.6706 18.1042 78.682 18.1758C78.6924 18.2477 78.7128 18.3137 78.7284 18.384C78.7469 18.4532 78.7729 18.5223 78.8014 18.5983C78.8205 18.6434 78.8433 18.6868 78.8695 18.7282C78.9125 18.7931 78.961 18.8542 79.0146 18.9109C79.1491 19.0082 79.3008 19.0793 79.4617 19.1203C79.5463 19.1421 79.6329 19.155 79.7202 19.1588C79.7641 19.1601 79.8081 19.1589 79.8519 19.1552C79.8958 19.1542 79.9395 19.1494 79.9826 19.1409C80.0436 19.1247 80.1016 19.1119 80.1506 19.0938L80.2831 19.0398C80.3619 19.0048 80.4191 18.9693 80.4726 18.9436C80.5225 18.9157 80.5603 18.8916 80.5961 18.873C80.631 18.8539 80.6631 18.8394 80.688 18.8243C80.7426 18.7961 80.7946 18.7631 80.8434 18.7258C80.8741 18.698 80.9029 18.6683 80.9298 18.6369C80.9458 18.6182 80.9633 18.5974 80.9811 18.5738C80.9971 18.55 81.014 18.5235 81.032 18.494Z" fill="#DAE1EF"/>
<path opacity="0.9" d="M78.7044 16.4173C78.6872 16.5905 78.6395 16.544 78.6028 16.6248C78.5969 16.7091 78.5957 16.7937 78.5994 16.8782C78.5643 17.0272 78.4964 16.8654 78.4617 17.0186C78.4595 17.0624 78.4607 17.1062 78.4652 17.1498C78.4692 17.2091 78.4706 17.2733 78.472 17.3066C78.483 17.3921 78.4621 17.4785 78.4134 17.5495C78.3955 17.5773 78.385 17.6093 78.3829 17.6423C78.38 17.6723 78.3801 17.7025 78.3831 17.7326C78.3875 17.7698 78.3953 17.8152 78.4074 17.8714C78.4213 17.93 78.4142 17.9472 78.3924 17.9424L78.394 17.9456C78.3373 17.901 78.4332 18.1329 78.4675 18.1887C78.5056 18.2593 78.5354 18.3201 78.57 18.3732C78.6035 18.4264 78.6279 18.4754 78.6613 18.5201C78.6933 18.5652 78.7212 18.6099 78.7566 18.6554C78.7946 18.7001 78.8323 18.7485 78.883 18.8005C78.926 18.8381 78.97 18.8749 79.0146 18.9109C78.9611 18.8542 78.9125 18.7931 78.8695 18.7282C78.8433 18.6868 78.8205 18.6434 78.8014 18.5983C78.7729 18.5223 78.7469 18.4532 78.7284 18.384C78.7128 18.3137 78.6925 18.2477 78.682 18.1758C78.6706 18.1042 78.6552 18.0321 78.6476 17.9507C78.6431 17.9103 78.6365 17.8691 78.6322 17.8251L78.6209 17.6861C78.61 17.5882 78.7356 17.6798 78.7114 17.5125C78.6758 17.3288 78.6757 17.14 78.7112 16.9563C78.7238 16.8657 78.7691 16.7828 78.8385 16.7231C78.8602 16.6936 78.8754 16.6599 78.883 16.624C78.8998 16.5764 78.9164 16.5168 78.9329 16.4529C78.929 16.3767 78.9252 16.3002 78.9277 16.226C78.9302 16.1846 78.9382 16.1437 78.9515 16.1044C78.9558 16.0891 78.9615 16.0742 78.9683 16.0599L78.9765 16.0426C78.9877 15.9772 78.9925 15.913 79.005 15.8546C79.0155 15.7952 79.023 15.737 79.036 15.6832L78.9881 15.7372L78.944 15.7945C78.9103 15.8368 78.8806 15.882 78.8552 15.9297C78.8209 15.9918 78.793 16.0572 78.7719 16.1249C78.7598 16.1647 78.7443 16.2078 78.7344 16.2565C78.7243 16.3052 78.7143 16.3586 78.7044 16.4173Z" fill="#D5DEED"/>
<path opacity="0.9" d="M81.3561 17.7952C81.3699 17.7287 81.3868 17.6499 81.4032 17.5858C81.4189 17.5024 81.4428 17.4207 81.4744 17.3419L81.4677 17.3597L81.4603 17.3775C81.4657 17.3582 81.4691 17.3383 81.4728 17.3188C81.4307 17.4003 81.3871 17.448 81.3577 17.4345C81.3443 17.5179 81.3169 17.5984 81.2766 17.6726C81.2543 17.7038 81.2329 17.7324 81.2108 17.7598L81.1404 17.8395L80.9869 18.0147C80.9584 18.0484 80.9299 18.0859 80.8937 18.1262C80.8575 18.1664 80.8249 18.2133 80.7794 18.262C80.7345 18.3109 80.6903 18.3672 80.6304 18.4243C80.5669 18.4901 80.4991 18.5517 80.4275 18.6086C80.2927 18.7063 80.2849 18.6652 80.2609 18.6356C80.2535 18.6256 80.2436 18.6179 80.2322 18.6131C80.2207 18.6083 80.2083 18.6066 80.196 18.6082C80.1715 18.6097 80.1474 18.6144 80.1241 18.6222C80.0947 18.6329 80.0534 18.6381 80.0056 18.6537C79.9254 18.6756 79.8426 18.6858 79.7595 18.6839C79.6754 18.676 79.606 18.6565 79.5941 18.63C79.5885 18.6014 79.6321 18.5859 79.6467 18.5622C79.6509 18.5568 79.6529 18.5499 79.6522 18.5431C79.6514 18.5362 79.6481 18.5299 79.6428 18.5255C79.619 18.5027 79.5908 18.485 79.56 18.4734C79.4486 18.412 79.3555 18.3221 79.2904 18.2128C79.273 18.1881 79.2578 18.1618 79.2451 18.1342C79.2319 18.1071 79.2177 18.083 79.2071 18.0561L79.1781 17.9772L79.1651 17.9402L79.1558 17.9019C79.1337 17.8191 79.1236 17.7335 79.1258 17.6479C79.1254 17.596 79.1413 17.5453 79.1712 17.5029C79.0899 17.2472 79.0223 16.9872 78.9689 16.7242C78.9362 16.9531 78.9586 17.2356 78.9163 17.2559C78.8832 17.2814 78.8598 17.3172 78.8496 17.3577C78.8304 17.4226 78.8198 17.4898 78.8181 17.5575C78.8149 17.7597 78.8542 17.9603 78.9337 18.1462C78.957 18.1996 78.9753 18.2485 78.9964 18.2898C79.0168 18.3316 79.0303 18.3735 79.0487 18.4081C79.0662 18.4435 79.0818 18.4777 79.0972 18.5119C79.1138 18.5454 79.132 18.578 79.1519 18.6097L79.1835 18.6607C79.1961 18.678 79.2097 18.6946 79.2241 18.7104C79.2561 18.7498 79.2929 18.785 79.3337 18.8152C79.3568 18.8322 79.3821 18.8498 79.4099 18.868C79.4406 18.8862 79.4729 18.9018 79.5062 18.9146C79.5438 18.9323 79.5834 18.9454 79.6242 18.9537C79.6709 18.9652 79.7185 18.973 79.7665 18.9769C79.6727 18.982 79.5787 18.9769 79.4861 18.9617L79.3918 18.9492C79.3751 18.9449 79.3577 18.9438 79.3405 18.946C79.3597 18.9669 79.3832 18.9834 79.4094 18.9944C79.4532 19.0131 79.4981 19.0294 79.5438 19.043C79.6039 19.0558 79.6647 19.0647 79.7259 19.0696C79.7937 19.0702 79.8614 19.0667 79.9288 19.059C79.9936 19.0461 80.0577 19.0297 80.1208 19.01C80.178 18.9869 80.2327 18.9651 80.2783 18.9434C80.3636 18.8946 80.4271 18.8597 80.4435 18.854C80.5753 18.8137 80.6974 18.7471 80.8025 18.658C80.9668 18.5183 81.1039 18.3496 81.2072 18.1603C81.2343 18.0963 81.2651 18.0348 81.2877 17.974L81.3561 17.7952Z" fill="#DFE5F1"/>
<path opacity="0.9" d="M79.56 18.4734C79.5908 18.485 79.619 18.5027 79.6428 18.5255C79.6481 18.5299 79.6514 18.5362 79.6522 18.5431C79.6529 18.5499 79.6509 18.5568 79.6467 18.5622C79.6321 18.5859 79.5885 18.6014 79.5941 18.63C79.606 18.6565 79.6754 18.676 79.7595 18.6839C79.8426 18.6858 79.9255 18.6756 80.0056 18.6537C80.0534 18.6381 80.0947 18.6329 80.1242 18.6222C80.1474 18.6144 80.1715 18.6097 80.196 18.6082C80.2083 18.6066 80.2208 18.6083 80.2322 18.6131C80.2436 18.6179 80.2535 18.6257 80.2609 18.6356C80.2849 18.6652 80.2928 18.7063 80.4275 18.6086C80.4991 18.5517 80.5669 18.4901 80.6304 18.4243C80.6904 18.3672 80.7345 18.3109 80.7794 18.262C80.8249 18.2133 80.8575 18.1664 80.8937 18.1262C80.9299 18.0858 80.9584 18.0484 80.987 18.0147L81.1404 17.8395L81.2108 17.7598C81.2329 17.7324 81.2543 17.7038 81.2767 17.6726C81.317 17.5984 81.3444 17.5179 81.3577 17.4345C81.3497 17.4294 81.3428 17.4228 81.3375 17.4149C81.3321 17.4071 81.3285 17.3982 81.3267 17.3888C81.3174 17.3731 81.2881 17.4412 81.2537 17.5284C81.2176 17.6158 81.1768 17.7011 81.1316 17.7841C81.0947 17.8157 81.0837 17.7848 81.0849 17.725C81.0834 17.6645 81.0919 17.5743 81.0978 17.4853L81.0941 17.4027C81.0962 17.3999 81.0981 17.3971 81.0998 17.3941L81.1002 17.3271C81.0767 17.3825 81.0535 17.4351 81.0309 17.4827C81.0252 17.5032 81.0183 17.5233 81.0102 17.5429L81.0157 17.5101C80.9871 17.5641 80.9526 17.6149 80.9129 17.6614C80.875 17.696 80.8425 17.7361 80.8163 17.7803C80.8082 17.8071 80.7979 17.8332 80.7853 17.8583C80.7938 17.8399 80.7999 17.8205 80.8035 17.8005C80.7721 17.8482 80.7351 17.9013 80.7 17.9578C80.6604 18.012 80.6209 18.0693 80.5778 18.1213C80.5371 18.171 80.4923 18.2172 80.4439 18.2594C80.4212 18.2786 80.3994 18.2961 80.3787 18.3116C80.3588 18.3251 80.3378 18.3367 80.3159 18.3464C80.2069 18.4114 80.0891 18.4604 79.9662 18.4919C79.9505 18.4953 79.9346 18.4978 79.9186 18.4992L79.8746 18.4973C79.851 18.4981 79.8275 18.4935 79.806 18.4839C79.7696 18.4674 79.7561 18.4481 79.7687 18.4216C79.7434 18.4333 79.7114 18.4204 79.681 18.4153C79.6656 18.4117 79.6507 18.4065 79.6365 18.3999C79.623 18.3951 79.6088 18.3923 79.5945 18.3918C79.6019 18.3851 79.6079 18.3769 79.6121 18.3678C79.6164 18.3588 79.6188 18.3489 79.6192 18.3389L79.56 18.2869C79.5468 18.2741 79.5373 18.258 79.5325 18.2402C79.5418 18.235 79.5536 18.24 79.5671 18.2502C79.5806 18.2606 79.5964 18.2665 79.6124 18.2767L79.6086 18.2596L79.5993 18.2507C79.579 18.2473 79.5572 18.2327 79.5353 18.2273C79.5044 18.2257 79.4739 18.2201 79.4446 18.2104C79.4574 18.2075 79.4708 18.2082 79.4833 18.2124C79.4917 18.2147 79.5 18.2176 79.508 18.2209C79.5172 18.2225 79.5263 18.2246 79.5352 18.2273C79.5487 18.2279 79.5622 18.2277 79.5757 18.2267C79.5356 18.1817 79.4986 18.1342 79.4649 18.0843C79.4537 18.0755 79.4422 18.0669 79.4311 18.0593L79.4622 18.0803L79.4456 18.0562L79.4258 18.043L79.4035 18.0224L79.348 17.9733C79.3033 17.927 79.2617 17.8779 79.2232 17.8263C79.2233 17.8011 79.2219 17.776 79.2189 17.751C79.2174 17.7242 79.2143 17.6975 79.2096 17.671C79.1984 17.6191 79.1883 17.5609 79.1713 17.5029C79.1414 17.5453 79.1255 17.596 79.1259 17.6479C79.1237 17.7335 79.1338 17.8191 79.1558 17.9018L79.1652 17.9402L79.1782 17.9772L79.2072 18.0561C79.2177 18.083 79.2319 18.107 79.2451 18.1342C79.2578 18.1617 79.273 18.188 79.2905 18.2128C79.3556 18.3221 79.4486 18.412 79.56 18.4734Z" fill="#E7EBF5"/>
</g>
</g>
</g>
<path d="M80.2619 16.5879C80.0129 16.5879 79.811 16.2568 79.811 15.8483C79.809 15.6893 79.8426 15.5319 79.9095 15.3876C79.8455 15.3606 79.7768 15.3466 79.7074 15.3464C79.2535 15.3464 78.8856 15.9498 78.8856 16.6941C78.8856 17.4384 79.2535 18.0418 79.7074 18.0418C80.1613 18.0418 80.5292 17.4384 80.5292 16.6941C80.5291 16.6155 80.5249 16.5369 80.5164 16.4587C80.4857 16.4972 80.4471 16.5287 80.4032 16.551C80.3593 16.5733 80.3111 16.5859 80.2619 16.5879Z" fill="#4E5057"/>
<path d="M80.2979 16.5333C79.811 16.4795 79.878 15.671 80.0033 15.3763C80.0131 15.3531 79.9818 15.3401 79.9665 15.3354C79.4961 15.19 79.1222 15.5099 78.9428 15.9275C78.8207 16.2143 78.7677 16.5259 78.7883 16.837C78.8088 17.1482 78.9023 17.4501 79.0611 17.7184C79.1085 17.8038 79.1728 17.8787 79.2502 17.9383C79.3275 17.998 79.4163 18.0411 79.511 18.0651C79.6057 18.0892 79.7043 18.0935 79.8007 18.078C79.8971 18.0624 79.9894 18.0273 80.0717 17.9747C80.561 17.6585 80.6531 16.9625 80.6101 16.4336C80.6048 16.3683 80.4648 16.4206 80.441 16.4421L80.2743 16.5343C80.184 16.5495 80.1206 16.6631 80.2496 16.6415C80.3787 16.6247 80.4989 16.5664 80.5919 16.4753L80.4228 16.4838C80.4576 16.9107 80.3075 18.2141 79.5855 17.9534C79.0397 17.7563 78.9377 16.9061 78.9951 16.4241C79.0192 16.1572 79.1096 15.9006 79.2581 15.6775C79.3482 15.5519 79.5439 15.3414 79.7064 15.4413C79.8186 15.5102 79.7539 15.544 79.7342 15.6585C79.723 15.7249 79.7173 15.7922 79.7172 15.8596C79.7153 16.1932 79.8506 16.6011 80.2259 16.6425C80.3002 16.6508 80.4237 16.5471 80.2979 16.5333Z" fill="#4F5057"/>
<g opacity="0.3">
<path opacity="0.3" d="M88.3707 18.8758C89.062 18.8758 89.6224 17.93 89.6224 16.7634C89.6224 15.5968 89.062 14.6511 88.3707 14.6511C87.6793 14.6511 87.1189 15.5968 87.1189 16.7634C87.1189 17.93 87.6793 18.8758 88.3707 18.8758Z" fill="#EEF3F9"/>
<g opacity="0.9">
<g opacity="0.9">
<path opacity="0.9" d="M89.418 17.7239L89.4388 17.669C89.4301 17.6671 89.422 17.6631 89.415 17.6575C89.408 17.652 89.4024 17.6449 89.3986 17.6368C89.3944 17.566 89.3421 17.7702 89.2402 17.9749C89.2626 17.9958 89.3245 17.9436 89.418 17.7239Z" fill="#F0F2F8"/>
<path opacity="0.9" d="M89.8783 16.8535L89.8635 16.7634C89.8624 16.7667 89.8611 16.77 89.8595 16.7731L89.8783 16.8535Z" fill="#EDF0F7"/>
<path opacity="0.9" d="M89.6348 17.0794C89.6243 17.154 89.619 17.2148 89.6118 17.2709C89.6048 17.3269 89.6044 17.3794 89.593 17.4344C89.6121 17.3871 89.637 17.3423 89.6669 17.301C89.7009 17.2499 89.7274 17.1943 89.7456 17.1357C89.7439 17.0858 89.7469 17.0148 89.7499 16.9517C89.7426 16.9773 89.7402 17.004 89.743 17.0305C89.7429 17.0075 89.7414 16.9731 89.7384 16.9444L89.7341 16.8929C89.7182 16.9336 89.7087 16.9765 89.7058 17.02C89.6944 17.0848 89.6875 17.1626 89.6806 17.2239C89.6812 17.1488 89.6785 17.0434 89.6739 16.9586C89.6672 16.9811 89.6579 17.0049 89.6494 17.0296C89.6442 17.0619 89.6394 17.0954 89.636 17.1242L89.6348 17.0794Z" fill="#F0F2F8"/>
<path opacity="0.9" d="M88.8252 18.2755L88.8487 18.2577C88.8642 18.2231 88.8854 18.1881 88.9018 18.1456L88.8644 18.1798L88.8242 18.2095L88.792 18.2702L88.7782 18.2692C88.7774 18.2585 88.78 18.2478 88.7857 18.2386L88.7828 18.2409C88.7684 18.2518 88.7531 18.2615 88.737 18.27L88.7576 18.2691C88.7381 18.2866 88.7175 18.3031 88.7024 18.3181C88.6871 18.3326 88.6757 18.3411 88.6773 18.3525C88.698 18.3616 88.7646 18.317 88.8252 18.2755Z" fill="#F0F2F8"/>
<path opacity="0.9" d="M88.1873 18.4349C88.1855 18.4448 88.1816 18.4542 88.176 18.4626C88.1704 18.4709 88.1631 18.478 88.1546 18.4834C88.1844 18.4925 88.2128 18.5053 88.2392 18.5216C88.2684 18.5317 88.2983 18.55 88.3242 18.5427C88.2887 18.5867 88.3694 18.6445 88.5002 18.6454C88.6219 18.6347 88.7409 18.6035 88.8522 18.5531C88.9578 18.5083 89.0521 18.4406 89.1285 18.355C89.2154 18.2584 89.2962 18.1565 89.3706 18.0499C89.3713 18.0058 89.3798 17.9622 89.3959 17.9212C89.3609 17.9727 89.3329 18.0287 89.3127 18.0877C89.3083 18.1004 89.3023 18.1123 89.2975 18.1252C89.3024 18.1122 89.3083 18.1003 89.3127 18.0877C89.3296 18.039 89.3491 17.9928 89.3729 17.9365C89.3632 17.9547 89.3544 17.966 89.3513 17.9586C89.3531 17.9455 89.3563 17.9327 89.3608 17.9203C89.3104 17.9965 89.2512 18.0665 89.1843 18.1287C89.1302 18.1785 89.0809 18.1997 89.0499 18.185L89.0168 18.2266C88.8773 18.3903 88.8073 18.402 88.7939 18.3771C88.7246 18.4464 88.638 18.496 88.5431 18.5207C88.4978 18.5278 88.4515 18.5255 88.4072 18.5139C88.3628 18.5023 88.3213 18.4816 88.2853 18.4531C88.272 18.4526 88.258 18.4556 88.2441 18.4543C88.2304 18.4517 88.2165 18.45 88.2026 18.4491C88.1978 18.4443 88.1926 18.4395 88.1873 18.4349Z" fill="#EEF1F8"/>
<path opacity="0.9" d="M89.6833 16.7634C89.7206 16.7303 89.7465 16.6863 89.7574 16.6376C89.7709 16.5987 89.7816 16.5589 89.7896 16.5185C89.7974 16.4733 89.8042 16.4229 89.8097 16.368C89.8303 16.0986 89.7942 15.8279 89.7037 15.5733C89.6071 15.2606 89.4419 14.9735 89.2201 14.7328C89.0926 14.5954 88.9369 14.4872 88.7636 14.4157C88.5698 14.3379 88.3579 14.3169 88.1527 14.3552C88.1841 14.3585 88.2023 14.3677 88.207 14.3796C88.2115 14.3913 88.2017 14.4026 88.1798 14.4204C88.1467 14.4437 88.1116 14.4638 88.0748 14.4806C88.048 14.4936 88.0221 14.5083 87.9973 14.5247L87.9041 14.5801C87.8722 14.604 87.8325 14.629 87.7899 14.6546C87.7484 14.681 87.7092 14.7129 87.6695 14.741C87.6348 14.7668 87.6022 14.7954 87.572 14.8264C87.5513 14.8444 87.5335 14.8654 87.519 14.8887C87.4451 14.9983 87.3857 15.1169 87.3421 15.2417C87.3041 15.349 87.2625 15.4617 87.209 15.6477C87.2464 15.5905 87.2746 15.5929 87.3088 15.5231C87.4396 15.2953 87.588 15.0782 87.7527 14.8736C87.7881 14.839 87.8311 14.8134 87.8783 14.7988C87.9137 14.7959 87.912 14.8086 87.8381 14.88C87.9267 14.813 88.0232 14.7572 88.1255 14.7138C88.1729 14.7013 88.2176 14.6825 88.2643 14.6751L88.3348 14.6666L88.3705 14.6626L88.4065 14.6652C88.4407 14.6676 88.4715 14.6695 88.4989 14.6726L88.5697 14.6924C88.5878 14.6974 88.6055 14.7035 88.6228 14.7107C88.637 14.7185 88.6488 14.7257 88.6584 14.7322C88.6969 14.7583 88.7012 14.7743 88.6946 14.7879C88.6796 14.8155 88.6295 14.8324 88.6841 14.8909C88.7021 14.9218 88.7253 14.9493 88.7527 14.9722C88.9014 15.0554 89.0327 15.1665 89.1394 15.2993C89.2548 15.4389 89.3521 15.5926 89.429 15.7566C89.4641 15.8371 89.4728 15.9659 89.4986 16.0489C89.5445 16.2047 89.5815 16.3924 89.6133 16.5371C89.639 16.6819 89.664 16.7838 89.6833 16.7634Z" fill="#C2CFE6"/>
<path opacity="0.9" d="M86.8233 16.5441C86.8158 16.425 86.8183 16.3054 86.8308 16.1867C86.7835 16.37 86.7495 16.5564 86.7292 16.7446C86.7388 16.7952 86.7519 16.8481 86.7632 16.8947C86.7626 16.7752 86.783 16.6566 86.8233 16.5441V16.5441Z" fill="#CAD5E9"/>
<path opacity="0.9" d="M88.3999 14.8629C88.4189 14.8403 88.4014 14.8234 88.3642 14.8098L88.2976 14.7968C88.2851 14.7948 88.2717 14.7903 88.2586 14.7893C88.2456 14.7886 88.2323 14.7874 88.2191 14.7856C88.0595 14.862 87.9051 14.949 87.7571 15.046C87.756 15.0597 87.687 15.1353 87.665 15.1707C87.6617 15.1534 87.5886 15.215 87.6317 15.1411C87.6084 15.177 87.5847 15.2152 87.5598 15.2478C87.5478 15.2645 87.5364 15.2804 87.5274 15.2957C87.5198 15.3101 87.5143 15.3254 87.5109 15.3412C87.4312 15.4548 87.5325 15.2265 87.4688 15.2993C87.378 15.5326 87.2975 15.7375 87.2375 15.868C87.2178 15.9141 87.1903 15.9565 87.156 15.9931C87.134 16.0093 87.1173 15.997 87.1113 15.9477C87.1056 15.8989 87.1052 15.8497 87.11 15.8008C87.113 15.7471 87.1128 15.6933 87.1096 15.6397C87.1415 15.4542 87.2207 15.2801 87.3396 15.1342C87.2834 15.1664 87.1391 15.4193 87.1884 15.2638C87.218 15.1903 87.2486 15.1118 87.2853 15.0403C87.3031 15.0044 87.3173 14.9686 87.335 14.9368C87.3525 14.9049 87.3682 14.8751 87.3812 14.8485C87.241 15.0309 87.1303 15.2341 87.0531 15.4508C86.9816 15.6514 86.9351 15.83 86.9038 15.9384L86.8638 16.0625C86.8513 16.1038 86.8418 16.1453 86.8308 16.1867C86.8182 16.3054 86.8157 16.425 86.8233 16.5442C86.7829 16.6566 86.7626 16.7752 86.7632 16.8947C86.7718 16.9401 86.7869 16.9839 86.8082 17.0248C86.8382 17.0906 86.8392 16.996 86.8486 16.8707L86.854 16.7727C86.8567 16.7394 86.8613 16.7062 86.8653 16.675C86.8701 16.6252 86.88 16.576 86.8945 16.5281C86.8831 16.6907 86.9088 16.8539 86.9697 17.0051C87.0096 17.0671 87.0438 17.0411 87.0735 16.9541C87.0932 16.8903 87.1095 16.8254 87.1222 16.7598C87.1418 16.6878 87.1552 16.6053 87.1789 16.506C87.1889 16.4532 87.196 16.3894 87.2049 16.323C87.2158 16.2568 87.2213 16.1869 87.2263 16.1214C87.222 16.1651 87.22 16.2963 87.2313 16.2661C87.2958 16.0295 87.3653 15.9441 87.4554 15.6467C87.4631 15.6619 87.48 15.6363 87.4618 15.7179C87.4792 15.6358 87.498 15.625 87.5155 15.6144C87.5331 15.6035 87.5504 15.5933 87.5736 15.5146C87.6057 15.4874 87.6358 15.4889 87.6678 15.4724C87.719 15.4384 87.7603 15.3916 87.7878 15.3367L87.8081 15.3015L87.8295 15.2738C87.8433 15.2564 87.8562 15.2411 87.8688 15.2265C87.9429 15.0967 88.0554 14.993 88.1907 14.9295C88.2899 14.8895 88.3977 14.8761 88.5037 14.8906L88.4669 14.8802C88.4554 14.8768 88.4445 14.8776 88.4352 14.8755C88.4165 14.8727 88.4034 14.8685 88.3999 14.8629Z" fill="#CAD5E9"/>
<path opacity="0.9" d="M88.6841 14.8909C88.6295 14.8324 88.6796 14.8155 88.6946 14.7879C88.7012 14.7743 88.6969 14.7583 88.6584 14.7322C88.6488 14.7257 88.637 14.7186 88.6228 14.7107C88.6055 14.7035 88.5878 14.6974 88.5697 14.6924L88.4989 14.6726C88.4716 14.6695 88.4407 14.6676 88.4065 14.6653L88.3705 14.6626L88.3348 14.6666L88.2643 14.6751C88.2176 14.6825 88.1729 14.7013 88.1255 14.7138C88.0232 14.7572 87.9267 14.813 87.8381 14.88C87.912 14.8086 87.9137 14.7959 87.8783 14.7988C87.8311 14.8134 87.7881 14.839 87.7527 14.8736C87.588 15.0782 87.4396 15.2953 87.3088 15.5231C87.2746 15.593 87.2464 15.5905 87.209 15.6477C87.2625 15.4617 87.3041 15.349 87.3421 15.2417C87.3857 15.1169 87.4451 14.9983 87.519 14.8887C87.5335 14.8654 87.5514 14.8444 87.572 14.8264C87.6022 14.7954 87.6348 14.7668 87.6695 14.741C87.7092 14.7129 87.7484 14.681 87.7899 14.6546C87.8325 14.629 87.8722 14.604 87.9041 14.5801L87.9973 14.5247C88.0221 14.5083 88.048 14.4936 88.0748 14.4806C88.1116 14.4639 88.1467 14.4437 88.1798 14.4204C88.2017 14.4026 88.2115 14.3913 88.207 14.3796C88.2024 14.3677 88.1841 14.3585 88.1527 14.3552C88.0796 14.3691 88.0082 14.3908 87.9398 14.4199C87.9062 14.4344 87.8711 14.4479 87.839 14.4646L87.7464 14.5197C87.6864 14.5571 87.6294 14.5992 87.576 14.6456C87.5222 14.6905 87.4773 14.741 87.4279 14.79C87.4115 14.8087 87.397 14.8286 87.3812 14.8485C87.3683 14.8751 87.3526 14.9049 87.3351 14.9368C87.3173 14.9686 87.3032 15.0044 87.2853 15.0403C87.2486 15.1118 87.2181 15.1903 87.1885 15.2638C87.1392 15.4193 87.2834 15.1664 87.3396 15.1342C87.2207 15.2801 87.1415 15.4542 87.1097 15.6397C87.1129 15.6933 87.113 15.7471 87.1101 15.8008C87.1052 15.8497 87.1057 15.8989 87.1114 15.9477C87.1174 15.997 87.1341 16.0093 87.1561 15.9931C87.1903 15.9565 87.2179 15.9142 87.2375 15.868C87.2976 15.7375 87.3781 15.5326 87.4688 15.2993C87.5325 15.2266 87.4312 15.4548 87.5109 15.3412C87.5143 15.3254 87.5199 15.3101 87.5274 15.2958C87.5365 15.2804 87.5479 15.2645 87.5598 15.2478C87.5848 15.2152 87.6085 15.177 87.6317 15.1411C87.5886 15.215 87.6618 15.1534 87.665 15.1707C87.687 15.1353 87.756 15.0598 87.7571 15.046C87.9052 14.949 88.0595 14.862 88.2191 14.7856C88.2323 14.7874 88.2456 14.7886 88.2587 14.7894C88.2718 14.7903 88.2851 14.7948 88.2976 14.7968L88.3643 14.8098C88.4014 14.8234 88.419 14.8403 88.3999 14.8629C88.4035 14.8685 88.4166 14.8727 88.4353 14.8755C88.4446 14.8776 88.4555 14.8768 88.467 14.8802L88.5037 14.8906C88.5908 14.9032 88.6751 14.9308 88.7527 14.9722C88.7253 14.9493 88.7021 14.9218 88.6841 14.8909V14.8909Z" fill="#C5D2E7"/>
<path opacity="0.9" d="M87.7878 15.3367C87.7604 15.3916 87.719 15.4384 87.6679 15.4724C87.6358 15.4889 87.6057 15.4874 87.5737 15.5146C87.5505 15.5933 87.5331 15.6035 87.5156 15.6144C87.498 15.625 87.4792 15.6358 87.4619 15.7179C87.4801 15.6362 87.4632 15.6619 87.4554 15.6467C87.3653 15.9441 87.2959 16.0295 87.2313 16.2661C87.2201 16.2963 87.222 16.1651 87.2263 16.1214C87.2214 16.1869 87.2158 16.2568 87.2049 16.3229C87.1961 16.3894 87.189 16.4532 87.179 16.5059C87.1552 16.6053 87.1418 16.6878 87.1222 16.7598C87.1095 16.8254 87.0932 16.8903 87.0735 16.9541C87.0438 17.0411 87.0097 17.0671 86.9698 17.0051C86.9089 16.8539 86.8832 16.6907 86.8946 16.528C86.88 16.5759 86.8702 16.6252 86.8653 16.675C86.8614 16.7062 86.8567 16.7394 86.854 16.7727L86.8486 16.8707C86.8393 16.996 86.8383 17.0906 86.8082 17.0248C86.787 16.9839 86.7718 16.94 86.7632 16.8947C86.76 17.0925 86.7808 17.29 86.8253 17.4827C86.8727 17.6862 86.9385 17.885 87.0219 18.0765C87.0436 18.0813 87.0507 18.064 87.0369 18.0055C87.0247 17.9493 87.0169 17.9039 87.0125 17.8667C87.0095 17.8366 87.0095 17.8064 87.0124 17.7764C87.0144 17.7434 87.0249 17.7114 87.0428 17.6836C87.0915 17.6126 87.1124 17.5262 87.1014 17.4407C87.1 17.4074 87.0986 17.3432 87.0946 17.2839C87.0901 17.2403 87.089 17.1965 87.0911 17.1527C87.1258 16.9995 87.1937 17.1613 87.2288 17.0123C87.2251 16.9278 87.2263 16.8432 87.2322 16.7589C87.2689 16.678 87.3166 16.7246 87.3338 16.5514C87.3438 16.4926 87.3538 16.4393 87.3638 16.3906C87.3737 16.3418 87.3892 16.2987 87.4013 16.259C87.4224 16.1913 87.4504 16.1259 87.4846 16.0638C87.51 16.0161 87.5397 15.9708 87.5734 15.9286L87.6175 15.8713L87.6654 15.8173C87.6989 15.6101 87.7677 15.4103 87.8689 15.2265C87.8563 15.2411 87.8434 15.2564 87.8296 15.2738L87.8082 15.3015L87.7878 15.3367Z" fill="#CDD7EA"/>
<path opacity="0.9" d="M89.6614 18.6281L89.7133 18.5409C89.7295 18.5122 89.7427 18.4839 89.7572 18.4561C89.7848 18.4005 89.8153 18.3472 89.8366 18.2944C89.7333 18.4837 89.5961 18.6524 89.4319 18.7921C89.3268 18.8812 89.2047 18.9479 89.0729 18.9881C89.0565 18.9938 88.993 19.0288 88.9077 19.0775C88.8621 19.0992 88.8074 19.121 88.7502 19.1441C88.6871 19.1638 88.623 19.1802 88.5582 19.1931C88.4908 19.2008 88.4231 19.2043 88.3553 19.2037C88.2941 19.1988 88.2333 19.1899 88.1732 19.1771C88.1275 19.1635 88.0826 19.1472 88.0388 19.1285C88.0126 19.1175 87.9891 19.101 87.9699 19.0801C87.9871 19.0779 88.0045 19.079 88.0212 19.0833L88.1155 19.0958C88.2081 19.111 88.3021 19.1161 88.3959 19.111C88.3479 19.1071 88.3003 19.0993 88.2536 19.0878C88.2128 19.0796 88.1732 19.0664 88.1356 19.0487C88.1023 19.0359 88.07 19.0203 88.0393 19.0021C88.0115 18.9839 87.9862 18.9663 87.9631 18.9493C87.9223 18.9191 87.8855 18.8839 87.8535 18.8445C87.8391 18.8287 87.8255 18.8121 87.8129 18.7949L87.7813 18.7438C87.7614 18.7121 87.7432 18.6795 87.7266 18.646C87.7112 18.6118 87.6956 18.5776 87.6782 18.5422C87.6597 18.5076 87.6463 18.4657 87.6258 18.4239C87.6047 18.3826 87.5864 18.3337 87.5631 18.2803C87.4837 18.0944 87.4443 17.8938 87.4475 17.6916C87.4492 17.6239 87.4598 17.5567 87.479 17.4918C87.4892 17.4514 87.5127 17.4155 87.5457 17.39C87.588 17.3698 87.5656 17.0872 87.5983 16.8583C87.5799 16.7687 87.5722 16.6777 87.5623 16.587C87.5458 16.6509 87.5292 16.7104 87.5125 16.7581C87.5048 16.7939 87.4896 16.8277 87.4679 16.8572C87.3985 16.9168 87.3532 16.9998 87.3407 17.0904C87.3051 17.2741 87.3052 17.4629 87.3408 17.6466C87.365 17.8139 87.2395 17.7223 87.2504 17.8202L87.2616 17.9592C87.2659 18.0032 87.2725 18.0444 87.277 18.0848C87.2846 18.1662 87.3 18.2383 87.3114 18.3099C87.3219 18.3818 87.3422 18.4477 87.3578 18.5181C87.3764 18.5873 87.4023 18.6564 87.4308 18.7324C87.4499 18.7775 87.4727 18.8209 87.4989 18.8623C87.5419 18.9272 87.5905 18.9883 87.644 19.0449C87.7785 19.1423 87.9302 19.2134 88.0911 19.2544C88.1757 19.2762 88.2623 19.2891 88.3496 19.2929C88.3935 19.2942 88.4375 19.293 88.4813 19.2893C88.5252 19.2883 88.569 19.2835 88.6121 19.275C88.673 19.2588 88.7311 19.246 88.78 19.2279L88.9125 19.1739C88.9913 19.1389 89.0485 19.1034 89.102 19.0777C89.1519 19.0498 89.1897 19.0258 89.2255 19.0071C89.2604 18.988 89.2925 18.9735 89.3174 18.9584C89.372 18.9302 89.424 18.8972 89.4728 18.8598C89.5035 18.8321 89.5323 18.8024 89.5592 18.771C89.5752 18.7523 89.5927 18.7315 89.6105 18.7079C89.6265 18.6841 89.6434 18.6576 89.6614 18.6281Z" fill="#DAE1EF"/>
<path opacity="0.9" d="M87.3338 16.5514C87.3166 16.7246 87.2689 16.678 87.2322 16.7589C87.2263 16.8432 87.2251 16.9278 87.2288 17.0122C87.1937 17.1612 87.1258 16.9994 87.0911 17.1527C87.0889 17.1964 87.0901 17.2403 87.0946 17.2839C87.0986 17.3432 87.1 17.4074 87.1014 17.4407C87.1124 17.5262 87.0915 17.6126 87.0428 17.6836C87.0249 17.7114 87.0144 17.7433 87.0123 17.7763C87.0094 17.8064 87.0095 17.8366 87.0125 17.8667C87.0169 17.9039 87.0247 17.9493 87.0368 18.0055C87.0507 18.0641 87.0436 18.0813 87.0218 18.0765L87.0234 18.0797C86.9667 18.0351 87.0626 18.267 87.0969 18.3228C87.135 18.3934 87.1648 18.4542 87.1993 18.5073C87.2329 18.5605 87.2573 18.6095 87.2907 18.6542C87.3227 18.6993 87.3506 18.744 87.386 18.7895C87.424 18.8341 87.4617 18.8826 87.5124 18.9345C87.5554 18.9722 87.5994 19.009 87.644 19.0449C87.5904 18.9883 87.5419 18.9272 87.4989 18.8623C87.4727 18.8209 87.4499 18.7775 87.4308 18.7324C87.4023 18.6563 87.3763 18.5873 87.3578 18.5181C87.3422 18.4477 87.3218 18.3818 87.3114 18.3099C87.3 18.2383 87.2846 18.1662 87.277 18.0848C87.2725 18.0444 87.2659 18.0032 87.2615 17.9592L87.2503 17.8202C87.2394 17.7223 87.365 17.8139 87.3407 17.6466C87.3052 17.4629 87.3051 17.2741 87.3406 17.0904C87.3532 16.9997 87.3985 16.9168 87.4679 16.8572C87.4896 16.8277 87.5048 16.7939 87.5124 16.7581C87.5292 16.7104 87.5458 16.6508 87.5623 16.587C87.5584 16.5108 87.5546 16.4343 87.5571 16.3601C87.5596 16.3187 87.5676 16.2778 87.5809 16.2385C87.5852 16.2232 87.5909 16.2083 87.5977 16.194L87.6059 16.1767C87.6171 16.1113 87.6219 16.0471 87.6344 15.9886C87.6449 15.9293 87.6524 15.8711 87.6654 15.8172L87.6174 15.8713L87.5734 15.9286C87.5397 15.9708 87.51 16.0161 87.4846 16.0638C87.4503 16.1259 87.4224 16.1913 87.4013 16.2589C87.3892 16.2987 87.3737 16.3418 87.3638 16.3906C87.3537 16.4393 87.3437 16.4926 87.3338 16.5514Z" fill="#D5DEED"/>
<path opacity="0.9" d="M89.9855 17.9293C89.9993 17.8628 90.0162 17.784 90.0326 17.7199C90.0483 17.6365 90.0722 17.5548 90.1038 17.476L90.0971 17.4938L90.0897 17.5116C90.0951 17.4922 90.0984 17.4724 90.1022 17.4529C90.0601 17.5344 90.0164 17.582 89.9871 17.5686C89.9737 17.652 89.9463 17.7325 89.906 17.8066C89.8837 17.8379 89.8623 17.8665 89.8402 17.8939L89.7698 17.9736L89.6163 18.1488C89.5878 18.1825 89.5593 18.2199 89.5231 18.2603C89.4869 18.3005 89.4543 18.3474 89.4087 18.3961C89.3639 18.445 89.3197 18.5013 89.2598 18.5584C89.1963 18.6242 89.1285 18.6858 89.0569 18.7426C88.9222 18.8404 88.9143 18.7992 88.8903 18.7696C88.8829 18.7597 88.873 18.752 88.8616 18.7472C88.8501 18.7424 88.8377 18.7407 88.8254 18.7423C88.8009 18.7438 88.7768 18.7485 88.7536 18.7563C88.7241 18.767 88.6828 18.7722 88.635 18.7878C88.5548 18.8097 88.472 18.8199 88.3889 18.818C88.3048 18.81 88.2354 18.7906 88.2235 18.7641C88.2179 18.7354 88.2615 18.7199 88.2761 18.6963C88.2803 18.6909 88.2823 18.684 88.2816 18.6772C88.2808 18.6703 88.2775 18.664 88.2722 18.6596C88.2484 18.6368 88.2202 18.6191 88.1894 18.6075C88.078 18.5461 87.9849 18.4561 87.9198 18.3469C87.9024 18.3221 87.8872 18.2958 87.8745 18.2683C87.8613 18.2411 87.8471 18.2171 87.8365 18.1902L87.8075 18.1113L87.7945 18.0743L87.7852 18.0359C87.7631 17.9531 87.753 17.8676 87.7552 17.782C87.7548 17.7301 87.7707 17.6794 87.8006 17.637C87.7193 17.3812 87.6517 17.1213 87.5983 16.8583C87.5656 17.0871 87.588 17.3697 87.5457 17.39C87.5126 17.4155 87.4892 17.4513 87.479 17.4918C87.4598 17.5567 87.4492 17.6239 87.4475 17.6916C87.4442 17.8938 87.4836 18.0943 87.5631 18.2803C87.5864 18.3337 87.6047 18.3826 87.6258 18.4239C87.6462 18.4656 87.6597 18.5076 87.6781 18.5422C87.6956 18.5776 87.7112 18.6118 87.7266 18.646C87.7432 18.6795 87.7614 18.7121 87.7813 18.7438L87.8129 18.7948C87.8255 18.8121 87.8391 18.8287 87.8535 18.8445C87.8855 18.8839 87.9223 18.9191 87.9631 18.9493C87.9862 18.9663 88.0115 18.9839 88.0392 19.0021C88.07 19.0203 88.1022 19.0359 88.1356 19.0486C88.1732 19.0664 88.2128 19.0795 88.2535 19.0878C88.3003 19.0993 88.3479 19.107 88.3958 19.111C88.3021 19.1161 88.2081 19.111 88.1155 19.0957L88.0212 19.0833C88.0045 19.079 87.9871 19.0779 87.9699 19.0801C87.9891 19.101 88.0126 19.1175 88.0387 19.1284C88.0826 19.1472 88.1275 19.1634 88.1732 19.1771C88.2332 19.1899 88.2941 19.1988 88.3553 19.2037C88.423 19.2043 88.4908 19.2007 88.5581 19.1931C88.623 19.1802 88.6871 19.1638 88.7502 19.1441C88.8074 19.121 88.8621 19.0991 88.9077 19.0775C88.993 19.0287 89.0564 18.9937 89.0729 18.9881C89.2046 18.9478 89.3268 18.8811 89.4319 18.7921C89.5961 18.6523 89.7333 18.4836 89.8366 18.2943C89.8637 18.2304 89.8945 18.1689 89.917 18.1081L89.9855 17.9293Z" fill="#DFE5F1"/>
<path opacity="0.9" d="M88.1894 18.6075C88.2202 18.6191 88.2484 18.6368 88.2722 18.6596C88.2775 18.664 88.2808 18.6703 88.2816 18.6772C88.2823 18.684 88.2803 18.6909 88.2761 18.6963C88.2615 18.72 88.2179 18.7354 88.2235 18.7641C88.2354 18.7906 88.3048 18.8101 88.3889 18.818C88.472 18.8199 88.5549 18.8097 88.635 18.7878C88.6828 18.7722 88.7241 18.767 88.7536 18.7563C88.7768 18.7485 88.8009 18.7438 88.8254 18.7423C88.8377 18.7407 88.8502 18.7424 88.8616 18.7472C88.873 18.752 88.8829 18.7597 88.8903 18.7697C88.9143 18.7993 88.9222 18.8404 89.0569 18.7427C89.1285 18.6858 89.1963 18.6242 89.2598 18.5584C89.3197 18.5013 89.3639 18.445 89.4088 18.3961C89.4543 18.3474 89.4869 18.3005 89.5231 18.2603C89.5593 18.22 89.5878 18.1825 89.6163 18.1488L89.7698 17.9736L89.8402 17.8939C89.8623 17.8665 89.8837 17.8379 89.906 17.8067C89.9463 17.7325 89.9738 17.652 89.9871 17.5686C89.9791 17.5635 89.9722 17.5569 89.9668 17.549C89.9615 17.5412 89.9579 17.5323 89.9561 17.523C89.9468 17.5072 89.9175 17.5753 89.8831 17.6626C89.847 17.7499 89.8062 17.8352 89.761 17.9182C89.724 17.9498 89.713 17.9189 89.7142 17.8591C89.7128 17.7986 89.7213 17.7084 89.7272 17.6194L89.7235 17.5368C89.7256 17.5341 89.7275 17.5312 89.7292 17.5283L89.7296 17.4613C89.7061 17.5166 89.6829 17.5692 89.6602 17.6169C89.6546 17.6373 89.6477 17.6574 89.6396 17.677L89.6451 17.6442C89.6165 17.6982 89.582 17.749 89.5423 17.7955C89.5044 17.8301 89.4718 17.8702 89.4457 17.9144C89.4376 17.9412 89.4272 17.9673 89.4147 17.9924C89.4232 17.974 89.4293 17.9546 89.4328 17.9347C89.4015 17.9823 89.3645 18.0354 89.3294 18.0919C89.2898 18.1461 89.2503 18.2034 89.2072 18.2554C89.1665 18.3051 89.1217 18.3513 89.0732 18.3935C89.0506 18.4127 89.0288 18.4302 89.0081 18.4457C88.9882 18.4592 88.9672 18.4708 88.9452 18.4805C88.8362 18.5455 88.7185 18.5945 88.5956 18.6259C88.5799 18.6294 88.564 18.6319 88.548 18.6333L88.504 18.6314C88.4804 18.6322 88.4569 18.6276 88.4353 18.6181C88.399 18.6015 88.3855 18.5822 88.3981 18.5557C88.3728 18.5674 88.3407 18.5546 88.3103 18.5494C88.295 18.5458 88.2801 18.5407 88.2658 18.534C88.2524 18.5292 88.2382 18.5265 88.2239 18.526C88.2313 18.5192 88.2373 18.5111 88.2415 18.502C88.2457 18.4929 88.2481 18.483 88.2485 18.473L88.1894 18.421C88.1761 18.4083 88.1666 18.3921 88.1619 18.3743C88.1711 18.3691 88.1829 18.3742 88.1964 18.3843C88.2099 18.3947 88.2258 18.4006 88.2418 18.4108L88.238 18.3937L88.2287 18.3849C88.2083 18.3815 88.1866 18.3669 88.1646 18.3614C88.1338 18.3599 88.1033 18.3542 88.0739 18.3445C88.0868 18.3417 88.1002 18.3424 88.1127 18.3465C88.1211 18.3489 88.1293 18.3517 88.1374 18.355C88.1466 18.3566 88.1557 18.3587 88.1646 18.3614C88.1781 18.362 88.1916 18.3618 88.205 18.3608C88.165 18.3159 88.128 18.2683 88.0943 18.2184C88.083 18.2096 88.0716 18.201 88.0604 18.1935L88.0916 18.2145L88.0749 18.1904L88.0552 18.1771L88.0329 18.1566L87.9774 18.1074C87.9327 18.0611 87.891 18.012 87.8526 17.9604C87.8527 17.9353 87.8512 17.9101 87.8483 17.8851C87.8468 17.8583 87.8437 17.8316 87.839 17.8052C87.8278 17.7532 87.8176 17.6951 87.8006 17.6371C87.7707 17.6794 87.7548 17.7301 87.7552 17.782C87.753 17.8677 87.7631 17.9532 87.7852 18.036L87.7946 18.0743L87.8076 18.1114L87.8365 18.1902C87.8471 18.2172 87.8613 18.2412 87.8745 18.2684C87.8872 18.2959 87.9024 18.3222 87.9199 18.3469C87.985 18.4562 88.078 18.5461 88.1894 18.6075Z" fill="#E7EBF5"/>
</g>
</g>
</g>
<path d="M88.8792 16.6461C88.6301 16.6461 88.4282 16.315 88.4282 15.9065C88.4262 15.7475 88.4599 15.59 88.5268 15.4457C88.4628 15.4188 88.3941 15.4048 88.3247 15.4045C87.8708 15.4045 87.5029 16.0079 87.5029 16.7523C87.5029 17.4966 87.8708 18.1 88.3247 18.1C88.7785 18.1 89.1465 17.4966 89.1465 16.7523C89.1464 16.6736 89.1421 16.5951 89.1337 16.5169C89.103 16.5554 89.0644 16.5869 89.0205 16.6091C88.9766 16.6314 88.9284 16.644 88.8792 16.6461Z" fill="#4E5057"/>
<path d="M88.9108 16.5751C88.4395 16.5231 88.4908 15.7546 88.6167 15.4582C88.6199 15.4507 88.6215 15.4426 88.6213 15.4345C88.6211 15.4264 88.6193 15.4184 88.6158 15.411C88.6124 15.4037 88.6074 15.3971 88.6013 15.3918C88.5951 15.3865 88.5879 15.3826 88.5802 15.3802C87.3394 14.9966 87.2297 17.102 87.6797 17.7816C87.7261 17.8684 87.7898 17.9447 87.867 18.0058C87.9441 18.0668 88.033 18.1113 88.1282 18.1364C88.2233 18.1615 88.3226 18.1667 88.4198 18.1518C88.5171 18.1368 88.6102 18.1019 88.6933 18.0493C89.1809 17.7237 89.2707 17.0244 89.2273 16.4918C89.2218 16.4242 89.1028 16.4423 89.0708 16.4712L88.8611 16.5785C88.7415 16.5986 88.7804 16.7333 88.8973 16.7137C89.0107 16.6968 89.1157 16.6439 89.1966 16.5626L89.04 16.542C89.1029 16.9859 88.994 17.4371 88.7355 17.8034C88.42 18.1804 88.0191 17.9987 87.8082 17.6276C87.6181 17.2617 87.5519 16.8438 87.6197 16.437C87.6791 16.0293 87.9336 15.3444 88.4733 15.5113L88.4367 15.4333C88.2673 15.832 88.2749 16.6539 88.8475 16.7171C88.9433 16.7277 89.0369 16.589 88.9108 16.5751Z" fill="#4F5057"/>
<path d="M86.148 20.871L84.0793 23.597L82.0107 20.871L84.0793 18.8023L86.148 20.871Z" fill="#F4D3AA"/>
<path d="M86.0706 20.8469L84.0019 23.573L84.1654 23.5572L82.5114 21.3775C82.3968 21.2264 82.2905 21.0567 82.162 20.9171C82.1374 20.8924 82.1163 20.8645 82.0991 20.8342C82.1286 20.9019 82.0667 20.8904 82.1493 20.8339C82.2972 20.7097 82.434 20.5729 82.5581 20.4251L83.1908 19.7924L84.1568 18.8264L83.9933 18.8423L86.0619 20.9109C86.1177 20.9667 86.2954 20.8924 86.2341 20.8311L84.1654 18.7624C84.141 18.7444 84.1108 18.736 84.0806 18.7389C84.0504 18.7418 84.0224 18.7558 84.0019 18.7782L81.9332 20.8469C81.9242 20.8547 81.9184 20.8655 81.9168 20.8773C81.9152 20.8891 81.918 20.901 81.9246 20.9109L83.9933 23.637C84.028 23.6828 84.1262 23.6616 84.1568 23.6212L86.2254 20.8951C86.296 20.8021 86.1185 20.7837 86.0706 20.8469Z" fill="#6290C3"/>
<path d="M86.051 20.885L84.109 23.4453L84.07 18.9047L86.051 20.885Z" fill="#DABD9D"/>
<path d="M80.8416 9.3948C80.313 9.14346 80.1562 9.38803 80.6571 9.6262C81.5479 10.1866 82.3005 10.9413 82.8583 11.8337C83.3773 12.7039 83.7829 13.6369 84.0653 14.61C83.962 13.5522 83.6177 12.5322 83.0589 11.6282C82.5 10.7241 81.7415 9.96012 80.8416 9.3948Z" fill="#336390"/>
<path d="M87.4835 9.11205C88.0121 8.86072 88.1689 9.10528 87.668 9.34345C86.7771 9.90386 86.0246 10.6585 85.4667 11.5509C84.9478 12.4212 84.5422 13.3542 84.2598 14.3272C84.3631 13.2695 84.7074 12.2494 85.2662 11.3454C85.825 10.4414 86.5835 9.67738 87.4835 9.11205V9.11205Z" fill="#336390"/>
<path d="M81.7431 24.5253C81.978 24.631 82.2326 24.6858 82.4903 24.6862C82.7479 24.6866 83.0027 24.6325 83.2379 24.5275C83.2795 24.5092 83.1143 24.2409 83.0352 24.2759C82.8104 24.3768 82.5668 24.4291 82.3204 24.4295C82.0739 24.4299 81.8302 24.3783 81.6051 24.2782C81.5288 24.2444 81.6744 24.4949 81.7431 24.5253H81.7431Z" fill="#6290C3"/>
<path d="M84.7428 24.5253C84.9749 24.6408 85.2307 24.7011 85.49 24.7015C85.7493 24.7019 86.0052 24.6424 86.2377 24.5276C86.2817 24.506 86.1106 24.2389 86.0349 24.2759C85.8129 24.3865 85.5682 24.4443 85.3201 24.4447C85.072 24.4451 84.8272 24.3881 84.6048 24.2782C84.5323 24.2426 84.6753 24.4922 84.7428 24.5253H84.7428Z" fill="#6290C3"/>
<path d="M83.3327 25.8007C83.5618 25.926 83.8187 25.9919 84.0798 25.9923C84.341 25.9927 84.5981 25.9276 84.8276 25.8029C84.8738 25.778 84.6969 25.5124 84.6249 25.5513C84.4057 25.6714 84.1599 25.7346 83.9101 25.7349C83.6602 25.7353 83.4142 25.673 83.1947 25.5535C83.1261 25.5165 83.2666 25.765 83.3327 25.8007H83.3327Z" fill="#6290C3"/>
<path d="M81.1845 26.9611C81.4208 27.0618 81.6749 27.1139 81.9317 27.1143C82.1886 27.1147 82.4428 27.0634 82.6794 26.9633C82.7196 26.9465 82.5575 26.6779 82.4767 26.7117C82.2506 26.8078 82.0075 26.8575 81.7618 26.8579C81.5162 26.8583 81.2729 26.8093 81.0465 26.7139C80.9684 26.6812 81.1153 26.9321 81.1845 26.9611H81.1845Z" fill="#6290C3"/>
<path d="M85.2502 26.916C85.4836 27.0273 85.7388 27.0853 85.9974 27.0857C86.256 27.0861 86.5114 27.0289 86.7451 26.9183C86.788 26.8982 86.6196 26.6305 86.5424 26.6666C86.3191 26.773 86.0749 26.8284 85.8275 26.8288C85.5802 26.8291 85.3358 26.7745 85.1122 26.6689C85.0381 26.6341 85.1821 26.884 85.2502 26.916H85.2502Z" fill="#6290C3"/>
<path d="M34.1284 47.8819C34.1284 43.6799 36.76 42.0033 38.9247 42.0033C39.5323 41.9698 40.139 42.0835 40.6932 42.3348C41.2475 42.586 41.7328 42.9674 42.1081 43.4465V40.2841H40.6649V38.459H44.676C45.037 38.459 45.2068 38.7347 45.2068 39.1806V50.9803C45.2217 51.1202 45.2814 51.2516 45.3769 51.3548C45.4725 51.4581 45.5989 51.5277 45.7373 51.5534H46.5011V53.3148H42.7237C42.4054 53.3148 42.2143 52.848 42.1507 52.0628C41.7233 52.534 41.1976 52.9056 40.6109 53.1513C40.0241 53.397 39.3905 53.5108 38.7549 53.4847C36.5265 53.4847 34.1284 52.1477 34.1284 47.8819ZM42.1081 50.7256V44.6136C41.463 44.3103 40.7621 44.1441 40.0495 44.1254C38.5851 44.1254 37.2694 44.9742 37.2694 47.7969C37.2694 50.8531 38.5215 51.617 39.7948 51.617C40.6508 51.6227 41.4772 51.3042 42.1081 50.7256V50.7256Z" fill="#5D7085"/>
<path d="M46.9245 50.0889C46.9245 47.7547 48.7496 46.6934 51.3176 46.6934C52.0823 46.6807 52.8454 46.7664 53.5883 46.9482V45.7807C53.5883 44.6559 52.9729 44.1255 51.6573 44.1255C51.1839 44.1087 50.7121 44.1885 50.2706 44.36C49.8291 44.5315 49.4272 44.7911 49.0893 45.1231H47.6674V42.8521C48.7073 42.3853 50.1079 42.0033 52.2726 42.0033C55.159 42.0033 56.687 42.937 56.687 45.4837V51.0229C56.6999 51.1593 56.7599 51.2869 56.8567 51.3837C56.9536 51.4805 57.0811 51.5405 57.2175 51.5534H57.8118V53.0389C57.2377 53.3428 56.5933 53.4892 55.9441 53.4634C54.6495 53.4634 53.9915 52.9542 53.7158 52.0628C52.888 53.0815 51.8481 53.4421 50.4898 53.4421C48.41 53.4421 46.9245 52.2963 46.9245 50.0889ZM53.5883 50.8318V48.4549C53.0482 48.3661 52.5016 48.3234 51.9543 48.3274C50.7022 48.3274 49.9381 48.8369 49.9381 49.9617C49.9381 51.0865 50.596 51.617 51.6359 51.617C52.3642 51.6195 53.0646 51.3378 53.5883 50.8318V50.8318Z" fill="#5D7085"/>
<path d="M57.2002 42.1728H58.5159V39.2019H61.6143V42.1728H63.864V44.0405H61.6143V50.1528C61.6143 51.3413 62.0389 51.5534 63.185 51.5534H63.9489V53.2087C63.302 53.4024 62.6292 53.4955 61.954 53.4847C59.8105 53.4847 58.5159 52.8054 58.5159 50.4922V44.0405H57.2002L57.2002 42.1728Z" fill="#5D7085"/>
<path d="M64.3936 50.0889C64.3936 47.7547 66.2187 46.6934 68.7867 46.6934C69.5513 46.6807 70.3145 46.7664 71.0573 46.9482V45.7807C71.0573 44.6559 70.442 44.1255 69.1263 44.1255C68.653 44.1087 68.1811 44.1885 67.7396 44.36C67.2981 44.5315 66.8962 44.7911 66.5583 45.1231H65.1364V42.8521C66.1761 42.3853 67.5769 42.0033 69.7417 42.0033C72.628 42.0033 74.1561 42.937 74.1561 45.4837V51.0229C74.1689 51.1593 74.2289 51.2869 74.3258 51.3837C74.4226 51.4805 74.5502 51.5405 74.6865 51.5534H75.2809V53.0389C74.7067 53.3428 74.0623 53.4892 73.4132 53.4634C72.1185 53.4634 71.4606 52.9542 71.1848 52.0628C70.357 53.0815 69.3171 53.4421 67.9589 53.4421C65.879 53.4421 64.3936 52.2963 64.3936 50.0889ZM71.0573 50.8318V48.4549C70.5173 48.3661 69.9706 48.3234 69.4233 48.3274C68.1713 48.3274 67.4071 48.8369 67.4071 49.9617C67.4071 51.0865 68.0651 51.617 69.105 51.617C69.8332 51.6195 70.5337 51.3378 71.0573 50.8318H71.0573Z" fill="#5D7085"/>
<path d="M76.4848 51.7445C76.4763 51.3985 76.571 51.0577 76.7571 50.7658C76.9431 50.474 77.2119 50.2441 77.5291 50.1058C77.8464 49.9674 78.1977 49.9267 78.5382 49.989C78.8786 50.0513 79.1928 50.2136 79.4406 50.4553C79.6883 50.697 79.8584 51.0071 79.9291 51.3459C79.9998 51.6847 79.9678 52.0369 79.8374 52.3575C79.7069 52.6781 79.4838 52.9525 79.1966 53.1457C78.9094 53.3389 78.5712 53.4421 78.225 53.4421C77.9986 53.4476 77.7733 53.4078 77.5625 53.325C77.3517 53.2421 77.1595 53.118 76.9974 52.9598C76.8352 52.8016 76.7064 52.6126 76.6184 52.4039C76.5303 52.1952 76.4849 51.971 76.4848 51.7445Z" fill="#5D7085"/>
<path d="M87.1385 46.078L84.9314 53.3149H82.2785L79.7741 44.6349C79.7334 44.4792 79.647 44.3394 79.5259 44.2334C79.4049 44.1275 79.2548 44.0603 79.0952 44.0405H78.6919V42.1728H83.6155V44.0405H82.6392L84.1036 49.6008H84.1459L86.3107 42.1728H88.6878L90.8523 49.6008H90.8949L92.0197 45.4414C92.2954 44.4651 92.1895 44.0405 91.3194 44.0405H91.0011V42.1728H95.6486V44.0405H95.288C95.098 44.0392 94.9134 44.1041 94.7662 44.2242C94.619 44.3444 94.5183 44.5121 94.4815 44.6985L91.9561 53.3149H89.3032L87.1808 46.078H87.1385Z" fill="#5D7085"/>
<path d="M95.3527 47.7969C95.3527 44.2103 97.963 42.0033 101.21 42.0033C104.457 42.0033 107.068 44.2103 107.068 47.7969C107.068 51.3623 104.457 53.4634 101.21 53.4634C97.963 53.4634 95.3527 51.3623 95.3527 47.7969ZM103.926 47.8182C103.926 45.2926 102.759 44.0405 101.21 44.0405C99.6609 44.0405 98.4935 45.2926 98.4935 47.8182C98.4935 50.3223 99.6609 51.5111 101.21 51.5111C102.759 51.5111 103.926 50.3223 103.926 47.8182V47.8182Z" fill="#5D7085"/>
<path d="M107.133 51.5534H107.875C108.01 51.537 108.136 51.4759 108.232 51.3797C108.328 51.2836 108.389 51.1579 108.406 51.0229V44.6136C108.391 44.4736 108.331 44.3423 108.236 44.239C108.14 44.1358 108.014 44.0661 107.875 44.0405H107.048V42.1728H110.846C111.207 42.1728 111.441 42.4911 111.483 43.7858C112.226 42.8734 113.096 42.0669 114.561 42.0669C114.791 42.0693 115.019 42.105 115.24 42.1728V44.4651H114.709C113.096 44.4651 112.12 44.8047 111.504 45.144V51.5534H113.054V53.3149H107.133V51.5534Z" fill="#5D7085"/>
<path d="M115.449 51.5534H116.276C116.411 51.537 116.537 51.4759 116.633 51.3797C116.729 51.2836 116.791 51.1579 116.807 51.0229V40.8572C116.792 40.7172 116.732 40.5859 116.637 40.4826C116.541 40.3794 116.415 40.3097 116.276 40.2841H115.385V38.459H119.375C119.736 38.459 119.905 38.7137 119.905 39.1806V51.0229C119.922 51.1579 119.983 51.2835 120.079 51.3797C120.175 51.4759 120.301 51.537 120.436 51.5534H121.306V53.3149H115.449V51.5534Z" fill="#5D7085"/>
<path d="M121.499 47.8819C121.499 43.6799 124.13 42.0033 126.295 42.0033C126.903 41.9698 127.509 42.0835 128.064 42.3348C128.618 42.586 129.103 42.9674 129.479 43.4465V40.2841H128.035V38.459H132.047C132.407 38.459 132.577 38.7347 132.577 39.1806V50.9803C132.592 51.1202 132.652 51.2516 132.747 51.3548C132.843 51.4581 132.969 51.5277 133.108 51.5534H133.872V53.3148H130.094C129.776 53.3148 129.585 52.848 129.521 52.0628C129.094 52.534 128.568 52.9056 127.981 53.1513C127.395 53.397 126.761 53.5108 126.125 53.4847C123.897 53.4847 121.499 52.1477 121.499 47.8819ZM129.479 50.7256V44.6136C128.833 44.3103 128.133 44.1441 127.42 44.1254C125.956 44.1254 124.64 44.9742 124.64 47.7969C124.64 50.8531 125.892 51.617 127.165 51.617C128.021 51.6227 128.848 51.3042 129.479 50.7256V50.7256Z" fill="#5D7085"/>
</g>
<defs>
<clipPath id="clip0">
<rect width="168" height="60" fill="white"/>
</clipPath>
</defs>
</svg>
