<?xml version="1.0" encoding="UTF-8" standalone="no"?>
<svg
   xmlns:dc="http://purl.org/dc/elements/1.1/"
   xmlns:cc="http://creativecommons.org/ns#"
   xmlns:rdf="http://www.w3.org/1999/02/22-rdf-syntax-ns#"
   xmlns:svg="http://www.w3.org/2000/svg"
   xmlns="http://www.w3.org/2000/svg"
   xmlns:xlink="http://www.w3.org/1999/xlink"
   xml:space="preserve"
   style="enable-background:new 0 0 1060 224;"
   viewBox="0 0 1060 224"
   y="0px"
   x="0px"
   id="Layer_1"
   version="1.1"><metadata
   id="metadata322"><rdf:RDF><cc:Work
       rdf:about=""><dc:format>image/svg+xml</dc:format><dc:type
         rdf:resource="http://purl.org/dc/dcmitype/StillImage" /><dc:title>HVR-logo-fullcolor</dc:title></cc:Work></rdf:RDF></metadata><defs
   id="defs320" />
<style
   id="style213"
   type="text/css">
	.st0{clip-path:url(#SVGID_2_);}
	.st1{fill:url(#SVGID_3_);}
	.st2{clip-path:url(#SVGID_5_);}
	.st3{fill:url(#SVGID_6_);}
	.st4{clip-path:url(#SVGID_8_);}
	.st5{fill:url(#SVGID_9_);}
	.st6{clip-path:url(#SVGID_11_);}
	.st7{fill:url(#SVGID_12_);}
</style>
<title
   id="title215">HVR-logo-fullcolor</title>
<g
   id="g315">
	<g
   id="g238">
		<defs
   id="defs218">
			<path
   d="M2,91.4v34.9L40.2,19.6C16.3,35.7,2,62.6,2,91.4z"
   id="SVGID_1_" />
		</defs>
		<clipPath
   id="SVGID_2_">
			<use
   id="use220"
   style="overflow:visible;"
   xlink:href="#SVGID_1_" />
		</clipPath>
		<g
   id="g236"
   clip-path="url(#SVGID_2_)"
   class="st0">
			
				<linearGradient
   gradientTransform="matrix(1 0 0 -1 0 226)"
   y2="227.3725"
   x2="-1.8875"
   y1="4.1275"
   x1="221.3575"
   gradientUnits="userSpaceOnUse"
   id="SVGID_3_">
				<stop
   id="stop223"
   style="stop-color:#52CFCA"
   offset="0" />
				<stop
   id="stop225"
   style="stop-color:#3895B6"
   offset="0.3" />
				<stop
   id="stop227"
   style="stop-color:#1F5EA2"
   offset="0.63" />
				<stop
   id="stop229"
   style="stop-color:#103B96"
   offset="0.87" />
				<stop
   id="stop231"
   style="stop-color:#0A2E91"
   offset="1" />
			</linearGradient>
			<rect
   id="rect234"
   height="223.2"
   width="223.3"
   class="st1"
   y="-1.3"
   x="-1.9" />
		</g>
	</g>
	<g
   id="g261">
		<defs
   id="defs241">
			<path
   d="M88.5,219.1h34.9L16.8,181C32.9,204.9,59.8,219.2,88.5,219.1z"
   id="SVGID_4_" />
		</defs>
		<clipPath
   id="SVGID_5_">
			<use
   id="use243"
   style="overflow:visible;"
   xlink:href="#SVGID_4_" />
		</clipPath>
		<g
   id="g259"
   clip-path="url(#SVGID_5_)"
   class="st2">
			
				<linearGradient
   gradientTransform="matrix(1 0 0 -1 0 226)"
   y2="227.3725"
   x2="-1.8875"
   y1="4.1275"
   x1="221.3575"
   gradientUnits="userSpaceOnUse"
   id="SVGID_6_">
				<stop
   id="stop246"
   style="stop-color:#52CFCA"
   offset="0" />
				<stop
   id="stop248"
   style="stop-color:#3895B6"
   offset="0.3" />
				<stop
   id="stop250"
   style="stop-color:#1F5EA2"
   offset="0.63" />
				<stop
   id="stop252"
   style="stop-color:#103B96"
   offset="0.87" />
				<stop
   id="stop254"
   style="stop-color:#0A2E91"
   offset="1" />
			</linearGradient>
			<rect
   id="rect257"
   height="223.2"
   width="223.3"
   class="st3"
   y="-1.3"
   x="-1.9" />
		</g>
	</g>
	<g
   id="g284">
		<defs
   id="defs264">
			<path
   d="M178.1,204.4c23.9-16.1,38.2-43,38.1-71.8V97.7L178.1,204.4z"
   id="SVGID_7_" />
		</defs>
		<clipPath
   id="SVGID_8_">
			<use
   id="use266"
   style="overflow:visible;"
   xlink:href="#SVGID_7_" />
		</clipPath>
		<g
   id="g282"
   clip-path="url(#SVGID_8_)"
   class="st4">
			
				<linearGradient
   gradientTransform="matrix(1 0 0 -1 0 226)"
   y2="227.3725"
   x2="-1.8875"
   y1="4.1275"
   x1="221.3575"
   gradientUnits="userSpaceOnUse"
   id="SVGID_9_">
				<stop
   id="stop269"
   style="stop-color:#52CFCA"
   offset="0" />
				<stop
   id="stop271"
   style="stop-color:#3895B6"
   offset="0.3" />
				<stop
   id="stop273"
   style="stop-color:#1F5EA2"
   offset="0.63" />
				<stop
   id="stop275"
   style="stop-color:#103B96"
   offset="0.87" />
				<stop
   id="stop277"
   style="stop-color:#0A2E91"
   offset="1" />
			</linearGradient>
			<rect
   id="rect280"
   height="223.2"
   width="223.3"
   class="st5"
   y="-1.3"
   x="-1.9" />
		</g>
	</g>
	<g
   id="g307">
		<defs
   id="defs287">
			<path
   d="M129.7,4.9H94.8L201.5,43C185.4,19.1,158.5,4.8,129.7,4.9z"
   id="SVGID_10_" />
		</defs>
		<clipPath
   id="SVGID_11_">
			<use
   id="use289"
   style="overflow:visible;"
   xlink:href="#SVGID_10_" />
		</clipPath>
		<g
   id="g305"
   clip-path="url(#SVGID_11_)"
   class="st6">
			
				<linearGradient
   gradientTransform="matrix(1 0 0 -1 0 226)"
   y2="227.3725"
   x2="-1.8875"
   y1="4.1275"
   x1="221.3575"
   gradientUnits="userSpaceOnUse"
   id="SVGID_12_">
				<stop
   id="stop292"
   style="stop-color:#52CFCA"
   offset="0" />
				<stop
   id="stop294"
   style="stop-color:#3895B6"
   offset="0.3" />
				<stop
   id="stop296"
   style="stop-color:#1F5EA2"
   offset="0.63" />
				<stop
   id="stop298"
   style="stop-color:#103B96"
   offset="0.87" />
				<stop
   id="stop300"
   style="stop-color:#0A2E91"
   offset="1" />
			</linearGradient>
			<rect
   id="rect303"
   height="223.2"
   width="223.3"
   class="st7"
   y="-1.3"
   x="-1.9" />
		</g>
	</g>
	<path
   id="path309"
   d="M523,185.6h-39.2V130h-133v55.6h-39.2V35.2h39.2v55.6h133V35.2H523V185.6z" />
	<path
   id="path311"
   d="M819.2,35.2L719,169.5c-7.9,10.6-19.9,19.4-34.1,19.4c-14.4,0-26.2-8.7-34.3-19.4L550.3,35.2h49.9l84.8,116.1l84.5-116.1   H819.2z" />
	<path
   id="path313"
   d="M1058,185.6h-39.2v-39.2h-133v39.2h-39.2V35.2h164.1c26.2,0,47.4,21.2,47.4,47.4v16.3c0,10.9-5.1,21.1-13.6,27.8   c8.6,6.7,13.6,16.9,13.6,27.8V185.6z M1018.8,107.1V74.4h-133v32.7L1018.8,107.1z" />
</g>
</svg>