<svg width="168" height="60" viewBox="0 0 168 60" fill="none" xmlns="http://www.w3.org/2000/svg">
<path d="M83.9749 3C69.077 3 57 15.077 57 29.9749C57 44.8728 69.077 56.9498 83.9749 56.9498C98.8728 56.9498 110.95 44.8728 110.95 29.9749C110.95 15.077 98.8728 3 83.9749 3Z" fill="#FF6D70"/>
<path d="M98.3327 33.6445C97.882 33.322 97.5544 32.8977 97.3492 32.3707C97.144 31.8431 97.0421 31.2553 97.0421 30.606C97.0421 29.9801 97.1711 29.3989 97.4305 28.8625C97.6892 28.326 98.0784 27.8951 98.5958 27.5682C99.114 27.2413 99.745 27.0779 100.489 27.0779C100.871 27.0779 101.196 27.1087 101.461 27.1695C101.727 27.2303 102.004 27.3483 102.293 27.5242L102.232 24.9489C102.232 24.6521 102.117 24.4447 101.884 24.3274C101.652 24.2102 101.316 24.1361 100.874 24.1046C100.819 24.0819 100.779 24.0504 100.752 24.0094C100.726 23.9691 100.712 23.9112 100.712 23.8342C100.712 23.7712 100.727 23.7067 100.759 23.6415C100.79 23.5762 100.829 23.5411 100.874 23.5367C101.576 23.4912 102.482 23.4692 103.591 23.4692H104.152C104.201 23.4692 104.248 23.4905 104.29 23.533C104.333 23.5762 104.355 23.6451 104.355 23.7397V32.7489C104.355 32.9292 104.391 33.0655 104.466 33.1578C104.54 33.2502 104.628 33.3096 104.73 33.3367C104.831 33.3638 104.958 33.3865 105.111 33.4041C105.211 33.4129 105.276 33.4327 105.307 33.462C105.339 33.4913 105.355 33.5551 105.355 33.654C105.355 33.7134 105.333 33.7735 105.291 33.8372C105.247 33.8995 105.192 33.931 105.125 33.931H102.8C102.629 33.931 102.506 33.9054 102.432 33.8533C102.358 33.802 102.314 33.731 102.3 33.6408C102.287 33.5507 102.282 33.4041 102.287 33.2011C102.07 33.4986 101.752 33.728 101.333 33.8871C100.915 34.0476 100.493 34.1274 100.07 34.1274C99.3624 34.1274 98.7834 33.9662 98.3327 33.6445ZM101.719 32.9819C101.948 32.8713 102.119 32.7174 102.232 32.5188V28.518C102.196 28.4095 102.117 28.2981 101.996 28.1831C101.874 28.068 101.735 27.9735 101.58 27.8995C101.425 27.8247 101.28 27.7881 101.144 27.7881C100.486 27.7881 100.018 28.0321 99.7384 28.5209C99.4591 29.0105 99.3199 29.7053 99.3199 30.606C99.3199 32.3004 99.8915 33.1476 101.036 33.1476C101.261 33.1476 101.489 33.0919 101.719 32.9819Z" fill="#F8F3EF"/>
<path d="M81.2787 33.201C80.6441 32.5847 80.326 31.6965 80.326 30.5385C80.326 29.813 80.496 29.1893 80.8361 28.6667C81.1761 28.1442 81.6327 27.7485 82.2051 27.4802C82.7767 27.2127 83.4055 27.0779 84.0908 27.0779C85.0904 27.0779 85.8357 27.2736 86.3275 27.6627C86.8185 28.0526 87.1271 28.6235 87.2539 29.3762C87.2942 29.6195 87.3139 29.9911 87.3139 30.4916L82.6235 30.4982C82.6235 31.1512 82.7261 31.6811 82.9314 32.0863C83.1358 32.4916 83.3967 32.7826 83.7119 32.9585C84.027 33.1344 84.3605 33.2216 84.7122 33.2216C85.127 33.2216 85.4752 33.1681 85.7566 33.0596C86.038 32.9519 86.2843 32.7731 86.4961 32.5261C86.5012 32.5217 86.5137 32.5063 86.5334 32.4821C86.554 32.4572 86.5752 32.4403 86.5979 32.4315C86.6199 32.422 86.6448 32.4198 86.6727 32.4242L86.9695 32.5664C87.0149 32.5847 87.0369 32.6111 87.0369 32.6477C87.0369 32.6741 87.0237 32.713 86.9966 32.7621C86.7533 33.1857 86.3971 33.5191 85.9288 33.7624C85.4598 34.0057 84.8837 34.1274 84.1985 34.1274C82.8874 34.1274 81.9141 33.8189 81.2787 33.201ZM84.8273 28.1765C84.6697 27.8269 84.4169 27.6525 84.0702 27.6525C83.7053 27.6525 83.3909 27.8342 83.127 28.197C82.8639 28.559 82.7027 29.1175 82.6441 29.8694H85.064C85.064 29.0903 84.9849 28.526 84.8273 28.1765Z" fill="#F8F3EF"/>
<path d="M87.892 33.8401C87.851 33.7793 87.8312 33.7177 87.8312 33.6547C87.8312 33.5777 87.8466 33.5191 87.8781 33.4788C87.9096 33.4378 87.9682 33.4128 88.054 33.404C88.5318 33.3462 88.77 33.201 88.77 32.9716V28.6733C88.77 28.4659 88.7319 28.3084 88.6557 28.1999C88.5787 28.0922 88.4893 28.0204 88.3889 27.9837C88.2878 27.9478 88.1551 27.9185 87.9932 27.8958C87.862 27.8782 87.7858 27.8643 87.7638 27.8555C87.7088 27.8327 87.6685 27.8012 87.6421 27.7609C87.615 27.7199 87.6011 27.662 87.6011 27.585C87.6011 27.522 87.6157 27.4582 87.645 27.3923C87.6744 27.3271 87.7139 27.2919 87.7638 27.2875C88.8176 27.2252 89.7704 27.1929 90.6227 27.1929C90.6674 27.1929 90.7099 27.2135 90.751 27.2538C90.7913 27.2948 90.8162 27.3644 90.825 27.4634V28.2204C90.9291 28.0988 91.1225 27.9463 91.4062 27.7639C91.6905 27.5814 92.0203 27.4216 92.3963 27.2846C92.773 27.1468 93.1438 27.0779 93.5081 27.0779C94.175 27.0779 94.7048 27.2215 95.0969 27.5073C95.4883 27.7939 95.6847 28.3216 95.6847 29.0918V32.7489C95.6847 33.001 95.7477 33.1659 95.8738 33.2421C95.9998 33.319 96.1318 33.3637 96.2695 33.3769C96.4066 33.3909 96.4974 33.3996 96.5429 33.404C96.6242 33.4128 96.6814 33.4348 96.7158 33.4685C96.7488 33.5023 96.7657 33.5646 96.7657 33.6547C96.7657 33.7177 96.7459 33.7793 96.7048 33.8401C96.6645 33.9009 96.6081 33.9317 96.5363 33.9317H92.9071C92.8345 33.9317 92.7781 33.9009 92.7378 33.8401C92.6975 33.7793 92.677 33.7177 92.677 33.6547C92.677 33.5733 92.6902 33.514 92.7173 33.4751C92.7444 33.437 92.8008 33.4128 92.8866 33.404C93.0529 33.3865 93.2032 33.3388 93.3358 33.2619C93.4685 33.1857 93.5352 33.0889 93.5352 32.9717V29.1263C93.5352 28.9504 93.522 28.7928 93.4949 28.6528C93.4677 28.5128 93.3945 28.3875 93.275 28.2747C93.1555 28.1618 92.9745 28.1054 92.7312 28.1054C92.5011 28.1054 92.2658 28.1493 92.0247 28.2373C91.7836 28.3252 91.563 28.4344 91.3622 28.5649C91.1621 28.6961 91.0053 28.8243 90.8924 28.9504V32.7489C90.8924 32.9291 90.9254 33.0655 90.9906 33.1578C91.0558 33.2501 91.1357 33.311 91.231 33.3403C91.3255 33.3696 91.4472 33.3909 91.5952 33.404C91.6942 33.4128 91.7601 33.4326 91.7916 33.4619C91.8232 33.4913 91.8385 33.555 91.8385 33.6547C91.8385 33.7133 91.8173 33.7734 91.7748 33.8372C91.7315 33.9002 91.6766 33.9317 91.6092 33.9317H88.0606C87.9888 33.9317 87.9323 33.9009 87.892 33.8401Z" fill="#F8F3EF"/>
<path d="M80.0413 33.4622C80.0098 33.4322 79.9446 33.4131 79.8449 33.4043C79.6785 33.386 79.5407 33.3648 79.433 33.3398C79.3245 33.3157 79.2293 33.2614 79.1457 33.1779C79.0622 33.0951 79.0204 32.9741 79.0204 32.8166V23.7392C79.0204 23.6446 78.9991 23.5765 78.9566 23.5332C78.9134 23.4907 78.8672 23.4688 78.8181 23.4688C77.7862 23.4688 76.7837 23.501 75.8104 23.564C75.765 23.5684 75.7269 23.6029 75.6953 23.6688C75.6638 23.7341 75.6484 23.7978 75.6484 23.8608C75.6484 23.9378 75.6616 23.9964 75.6888 24.0367C75.7159 24.077 75.7562 24.1093 75.8104 24.1313C75.8287 24.1357 75.9137 24.1496 76.0669 24.1723C76.2516 24.1943 76.4026 24.2243 76.5198 24.2595C76.6371 24.2962 76.7382 24.368 76.824 24.4764C76.9097 24.5842 76.9522 24.7439 76.9522 24.9565L76.9456 33.0394C76.9456 33.1522 76.2685 33.4285 75.7789 33.4285C75.2893 33.4285 74.6495 33.1559 74.5997 33.0357C74.5506 32.9162 74.5257 32.7689 74.5257 32.593V28.9572C74.5257 28.5879 74.4216 28.2625 74.2149 27.9811C74.0075 27.6989 73.6851 27.4783 73.2483 27.3178C72.8107 27.158 72.2596 27.0781 71.592 27.0781C71.1237 27.0781 70.6407 27.136 70.1424 27.2504C69.6447 27.3654 69.2233 27.5435 68.8789 27.7846C68.5344 28.0258 68.3615 28.3262 68.3615 28.6868C68.3615 28.966 68.4641 29.1947 68.6693 29.3728C68.8071 29.493 68.9742 29.5685 69.1647 29.608C69.3648 29.6366 69.5751 29.5897 69.5487 29.3259C69.5473 29.3076 69.5487 29.298 69.5487 29.2848C69.5026 28.7352 69.7759 28.1584 70.4656 27.8594C70.4963 27.8462 70.5242 27.8374 70.5528 27.8264C70.6715 27.7678 70.9331 27.7202 71.3018 27.7202C71.6352 27.7202 71.8859 27.7956 72.0552 27.9466C72.2245 28.0976 72.3087 28.3739 72.3087 28.7748V29.8895C71.5377 29.9708 70.8474 30.0873 70.2369 30.2376C69.6264 30.3886 69.1083 30.6311 68.6825 30.9646C68.2567 31.298 68.0441 31.7414 68.0441 32.2955C68.0441 32.7015 68.1489 33.0394 68.3585 33.3098C68.5681 33.5802 68.8276 33.7781 69.139 33.9049C69.4498 34.0302 69.7561 34.094 70.0581 34.094C70.5403 34.094 70.9852 34.0155 71.3926 33.8602C71.8008 33.7055 72.149 33.4769 72.437 33.1742V33.1947C72.437 33.3479 72.4678 33.5868 72.4678 33.5868C72.4678 33.5868 72.4934 33.7825 72.7243 33.9027C72.9551 34.0236 74.3872 33.9313 74.6481 33.9313H79.8588C79.9306 33.9313 79.9871 33.9012 80.0281 33.8404C80.0684 33.7796 80.0882 33.718 80.0882 33.6542C80.0882 33.5553 80.0728 33.4915 80.0413 33.4622ZM72.3087 32.607C72.0295 32.9492 71.6667 33.1207 71.2204 33.1207C70.9412 33.1207 70.7235 33.0328 70.5682 32.8569C70.4128 32.681 70.3351 32.4714 70.3351 32.2281C70.3351 31.7913 70.4304 31.449 70.6187 31.2013C70.8085 30.9536 71.0416 30.7777 71.3186 30.6736C71.5956 30.5703 71.9262 30.489 72.3087 30.4303V32.607Z" fill="#F8F3EF"/>
<path d="M67.5815 33.2181C67.5544 33.1397 67.5163 33.0664 67.4665 32.999C67.4166 32.9308 67.3785 32.9037 67.3521 32.9176C67.1807 33.0034 66.993 33.0752 66.7908 33.1338C66.5878 33.1925 66.4119 33.2218 66.2638 33.2218C66.0967 33.2218 65.9692 33.1844 65.882 33.1104C65.7941 33.0356 65.731 32.8986 65.6922 32.6978C65.6541 32.4977 65.635 32.206 65.635 31.8227V27.9363H67.0883C67.1381 27.9363 67.1836 27.8894 67.2268 27.7948C67.2693 27.7003 67.2913 27.583 67.2913 27.4431C67.2913 27.3852 67.2759 27.3324 67.2466 27.2877C67.2173 27.243 67.1785 27.2173 67.1286 27.2137H65.635V25.3272C65.635 25.2488 65.583 25.1939 65.4906 25.1565C65.3221 25.103 65.2232 25.2869 65.2232 25.2869C64.7688 26.3379 63.8761 27.1484 62.7724 27.4944C62.7724 27.4944 62.5467 27.5486 62.6046 27.7838C62.6119 27.8044 62.6178 27.8249 62.6273 27.8454C62.6588 27.9106 62.6969 27.9458 62.7424 27.9502H63.465V32.4244C63.465 33.0598 63.6577 33.5032 64.0432 33.7553C64.4287 34.0081 64.9454 34.1342 65.5947 34.1342C65.797 34.1342 66.0322 34.0961 66.3005 34.0191C66.5687 33.9429 66.8208 33.8447 67.0575 33.7253C67.2942 33.6058 67.4687 33.4856 67.5815 33.364C67.6087 33.3456 67.6087 33.2973 67.5815 33.2181Z" fill="#F8F3EF"/>
</svg>
