<svg width="168" height="60" viewBox="0 0 168 60" fill="none" xmlns="http://www.w3.org/2000/svg">
<path d="M160.739 29.0336V27.1019H158.451V24.3238H156.519V27.1019H154.721V29.0336H156.519V34.6016C156.519 36.2277 157.836 37.5443 159.462 37.5443H160.739V35.6125H159.462C158.902 35.6125 158.451 35.1619 158.451 34.6016V29.0336H160.739Z" fill="black"/>
<path d="M149.517 26.9217C151.59 26.9217 153.259 28.5909 153.259 30.6637V33.8023C153.259 35.8555 151.59 37.5443 149.517 37.5443H148.792C146.739 37.5443 145.05 35.8555 145.05 33.8023V30.6637C145.05 28.5909 146.739 26.9217 148.792 26.9217H149.517ZM146.982 30.6637V33.8023C146.982 34.8093 147.809 35.6125 148.792 35.6125H149.517C150.524 35.6125 151.328 34.8093 151.328 33.8023V30.6637C151.328 29.6567 150.524 28.8534 149.517 28.8534H148.792C147.805 28.8534 146.982 29.6567 146.982 30.6637Z" fill="black"/>
<path d="M142.935 30.6637V33.8023C142.935 35.875 141.265 37.5443 139.193 37.5443H138.95C138.084 37.5443 137.28 37.2425 136.657 36.7175V40.8631H134.726V27.098H136.657V27.7406C137.28 27.2155 138.088 26.9138 138.95 26.9138H139.193C141.261 26.9217 142.935 28.5909 142.935 30.6637ZM141.003 30.6637C141.003 29.6763 140.2 28.8534 139.193 28.8534H138.468C137.48 28.8534 136.657 29.6802 136.657 30.6637V33.8023C136.657 34.8093 137.484 35.6125 138.468 35.6125H139.193C140.2 35.6125 141.003 34.8093 141.003 33.8023V30.6637Z" fill="black"/>
<path d="M125.714 34.1627C125.894 34.9895 126.619 35.6125 127.504 35.6125H128.852C129.84 35.6125 130.662 34.7858 130.662 33.8023C130.662 32.6738 129.977 32.0116 128.93 31.608L127.159 30.9458C125.51 30.3032 124.142 29.2139 124.142 27.1607C124.142 25.0879 125.811 23.4187 127.884 23.4187H128.829C130.561 23.4187 132.03 24.6059 132.449 26.236L130.576 26.7806C130.416 25.9538 129.691 25.3504 128.825 25.3504H127.88C126.873 25.3504 126.07 26.1537 126.07 27.1607C126.07 27.9444 126.352 28.5478 127.9 29.1512L129.671 29.8369C131.462 30.5618 132.59 31.9293 132.59 33.8023C132.59 35.875 130.901 37.5443 128.848 37.5443H127.5C125.749 37.5443 124.279 36.3374 123.856 34.7074L125.714 34.1627Z" fill="black"/>
<path d="M122.03 29.0336V27.1019H119.742V24.3238H117.81V27.1019H116.012V29.0336H117.81V34.6016C117.81 36.2277 119.127 37.5443 120.753 37.5443H122.03V35.6125H120.753C120.193 35.6125 119.742 35.1619 119.742 34.6016V29.0336H122.03Z" fill="black"/>
<path d="M114.335 30.6637V37.364H112.403V30.6637C112.403 29.6567 111.6 28.8534 110.593 28.8534H109.868C108.88 28.8534 108.058 29.6567 108.058 30.6637V37.364H106.126V23.5989H108.058V27.7445C108.681 27.2195 109.488 26.9178 110.35 26.9178H110.593C112.666 26.9217 114.335 28.5909 114.335 30.6637Z" fill="black"/>
<path d="M103.622 27.1019V37.3052C103.622 39.378 101.972 41.0472 99.8996 41.0472H99.1355C97.384 41.0472 95.9147 39.8404 95.515 38.23L97.3644 37.6853C97.5447 38.4886 98.2696 39.1155 99.1355 39.1155H99.8996C100.887 39.1155 101.69 38.2887 101.69 37.3052V36.0984C101.067 36.6234 100.26 36.9252 99.3981 36.9252H99.1551C97.1019 36.9252 95.4131 35.256 95.4131 33.1832V30.6676C95.4131 28.5948 97.1019 26.9256 99.1551 26.9256H99.3981C100.264 26.9256 101.067 27.2273 101.69 27.7288V27.1058H103.622V27.1019ZM101.69 33.1792V30.6637C101.69 29.6567 100.887 28.8534 99.88 28.8534H99.1551C98.1677 28.8534 97.3449 29.6567 97.3449 30.6637V33.1792C97.3449 34.1667 98.1716 34.9895 99.1551 34.9895H99.88C100.883 34.9895 101.69 34.1627 101.69 33.1792Z" fill="black"/>
<path d="M86.9848 27.1019V33.8023C86.9848 34.8093 87.7881 35.6125 88.7951 35.6125H89.52C90.527 35.6125 91.3302 34.8093 91.3302 33.8023V27.1019H93.262V33.8023C93.262 35.875 91.5928 37.5443 89.52 37.5443H88.7951C86.7223 37.5443 85.0531 35.875 85.0531 33.8023V27.1019H86.9848V27.1019Z" fill="black"/>
<path d="M79.0463 26.9217C81.1191 26.9217 82.7883 28.5909 82.7883 30.6637V33.8023C82.7883 35.8555 81.1191 37.5443 79.0463 37.5443H78.3214C76.2682 37.5443 74.5794 35.8555 74.5794 33.8023V30.6637C74.5794 28.5909 76.2682 26.9217 78.3214 26.9217H79.0463ZM76.5111 30.6637V33.8023C76.5111 34.8093 77.3379 35.6125 78.3214 35.6125H79.0463C80.0533 35.6125 80.8565 34.8093 80.8565 33.8023V30.6637C80.8565 29.6567 80.0533 28.8534 79.0463 28.8534H78.3214C77.3379 28.8534 76.5111 29.6567 76.5111 30.6637Z" fill="black"/>
<path d="M72.3459 30.6637V37.364H70.4142V30.6637C70.4142 29.6567 69.6109 28.8534 68.6039 28.8534H67.879C66.8916 28.8534 66.0688 29.6567 66.0688 30.6637V37.364H64.137V23.5989H66.0688V27.7445C66.6918 27.2195 67.499 26.9178 68.361 26.9178H68.6039C70.6728 26.9217 72.3459 28.5909 72.3459 30.6637Z" fill="black"/>
<path d="M62.0995 23.5989V25.5307H58.2282V37.364H56.2965V25.5307H52.4252V23.5989H62.0995Z" fill="black"/>
<path d="M33.9816 46C36.0915 46 37.802 44.2896 37.802 42.1796C37.802 40.0697 36.0915 38.3593 33.9816 38.3593C31.8717 38.3593 30.1612 40.0697 30.1612 42.1796C30.1612 44.2896 31.8717 46 33.9816 46Z" fill="black"/>
<path d="M37.563 22.8427H7V24.7509H17.509V45.761H19.4172V24.7509H21.3254V45.761H23.2375V24.7509H25.1458V45.761H27.0579V24.7509H37.563V22.8427Z" fill="black"/>
<path d="M37.563 19.0223H7V20.9306H37.563V19.0223Z" fill="black"/>
<path d="M37.563 15.202H7V17.1102H37.563V15.202Z" fill="black"/>
</svg>
