<svg width="168" height="60" viewBox="0 0 168 60" fill="none" xmlns="http://www.w3.org/2000/svg">
<path d="M93.3423 30.9315C92.8262 30.0894 93.5053 29.3832 93.5053 29.3832L99.4811 23.2172C100.16 22.5109 99.1823 22.5109 99.1823 22.5109H93.6139C92.636 22.5109 91.957 23.2172 91.957 23.2172L86.4429 29.0844C85.7638 29.7907 85.7638 28.8128 85.7638 28.8128V15.9918C85.7638 15.0139 84.7859 15.0139 84.7859 15.0139H80.5756C79.6249 15.0139 79.6249 15.9646 79.6249 15.9646V42.7746C79.6249 43.7525 80.6028 43.7525 80.6028 43.7525H84.7859C85.7366 43.7525 85.7366 42.8018 85.7366 42.8018V38.1026C85.7366 37.1247 86.4429 36.4456 86.4429 36.4456L88.4258 34.5985L93.3695 42.9104C93.8584 43.7525 94.8363 43.7525 94.8363 43.7525H100.133C101.111 43.7525 100.595 42.9104 100.595 42.9104L93.3423 30.9315ZM75.2245 42.7746V23.4617C75.2245 22.4838 74.2466 22.4838 74.2466 22.4838H70.0092C69.0313 22.4838 69.0313 23.4617 69.0313 23.4617V42.7746C69.0313 43.7525 70.0092 43.7525 70.0092 43.7525H74.2466C75.2245 43.7525 75.2245 42.7746 75.2245 42.7746ZM75.0615 18.7081V15.9375C75.0615 15.9375 75.0615 14.9868 74.1108 14.9868H69.982C69.982 14.9868 69.0313 14.9868 69.0313 15.9375V18.7081C69.0313 18.7081 69.0313 19.6588 69.982 19.6588H74.138C74.138 19.6588 75.0615 19.6588 75.0615 18.7081ZM64.4951 42.7746V16.019C64.4951 15.0411 63.5172 15.0411 63.5172 15.0411H59.1983C58.2204 15.0411 58.2204 16.019 58.2204 16.019V42.7746C58.2204 43.7525 59.1983 43.7525 59.1983 43.7525H63.5172C64.4951 43.7525 64.4951 42.7746 64.4951 42.7746ZM54.7979 41.6338C54.7979 41.6338 55.3411 41.009 54.7164 40.4657L51.2667 37.4506C52.815 35.1418 53.7385 32.3983 53.7385 29.4104C53.7385 21.4788 47.3009 15.0411 39.3693 15.0411C31.4376 15.0411 25 21.4788 25 29.4104C25 37.342 31.4376 43.7796 39.3693 43.7796C42.2757 43.7796 44.9649 42.9104 47.2466 41.4164L51.0494 44.7032C51.0494 44.7032 51.6741 45.2464 52.2174 44.6217L54.7979 41.6338ZM47.654 29.3832C47.654 33.9738 43.9327 37.6951 39.3421 37.6951C34.7515 37.6951 31.0302 33.9738 31.0302 29.3832C31.0302 24.7926 34.7515 21.0713 39.3421 21.0713C43.9327 21.0985 47.654 24.7926 47.654 29.3832Z" fill="#54565B"/>
<path d="M141.285 41.9325L136.667 38.0482C138.27 35.4949 139.221 32.4798 139.221 29.2474C139.221 20.1478 131.832 12.7594 122.733 12.7594C113.633 12.7594 106.245 20.1478 106.245 29.2474C106.245 38.347 113.633 45.7354 122.733 45.7354C126.264 45.7354 129.551 44.6217 132.24 42.7203L137.156 46.8491C137.156 46.8491 137.89 47.4738 138.514 46.7404L141.448 43.2635C141.421 43.2635 142.019 42.5301 141.285 41.9325ZM132.865 29.2474C132.865 34.843 128.328 39.3792 122.733 39.3792C117.137 39.3792 112.601 34.843 112.601 29.2474C112.601 23.6518 117.137 19.1156 122.733 19.1156C128.328 19.1156 132.865 23.6518 132.865 29.2474Z" fill="#009848"/>
<path d="M116.214 29.2474C116.214 25.6619 119.12 22.7554 122.706 22.7554C126.291 22.7554 129.198 25.6619 129.198 29.2474C129.198 32.8329 126.291 35.7394 122.706 35.7394C119.12 35.7394 116.214 32.8329 116.214 29.2474Z" fill="#54565B"/>
<path d="M138.514 17.6216C138.514 16.6166 139.329 15.8288 140.307 15.8288C141.312 15.8288 142.1 16.6437 142.1 17.6216C142.1 18.5995 141.285 19.4144 140.307 19.4144C139.329 19.4144 138.514 18.5995 138.514 17.6216ZM140.307 16.0461C139.465 16.0461 138.786 16.7252 138.786 17.5944C138.786 18.4636 139.438 19.1427 140.307 19.1427C141.176 19.1427 141.828 18.4636 141.828 17.5944C141.801 16.7524 141.176 16.0461 140.307 16.0461ZM139.9 18.7081H139.655V16.5079H140.443C140.823 16.5079 141.122 16.698 141.122 17.1055C141.122 17.4586 140.932 17.6759 140.606 17.7031L141.231 18.6809H140.932L140.362 17.7031H139.927V18.7081H139.9V18.7081ZM139.9 17.5129H140.389C140.688 17.5129 140.878 17.4586 140.878 17.1055C140.878 16.8339 140.66 16.7252 140.389 16.7252H139.9V17.5129Z" fill="#54565B"/>
</svg>
