<?xml version="1.0" encoding="UTF-8"?>
<svg width="150px" height="38px" viewBox="0 0 150 38" version="1.1" xmlns="http://www.w3.org/2000/svg" xmlns:xlink="http://www.w3.org/1999/xlink">
    <title>Logo/@Rivery Logo horizontal purple</title>
    <g id="Page-1" stroke="none" stroke-width="1" fill="none" fill-rule="evenodd">
        <g id="Group" fill="#26114D">
            <path d="M49.7351053,20.1037453 L45.4275,20.1037453 L45.4275,29.4962505 L39.0017368,29.4962505 L39.0017368,2.34695616 L51.0499737,2.34695616 C56.8528421,2.34695616 60.7241842,5.90634238 60.7241842,11.2253111 C60.7241842,14.6372192 58.971,17.3156242 56.0873684,18.8203132 L62.9513684,29.4962505 L55.4309211,29.4962505 L49.7351053,20.1037453 Z M45.4275,14.7846973 L49.7707105,14.7846973 C52.3627895,14.7846973 54.1160526,13.3537871 54.1160526,11.2253111 C54.1160526,9.09897704 52.6186579,7.66806681 50.3557895,7.66806681 L45.4275,7.66806681 L45.4275,14.7846973 L45.4275,14.7846973 Z" id="Fill-1"></path>
            <path d="M64.0276579,3.59516493 C64.0276579,1.50468894 65.5606579,0 67.6410789,0 C69.7235526,0 71.2187368,1.50468894 71.2187368,3.59516493 C71.2187368,5.68572025 69.7235526,7.19025052 67.6410789,7.19025052 C65.5606579,7.19025052 64.0276579,5.68572025 64.0276579,3.59516493 L64.0276579,3.59516493 Z M64.5016579,29.4968852 L70.7070789,29.4968852 L70.7070789,9.50214196 L64.5016579,9.50214196 L64.5016579,29.4968852 Z" id="Fill-2"></path>
            <polyline id="Fill-3" points="72.2602105 9.50142797 79.0152632 9.50142797 83.505 22.4154781 87.9576316 9.50142797 94.7478947 9.50142797 86.6068421 29.4962505 80.4371053 29.4962505 72.2602105 9.50142797"></polyline>
            <path d="M114.574737,21.6811023 L100.92,21.6811023 C101.287105,23.7357996 102.382105,24.9833737 104.753684,24.9833737 C106.433684,24.9833737 107.821579,24.2858079 108.769737,23.1477912 L113.588684,25.4954614 C111.873158,28.100167 108.696316,29.8619708 104.827105,29.8619708 C98.5484211,29.8619708 94.35,25.8263549 94.35,19.7001837 C94.35,13.3906764 98.4015789,9.13380376 104.535789,9.13380376 C110.632105,9.13380376 114.721579,13.1334823 114.721579,19.1858747 C114.721579,20.0309979 114.648158,20.9835365 114.574737,21.6811023 M100.957895,17.497929 L108.222632,17.497929 C107.821579,15.2240376 106.616053,14.0144635 104.535789,14.0144635 C102.491053,14.0144635 101.358158,15.2620376 100.957895,17.497929" id="Fill-4"></path>
            <path d="M129.341842,9.13459708 L128.941579,14.858238 C125.143421,14.858238 122.478158,16.6178998 122.478158,19.2226054 L122.478158,29.4960919 L116.272895,29.4960919 L116.272895,9.50126931 L122.260263,9.50126931 L122.369211,11.9226388 C123.939474,10.162977 126.385263,9.13459708 129.341842,9.13459708" id="Fill-5"></path>
            <path d="M150,9.50142797 L150,27.4036326 C150,33.7510605 145.472368,37.9320919 138.610263,37.9320919 C135.470526,37.9320919 132.693947,37.08919 130.722632,35.4749436 L132.075789,30.5964259 C134.082632,32.0988935 136.162895,32.6130438 138.463421,32.6130438 C141.567632,32.6130438 143.683421,30.5964259 143.794737,27.587048 C142.332632,29.1275157 140.325789,29.8629228 138.281053,29.8629228 C133.864737,29.8629228 130.907368,26.7440668 130.907368,22.0108852 L130.907368,9.50142797 L137.112632,9.50142797 L137.112632,21.0942046 C137.112632,23.1489019 138.427895,24.5060334 140.470263,24.5060334 C142.479474,24.5060334 143.794737,23.1489019 143.794737,21.0942046 L143.794737,9.50142797 L150,9.50142797" id="Fill-6"></path>
            <path d="M2.73686842,29.4948225 L2.73686842,21.0041628 L17.5595526,29.4948225 L23.0310789,29.4948225 L5.44002632,19.417286 L17.6203421,12.4419457 L2.91696492e-14,2.34751148 L2.91696492e-14,29.4948225 L2.73686842,29.4948225 Z M2.73686842,7.05118163 L12.1467632,12.4419457 L2.73686842,17.8326305 L2.73686842,7.05118163 L2.73686842,7.05118163 Z" id="Fill-7"></path>
            <path d="M24.2789211,2.34798747 L24.2789211,10.8386472 L9.45607895,2.34798747 L3.98463158,2.34798747 L21.5756842,12.425524 L9.39528947,19.4008643 L27.0156316,29.4952985 L27.0156316,2.34798747 L24.2789211,2.34798747 Z M24.2789211,24.7916284 L14.8688684,19.4008643 L24.2789211,14.0123215 L24.2789211,24.7916284 L24.2789211,24.7916284 Z" id="Fill-8"></path>
        </g>
    </g>
</svg>