<?xml version="1.0" encoding="utf-8"?>
<!-- Generator: Adobe Illustrator 22.0.1, SVG Export Plug-In . SVG Version: 6.00 Build 0)  -->
<svg version="1.1" id="Layer_1" xmlns="http://www.w3.org/2000/svg" xmlns:xlink="http://www.w3.org/1999/xlink" x="0px" y="0px"
	 viewBox="0 0 571.8 112.8" style="enable-background:new 0 0 571.8 112.8;" xml:space="preserve">
<style type="text/css">
	.st0{fill:url(#SVGID_1_);}
	.st1{fill:#27235D;}
</style>
<g>
	<g>
		
			<linearGradient id="SVGID_1_" gradientUnits="userSpaceOnUse" x1="-2" y1="56.6" x2="76.2" y2="56.6" gradientTransform="matrix(1 0 0 -1 2 113)">
			<stop  offset="0" style="stop-color:#7C59A4"/>
			<stop  offset="0.4934" style="stop-color:#647ABA"/>
			<stop  offset="1" style="stop-color:#3BC5F3"/>
		</linearGradient>
		<path class="st0" d="M66.8,28.6h11.4V17.2H66.8V28.6z M66.8,0v11.4h11.4V0H66.8z M66.8,45.7h11.4V34.3H66.8V45.7z M66.8,79.1h11.4
			V51.5H66.8V79.1z M50.9,28.6h11.4V17.2H50.9V28.6z M50.9,98.1h11.4V34.3H50.9V98.1z M33.4,62.9h11.4V51.5H33.4V62.9z M33.4,11.4
			h11.4V0H33.4V11.4z M33.4,45.7h11.4V17.2H33.4V45.7z M33.4,112.8h11.4V67.6H33.4V112.8z M0,28.6h11.4V17.2H0V28.6z M0,11.4h11.4V0
			H0V11.4z M0,79.1h11.4V34.3H0V79.1z M15.9,98.1h11.4V17.2H15.9V98.1z"/>
	</g>
	<g>
		<g>
			<path class="st1" d="M156.3,17.8l-0.1,15h-39.3v19.7h27.6v15.1h-27.6v30.3H98.8v-80H156.3z"/>
			<path class="st1" d="M219.3,67.1c0,18.7-13.3,31.4-32.9,31.4c-19.8,0-33-12.7-33-31.4c0-18.9,13.3-31.3,33-31.3
				C206,35.8,219.3,48.2,219.3,67.1z M170.9,67.3c0,10.1,6.3,16.9,15.4,16.9c9,0,15.3-6.9,15.3-16.9s-6.3-16.9-15.3-16.9
				C177.2,50.4,170.9,57.3,170.9,67.3z"/>
			<path class="st1" d="M266.3,35.7v15.5c-12.6-1.1-20.3,6.6-20.3,17v29.6h-17.6V36.3H246v11.1C250.2,39.9,257.2,35.8,266.3,35.7z"
				/>
			<path class="st1" d="M317.1,94.4c-4.6,2.6-10.3,4.2-16,4.2c-11,0-19.3-6.3-19.3-19V51.2h-8.6V35.7h8.6V22.2h17.5v13.5h16.7v15.6
				h-16.7v25.4c0,5.1,2.2,7.2,5.9,7.1c2.3,0,5-0.8,8.2-2.3L317.1,94.4z"/>
			<path class="st1" d="M361,97.8v-7.2c-4.1,5.1-10.7,8-19.3,8c-13.1,0-21.1-8-21.1-19.2c0-11.5,8.3-18.4,23.4-18.5h16.9v-1.1
				c0-6.5-4.3-10.3-12.8-10.3c-5.5,0-11.9,1.8-18.3,5.4l-5.5-12.1c9.1-4.6,17-7.1,27.8-7.1c16.5,0,25.9,8.2,26.1,22.1l0.1,40.1H361z
				 M360.8,76.8v-5.5H347c-6.7,0-10.1,2.1-10.1,7c0,4.7,3.7,7.8,9.6,7.8C354,86.1,359.8,82.1,360.8,76.8z"/>
			<path class="st1" d="M450.4,59.2v38.6h-17.6V64.3c0-7.8-4.6-12.6-12.1-12.6c-8.8,0.1-14.1,6.7-14.1,15.8v30.3H389V36.3h17.6v10.7
				c4.3-7.7,11.7-11.3,21.3-11.4C441.5,35.7,450.4,44.8,450.4,59.2z"/>
			<path class="st1" d="M480.5,36.3v61.5h-17.6V36.3H480.5z M480.3,18.9c0,5-3.5,8.8-8.6,8.8c-5,0-8.6-3.8-8.6-8.8
				c0-5.1,3.5-8.8,8.6-8.8C476.7,10,480.3,13.7,480.3,18.9z"/>
			<path class="st1" d="M508,36.3L519.3,55l12-18.6h19.2L531,66.3l20.9,31.5h-20.2l-12.3-20.1l-13.5,20.1h-19.4l21.3-31.4
				l-19.8-30.1H508z"/>
			<g>
				<path class="st1" d="M571.8,43.1c0,4.7-3.8,8.6-8.6,8.6c-4.8,0-8.5-3.9-8.5-8.6s3.7-8.6,8.6-8.6
					C568.1,34.5,571.8,38.4,571.8,43.1z M570.2,43.1c0-3.8-3-6.9-7-6.9c-4,0-7,3.2-7,7c0,3.8,3,6.9,6.9,6.9
					C567.2,50.1,570.2,46.9,570.2,43.1z M565.2,44.3l1.9,2.8h-1.8l-1.5-2.5h-0.3h-1.9v2.5H560v-8.4h3.5c2.2,0,3.4,1,3.4,2.9
					C566.9,42.9,566.3,43.8,565.2,44.3z M561.6,43.2h1.9c1.2,0,1.9-0.6,1.9-1.7c0-1-0.7-1.6-1.9-1.6h-1.9V43.2z"/>
			</g>
		</g>
	</g>
</g>
</svg>
