<?xml version="1.0" encoding="UTF-8"?>
<svg width="168px" height="60px" viewBox="0 0 168 60" version="1.1" xmlns="http://www.w3.org/2000/svg" xmlns:xlink="http://www.w3.org/1999/xlink">
    <!-- Generator: Sketch 50.2 (55047) - http://www.bohemiancoding.com/sketch -->
    <title>UI / Component / Partner-Category / Brand-Chartio</title>
    <desc>Created with Sketch.</desc>
    <defs>
        <rect id="path-1" x="0" y="0" width="168" height="60"></rect>
    </defs>
    <g id="UI-/-Component-/-Partner-Category-/-Brand-Chartio" stroke="none" stroke-width="1" fill="none" fill-rule="evenodd">
        <g id="UI-/-Component-/-Partner-Category-/-Brand-Area">
            <mask id="mask-2" fill="white">
                <use xlink:href="#path-1"></use>
            </mask>
            <g id="Rectangle-7"></g>
            <g id="chartio-logo-black-tbg" mask="url(#mask-2)">
                <g transform="translate(0.000000, 4.000000)">
                    <rect id="Rectangle-path" x="7.84341893e-06" y="0" width="167.952084" height="51.1321078"></rect>
                    <g id="Group" stroke-width="1" fill-rule="evenodd" transform="translate(12.715401, 13.821620)">
                        <path d="M11.2029788,16.0394486 C11.235949,15.6808985 11.4971343,15.388117 11.8551694,15.388117 L15.1169809,15.388117 C15.4757029,15.388117 15.7696866,15.6808985 15.7696866,16.0394486 C15.7696866,20.3983733 12.5075317,23.4889787 8.00676415,23.4889787 C3.5059966,23.4889787 0.700615475,20.2045021 0.244185099,16.2997752 C-0.0813950331,13.5665178 -0.0813950331,9.92263259 0.244185099,7.19006211 C0.700615475,3.28619375 3.5059966,0 8.00676415,0 C12.5075317,0 15.7696866,3.08974678 15.7696866,7.45038869 C15.7696866,7.80722156 15.4757029,8.10137686 15.1169809,8.10137686 L11.8551694,8.10137686 C11.4971343,8.10137686 11.235949,7.80722156 11.2029788,7.45038869 C11.0726437,5.75826593 9.86597095,4.58799837 8.00676415,4.58799837 C6.01756571,4.58799837 5.00596625,5.75826593 4.84266103,7.19006211 C4.51725262,9.92263259 4.51725262,13.5665178 4.84266103,16.2997752 C5.00596625,17.7310562 6.01756571,18.9030409 8.00676415,18.9030409 C9.86597095,18.9030409 11.0726437,17.7310562 11.2029788,16.0394486 Z M26.6563582,9.14182457 C26.6563582,9.33689779 26.7870367,9.46774796 26.9827969,9.46774796 L31.9408534,9.46774796 C32.1359268,9.46774796 32.2664336,9.33689779 32.2664336,9.14182457 L32.2664336,1.00833619 C32.2664336,0.650129569 32.5602456,0.357348027 32.919311,0.357348027 L36.1807791,0.357348027 C36.5391576,0.357348027 36.8327979,0.650129569 36.8327979,1.00833619 L36.8327979,22.4813294 C36.8327979,22.8386774 36.5391576,23.1316307 36.1807791,23.1316307 L32.919311,23.1316307 C32.5602456,23.1316307 32.2664336,22.8386774 32.2664336,22.4813294 L32.2664336,14.3469824 C32.2664336,14.1527678 32.1359268,14.0232914 31.9408534,14.0232914 L26.9827969,14.0232914 C26.7870367,14.0232914 26.6563582,14.1527678 26.6563582,14.3469824 L26.6563582,22.4813294 C26.6563582,22.8386774 26.2006147,23.1316307 25.8418927,23.1316307 L22.743043,23.1316307 C22.3838058,23.1316307 22.0910241,22.8386774 22.0910241,22.4813294 L22.0910241,1.00833619 C22.0910241,0.650129569 22.3838058,0.357348027 22.743043,0.357348027 L26.0043393,0.357348027 C26.3637482,0.357348027 26.6563582,0.650129569 26.6563582,1.00833619 L26.6563582,9.14182457 Z M47.1007642,22.6439476 C47.0351674,22.937416 46.7743255,23.1316307 46.4808569,23.1316307 L43.0562553,23.1316307 C42.5347433,23.1316307 42.3384679,22.7747978 42.4033778,22.4813294 L48.2423553,0.84588966 C48.3077804,0.553623278 48.5686223,0.357348027 48.8617475,0.357348027 L53.2325234,0.357348027 C53.5258202,0.357348027 53.7863187,0.553623278 53.8520872,0.84588966 L59.6577511,22.4813294 C59.7235197,22.7747978 59.5272443,23.1316307 59.005904,23.1316307 L55.580959,23.1316307 C55.2873186,23.1316307 55.0592752,22.937416 54.9612234,22.6439476 L53.9497956,19.2923288 C53.8843705,19.0325174 53.7538637,18.8058478 53.4607385,18.8058478 L48.5030255,18.8058478 C48.2095569,18.8058478 48.0788784,18.999719 48.0132815,19.2923288 L47.1007642,22.6439476 Z M49.2530962,13.8926129 C49.1878427,14.1527678 49.3188647,14.2496175 49.5144532,14.2496175 L52.5149077,14.2496175 C52.7106679,14.2496175 52.8410029,14.1527678 52.7752344,13.8926129 L51.2098396,6.08367416 C51.1775564,5.98699615 51.1447579,5.95333915 51.0470495,5.95333915 L50.9816244,5.95333915 C50.8842595,5.95333915 50.8514611,5.98699615 50.8181475,6.08367416 L49.2530962,13.8926129 Z M70.4470577,14.0232914 C70.2516409,14.0232914 70.1213058,14.1527678 70.1213058,14.3469824 L70.1213058,22.4813294 C70.1213058,22.8386774 69.828009,23.1316307 69.469287,23.1316307 L66.2073038,23.1316307 C65.8485818,23.1316307 65.5547697,22.8386774 65.5547697,22.4813294 L65.5547697,1.00833619 C65.5547697,0.650129569 65.8485818,0.357348027 66.2073038,0.357348027 L73.3822588,0.357348027 C77.1336425,0.357348027 80.2324922,3.44829685 80.2324922,7.19006211 C80.2324922,9.69544785 79.1570131,11.3870555 76.8400022,12.948328 C76.3839152,13.2730494 76.4156834,13.5337194 76.6440703,14.0232914 L80.1349555,22.1560929 C80.3633425,22.6439476 80.1662085,23.1316307 79.5140179,23.1316307 L76.1563869,23.1316307 C75.634188,23.1316307 75.3716289,22.8726778 75.2107278,22.4813294 L71.8834911,14.4455493 C71.8173791,14.2822442 71.6532153,14.0232914 71.2956954,14.0232914 L70.4470577,14.0232914 Z M70.4470577,4.91220455 C70.2516409,4.91220455 70.1213058,5.0420244 70.1213058,5.23675418 L70.1213058,9.14182457 C70.1213058,9.33689779 70.2516409,9.46774796 70.4470577,9.46774796 L73.3822588,9.46774796 C74.6215582,9.46774796 75.6659561,8.45855317 75.6659561,7.19006211 C75.6659561,5.95333915 74.6215582,4.91220455 73.3822588,4.91220455 L70.4470577,4.91220455 Z M86.2146837,4.91220455 C85.8556183,4.91220455 85.561978,4.61976645 85.561978,4.26138811 L85.561978,1.00833619 C85.561978,0.650129569 85.8556183,0.357348027 86.2146837,0.357348027 L100.240044,0.357348027 C100.598251,0.357348027 100.891548,0.650129569 100.891548,1.00833619 L100.891548,4.26138811 C100.891548,4.61976645 100.598251,4.91220455 100.240044,4.91220455 L95.8369847,4.91220455 C95.6405376,4.91220455 95.5096874,5.0420244 95.5096874,5.23675418 L95.5096874,22.4813294 C95.5096874,22.8386774 95.2162188,23.1316307 94.8581837,23.1316307 L91.5967156,23.1316307 C91.2369633,23.1316307 90.9440099,22.8386774 90.9440099,22.4813294 L90.9440099,5.23675418 C90.9440099,5.0420244 90.812301,4.91220455 90.6184297,4.91220455 L86.2146837,4.91220455 Z M111.602207,5.07465109 C111.602207,4.87992131 111.47376,4.7504449 111.277829,4.7504449 L108.01636,4.7504449 C107.656952,4.7504449 107.363483,4.45697648 107.363483,4.09928501 L107.363483,1.00833619 C107.363483,0.650129569 107.656952,0.357348027 108.01636,0.357348027 L119.75665,0.357348027 C120.116917,0.357348027 120.40987,0.650129569 120.40987,1.00833619 L120.40987,4.09928501 C120.40987,4.45697648 120.116917,4.7504449 119.75665,4.7504449 L116.49707,4.7504449 C116.300967,4.7504449 116.169601,4.87992131 116.169601,5.07465109 L116.169601,18.4132973 C116.169601,18.6095725 116.300967,18.7395641 116.49707,18.7395641 L120.08429,18.7395641 C120.442325,18.7395641 120.735794,19.0325174 120.735794,19.3912391 L120.735794,22.4813294 C120.735794,22.8386774 120.442325,23.1316307 120.08429,23.1316307 L107.689235,23.1316307 C107.329483,23.1316307 107.037731,22.8386774 107.037731,22.4813294 L107.037731,19.3912391 C107.037731,19.0325174 107.329483,18.7395641 107.689235,18.7395641 L111.277829,18.7395641 C111.47376,18.7395641 111.602207,18.6095725 111.602207,18.4132973 L111.602207,5.07465109 Z M142.275942,7.19006211 C142.602896,9.92263259 142.602896,13.5665178 142.275942,16.2997752 C141.820027,20.2045021 139.016191,23.4889787 134.513363,23.4889787 C130.013454,23.4889787 127.207386,20.2045021 126.752158,16.2997752 C126.423487,13.5665178 126.423487,9.92263259 126.752158,7.19006211 C127.207386,3.28619375 130.013454,0 134.513363,0 C139.016191,0 141.820027,3.28619375 142.275942,7.19006211 Z M131.34926,7.19006211 C131.024882,9.92263259 131.024882,13.5665178 131.34926,16.2997752 C131.512909,17.7310562 132.524336,18.9030409 134.513363,18.9030409 C136.503592,18.9030409 137.513474,17.7310562 137.677466,16.2997752 C138.003218,13.5665178 138.003218,9.92263259 137.677466,7.19006211 C137.513474,5.75826593 136.503592,4.58799837 134.513363,4.58799837 C132.524336,4.58799837 131.512909,5.75826593 131.34926,7.19006211 Z" id="Shape" fill="#222222"></path>
                    </g>
                </g>
            </g>
        </g>
    </g>
</svg>