<svg width="735" height="136" viewBox="0 0 735 136" fill="none" xmlns="http://www.w3.org/2000/svg">
<path fill-rule="evenodd" clip-rule="evenodd" d="M294.025 46.5844C302.62 46.5844 309.147 48.6513 313.716 52.6764C318.176 56.8102 320.46 63.011 320.46 71.2787V105.329H307.624V98.2575C305.992 100.76 303.599 102.718 300.553 104.023C297.398 105.437 293.699 106.09 289.348 106.09C284.996 106.09 281.189 105.329 277.925 103.806C274.662 102.391 272.16 100.324 270.419 97.6048C268.57 94.9939 267.699 92.0567 267.699 88.6844C267.699 83.4627 269.658 79.22 273.574 76.0653C277.381 72.9105 283.473 71.3875 291.85 71.3875H306.862V70.5172C306.862 66.4921 305.666 63.3374 303.272 61.1616C300.77 58.9859 297.18 57.8981 292.394 57.8981C289.13 57.8981 285.975 58.442 282.821 59.4211C279.666 60.4001 276.946 61.8144 274.77 63.6637L269.44 53.7642C272.486 51.4797 276.185 49.6304 280.427 48.4337C284.67 47.2371 289.239 46.5844 294.025 46.5844ZM353.314 34.4004V47.6722H368.87V58.5508H353.314V86.1823C353.314 89.0107 353.966 91.1864 355.38 92.6006C356.795 94.1236 358.753 94.8851 361.364 94.8851C364.41 94.8851 366.912 94.1236 368.979 92.4919L372.786 102.174C371.154 103.479 369.305 104.458 367.021 105.111C364.736 105.764 362.234 106.09 359.732 106.09C353.314 106.09 348.418 104.458 344.937 101.086C341.456 97.7136 339.715 92.927 339.715 86.5087V58.5508H330.142V47.6722H339.715V34.4004H353.314ZM406.184 46.5844C414.778 46.5844 421.305 48.6513 425.874 52.6764C430.334 56.8102 432.619 63.011 432.619 71.2787V105.329H419.782V98.2575C418.15 100.76 415.757 102.718 412.711 104.023C409.556 105.437 405.858 106.09 401.506 106.09C397.155 106.09 393.347 105.329 390.084 103.806C386.82 102.391 384.318 100.324 382.578 97.6048C380.728 94.9939 379.858 92.0567 379.858 88.6844C379.858 83.4627 381.816 79.22 385.732 76.0653C389.54 72.9105 395.632 71.3875 404.008 71.3875H419.021V70.5172C419.021 66.4921 417.824 63.3374 415.431 61.1616C412.929 58.9859 409.339 57.8981 404.552 57.8981C401.289 57.8981 398.134 58.442 394.979 59.4211C391.824 60.4001 389.105 61.8144 386.929 63.6637L381.598 53.7642C384.644 51.4797 388.343 49.6304 392.586 48.4337C396.828 47.2371 401.397 46.5844 406.184 46.5844ZM590.358 46.5844C596.015 46.5844 601.128 47.781 605.588 50.2831C610.049 52.7852 613.53 56.3751 616.032 60.8353C618.425 65.4043 619.73 70.626 619.73 76.6092C619.73 77.5883 619.622 78.8937 619.513 80.6342H573.932C574.693 84.8769 576.869 88.2492 580.241 90.7513C583.614 93.2534 587.748 94.5588 592.752 94.5588C599.17 94.5588 604.392 92.4919 608.526 88.2492L615.814 96.6257C613.203 99.7805 609.94 102.065 605.915 103.697C601.89 105.329 597.429 106.09 592.425 106.09C586.007 106.09 580.459 104.785 575.564 102.283C570.668 99.7805 566.969 96.1906 564.359 91.6216C561.639 87.1614 560.334 82.0485 560.334 76.2828C560.334 70.626 561.639 65.5131 564.25 60.9441C566.752 56.4839 570.342 52.8939 574.911 50.3919C579.48 47.8898 584.593 46.5844 590.358 46.5844ZM658.022 46.5844C663.679 46.5844 668.792 47.781 673.252 50.2831C677.713 52.7852 681.194 56.3751 683.696 60.8353C686.089 65.4043 687.395 70.626 687.395 76.6092C687.395 77.5883 687.286 78.8937 687.177 80.6342H641.596C642.357 84.8769 644.533 88.2492 647.905 90.7513C651.278 93.2534 655.412 94.5588 660.416 94.5588C666.834 94.5588 672.056 92.4919 676.19 88.2492L683.478 96.6257C680.867 99.7805 677.604 102.065 673.579 103.697C669.554 105.329 665.093 106.09 660.089 106.09C653.671 106.09 648.123 104.785 643.228 102.283C638.332 99.7805 634.634 96.1906 632.023 91.6216C629.303 87.1614 627.998 82.0485 627.998 76.2828C627.998 70.626 629.303 65.5131 631.914 60.9441C634.416 56.4839 638.006 52.8939 642.575 50.3919C647.144 47.8898 652.257 46.5844 658.022 46.5844ZM216.57 29.1787C224.729 29.1787 231.909 30.7017 238.218 33.8565C244.528 37.1201 249.423 41.4715 252.904 47.2371C256.386 53.0027 258.126 59.7474 258.126 67.2536C258.126 74.7598 256.386 81.3957 252.904 87.1614C249.423 92.927 244.528 97.3872 238.218 100.542C231.909 103.697 224.729 105.329 216.57 105.329H183.282V29.1787H216.57ZM523.346 46.5844C530.635 46.5844 536.509 48.6513 540.752 52.8939C544.994 57.2454 547.17 63.5549 547.17 72.0402V105.329H533.572V73.7808C533.572 68.6678 532.484 64.8603 530.199 62.2495C527.915 59.7474 524.76 58.442 520.518 58.442C515.949 58.442 512.25 59.965 509.53 62.9022C506.811 65.9482 505.396 70.2996 505.396 75.8477V105.329H491.798V73.7808C491.798 68.6678 490.71 64.8603 488.426 62.2495C486.141 59.7474 482.987 58.442 478.744 58.442C474.066 58.442 470.476 59.965 467.757 62.9022C465.037 65.8394 463.623 70.1908 463.623 75.8477V105.329H450.025V47.2371H462.97V54.6345C465.146 52.0237 467.865 50.0655 471.129 48.6513C474.393 47.2371 477.982 46.5844 482.008 46.5844C486.359 46.5844 490.275 47.3459 493.648 48.9777C497.02 50.7182 499.631 53.1115 501.589 56.2663C503.982 53.2203 507.028 50.827 510.836 49.0865C514.643 47.4547 518.777 46.5844 523.346 46.5844ZM734.064 46.5844V59.5299C732.867 59.3123 731.888 59.2035 730.909 59.2035C725.579 59.2035 721.445 60.7265 718.508 63.7725C715.57 66.9273 714.047 71.3875 714.047 77.1531V105.329H700.449V47.2371H713.395V55.7224C717.311 49.6304 724.164 46.5844 734.064 46.5844ZM306.862 80.4167H292.829C284.996 80.4167 281.08 83.0275 281.08 88.1404C281.08 90.6425 282.059 92.6007 284.017 94.0149C285.975 95.4291 288.695 96.1906 292.176 96.1906C295.548 96.1906 298.594 95.4291 301.314 93.7973C303.925 92.2743 305.774 90.0986 306.862 87.1614V80.4167ZM419.021 80.4167H404.987C397.155 80.4167 393.239 83.0275 393.239 88.1404C393.239 90.6425 394.218 92.6007 396.176 94.0149C398.134 95.4291 400.854 96.1906 404.335 96.1906C407.707 96.1906 410.753 95.4291 413.473 93.7973C416.083 92.2743 417.933 90.0986 419.021 87.1614V80.4167ZM215.917 41.1451H197.424V93.3621H215.917C221.465 93.3621 226.47 92.2743 230.712 90.0986C234.846 88.0317 238.218 84.9857 240.503 80.9606C242.787 77.0443 243.875 72.4753 243.875 67.2536C243.875 62.0319 242.787 57.4629 240.503 53.4379C238.218 49.5216 234.846 46.4756 230.712 44.2999C226.47 42.233 221.465 41.1451 215.917 41.1451ZM590.358 57.4629C586.007 57.4629 582.308 58.7684 579.371 61.2704C576.325 63.8813 574.476 67.3624 573.823 71.605H606.785C606.241 67.3624 604.392 63.9901 601.454 61.3792C598.517 58.7684 594.819 57.4629 590.358 57.4629ZM658.022 57.4629C653.671 57.4629 649.972 58.7684 647.035 61.2704C643.989 63.8813 642.14 67.3624 641.487 71.605H674.449C673.905 67.3624 672.056 63.9901 669.119 61.3792C666.181 58.7684 662.483 57.4629 658.022 57.4629Z" fill="#2F394E"/>
<path d="M125.601 102.34C131.85 91.9296 135.2 80.0023 135.2 67.6C135.2 30.2655 104.935 0 67.6 0C30.2655 0 0 30.2655 0 67.6C0 104.935 30.2655 135.2 67.6 135.2C80.7009 135.2 93.2642 131.46 104.06 124.534C107.101 122.583 107.984 118.536 106.033 115.495C104.083 112.454 100.036 111.57 96.9944 113.522C88.292 119.105 78.1778 122.116 67.6 122.116C37.4916 122.116 13.0841 97.7084 13.0841 67.6C13.0841 37.4916 37.4916 13.0841 67.6 13.0841C97.7084 13.0841 122.116 37.4916 122.116 67.6C122.116 77.6138 119.418 87.2162 114.382 95.6076C112.523 98.7057 113.527 102.724 116.625 104.583C119.723 106.442 123.742 105.438 125.601 102.34H125.601Z" fill="#2F394E"/>
<path d="M67.6001 108.267C89.6915 108.267 107.6 90.1341 107.6 67.7666C107.6 45.3991 89.6915 27.2666 67.6001 27.2666C45.5087 27.2666 27.6001 45.3991 27.6001 67.7666C27.6001 90.1341 45.5087 108.267 67.6001 108.267Z" fill="#29D398"/>
</svg>
