<svg width="168" height="60" viewBox="0 0 168 60" fill="none" xmlns="http://www.w3.org/2000/svg">
<path d="M58 56H110V4H58V56Z" fill="#FFE52B"/>
<path d="M103.338 22.2C102.85 22.2 102.444 22.6062 102.444 23.0937C102.444 23.5812 102.85 23.9875 103.338 23.9875C103.825 23.9875 104.231 23.5812 104.231 23.0937C104.231 22.6062 103.825 22.2 103.338 22.2ZM102.769 33.0062H103.988V25.775H102.769V33.0062ZM96.675 26.75C98.2188 26.75 99.1125 27.8875 99.1125 29.35C99.1125 30.8125 98.3 32.1125 96.675 32.1125C95.1313 32.1125 94.3188 30.8125 94.3188 29.35C94.3188 27.9687 95.2125 26.75 96.675 26.75V26.75ZM100.25 25.775H99.0313V26.8312C98.4625 26.1 97.5688 25.6125 96.5125 25.6125C94.3188 25.6125 93.0188 27.4 93.0188 29.4312C93.0188 31.4625 94.4 33.25 96.5125 33.25C97.5688 33.25 98.3813 32.8437 99.0313 32.0312V33.0062H100.25V25.775V25.775ZM90.9063 31.4625C90.4188 31.4625 90.0125 31.8687 90.0125 32.275C90.0125 32.7625 90.4188 33.1687 90.9063 33.1687C91.3938 33.1687 91.8 32.7625 91.8 32.275C91.8 31.8687 91.3938 31.4625 90.9063 31.4625Z" fill="#808080"/>
<path d="M66.125 27.4812V23.825H63.6875V33.25H66.125V29.4312H69.6188V33.25H72.0562V23.825H69.6188V27.4812H66.125Z" fill="black"/>
<path d="M76.5469 36.2563L77.6032 35.2813C78.2532 34.6313 78.6594 34.0625 78.6594 33.0875C78.6594 31.625 77.4407 30.65 76.0594 30.65C74.4344 30.65 73.4594 31.7063 73.4594 33.25H75.4094V32.925C75.4094 32.4375 75.6532 32.1125 76.1407 32.1125C76.6282 32.1125 76.8719 32.6 76.8719 33.0063C76.8719 33.6563 76.4657 34.225 76.1407 34.7125L73.2969 37.7188H78.7407V36.2563H76.5469Z" fill="black"/>
<path d="M84.1844 25.8562C85.6469 25.8562 86.8657 27.075 86.8657 28.375C86.8657 30 85.6469 31.2187 84.1844 31.2187C82.7219 31.2187 81.5032 30 81.5032 28.375C81.5032 27.075 82.7219 25.8562 84.1844 25.8562V25.8562ZM84.1844 23.5C81.5032 23.5 78.9844 25.5312 78.9844 28.375C78.9844 31.4625 81.1782 33.575 84.1844 33.575C87.1907 33.575 89.3844 31.3812 89.3844 28.375C89.3844 25.5312 86.8657 23.5 84.1844 23.5" fill="black"/>
</svg>
