<svg width="168" height="60" viewBox="0 0 168 60" fill="none" xmlns="http://www.w3.org/2000/svg">
<path d="M43.2303 22.1522C42.8134 21.2076 42.1621 20.4417 41.2762 19.8801C40.3904 19.3184 39.4004 19.0376 38.28 19.0376C37.1858 19.0376 36.1696 19.2929 35.2578 19.7779C34.7627 20.0332 34.2937 20.3651 33.8508 20.7736V19.3695H30.9067V33.7169H33.8508V28.3047C33.8508 26.2113 33.9811 25.2923 34.0853 24.8838C34.3198 24.0158 34.7888 23.2755 35.5183 22.6628C36.2218 22.0756 37.0555 21.7948 37.9413 21.7948C38.7229 21.7948 39.3222 21.9735 39.7912 22.3309C40.2341 22.6883 40.5728 23.2244 40.7291 23.9647C40.8073 24.2711 40.9115 25.037 40.9115 26.8496V33.7169H43.8296V26.339C43.8296 24.4753 43.6211 23.0712 43.2303 22.1522Z" fill="#1B4E8D"/>
<path d="M68.2162 23.4798C68.2944 23.4032 68.3725 23.3521 68.3986 23.3011C69.2844 22.4331 70.3787 21.9991 71.7595 21.9991L71.7856 21.5651V21.9991C73.0101 21.9991 74.0784 22.4586 75.0684 23.4032L75.1205 23.4287C75.1466 23.4542 75.1987 23.5053 75.2769 23.5564C76.0845 24.3478 76.4753 25.3434 76.4753 26.6199C76.4753 27.8963 76.0324 28.943 75.0945 29.8366C74.1565 30.7301 73.0883 31.1896 71.7335 31.1896C70.3266 31.1896 69.2584 30.8067 68.3986 30.0153C67.9557 29.6068 67.6169 29.0707 67.3304 28.4069C67.0698 27.7942 66.9395 27.1815 66.9656 26.6199C66.9656 25.3434 67.3825 24.2967 68.2162 23.4798ZM77.0485 21.463C75.5895 20.0333 73.7918 19.293 71.7335 19.293C70.0139 19.293 68.4246 19.8291 67.0438 20.9268V19.4206H64.2039V44.4904H67.0438V32.3895C68.3465 33.4362 69.9358 33.9468 71.7335 33.9468C72.7496 33.9468 73.7136 33.7681 74.6255 33.4107C76.0064 32.849 77.1527 31.9555 77.9865 30.7301C78.8202 29.5047 79.2631 28.1261 79.2631 26.6454C79.2631 24.6541 78.5336 22.8926 77.0485 21.463Z" fill="#1B4E8D"/>
<path d="M24.7319 25.0878C23.5074 24.4751 23.0384 24.0667 22.83 23.8369C22.5955 23.5561 22.4652 23.3008 22.4652 22.9944C22.4652 22.6881 22.5955 22.4072 22.8821 22.152C23.1687 21.8967 23.5074 21.769 23.9242 21.769C24.6277 21.769 25.4093 22.152 26.217 22.9178L26.6599 23.3263L28.614 21.335L28.171 20.9266C26.8162 19.6246 25.4093 18.9863 24.0284 18.9863C22.8039 18.9863 21.7878 19.3693 20.9801 20.1351C20.1724 20.901 19.7556 21.8967 19.7556 23.0455C19.7556 23.939 20.0161 24.7304 20.5372 25.4452C21.0322 26.109 21.9441 26.7983 23.2208 27.4365C24.5235 28.1003 25.0185 28.4832 25.2009 28.6874C25.4354 28.9683 25.5396 29.2491 25.5396 29.6065C25.5396 30.0405 25.3833 30.3724 25.0185 30.7043C24.6537 31.0361 24.1848 31.1893 23.6637 31.1893C22.856 31.1893 22.0744 30.7553 21.3188 29.9129L20.8759 29.4023L19 31.4957L19.3126 31.8786C19.8337 32.5424 20.4851 33.0529 21.2667 33.4104C22.0483 33.7678 22.8821 33.972 23.7418 33.972C25.0706 33.972 26.1909 33.538 27.0768 32.67C27.9626 31.802 28.4316 30.7298 28.4316 29.5044C28.4316 28.6109 28.171 27.7939 27.6239 27.0791C27.0507 26.4664 26.0867 25.7771 24.7319 25.0878Z" fill="#1B4E8D"/>
<path d="M58.5501 26.6453C58.5501 27.5388 58.3417 28.3558 57.9509 29.0451C57.5601 29.7344 56.9608 30.296 56.2313 30.7045C54.7462 31.5214 52.9224 31.5214 51.5155 30.7045C50.786 30.296 50.2128 29.7088 49.7699 28.943C49.327 28.2026 49.1185 27.3857 49.1185 26.5687C49.1185 25.7518 49.327 24.9349 49.7699 24.1945C50.1868 23.4542 50.786 22.867 51.4895 22.4585C52.219 22.0501 53.0006 21.8458 53.8604 21.8458C55.1891 21.8458 56.3095 22.3053 57.1953 23.1989C58.0811 24.1434 58.5501 25.2923 58.5501 26.6453ZM58.4199 19.395V20.8246C57.9769 20.4162 57.4819 20.0843 56.9608 19.8035C55.9708 19.2929 54.8765 19.0376 53.678 19.0376C51.6197 19.0376 49.822 19.7779 48.3369 21.2331C46.8779 22.6883 46.1223 24.4753 46.1223 26.5177C46.1223 28.6111 46.8518 30.3981 48.3109 31.8533C49.7699 33.3085 51.5416 34.0488 53.6259 34.0488C54.7723 34.0488 55.8665 33.819 56.8566 33.334C57.4037 33.0787 57.9248 32.7213 58.4199 32.3128V33.7169H61.3379V19.3695L58.4199 19.395Z" fill="#1B4E8D"/>
<path d="M84.6303 30.7298V10H81.6601V33.5124H91.1959V30.7298H84.6303Z" fill="#1B4E8D"/>
<path d="M143.33 29.7086L143.018 30.0149C142.08 30.934 140.985 31.368 139.657 31.368C138.302 31.368 137.233 30.934 136.374 30.066C135.514 29.198 135.097 28.1257 135.097 26.7727C135.097 25.4196 135.488 24.3474 136.243 23.5815C136.322 23.505 136.4 23.4539 136.4 23.4284C137.26 22.5859 138.328 22.1774 139.63 22.1774C140.959 22.1774 142.027 22.6114 142.913 23.4794L143.226 23.7858L145.18 21.7945L144.919 21.5137C143.46 20.1606 141.689 19.4458 139.683 19.4458C137.624 19.4458 135.853 20.1606 134.394 21.5903C132.935 23.0199 132.205 24.7559 132.205 26.7727C132.205 28.815 132.935 30.551 134.368 31.9551C135.801 33.3592 137.572 34.0741 139.657 34.0741C141.715 34.0741 143.513 33.3592 144.998 31.9551L145.31 31.6488L143.33 29.7086Z" fill="#1B4E8D"/>
<path d="M120.35 47.196C119.465 48.064 118.448 48.498 117.224 48.498C115.999 48.498 114.931 48.013 113.941 47.0173C113.055 46.1493 112.612 45.1026 112.612 43.8006C112.612 42.4731 113.055 41.3754 113.941 40.5074L114.045 40.4053C114.931 39.5373 115.999 39.1033 117.25 39.1033C118.501 39.1033 119.569 39.5628 120.533 40.5074C121.393 41.3498 121.809 42.4221 121.809 43.8006C121.783 45.1537 121.314 46.2515 120.35 47.196ZM112.612 26.7982C112.612 25.4706 113.055 24.3729 113.941 23.5049L114.045 23.4028C114.931 22.5348 115.999 22.1008 117.25 22.1008C118.501 22.1008 119.569 22.5603 120.533 23.5049C121.393 24.3473 121.809 25.4196 121.809 26.7982C121.809 28.1512 121.34 29.249 120.376 30.1935C119.491 31.0615 118.475 31.4955 117.25 31.4955C116.025 31.4955 114.957 31.0105 113.967 30.0148C113.029 29.1213 112.612 28.0746 112.612 26.7982ZM102.998 30.168C102.113 31.036 101.096 31.47 99.8719 31.47C98.6734 31.47 97.5792 30.985 96.5891 29.9893C95.7033 29.1213 95.2603 28.0746 95.2603 26.7726C95.2603 25.4451 95.7033 24.3729 96.5891 23.4794L96.6933 23.3772C97.5792 22.5092 98.6474 22.0752 99.898 22.0752C101.149 22.0752 102.217 22.5348 103.181 23.4794C104.041 24.3218 104.457 25.394 104.457 26.7726C104.431 28.1257 103.962 29.2234 102.998 30.168ZM118.631 36.5503V33.9719C120.09 33.7166 121.393 33.0528 122.513 31.9806C123.946 30.6275 124.675 28.866 124.675 26.7726C124.675 24.6792 123.972 22.9177 122.513 21.5136C121.08 20.1095 119.308 19.3947 117.224 19.3947C115.14 19.3947 113.368 20.1095 111.909 21.5391C110.815 22.6114 110.111 23.8878 109.851 25.3175H107.219C106.959 23.8368 106.281 22.5603 105.187 21.4881C103.754 20.084 101.982 19.3691 99.898 19.3691C97.8136 19.3691 96.042 20.084 94.5829 21.5136C93.1239 22.9432 92.3944 24.7048 92.3944 26.7216C92.3944 27.6662 92.5768 28.6107 92.9415 29.5043C93.3323 30.4744 93.8795 31.2913 94.5569 31.904C96.068 33.3081 97.8658 34.0229 99.924 34.0229C101.982 34.0229 103.754 33.3081 105.213 31.904C106.307 30.8573 106.985 29.5808 107.245 28.1001H109.877C109.981 28.5852 110.111 29.0447 110.294 29.5043C110.684 30.4744 111.232 31.2913 111.909 31.904C113.029 32.9507 114.332 33.6145 115.791 33.8698V36.4737C114.332 36.7546 113.055 37.4183 111.961 38.4906C110.502 39.9202 109.772 41.6817 109.772 43.6985C109.772 44.6431 109.955 45.5877 110.32 46.4812C110.71 47.4513 111.258 48.2683 111.935 48.881C113.446 50.2851 115.244 50.9999 117.302 50.9999C119.334 50.9999 121.132 50.2851 122.591 48.881C124.024 47.5279 124.754 45.7664 124.754 43.673C124.754 41.5796 124.05 39.8181 122.591 38.414C121.419 37.4694 120.116 36.8056 118.631 36.5503Z" fill="#1B4E8D"/>
<path d="M129.964 19.8032H126.916V33.5124H129.964V19.8032Z" fill="#1B4E8D"/>
<path d="M128.453 18.7057C129 18.7057 129.495 18.5015 129.886 18.1185C130.277 17.7356 130.485 17.2505 130.485 16.7144C130.485 16.1783 130.277 15.6933 129.886 15.3103C129.495 14.9274 129 14.7231 128.453 14.7231C127.906 14.7231 127.411 14.9274 127.02 15.3103C126.629 15.6933 126.421 16.1783 126.421 16.7144C126.421 17.2505 126.629 17.7356 127.02 18.1185C127.411 18.5015 127.906 18.7057 128.453 18.7057Z" fill="#1B4E8D"/>
<path d="M148.306 19.9819C149.244 19.9819 150 20.7223 150 21.6413C150 22.5604 149.244 23.3007 148.306 23.3007C147.369 23.3007 146.613 22.5604 146.613 21.6413C146.613 20.7223 147.369 19.9819 148.306 19.9819ZM148.306 23.1476C149.14 23.1476 149.844 22.4838 149.844 21.6413C149.844 20.8244 149.166 20.1351 148.306 20.1351C147.447 20.1351 146.769 20.7989 146.769 21.6413C146.769 22.4838 147.447 23.1476 148.306 23.1476ZM148.567 21.7945L149.01 22.4327C149.036 22.4838 149.01 22.5093 148.958 22.5093H148.775C148.723 22.5093 148.697 22.4838 148.671 22.4583L148.254 21.8456H147.994V22.4583C147.994 22.4838 147.968 22.5093 147.942 22.5093H147.733C147.681 22.5093 147.681 22.5093 147.681 22.4583V20.8755C147.681 20.8499 147.707 20.8244 147.733 20.8244H148.333C148.619 20.8244 148.932 20.9265 148.932 21.335C148.958 21.5903 148.775 21.7435 148.567 21.7945ZM148.333 21.5647C148.541 21.5647 148.645 21.4882 148.645 21.3095C148.645 21.1308 148.541 21.0542 148.333 21.0542H147.994V21.5647H148.333Z" fill="#1B4E8D"/>
</svg>
