<svg width="168" height="60" viewBox="0 0 168 60" fill="none" xmlns="http://www.w3.org/2000/svg">
<path d="M27.3017 20.8644V18.6966H48.2127V6.46436H17.615V23.0321H39.4486V25.1998H17.615V37.3547H48.2896V20.7095H27.3017V20.8644ZM33.2214 9.63855C34.0671 9.63855 34.759 10.3353 34.759 11.1869C34.759 12.0385 34.0671 12.7353 33.2214 12.7353C32.3757 12.7353 31.6838 12.0385 31.6838 11.1869C31.6838 10.2579 32.4526 9.63855 33.2214 9.63855ZM26.6867 14.2837H40.2942L39.6792 16.4515H27.2249L26.6867 14.2837ZM33.2214 34.1031C32.3757 34.1031 31.6838 33.4063 31.6838 32.5547C31.6838 31.7031 32.3757 31.0063 33.2214 31.0063C34.0671 31.0063 34.759 31.7031 34.759 32.5547C34.759 33.4063 33.9902 34.1031 33.2214 34.1031ZM26.6867 29.3805L27.2249 27.2127H39.6792L40.2942 29.3805H26.6867Z" fill="#0675C1"/>
<path d="M73.5058 26.6704C73.5058 22.2575 70.2 21.251 67.2017 20.322C64.8185 19.5478 62.6659 18.851 62.6659 16.3736C62.6659 14.2059 64.1266 12.8897 67.2017 12.8897C68.8931 12.8897 70.5075 13.5091 70.5075 13.5091L70.815 16.5285H72.8908V11.4962C71.8913 11.1091 69.8156 10.4897 67.3555 10.4897C63.204 10.4897 59.8983 12.3478 59.8983 16.6059C59.8983 21.0962 63.3578 21.8704 66.3561 22.7994C68.6624 23.4962 70.7382 24.2704 70.7382 26.9027C70.7382 29.5349 68.8931 30.6962 65.8948 30.6962C64.2035 30.6962 62.2815 30.2317 61.8202 30.0768L61.5127 26.9027H59.5139V31.7801C60.4364 32.2446 63.0503 32.9414 65.741 32.9414C69.9694 32.9414 73.5058 31.3156 73.5058 26.6704Z" fill="black"/>
<path d="M105.949 30.1545C105.103 30.5416 104.103 30.7739 103.181 30.7739C101.49 30.7739 101.028 29.9997 101.028 28.1416V19.3158H105.641V17.2255H101.259C101.028 17.2255 101.028 17.0707 101.028 16.9158V13.8965H99.2601C99.2601 13.8965 98.9526 17.5352 96.2618 17.5352V19.2384H98.1069C98.3376 19.2384 98.3376 19.3933 98.3376 19.5481V28.8384C98.3376 31.5481 99.6445 32.8642 102.489 32.8642C104.027 32.8642 105.487 32.3997 106.64 31.9352L105.949 30.1545Z" fill="black"/>
<path d="M77.2728 19.5481V28.8384C77.2728 31.5481 78.5798 32.8642 81.4243 32.8642C82.9619 32.8642 84.4225 32.3997 85.5757 31.9352L84.8838 30.1545C84.0382 30.5416 83.0387 30.7739 82.1162 30.7739C80.4249 30.7739 79.9636 29.9997 79.9636 28.1416V19.3158H84.5763V17.2255H80.1942C79.9636 17.2255 79.9636 17.0707 79.9636 16.9158V13.8965H78.1954C78.1954 13.8965 77.8879 17.5352 75.1971 17.5352V19.2384H76.9653C77.2728 19.3158 77.2728 19.3933 77.2728 19.5481Z" fill="black"/>
<path d="M91.111 13.8966C92.341 13.8966 92.9561 13.1998 93.0329 11.9611C93.0329 10.7998 92.341 10.103 91.111 10.103C89.8809 10.103 89.189 10.7998 89.189 11.9611C89.189 13.1998 89.8809 13.8966 91.111 13.8966Z" fill="black"/>
<path d="M92.8792 17.2256H88.3434L88.1127 18.774L90.1884 19.1611V30.6191L87.7283 30.8514V32.4772V32.5546H95.2624V30.9288L92.8792 30.774V17.2256Z" fill="black"/>
<path d="M120.402 31.7028L119.556 29.7674C118.787 30.3093 117.25 30.7738 115.789 30.7738C112.868 30.7738 110.946 29.148 110.946 24.9674C110.946 20.7093 113.098 19.1609 115.712 19.1609C116.558 19.1609 117.711 19.2383 118.095 19.3932L118.403 21.7932L120.402 21.8706V17.9222C119.71 17.6125 118.018 16.9932 115.866 16.9932C111.33 16.9932 108.101 19.4706 108.101 25.1222C108.101 29.8448 110.254 32.9415 115.328 32.9415C117.327 32.8641 119.249 32.477 120.402 31.7028Z" fill="black"/>
<path d="M134.24 23.1093V30.6964L132.318 30.8512V32.477V32.5544H139.006V30.9286L136.854 30.7738V22.3351C136.854 19.006 135.47 16.9157 132.318 16.9157C130.088 16.9157 128.397 17.8447 127.013 18.8512V10.0254H122.477L122.247 11.5738L124.399 11.8835V30.6964L122.477 30.8512V32.477H129.243V30.8512L127.09 30.6964V21.0964C128.243 20.1673 130.012 19.1609 131.78 19.1609C133.855 19.1609 134.24 20.8641 134.24 23.1093Z" fill="black"/>
<path d="M62.3584 43.4707L59.9751 50.903H60.8977L61.5127 48.9675H64.4341L64.9723 50.903H65.9717L63.5884 43.4707H62.3584ZM61.6665 48.2707L62.8965 44.2449L64.1266 48.2707H61.6665Z" fill="black"/>
<path d="M74.2746 43.4707H69.0468V44.2449H71.1994V50.903H72.122V44.2449H74.1977L74.2746 43.4707Z" fill="black"/>
<path d="M78.3491 49.5865V46.9543C78.3491 45.793 77.7341 45.0962 76.4272 45.0962C75.8121 45.0962 75.1971 45.251 74.5052 45.4833L74.7358 46.1801C75.3509 45.9478 75.8121 45.8704 76.2734 45.8704C77.1191 45.8704 77.5035 46.1801 77.5035 47.0317V47.4962H76.5809C75.0434 47.4962 74.1208 48.193 74.1208 49.3543C74.1208 50.3607 74.8127 51.0575 75.889 51.0575C76.5809 51.0575 77.196 50.8252 77.5803 50.2059C77.7341 50.7478 78.1185 50.9801 78.6566 51.0575L78.8873 50.4381C78.5029 50.2833 78.3491 50.1284 78.3491 49.5865ZM77.4266 49.4317C77.1191 50.051 76.6578 50.3607 76.0428 50.3607C75.3509 50.3607 75.0434 49.9736 75.0434 49.2768C75.0434 48.4252 75.5815 48.0381 76.6578 48.0381H77.5035V49.4317H77.4266Z" fill="black"/>
<path d="M81.6549 50.2833C81.3474 50.2833 81.2705 50.1285 81.2705 49.8188V42.8511L80.348 42.9285V49.8188C80.348 50.6704 80.7324 51.0575 81.4243 51.0575C81.7318 51.0575 81.9624 50.9801 82.1931 50.9027L81.9624 50.2833C81.8856 50.2833 81.8087 50.2833 81.6549 50.2833Z" fill="black"/>
<path d="M85.3451 45.0962C83.8844 45.0962 83.0387 46.3349 83.0387 48.1155C83.0387 49.8962 83.9613 51.0575 85.4988 51.0575C86.2676 51.0575 86.8827 50.8252 87.4208 50.3607L87.0364 49.8188C86.5751 50.1284 86.1139 50.3607 85.5757 50.3607C84.7301 50.3607 84.115 49.8188 83.9613 48.4252H87.5746C87.5746 48.2704 87.5746 48.1155 87.5746 47.9607C87.6514 46.1801 86.8827 45.0962 85.3451 45.0962ZM86.8058 47.7284H84.0382C84.115 46.4123 84.6532 45.793 85.422 45.793C86.3445 45.793 86.8058 46.4897 86.8058 47.5736V47.7284Z" fill="black"/>
<path d="M91.9566 45.0962C91.1879 45.0962 90.5728 45.4833 90.1884 46.1026L90.1116 45.251H89.3428V50.9026H90.2653V46.7994C90.6497 46.1801 91.111 45.7155 91.8029 45.7155C92.4179 45.7155 92.7254 46.0252 92.7254 46.8768V50.9026H93.648V46.7994C93.5711 45.7155 93.0329 45.0962 91.9566 45.0962Z" fill="black"/>
<path d="M99.0295 45.793C98.6451 45.4059 98.1838 45.0962 97.4919 45.0962C96.1081 45.0962 95.2624 46.3349 95.2624 48.1156C95.2624 49.8962 96.0312 51.0575 97.415 51.0575C98.1069 51.0575 98.722 50.6704 99.0295 50.1285L99.1064 50.9027H99.8751V42.9285L98.9526 42.8511V45.793H99.0295ZM99.0295 49.4317C98.6451 49.9737 98.2607 50.3608 97.5688 50.3608C96.7231 50.3608 96.185 49.664 96.185 48.1156C96.185 46.5672 96.7231 45.8704 97.6457 45.8704C98.2607 45.8704 98.6451 46.1801 99.0295 46.6446V49.4317Z" fill="black"/>
<path d="M107.563 50.2837C106.41 50.2837 105.487 49.432 105.487 47.1869C105.487 44.8643 106.41 44.0901 107.64 44.0901C108.178 44.0901 108.639 44.245 109.101 44.632L109.639 44.0127C109.024 43.5482 108.562 43.3159 107.64 43.3159C105.949 43.3159 104.565 44.632 104.565 47.1869C104.565 49.6643 105.872 51.0579 107.64 51.0579C108.639 51.0579 109.331 50.6708 109.716 50.2062L109.254 49.5869C108.793 49.974 108.332 50.2837 107.563 50.2837Z" fill="black"/>
<path d="M112.868 45.0962C111.253 45.0962 110.408 46.3349 110.408 48.1155C110.408 49.8962 111.33 51.0575 112.868 51.0575C114.482 51.0575 115.328 49.8188 115.328 48.0381C115.405 46.2575 114.482 45.0962 112.868 45.0962ZM112.868 50.2833C111.868 50.2833 111.33 49.5865 111.33 48.0381C111.33 46.4897 111.868 45.793 112.868 45.793C113.867 45.793 114.405 46.4897 114.405 48.0381C114.405 49.5865 113.867 50.2833 112.868 50.2833Z" fill="black"/>
<path d="M122.708 45.0962C121.939 45.0962 121.401 45.5607 121.017 46.1801C120.786 45.4833 120.325 45.0962 119.633 45.0962C118.864 45.0962 118.403 45.4833 117.942 46.1026L117.865 45.251H117.096V50.9026H118.018V46.7994C118.403 46.1801 118.787 45.7155 119.402 45.7155C119.864 45.7155 120.248 46.0252 120.248 46.8768V50.9026H121.171V46.7994C121.555 46.1801 121.939 45.7155 122.554 45.7155C123.016 45.7155 123.4 46.0252 123.4 46.8768V50.9026H124.323V46.7994C124.246 45.793 123.631 45.0962 122.708 45.0962Z" fill="black"/>
<path d="M128.781 45.0962C128.09 45.0962 127.475 45.4059 127.09 46.0252L127.013 45.251H126.245V53.2252L127.167 53.1478V50.4381C127.551 50.9026 128.013 51.1349 128.705 51.1349C130.165 51.1349 130.934 49.8962 130.934 48.1155C130.934 46.2575 130.319 45.0962 128.781 45.0962ZM128.474 50.2833C127.936 50.2833 127.475 50.051 127.167 49.5865V46.722C127.475 46.2575 127.936 45.793 128.551 45.793C129.397 45.793 129.858 46.4897 129.858 48.0381C129.935 49.5865 129.397 50.2833 128.474 50.2833Z" fill="black"/>
<path d="M136.392 49.5865V46.9543C136.392 45.793 135.777 45.0962 134.471 45.0962C133.855 45.0962 133.24 45.251 132.549 45.4833L132.779 46.1801C133.394 45.9478 133.855 45.8704 134.317 45.8704C135.162 45.8704 135.547 46.1801 135.547 47.0317V47.4962H134.624C133.087 47.4962 132.164 48.193 132.164 49.3543C132.164 50.3607 132.856 51.0575 133.932 51.0575C134.624 51.0575 135.239 50.8252 135.624 50.2059C135.777 50.7478 136.162 50.9801 136.7 51.0575L136.931 50.4381C136.546 50.2833 136.392 50.1284 136.392 49.5865ZM135.47 49.4317C135.162 50.051 134.701 50.3607 134.086 50.3607C133.394 50.3607 133.087 49.9736 133.087 49.2768C133.087 48.4252 133.625 48.0381 134.701 48.0381H135.47V49.4317Z" fill="black"/>
<path d="M141.082 45.0962C140.313 45.0962 139.698 45.4833 139.314 46.1026L139.237 45.251H138.468V50.9026H139.391V46.7994C139.775 46.1801 140.236 45.7155 140.928 45.7155C141.543 45.7155 141.851 46.0252 141.851 46.8768V50.9026H142.773V46.7994C142.773 45.7155 142.158 45.0962 141.082 45.0962Z" fill="black"/>
<path d="M147.771 45.251L146.233 50.2832L144.695 45.251H143.696L145.618 50.98H145.925C145.618 51.909 145.31 52.3736 144.157 52.5284L144.234 53.2252C145.772 52.9929 146.387 52.2187 146.771 50.98L148.693 45.251H147.771Z" fill="black"/>
</svg>
