<svg width="168" height="60" viewBox="0 0 168 60" fill="none" xmlns="http://www.w3.org/2000/svg">
<path d="M65.1865 20.0972V23.7153H55.458V27.6388H64.4147V31.2729H55.458V38.8466H50.7787V20.0972H65.1865Z" fill="#007FFF"/>
<path d="M68.1452 20.0651H72.1813V23.2489H68.1452V20.0651ZM68.1452 24.9534H72.1813V38.8466H68.1452V24.9534Z" fill="#007FFF"/>
<path d="M74.1753 24.9856H78.4847C80.1892 31.1443 80.4787 32.4146 80.9289 35.0678C81.4917 31.9804 81.5721 31.6428 82.3922 28.3785L83.2445 24.9856H87.4414L82.955 38.8627H78.6777L74.1753 24.9856Z" fill="#007FFF"/>
<path d="M102.332 35.3251C101.865 36.0808 101.302 36.7723 100.659 37.3994C99.2281 38.7019 97.3628 39.3933 95.4171 39.3612C91.3006 39.3612 88.4062 36.708 88.4062 32.1895C88.4062 28.8448 90.0624 24.5353 95.5297 24.5353C97.395 24.471 99.212 25.1946 100.531 26.5293C102.348 28.4749 102.444 31.1764 102.492 32.7523H92.587C92.5549 34.4889 93.5357 36.2095 95.7709 36.2095C98.006 36.2095 98.7779 34.7462 99.2763 33.7653L102.332 35.3251ZM98.2633 30.1794C98.2311 29.4558 97.9578 28.7644 97.4915 28.2177C96.9447 27.7192 96.2372 27.4458 95.4975 27.4458C94.7096 27.4458 93.9538 27.7674 93.4232 28.3463C92.989 28.8609 92.6996 29.5041 92.6031 30.1794H98.2633Z" fill="#007FFF"/>
<path d="M105.853 20.9656H109.921V25.3072H112.607V27.7996H109.889V34.0387C109.889 34.891 109.889 35.6306 110.951 35.6306L112.414 35.5824V38.7663C111.706 38.8949 110.983 38.9753 110.259 38.9753C108.844 38.9753 107.316 38.8949 106.432 37.6246C105.869 36.8045 105.853 35.8075 105.853 34.489V27.7835H103.843V25.275H105.869L105.853 20.9656Z" fill="#007FFF"/>
<path d="M119.376 26.4167C120.277 25.6449 121.258 25.0338 123.38 24.8248V28.4589L122.03 28.6679C120.068 29.0056 119.473 29.3111 119.473 31.0639V38.8627H115.421V24.9695H119.409L119.376 26.4167Z" fill="#007FFF"/>
<path d="M125.535 28.9091C125.519 27.7031 126.066 26.5775 126.998 25.8217C128.269 24.8087 129.925 24.5996 131.549 24.5996C133.254 24.5996 137.386 25.0016 137.386 28.5875V36.6597C137.386 38.1551 137.467 38.3642 137.788 38.8466H133.784V37.5602C132.723 38.332 131.581 39.2164 129.539 39.2164C126.355 39.2164 124.988 36.9331 124.988 34.9713C124.988 32.7362 126.773 31.4658 127.915 30.9834C129.057 30.501 131.662 30.0347 133.382 29.7131V28.9734C133.334 28.3302 133.27 27.2689 131.79 27.2689C129.973 27.2689 129.748 28.3784 129.636 28.893L125.535 28.9091ZM130.729 33.0899C130.038 33.3472 128.976 33.7492 128.976 34.8266C129.025 35.6466 129.716 36.2738 130.536 36.2255C131.035 36.2095 131.533 36.0487 131.951 35.7753C133.302 34.923 133.35 33.6527 133.382 32.2216L130.729 33.0899Z" fill="#007FFF"/>
<path d="M144.783 26.2237C145.153 25.7574 145.635 25.3875 146.166 25.1303C146.97 24.7926 147.822 24.6157 148.691 24.5996C149.543 24.5835 150.395 24.7765 151.167 25.1624C152.63 25.9343 153 27.1885 153 29.3433V38.8627H148.932V31.0477C148.932 29.7935 148.9 29.3433 148.739 28.9734C148.401 28.2659 147.677 27.8478 146.906 27.9121C144.751 27.9121 144.751 29.6488 144.751 31.3694V38.8627H140.667V25.0177H144.783V26.2237Z" fill="#007FFF"/>
<path d="M33.2996 29.7131H37.1749C37.4805 29.7131 37.7377 29.4719 37.7538 29.1664C37.7538 29.086 37.7377 29.0056 37.7056 28.9413L31.0323 10.7868C30.9519 10.5617 30.7429 10.417 30.5017 10.417H26.6103C26.3048 10.417 26.0475 10.6582 26.0475 10.9798C26.0475 11.0441 26.0636 11.1084 26.0797 11.1728L32.7529 29.3433C32.8333 29.5684 33.0584 29.7292 33.2996 29.7131Z" fill="#007FFF"/>
<path d="M32.5921 49.0093H36.4674C36.7729 49.0093 37.0302 48.7681 37.0302 48.4465C37.0302 48.3821 37.0141 48.3178 36.9981 48.2535L23.2496 10.7868C23.1692 10.5617 22.9601 10.417 22.7189 10.417H18.8436C18.5381 10.417 18.2808 10.6582 18.2808 10.9798C18.2808 11.0441 18.2969 11.1084 18.313 11.1728L32.0615 48.6394C32.1579 48.8645 32.367 49.0093 32.5921 49.0093Z" fill="#007FFF"/>
<path d="M24.9701 49.0093H28.8454C29.151 49.0254 29.4243 48.7842 29.4243 48.4786C29.4243 48.3982 29.4082 48.3339 29.3922 48.2535L22.7028 30.083C22.6224 29.8579 22.4134 29.7131 22.1722 29.7131H18.2808C17.9753 29.7131 17.7341 29.9704 17.7341 30.292C17.7341 30.3563 17.7502 30.4207 17.7662 30.485L24.4395 48.6555C24.5199 48.8645 24.7289 49.0093 24.9701 49.0093Z" fill="#007FFF"/>
<path d="M33.766 11.1728L36.8855 19.6791C36.9659 19.9043 37.1749 20.049 37.4161 20.049H41.2914C41.597 20.049 41.8543 19.8078 41.8543 19.4862C41.8543 19.4219 41.8382 19.3575 41.8221 19.2932L38.7025 10.7868C38.6221 10.5617 38.4131 10.417 38.1719 10.417H34.2966C33.9911 10.417 33.7338 10.6582 33.7338 10.9798C33.7338 11.0441 33.7338 11.1084 33.766 11.1728Z" fill="#007FFF"/>
<path d="M17.8145 49.0093H21.6898C21.9953 49.0093 22.2526 48.7681 22.2526 48.4465C22.2526 48.3822 22.2365 48.3178 22.2204 48.2535L19.0687 39.731C18.9883 39.5059 18.7793 39.3612 18.5381 39.3612H14.6628C14.3573 39.3612 14.1 39.6024 14.1 39.924C14.1 39.9883 14.1161 40.0687 14.1321 40.133L17.2517 48.6555C17.3642 48.8646 17.5733 49.0093 17.8145 49.0093Z" fill="#007FFF"/>
</svg>
