<svg width="168" height="60" viewBox="0 0 168 60" fill="none" xmlns="http://www.w3.org/2000/svg">
<g clip-path="url(#clip0)">
<path d="M95.7419 26.0573H95.6878C95.3202 26.955 94.6066 28.1048 92.5793 28.1048C89.26 28.1048 87.941 25.4168 87.941 20.6813C87.941 14.565 90.152 13.62 92.3144 13.62C93.8443 13.62 95.0012 14.3603 95.531 15.5888H95.5851V9.47253H98.4286V27.7425H95.7419V26.0573V26.0573ZM93.1578 15.8198C91.5252 15.8198 90.9467 17.1008 90.9467 20.8125C90.9467 23.9363 91.3684 25.905 93.347 25.905C95.2986 25.905 95.7473 23.9625 95.7473 21.0173C95.7418 17.715 95.3472 15.8198 93.1578 15.8198Z" fill="#221C35"/>
<path d="M110.733 24.8812C110.733 25.3957 111.052 25.8525 111.473 25.8525C111.657 25.8525 111.841 25.8262 111.949 25.7737V27.564C111.608 27.7162 111.106 27.8947 110.554 27.8947C109.289 27.8947 108.235 27.4065 108.154 26.0782H108.1C107.338 27.4327 106.23 28.0995 104.57 28.0995C102.305 28.0995 100.883 26.871 100.883 24.2355C100.883 21.1642 102.251 20.5237 104.175 19.9095L106.392 19.3215C107.419 19.038 108.051 18.7597 108.051 17.5575C108.051 16.3027 107.603 15.51 106.1 15.51C104.202 15.51 103.937 16.8172 103.937 18.1455H101.251C101.251 15.2265 102.489 13.6147 106.23 13.6147C108.732 13.6147 110.738 14.5597 110.738 16.9905V24.8812H110.733ZM108.046 20.4765C107.311 21.0382 105.727 21.3742 104.883 21.7575C104.067 22.1407 103.727 22.9597 103.727 23.9835C103.727 25.1332 104.305 26.0572 105.494 26.0572C107.208 26.0572 108.051 24.8025 108.051 22.7812V20.4765H108.046Z" fill="#221C35"/>
<path d="M112.63 13.9769H114.582V10.0604H117.425V13.9769H119.745V16.0244H117.425V24.2407C117.425 25.3169 117.739 25.7002 118.717 25.7002C119.139 25.7002 119.48 25.6739 119.745 25.6214V27.6689C119.139 27.8212 118.35 27.8999 117.452 27.8999C115.528 27.8999 114.582 27.3854 114.582 24.5714V16.0244H112.63V13.9769V13.9769Z" fill="#221C35"/>
<path d="M130.789 24.8812C130.789 25.3957 131.108 25.8525 131.53 25.8525C131.713 25.8525 131.897 25.8262 132.005 25.7737V27.564C131.665 27.7162 131.162 27.8947 130.611 27.8947C129.346 27.8947 128.291 27.4065 128.21 26.0782H128.156C127.394 27.4327 126.286 28.0995 124.626 28.0995C122.361 28.0995 120.939 26.871 120.939 24.2355C120.939 21.1642 122.312 20.5237 124.232 19.9095L126.448 19.3215C127.475 19.038 128.108 18.7597 128.108 17.5575C128.108 16.3027 127.659 15.51 126.156 15.51C124.259 15.51 123.994 16.8172 123.994 18.1455H121.307C121.307 15.2265 122.545 13.6147 126.286 13.6147C128.789 13.6147 130.794 14.5597 130.794 16.9905V24.8812H130.789ZM128.097 20.4765C127.362 21.0382 125.778 21.3742 124.934 21.7575C124.118 22.1407 123.777 22.9597 123.777 23.9835C123.777 25.1332 124.356 26.0572 125.545 26.0572C127.259 26.0572 128.102 24.8025 128.102 22.7812V20.4765H128.097Z" fill="#221C35"/>
<path d="M88.6275 31.6904H91.4711V34.4519H88.6275V31.6904ZM88.6275 36.3997H91.4711V50.1652H88.6275V36.3997Z" fill="#221C35"/>
<path d="M94.6066 31.8951H97.4556V42.1589H97.5096L101.802 36.3996L105.094 36.3734L100.829 41.6969L105.651 50.1704H102.543L99.0612 43.8966L97.4556 45.7919V50.1704H94.6066V31.8951Z" fill="#221C35"/>
<path d="M114.317 48.5533H114.236C113.522 49.7818 112.182 50.522 110.598 50.522C108.489 50.522 107.067 49.577 107.067 46.0175V36.3995H109.911V46.28C109.911 47.813 110.625 48.3275 111.836 48.3275C113.047 48.3275 114.155 47.561 114.155 46.0228V36.3995H116.998V50.165H114.312V48.5533H114.317Z" fill="#221C35"/>
<path d="M57.6241 9C45.6822 9 36 18.4027 36 30C36 41.5972 45.6822 51 57.6241 51C69.5659 51 79.2481 41.5972 79.2481 30C79.2481 18.4027 69.5659 9 57.6241 9ZM69.3875 35.8432H58.5269V34.2105H69.3875V35.8432V35.8432ZM68.0577 20.5657C68.0577 20.5657 67.317 21.516 67.7117 24.057C68.4523 28.824 65.8736 33.0712 61.3001 33.0712H57.9268C57.9268 33.0712 54.6237 32.9085 52.6397 34.8405C46.758 40.5472 45.3578 42.0277 44.9361 42.2482C44.6658 42.3847 44.601 42.0855 44.601 42.0855L61.9813 21.2745C61.6137 17.5207 66.198 16.5232 67.8847 19.3057L69.4794 18.87L68.0577 20.5657Z" fill="#08B1A8"/>
<path d="M65.1709 19.4946C64.7005 19.4946 64.3167 19.8674 64.3167 20.3241C64.3167 20.7809 64.7005 21.1536 65.1709 21.1536C65.6412 21.1536 66.025 20.7809 66.025 20.3241C66.0304 19.8674 65.6466 19.4946 65.1709 19.4946Z" fill="#08B1A8"/>
</g>
<defs>
<clipPath id="clip0">
<rect width="96" height="42" fill="white" transform="translate(36 9)"/>
</clipPath>
</defs>
</svg>
