<svg width="168" height="60" viewBox="0 0 168 60" fill="none" xmlns="http://www.w3.org/2000/svg">
<g clip-path="url(#clip0)">
<path fill-rule="evenodd" clip-rule="evenodd" d="M56.1918 26.1037V43.2074H57.73H59.2682V26.1037V9H57.73H56.1918V26.1037ZM44.0032 13.7058V18.2306H42.4355H40.8675V20.9454V23.6603H42.4355H44.0032V33.3433V43.0264H47.0505H50.0975V33.3433V23.6603H51.902H53.7068V20.9454V18.2306H51.902H50.0975V13.7058V9.18099H47.0505H44.0032V13.7058ZM23.7966 17.7165C22.984 17.8063 21.7958 18.0738 21.3553 18.2664C21.2484 18.3131 21.1228 18.3511 21.0759 18.3511C20.9552 18.3511 19.5103 19.0403 18.9889 19.3466C18.6708 19.5333 17.8518 20.1266 17.8518 20.1701C17.8518 20.1983 17.8227 20.2215 17.7872 20.2215C17.6775 20.2215 16.2546 21.6173 15.8173 22.1541C15.5929 22.4296 14.8343 23.5137 14.8343 23.5593C14.8343 23.5785 14.77 23.6907 14.6919 23.8083C14.5592 24.0074 14.1356 24.8653 13.9305 25.3497C13.7686 25.7319 13.4349 26.8193 13.338 27.2801C13.2858 27.5292 13.1967 27.9498 13.1406 28.2151C12.7888 29.8708 13.0046 33.2072 13.5854 35.0928C13.6837 35.4128 13.7384 35.5605 13.9422 36.0582C14.0835 36.4028 14.5137 37.2676 14.5524 37.285C14.5773 37.2958 14.5975 37.3295 14.5975 37.3599C14.5975 37.4352 15.1339 38.2858 15.1971 38.3105C15.2251 38.3217 15.2482 38.3691 15.2482 38.4162C15.2482 38.4632 15.2709 38.5016 15.2986 38.5016C15.326 38.5016 15.3725 38.5537 15.4019 38.6178C15.5312 38.8983 16.8805 40.3477 17.4087 40.7727C18.0233 41.2671 18.4752 41.5922 18.828 41.7938C18.893 41.8307 19.0528 41.9223 19.183 41.9973C19.5984 42.2362 20.056 42.462 20.603 42.6981C23.2702 43.8488 27.7407 43.9263 30.8405 42.8754C31.0691 42.798 31.3354 42.7024 31.432 42.6633C31.7355 42.5406 32.5239 42.163 32.7323 42.0403C33.1807 41.7764 33.6227 41.4869 33.6393 41.446C33.65 41.4192 33.6848 41.3974 33.7164 41.3974C33.8807 41.3974 35.6337 39.7526 36.1602 39.105C36.6789 38.4661 36.8578 38.1852 36.7797 38.1316C36.6938 38.0726 36.3863 37.9206 35.3057 37.4033C34.9642 37.2397 34.4981 37.016 34.2705 36.906C33.8381 36.6975 33.257 36.4213 32.5545 36.0904C32.3269 35.9829 32.0273 35.837 31.8892 35.7657L31.6382 35.6365L31.4959 35.7871C30.837 36.4853 29.4706 37.3483 28.5905 37.6223C28.3953 37.6831 28.1713 37.7577 28.0932 37.7885C26.8979 38.2544 24.3902 38.1682 22.9695 37.6122C22.6393 37.483 21.9236 37.1137 21.8111 37.0153C21.7596 36.97 21.6979 36.9331 21.6734 36.9331C21.4884 36.9331 19.9818 35.3965 19.9818 35.2083C19.9818 35.1833 19.9438 35.1199 19.8977 35.0675C19.6197 34.7518 19.0879 33.3792 19.002 32.7551L18.9622 32.4684H28.702H38.4418V31.309C38.4418 28.8508 38.0215 26.6275 37.2316 24.9073C37.1162 24.6558 37.0218 24.4219 37.0218 24.3872C37.0218 24.3524 37.0016 24.3238 36.9771 24.3238C36.9522 24.3238 36.8716 24.1892 36.7974 24.0241C36.5812 23.5437 35.6905 22.2377 35.3103 21.8442C35.2592 21.791 35.1073 21.6281 34.9727 21.4822C34.6511 21.1329 34.2279 20.734 33.8268 20.4021C33.6479 20.2537 33.4878 20.1172 33.4718 20.0984C33.2417 19.8323 31.0344 18.5925 30.7908 18.5925C30.7397 18.5925 30.6847 18.5708 30.6684 18.544C30.6147 18.4553 29.4046 18.0934 28.5018 17.8957C27.3558 17.6449 25.1918 17.5623 23.7966 17.7165ZM26.7563 23.0221C27.4613 23.1141 28.0509 23.2545 28.309 23.3917C28.3988 23.4395 28.4986 23.4789 28.5313 23.4789C28.6278 23.48 29.3346 23.8579 29.685 24.0961C30.6559 24.7564 31.4884 25.7185 31.9172 26.6767C32.0766 27.0329 32.2293 27.4199 32.2293 27.4687C32.2293 27.4984 29.3886 27.5216 25.7207 27.5216C22.1413 27.5216 19.2125 27.5118 19.2125 27.4998C19.2125 27.4079 19.8604 26.2354 20.1838 25.7417C21.4948 23.7414 24.0767 22.6728 26.7563 23.0221Z" fill="#04ABEB"/>
<path fill-rule="evenodd" clip-rule="evenodd" d="M62.345 26.1037V43.2074H63.8538H65.3625V26.1037V9H63.8538H62.345V26.1037ZM80.302 17.7455C79.8792 17.8038 79.3332 17.8954 79.0893 17.9486C78.3676 18.106 77.0694 18.5596 76.5266 18.8438C76.3054 18.9596 75.6334 19.3328 75.4743 19.4284C75.0966 19.655 74.2102 20.3217 73.9759 20.5552C73.9081 20.6225 73.7998 20.7181 73.7345 20.7681C73.2432 21.1442 71.9201 22.734 71.5289 23.4189C71.4433 23.5684 71.3581 23.7041 71.339 23.7207C71.3198 23.737 71.2254 23.9137 71.1292 24.1128C71.0326 24.3119 70.936 24.4885 70.914 24.5055C70.8562 24.5504 70.362 25.7967 70.1948 26.3194C69.1937 29.4488 69.4131 33.7263 70.7142 36.4502C71.0404 37.1337 71.6439 38.1791 71.8754 38.4632C71.9062 38.5009 72.0131 38.6402 72.1129 38.7731C72.5893 39.4062 73.8474 40.7339 73.9713 40.7339C73.9894 40.7339 74.0962 40.8194 74.2091 40.924C74.322 41.0289 74.4633 41.1441 74.5233 41.1806C74.5837 41.2168 74.83 41.3797 75.0711 41.5426C75.5798 41.8858 75.6813 41.9451 76.397 42.3187C76.6899 42.4714 77.102 42.655 77.3133 42.7263C77.5241 42.7976 77.7396 42.8794 77.7921 42.908C77.8447 42.937 77.9515 42.9732 78.03 42.9887C78.1081 43.0043 78.4382 43.0901 78.7638 43.1799C81.2072 43.8521 85.55 43.6953 87.4112 42.8678C87.5135 42.8222 87.6235 42.7849 87.6551 42.7849C87.8479 42.7849 89.4369 41.9864 90.0056 41.6038C90.9864 40.9432 92.2098 39.8073 92.7941 39.0145C92.9162 38.8484 93.0362 38.6985 93.0603 38.6811C93.1143 38.6428 93.4075 38.2066 93.4075 38.1646C93.4075 38.1349 92.798 37.8359 90.8931 36.9317C90.6978 36.839 90.2736 36.6363 89.9509 36.481C89.6278 36.3257 89.1113 36.0777 88.8028 35.9297L88.2423 35.6607L88.0609 35.8294C87.9611 35.9221 87.8521 36.0289 87.8184 36.0665C86.507 37.5322 83.4711 38.3839 80.9832 37.984C80.0283 37.8301 78.8781 37.4008 78.3417 36.9975C78.2721 36.9454 78.1557 36.8622 78.0829 36.8122C77.3938 36.3413 76.5859 35.3759 76.1645 34.5198C75.8954 33.9732 75.5393 32.8782 75.5393 32.5976V32.4684H85.272H95.005L95.004 31.0961C95.0033 30.341 94.9756 29.5335 94.9422 29.3011C94.9088 29.069 94.8566 28.6814 94.8261 28.4399C94.4356 25.341 92.7788 22.3586 90.3307 20.3471C90.0869 20.1465 89.8426 19.9435 89.7879 19.8953C89.7333 19.8472 89.5604 19.735 89.4031 19.6459C89.2462 19.5565 89.0396 19.4269 88.9438 19.3574C88.7418 19.2112 88.3754 19.015 88.3048 19.015C88.2778 19.015 88.1848 18.9672 88.0978 18.9093C88.0112 18.8514 87.8589 18.7732 87.7598 18.7359C87.6608 18.6986 87.3132 18.5668 86.9881 18.4434C86.1762 18.1354 85.1062 17.8664 84.355 17.7817C84.2088 17.7654 83.8492 17.7241 83.5563 17.6901C82.755 17.5971 81.182 17.6239 80.302 17.7455ZM108.491 17.7459C107.685 17.8722 107.142 18.0032 106.572 18.2088C106.344 18.291 106.131 18.3645 106.099 18.3725C105.961 18.4047 104.975 18.9136 104.619 19.1359C104.407 19.2684 104.212 19.377 104.185 19.377C104.159 19.377 104.075 19.4446 103.998 19.5275C103.922 19.6108 103.826 19.6785 103.786 19.6785C103.745 19.6785 103.704 19.6988 103.693 19.7237C103.682 19.7487 103.54 19.8761 103.377 20.0072C101.853 21.2332 100.405 23.2332 99.7052 25.0782C99.4397 25.7783 99.1014 26.9232 99.0566 27.2732C99.0456 27.3598 99.0077 27.5621 98.9718 27.7228C98.7748 28.6122 98.6722 31.0194 98.7886 32.0178C98.8199 32.2824 98.8607 32.6617 98.8795 32.8608C98.8987 33.0599 98.9381 33.3176 98.9672 33.4338C98.9966 33.55 99.0361 33.7535 99.0545 33.8863C99.0907 34.1411 99.2199 34.6287 99.3591 35.0345C99.4049 35.1684 99.4425 35.3114 99.4425 35.352C99.4425 35.3929 99.4922 35.5413 99.5529 35.6817C99.6133 35.8226 99.712 36.0597 99.7716 36.2091C100.491 38.0078 102.18 40.1968 103.763 41.3812C104.039 41.5879 104.339 41.8145 104.429 41.885C104.674 42.0754 106.227 42.8653 106.602 42.9894C109.78 44.0439 113.185 43.7304 115.525 42.1681C116.502 41.5158 116.812 41.2758 117.444 40.6804L117.725 40.4158V41.7059V42.9963L120.802 42.98L123.879 42.9637L123.864 30.6122L123.849 18.2606L120.787 18.245L117.725 18.2295V19.5648V20.9005L117.444 20.6432C116.954 20.1947 116.814 20.072 116.536 19.8425C116.386 19.719 116.25 19.618 116.234 19.618C116.218 19.618 115.994 19.4754 115.737 19.3013C113.708 17.9258 111.022 17.3491 108.491 17.7459ZM142.043 17.7473C141.45 17.84 140.988 17.9493 140.297 18.1603C139.1 18.5252 137.322 19.626 136.345 20.6059L136.037 20.9154L136.021 19.5728L136.005 18.2306H132.959H129.913V35.0928V51.9554H132.961H136.008V46.1847V40.4139L136.348 40.7423C136.535 40.9229 136.795 41.1495 136.924 41.2458C137.055 41.3421 137.188 41.4496 137.221 41.4843C137.253 41.5194 137.439 41.6566 137.634 41.7888C137.83 41.9212 138.003 42.0436 138.019 42.0606C138.056 42.0993 138.549 42.369 139.143 42.676C141.222 43.7489 144.277 43.9168 146.806 43.097C146.968 43.0445 147.114 42.9978 147.131 42.9938C147.147 42.9894 147.235 42.9543 147.327 42.9156C147.419 42.8769 147.512 42.8454 147.534 42.845C147.571 42.845 148.067 42.5934 148.728 42.2391C148.875 42.1605 149.163 41.9799 149.368 41.8376C149.573 41.695 149.765 41.5784 149.794 41.5784C149.823 41.5784 149.868 41.5437 149.894 41.5013C149.92 41.459 150.061 41.3305 150.208 41.2154C150.921 40.6557 151.961 39.5788 152.466 38.8777C152.603 38.6876 152.736 38.5226 152.763 38.5117C152.789 38.5005 152.811 38.4697 152.811 38.4433C152.811 38.4169 152.984 38.1139 153.195 37.7697C153.406 37.4258 153.579 37.1137 153.58 37.0768C153.58 37.0399 153.634 36.9389 153.701 36.8528C153.767 36.7666 153.821 36.6815 153.82 36.6638C153.819 36.6464 153.886 36.4756 153.969 36.2848C154.172 35.8171 154.586 34.5567 154.586 34.4054C154.586 34.3388 154.614 34.2201 154.65 34.1419C155.131 33.0635 155.111 29.107 154.613 26.8276C154.258 25.2045 153.103 22.8328 152.164 21.8015C152.064 21.6915 151.983 21.5887 151.983 21.5731C151.983 21.5347 150.685 20.2215 150.647 20.2215C150.63 20.2215 150.544 20.153 150.456 20.0691C150.281 19.9026 149.208 19.1449 148.955 19.0092C147.756 18.3659 146.353 17.8653 145.504 17.7777C145.373 17.7643 145.081 17.7256 144.853 17.6916C144.226 17.5978 142.817 17.6257 142.043 17.7473ZM83.645 23.0333C84.0022 23.0905 84.7654 23.3034 84.9337 23.3928C85.0221 23.4399 85.1211 23.4793 85.1538 23.48C85.5933 23.4902 87.8418 25.2212 87.8468 25.5531C87.8475 25.5904 87.9132 25.6841 87.9931 25.7612C88.129 25.893 88.7382 27.0868 88.8216 27.3858L88.8596 27.5216H82.3266H75.7935L75.9689 27.1444C76.1414 26.7741 76.5976 25.9516 76.6636 25.8926C76.6817 25.876 76.8194 25.6852 76.9693 25.4688C77.539 24.6463 78.9104 23.6125 79.6452 23.4518C79.6811 23.4438 79.7904 23.4037 79.8881 23.3627C80.2274 23.2194 80.9556 23.0525 81.3968 23.0167C81.6407 22.9971 81.8537 22.9675 81.87 22.9512C81.9041 22.9175 83.3333 22.9834 83.645 23.0333ZM112.844 23.5665C114.234 23.9054 115.234 24.474 116.101 25.4166C116.457 25.804 116.897 26.3911 116.897 26.4787C116.897 26.5131 116.936 26.5746 116.984 26.6152C117.168 26.7708 117.662 28.0515 117.788 28.698C118.407 31.8842 117.524 34.6899 115.299 36.6005C114.94 36.9089 113.936 37.4326 113.436 37.5735C108.803 38.8726 104.891 35.6879 104.883 30.61C104.88 29.0267 105.438 26.887 105.97 26.4432C106.025 26.3976 106.069 26.3346 106.069 26.3028C106.069 26.1931 106.59 25.5582 107.026 25.1383C107.486 24.6941 107.825 24.4349 108.14 24.2869C108.189 24.2641 108.269 24.2105 108.318 24.1682C108.989 23.585 111.534 23.2469 112.844 23.5665ZM143.906 23.589C145.182 23.9253 145.878 24.3111 146.781 25.1817C147.168 25.5553 147.663 26.1493 147.663 26.2409C147.663 26.276 147.683 26.314 147.708 26.3249C147.787 26.361 148.018 26.7303 148.018 26.8215C148.018 26.8707 148.044 26.9272 148.076 26.9471C148.198 27.0238 148.512 27.8651 148.696 28.6075C149.016 29.8998 148.909 32.2889 148.482 33.3585C148.143 34.2081 148.024 34.4485 147.702 34.9393C147.236 35.6492 145.918 36.9331 145.656 36.9331C145.621 36.9331 145.593 36.9563 145.593 36.9849C145.593 37.0544 144.726 37.4551 144.27 37.5966C142.908 38.0194 141.044 37.9329 139.821 37.3896C139.356 37.1825 138.939 36.9606 138.791 36.8408C138.708 36.7735 138.527 36.6403 138.387 36.5447C137.575 35.9876 136.596 34.6081 136.201 33.4639C135.478 31.3734 135.701 28.172 136.669 26.7277C136.729 26.6398 136.777 26.55 136.777 26.5283C136.777 26.3632 137.843 25.1531 138.326 24.7701C139.797 23.6035 142.106 23.1144 143.906 23.589Z" fill="#9C9C9C"/>
<path fill-rule="evenodd" clip-rule="evenodd" d="M59.2682 26.1037V43.2074H60.8068H62.345V26.1037V9H60.8068H59.2682V26.1037Z" fill="#046C94"/>
<path fill-rule="evenodd" clip-rule="evenodd" d="M111.764 23.4605C111.821 23.4757 111.914 23.4757 111.971 23.4605C112.028 23.4453 111.981 23.433 111.867 23.433C111.754 23.433 111.707 23.4453 111.764 23.4605ZM119.278 43.0112C120.116 43.0206 121.487 43.0206 122.325 43.0112C123.163 43.0018 122.477 42.9942 120.802 42.9942C119.126 42.9942 118.44 43.0018 119.278 43.0112ZM83.5126 43.6121C83.586 43.6265 83.6925 43.6258 83.7493 43.611C83.8058 43.5958 83.7454 43.5838 83.6155 43.5846C83.4852 43.5853 83.4391 43.5976 83.5126 43.6121Z" fill="#A08C98"/>
</g>
<defs>
<clipPath id="clip0">
<rect width="142" height="43" fill="white" transform="translate(13 9)"/>
</clipPath>
</defs>
</svg>
