<svg width="168" height="60" viewBox="0 0 168 60" fill="none" xmlns="http://www.w3.org/2000/svg">
<path fill-rule="evenodd" clip-rule="evenodd" d="M55.582 41.1023V39.1957C54.5932 40.2898 52.7211 41.5257 49.7194 41.5257C45.7644 41.5257 44.0696 39.1603 44.0696 36.2285V24.0454H50.4265V33.5104C50.4265 35.2397 51.3444 35.9103 52.8984 35.9103C54.3106 35.9103 55.0522 35.1698 55.582 34.5691V24.0454H61.9379V41.1023H55.582Z" fill="white"/>
<path fill-rule="evenodd" clip-rule="evenodd" d="M55.582 41.1023V39.1957C54.5932 40.2898 52.7211 41.5257 49.7194 41.5257C45.7644 41.5257 44.0696 39.1603 44.0696 36.2285V24.0454H50.4265V33.5104C50.4265 35.2397 51.3444 35.9103 52.8984 35.9103C54.3106 35.9103 55.0522 35.1698 55.582 34.5691V24.0454H61.9379V41.1023H55.582Z" fill="#0F173D"/>
<path fill-rule="evenodd" clip-rule="evenodd" d="M75.9742 41.1024V31.6739C75.9742 29.9081 75.0209 29.2364 73.5023 29.2364C72.0536 29.2364 71.3121 29.979 70.7822 30.5787V41.1024H64.4274V24.0455H70.7822V25.9886C71.772 24.858 73.6442 23.6221 76.6459 23.6221C80.6008 23.6221 82.3312 26.023 82.3312 28.9903V41.1024H75.9742Z" fill="white"/>
<path fill-rule="evenodd" clip-rule="evenodd" d="M75.9742 41.1024V31.6739C75.9742 29.9081 75.0209 29.2364 73.5023 29.2364C72.0536 29.2364 71.3121 29.979 70.7822 30.5787V41.1024H64.4274V24.0455H70.7822V25.9886C71.772 24.858 73.6442 23.6221 76.6459 23.6221C80.6008 23.6221 82.3312 26.023 82.3312 28.9903V41.1024H75.9742Z" fill="#0F173D"/>
<path fill-rule="evenodd" clip-rule="evenodd" d="M118.526 41.1024V24.0455H124.883V25.9886C125.942 24.7516 128.167 23.6221 130.109 23.6221V29.6953C129.792 29.59 129.262 29.5201 128.661 29.5201C127.32 29.5201 125.588 29.8716 124.883 30.7206V41.1024H118.526Z" fill="white"/>
<path fill-rule="evenodd" clip-rule="evenodd" d="M118.526 41.1024V24.0455H124.883V25.9886C125.942 24.7516 128.167 23.6221 130.109 23.6221V29.6953C129.792 29.59 129.262 29.5201 128.661 29.5201C127.32 29.5201 125.588 29.8716 124.883 30.7206V41.1024H118.526Z" fill="#0F173D"/>
<path fill-rule="evenodd" clip-rule="evenodd" d="M133.4 34.6393C134.742 35.699 137.637 36.7941 139.544 36.7941C140.851 36.7941 141.24 36.4405 141.24 35.9816C141.24 35.4163 140.463 35.2046 138.838 34.9929C135.978 34.6038 131.564 34.074 131.564 29.4484C131.564 26.3758 134.248 23.6223 139.191 23.6223C141.882 23.6223 144.291 24.4041 146.214 25.583L144.618 29.96C143.557 29.0777 141.204 28.177 139.226 28.177C138.309 28.177 137.637 28.4242 137.637 28.9186C137.637 29.414 138.133 29.6257 139.828 29.8718C142.687 30.2963 147.313 30.8961 147.313 35.6635C147.313 39.0542 144.276 41.5261 139.226 41.5261C136.084 41.5261 132.694 40.431 130.857 38.9124L133.4 34.6393Z" fill="#0F173D"/>
<path fill-rule="evenodd" clip-rule="evenodd" d="M96.2083 35.593C96.0665 35.7349 95.5022 35.9111 94.9369 35.9111C94.09 35.9111 93.5247 35.2051 93.5247 34.3216V29.5542H96.9853V24.0462H93.6551V18.6853H87.1156V24.0462H84.3434V29.5542H87.1678V36.1583C87.1678 39.7253 89.2516 41.5255 93.0304 41.5255C95.1852 41.5255 96.6672 40.9967 97.3379 40.3949L96.2083 35.593Z" fill="#0F173D"/>
<path fill-rule="evenodd" clip-rule="evenodd" d="M34.3069 18V25.6795H26.7391V18H19.6051V25.7222H26.738V33.2452H19.6051V40.9674H26.7391V33.2025H34.3069V40.9674H41.4399V18H34.3069Z" fill="#0F173D"/>
<path fill-rule="evenodd" clip-rule="evenodd" d="M104.684 30.5086C104.895 29.7316 105.531 28.4602 107.474 28.4602C109.522 28.4602 110.122 29.766 110.299 30.5086H104.684ZM116.337 33.2266C116.337 27.2243 112.487 23.6218 107.474 23.6218C101.965 23.6218 98.1869 27.6133 98.1869 32.556C98.1869 38.1714 102.354 41.5256 107.685 41.5256C110.227 41.5256 113.265 40.855 114.96 39.4073L112.347 35.4868C111.498 36.1584 109.945 36.6883 108.497 36.6883C106.344 36.6883 105.107 35.6286 104.753 34.5335H116.337V33.2266Z" fill="#0F173D"/>
<path fill-rule="evenodd" clip-rule="evenodd" d="M12 33.1988H19.5679V25.6758H12V33.1988Z" fill="#EE404A"/>
<path fill-rule="evenodd" clip-rule="evenodd" d="M149.325 41.1023H155.679V34.7864H149.325V41.1023Z" fill="#0F173D"/>
</svg>
