<?xml version="1.0" encoding="utf-8"?>
<!-- Generator: Adobe Illustrator 21.0.0, SVG Export Plug-In . SVG Version: 6.00 Build 0)  -->
<svg version="1.1" id="Layer_1" xmlns="http://www.w3.org/2000/svg" xmlns:xlink="http://www.w3.org/1999/xlink" x="0px" y="0px"
	 viewBox="0 0 3068 648" style="enable-background:new 0 0 3068 648;" xml:space="preserve">
<style type="text/css">
	.st0{fill:#282828;}
	.st1{fill:#FE7C38;}
</style>
<g>
	<path class="st0" d="M1507.5,322.9h147c-4.3-42.4-29.3-75.6-72.7-75.6C1541.6,247.3,1513.4,278.3,1507.5,322.9 M1692.4,455.2
		c-26,23.4-58.6,38.1-103,38.1c-83,0-147-60.4-147-149.1v-1.1c0-82.2,58-149.6,139.9-149.6c91.1,0,136.1,75.1,136.1,141.5
		c0,18.5-14.1,31.6-30.9,31.6H1508c7,46.8,40.1,72.9,82.4,72.9c27.7,0,49.4-9.8,67.8-25c4.9-3.8,9.2-6,16.8-6
		c14.6,0,26,11.4,26,26.7C1701.1,443.2,1697.3,450.3,1692.4,455.2 M1837.8,575.4c-18.4,0-32-2.7-45.6-8.2
		c-9.8-3.3-20.6-11.4-20.6-27.2c0-16.3,12.5-27.2,26.6-27.2c5.4,0,8.7,1.1,11.9,2.2c7.6,2.2,13.6,3.8,22.8,3.8
		c19.5,0,29.8-8.2,40.7-30.5l2.2-6L1769.4,244c-2.2-4.9-3.8-11.4-3.8-15.8c0-18.5,14.1-32.1,32.5-32.1c16.8,0,26,9.8,32,25l77,191
		l71.6-191c5.4-13.6,14.6-25,31.5-25c17.4,0,31.5,13.6,31.5,31c0,5.4-1.6,12.5-2.7,15.8l-104.7,251.9
		C1909.9,553.7,1883.9,575.4,1837.8,575.4 M2153.4,322.9h147c-4.3-42.4-29.3-75.6-72.7-75.6C2187.6,247.3,2159.4,278.3,2153.4,322.9
		 M2338.3,455.2c-26,23.4-58.6,38.1-103,38.1c-83,0-147-60.4-147-149.1v-1.1c0-82.2,58-149.6,139.9-149.6
		c91.1,0,136.1,75.1,136.1,141.5c0,18.5-14.1,31.6-30.9,31.6h-179.5c7.1,46.8,40.1,72.9,82.4,72.9c27.7,0,49.4-9.8,67.8-25
		c4.9-3.8,9.2-6,16.8-6c14.6,0,26,11.4,26,26.7C2347,443.2,2343.2,450.3,2338.3,455.2"/>
	<path class="st0" d="M0.1,219.8c0-11.6,9.4-21.6,21-21.6c12.2,0,21.6,9.4,21.6,21.6v29.3c18.8-28.2,44.2-54.2,92.3-54.2
		c46.4,0,76.3,24.9,91.8,57c20.5-31.5,50.9-57,100.6-57c65.8,0,106.2,44.2,106.2,115v158.1c0,12.2-9.4,21.6-21,21.6
		c-12.2,0-21.6-9.4-21.6-21.6V319.9c0-55.3-27.6-86.3-74.1-86.3c-43.1,0-78.5,32.1-78.5,88.5v146c0,12.2-9.4,21.6-21.6,21.6
		c-11.6,0-21-9.4-21-21.6V318.8c0-53.6-28.2-85.2-73.5-85.2c-45.3,0-79.6,37.6-79.6,90.1v144.3c0,12.2-8.8,21.6-21,21.6
		c-12.2,0-21.6-9.4-21.6-21.6V219.8z"/>
	<path class="st0" d="M492.2,404v-1.1c0-60.3,49.8-92.3,122.2-92.3c36.5,0,62.5,5,87.9,12.2v-10c0-51.4-31.5-78-85.2-78
		c-28.8,0-53.1,6.6-74.1,16c-2.8,1.1-5.5,1.7-7.7,1.7c-10,0-18.8-8.3-18.8-18.2c0-8.8,6.1-15.5,11.6-17.7
		c28.2-12.2,57-19.4,93.4-19.4c40.4,0,71.3,10.5,92.3,31.5c19.4,19.4,29.3,47,29.3,83.5v156.5c0,12.2-8.8,21-20.5,21
		c-12.2,0-20.5-8.8-20.5-19.9v-26c-19.9,26-53.1,49.2-103.4,49.2C545.8,493,492.2,462.6,492.2,404 M702.9,381.8v-27.6
		c-21-6.1-49.2-12.2-84-12.2c-53.6,0-83.5,23.2-83.5,59.2v1.1c0,35.9,33.2,57,71.9,57C659.7,459.3,702.9,427.2,702.9,381.8"/>
	<path class="st0" d="M804,345.3v-1.1c0-80.7,63-149.3,146.5-149.3c47.6,0,79.6,18.2,105.1,41.5c3.3,2.8,6.6,8.3,6.6,14.9
		c0,11.6-9.4,20.5-20.5,20.5c-5.5,0-10.5-2.2-13.8-5c-20.5-18.8-43.7-34.3-78-34.3c-58.1,0-102.3,49.2-102.3,110.6v1.1
		c0,61.9,45.3,111.1,105.1,111.1c32.6,0,58.6-14.9,79.6-34.8c2.8-2.8,6.6-5.5,12.2-5.5c10.5,0,19.4,9.4,19.4,19.4
		c0,5-2.2,10-5.5,13.3c-27.1,27.1-59.7,45.9-107.8,45.9C867.1,493.5,804,425.5,804,345.3"/>
	<path class="st0" d="M1125.3,102c0-11.6,9.4-21.6,21-21.6c12.2,0,21.6,10,21.6,21.6v148.7c18.8-31,48.7-55.8,97.9-55.8
		c69.1,0,109.5,46.4,109.5,114.5v158.7c0,12.2-9.4,21.6-21,21.6c-12.2,0-21.6-9.4-21.6-21.6V319.9c0-53.1-28.8-86.3-79.1-86.3
		c-49.2,0-85.7,35.9-85.7,89.6v144.9c0,12.2-8.8,21.6-21,21.6c-12.2,0-21.6-9.4-21.6-21.6V102z"/>
	<path class="st1" d="M3059.4,290.7L3059.4,290.7c17.4,29.5,7.5,67.5-22,84.9l-149.9,88.3c-29.5,17.4-67.5,7.5-84.9-22
		c-17.4-29.5-7.5-67.5,22-84.9l149.9-88.3C3004,251.4,3042,261.2,3059.4,290.7"/>
	<path class="st1" d="M2498.6,31.3L2498.6,31.3c17.1-29.7,55-39.8,84.7-22.7l150.7,87c29.7,17.1,39.8,55,22.7,84.7
		c-17.1,29.7-55,39.8-84.7,22.7l-150.7-87C2491.6,98.8,2481.4,60.9,2498.6,31.3"/>
	<path class="st1" d="M2552.7,349.8L2552.7,349.8c34.2,0,62,27.8,62,62v174c0,34.2-27.8,62-62,62s-62-27.8-62-62v-174
		C2490.7,377.5,2518.5,349.8,2552.7,349.8"/>
	<path class="st1" d="M2703.7,260.8c34.2,0,62,27.8,62,62c0,34.2-27.8,62-62,62s-62-27.8-62-62
		C2641.7,288.5,2669.5,260.8,2703.7,260.8"/>
	<path class="st1" d="M2703.7,433.8c34.2,0,62,27.8,62,62c0,34.2-27.8,62-62,62s-62-27.8-62-62
		C2641.7,461.5,2669.5,433.8,2703.7,433.8"/>
	<path class="st1" d="M2854.7,173.8c34.2,0,62,27.8,62,62c0,34.2-27.8,62-62,62s-62-27.8-62-62
		C2792.7,201.5,2820.5,173.8,2854.7,173.8"/>
	<path class="st1" d="M2552.7,173.8c34.2,0,62,27.8,62,62c0,34.2-27.8,62-62,62s-62-27.8-62-62
		C2490.7,201.5,2518.5,173.8,2552.7,173.8"/>
</g>
</svg>
