<?xml version="1.0" encoding="utf-8"?>
<!-- Generator: Adobe Illustrator 25.2.1, SVG Export Plug-In . SVG Version: 6.00 Build 0)  -->
<svg version="1.1" id="Layer_1" xmlns="http://www.w3.org/2000/svg" xmlns:xlink="http://www.w3.org/1999/xlink" x="0px" y="0px"
	 viewBox="0 0 944.8 430" style="enable-background:new 0 0 944.8 430;" xml:space="preserve">
<style type="text/css">
	.st0{fill:url(#SVGID_1_);}
	.st1{fill:url(#SVGID_2_);}
	.st2{fill:#1E1478;}
	.st3{fill:url(#SVGID_3_);}
	.st4{fill:url(#SVGID_4_);}
	.st5{fill:#E61E28;}
</style>
<g>
	<g id="Ebene_1">
		<g>
			<path d="M429,318.1c-10.6-0.1-21.2-1.4-31.5-4l0,0c-9.5-2.3-18.6-6.3-26.6-11.8l13.9-32.5c13.1,8.8,28.4,13.7,44.2,13.8
				c19.4,0,19.4-7.2,19.4-9.6c0.1-2.4-1-4.7-3.1-6.1c-3-2-8.5-4.6-16.5-7.5l-11.7-4.3c-12.8-5.1-23.1-11.4-30.6-18.5
				c-8-7.6-12-17.8-12-30.1c0-14.2,5.7-25.5,16.9-33.6c10.8-7.7,25.3-11.7,43.1-11.7c8.6,0.1,17.2,1,25.6,2.9
				c11.9,2.5,22.9,9.6,22.9,9.6l-15.3,33.8c0,0-4.8-4.6-15.9-8.8c-5.3-2-11.5-2.7-18.1-2.7c-17.6,0-17.6,6.5-17.6,9
				c-0.2,3.1,1.3,6,3.9,7.7c3.5,2.3,9.6,5,18,7.9c0.8,0.2,2.9,0.9,9.7,3.4c13.7,5.3,24,11.5,30.7,18.5c7.1,7.3,10.7,16.8,10.7,28
				c0,15.3-5.9,27.1-17.6,35C460.2,314.3,446,318.1,429,318.1z"/>
			<polygon points="516,81.4 516,315 556.9,315 556.9,172.6 556.9,81.4 			"/>
			<path d="M830.5,318.1c-13,0.1-25.8-3.2-37.1-9.6c-11.4-6.4-20.9-15.9-27.3-27.3c-6.8-11.7-10.2-25.6-10.2-41.2
				c0-23.3,6.7-42.2,19.8-56.3s31.3-21.4,53.6-21.4c12.2-0.1,24.2,3.1,34.6,9.3c4.6,2.7,8.9,6,12.7,9.7l-0.6-9.1V81.4h40.9V315
				h-39.8l-0.4-16.2c-3.9,4-8.2,7.4-13,10.3C853.7,315.1,842.2,318.2,830.5,318.1z M836.1,198.6c-11.9,0-20.8,3.7-27.2,11.2
				s-9.7,17.8-9.7,30.3c0,12.6,3.2,22.9,9.6,30.6s15.2,11.2,27.3,11.2c10.6,0,19.2-3.6,26.5-10.9l0,0c7.2-7.3,10.8-17.8,10.8-30.9
				c0-10.2-1.7-15.3-5-21.6c-3.1-6-7.8-11.1-13.5-14.6C849.1,200.3,842.7,198.5,836.1,198.6L836.1,198.6z"/>
			<path d="M718.8,180.7c-11.2-12.7-28.4-19.1-51.1-19.1c-14.5,0-27.7,3.2-39.3,9.5c-11.6,6.3-20.8,15.5-27.4,27.4
				c-6.5,11.8-9.8,25.6-9.8,41.1c0,13.8,2.8,26.7,8.4,38.3c5.6,11.8,14.5,21.3,26.3,28.2c11.8,7,26.6,10.5,44,10.5
				c12.8,0,23.9-1.3,33.1-3.8c9.1-2.5,16.5-5.6,21.9-9l2.1-1.4l-12.5-29.2l-2.9,1.6c-5.1,2.8-10.9,5-17,6.6
				c-6.1,1.6-14.1,2.4-23.7,2.4c-11.2,0-20-2.6-26.1-7.7c-5.5-4.6-9.4-11.9-11.7-22h101.4l0.3-2.7c0.6-6.1,0.9-12,0.9-17.7
				C735.5,211.1,729.9,193.3,718.8,180.7z M632.8,224.8c3.8-19.5,14.9-29,34-29c9.9,0,17.6,2.4,22.8,7.1c4.7,4.2,7.1,11.6,7.4,21.9
				H632.8z"/>
		</g>
	</g>
	<g id="Ebene_2">
		
			<linearGradient id="SVGID_1_" gradientUnits="userSpaceOnUse" x1="130.05" y1="346.8694" x2="9" y2="346.8694" gradientTransform="matrix(1 0 0 -1 0 432)">
			<stop  offset="0" style="stop-color:#46BEFF"/>
			<stop  offset="1" style="stop-color:#5A3CB4"/>
		</linearGradient>
		<path class="st0" d="M130.1,90.5V16.2c0-6.7-6.1-8.6-13-6.2S9,53.4,9,107.2c0,18.6,13.2,37.4,30.7,54.1
			c32.7-31.2,80.2-55.2,84.2-57.8C130.1,99.6,130.1,95.5,130.1,90.5z"/>
		
			<linearGradient id="SVGID_2_" gradientUnits="userSpaceOnUse" x1="130" y1="194.6906" x2="9" y2="194.6906" gradientTransform="matrix(1 0 0 -1 0 432)">
			<stop  offset="0" style="stop-color:#46BEFF"/>
			<stop  offset="1" style="stop-color:#5A3CB4"/>
		</linearGradient>
		<path class="st1" d="M9,215.3c0,53.8,101.1,94.7,108,97.1s13,0.6,13-6.2v-74.3c0-5,0-9-6.1-12.9c-4-2.5-51.5-26.6-84.2-57.8
			C22.2,177.9,9,196.7,9,215.3z"/>
		<path class="st2" d="M39.7,161.2C22.2,144.5,9,125.8,9,107.2v108.1C9,196.7,22.2,177.9,39.7,161.2z"/>
		
			<linearGradient id="SVGID_3_" gradientUnits="userSpaceOnUse" x1="130.1" y1="238.7107" x2="251.1" y2="238.7107" gradientTransform="matrix(1 0 0 -1 0 432)">
			<stop  offset="0" style="stop-color:#FAAA1E"/>
			<stop  offset="1" style="stop-color:#F05064"/>
		</linearGradient>
		<path class="st3" d="M251.1,215.3c0-53.8-101.1-94.7-108-97.1s-13-0.6-13,6.2v74.3c0,5,0,9,6.1,12.9c4,2.5,51.5,26.6,84.2,57.8
			C237.9,252.7,251.1,233.9,251.1,215.3z"/>
		
			<linearGradient id="SVGID_4_" gradientUnits="userSpaceOnUse" x1="130.05" y1="86.5265" x2="251.0502" y2="86.5265" gradientTransform="matrix(1 0 0 -1 0 432)">
			<stop  offset="0" style="stop-color:#FAAA1E"/>
			<stop  offset="1" style="stop-color:#F05064"/>
		</linearGradient>
		<path class="st4" d="M220.4,269.4c-32.7,31.2-80.2,55.2-84.2,57.8c-6.1,3.9-6.1,7.9-6.1,12.9v74.3c0,6.7,6.1,8.6,13,6.2
			s108-43.3,108-97.1C251.1,304.8,237.9,286.1,220.4,269.4z"/>
		<path class="st5" d="M220.4,269.4c17.5,16.7,30.7,35.5,30.7,54.1V215.3C251.1,233.9,237.9,252.7,220.4,269.4z"/>
	</g>
</g>
</svg>
