<svg width="168" height="60" viewBox="0 0 168 60" fill="none" xmlns="http://www.w3.org/2000/svg">
<mask id="mask0" mask-type="alpha" maskUnits="userSpaceOnUse" x="57" y="3" width="54" height="54">
<path d="M57.0118 22.7747H61.5778C62.5634 22.7747 63.4938 22.9657 64.368 23.3472C65.2427 23.7291 66.0094 24.2498 66.6689 24.9091C67.3283 25.5687 67.8485 26.3355 68.2309 27.2095C68.4646 27.7457 68.6262 28.3025 68.7167 28.8804C68.9375 27.3681 69.6183 26.0404 70.7604 24.8987C72.1484 23.4824 73.8485 22.7747 75.8615 22.7747C77.8606 22.7747 79.5608 23.4824 80.9632 24.8987C81.9969 25.9225 82.6549 27.0957 82.9412 28.4173V22.7747L90.1661 29.9997L97.4125 22.7747V28.4094C97.6969 27.0912 98.3484 25.9201 99.3698 24.8987C100.758 23.4824 102.459 22.7747 104.472 22.7747C106.471 22.7747 108.17 23.4824 109.573 24.8986C110.17 25.4893 110.64 26.1314 110.988 26.8216V3.01172H57.0118V22.7747ZM104.472 37.2251C102.473 37.2251 100.772 36.5175 99.3697 35.1012C98.3483 34.0898 97.6968 32.9216 97.4124 31.5987V37.225H94.9757V28.5839L90.1661 33.4145L85.3361 28.5839V37.2251H82.9412V31.5993C82.6548 32.9296 81.9969 34.0976 80.9632 35.1012C79.5608 36.5174 77.8607 37.2251 75.8616 37.2251C73.8631 37.2251 72.1623 36.5175 70.7605 35.1012C69.6173 33.9699 68.9365 32.6431 68.7161 31.1229C68.6252 31.6994 68.464 32.2553 68.2309 32.7901C67.8485 33.6646 67.3317 34.432 66.6794 35.0909C66.027 35.7503 65.2601 36.2708 64.3785 36.6523C63.4969 37.0348 62.5635 37.2251 61.5779 37.2251H57.0118V56.9881H110.988V33.1981C110.64 33.8869 110.17 34.5219 109.573 35.1012C108.17 36.5175 106.471 37.2251 104.472 37.2251ZM64.9822 33.394C65.4198 32.9494 65.7635 32.4363 66.013 31.853C66.2632 31.2697 66.388 30.6525 66.388 29.9996C66.388 29.3477 66.2632 28.7296 66.013 28.1468C65.7634 27.5635 65.4163 27.0503 64.9723 26.6057C64.5276 26.1615 64.014 25.8146 63.4311 25.5649C62.8484 25.3148 62.2302 25.1899 61.5778 25.1899H59.1626V34.8097H61.5778C62.2441 34.8097 62.8692 34.6849 63.452 34.4348C64.0349 34.1851 64.545 33.8381 64.9822 33.394ZM107.865 33.4145C108.809 32.4567 109.281 31.319 109.281 29.9997C109.281 28.6814 108.809 27.5501 107.865 26.6058C106.921 25.6619 105.791 25.19 104.472 25.19C103.153 25.19 102.014 25.6619 101.057 26.6058C100.127 27.5501 99.6623 28.6814 99.6623 29.9997C99.6623 31.3189 100.127 32.4567 101.057 33.4145C102.014 34.345 103.153 34.81 104.472 34.81C105.791 34.8099 106.921 34.345 107.865 33.4145ZM79.256 33.4145C80.1997 32.4567 80.6717 31.319 80.6717 29.9997C80.6717 28.6814 80.1998 27.5501 79.256 26.6058C78.3117 25.6619 77.1804 25.19 75.8615 25.19C74.5428 25.19 73.4045 25.6619 72.4467 26.6058C71.5168 27.5501 71.0519 28.6814 71.0519 29.9997C71.0519 31.3189 71.5168 32.4567 72.4467 33.4145C73.4045 34.345 74.5428 34.81 75.8615 34.81C77.1804 34.8099 78.3117 34.345 79.256 33.4145Z" fill="white"/>
</mask>
<g mask="url(#mask0)">
<path d="M57.0118 22.7747H61.5778C62.5634 22.7747 63.4938 22.9657 64.368 23.3472C65.2427 23.7291 66.0094 24.2498 66.6689 24.9091C67.3283 25.5687 67.8485 26.3355 68.2309 27.2095C68.4646 27.7457 68.6262 28.3025 68.7167 28.8804C68.9375 27.3681 69.6183 26.0404 70.7604 24.8987C72.1484 23.4824 73.8485 22.7747 75.8615 22.7747C77.8606 22.7747 79.5608 23.4824 80.9632 24.8987C81.9969 25.9225 82.6549 27.0957 82.9412 28.4173V22.7747L90.1661 29.9997L97.4125 22.7747V28.4094C97.6969 27.0912 98.3484 25.9201 99.3698 24.8987C100.758 23.4824 102.459 22.7747 104.472 22.7747C106.471 22.7747 108.17 23.4824 109.573 24.8986C110.17 25.4893 110.64 26.1314 110.988 26.8216V3.01172H57.0118V22.7747ZM104.472 37.2251C102.473 37.2251 100.772 36.5175 99.3697 35.1012C98.3483 34.0898 97.6968 32.9216 97.4124 31.5987V37.225H94.9757V28.5839L90.1661 33.4145L85.3361 28.5839V37.2251H82.9412V31.5993C82.6548 32.9296 81.9969 34.0976 80.9632 35.1012C79.5608 36.5174 77.8607 37.2251 75.8616 37.2251C73.8631 37.2251 72.1623 36.5175 70.7605 35.1012C69.6173 33.9699 68.9365 32.6431 68.7161 31.1229C68.6252 31.6994 68.464 32.2553 68.2309 32.7901C67.8485 33.6646 67.3317 34.432 66.6794 35.0909C66.027 35.7503 65.2601 36.2708 64.3785 36.6523C63.4969 37.0348 62.5635 37.2251 61.5779 37.2251H57.0118V56.9881H110.988V33.1981C110.64 33.8869 110.17 34.5219 109.573 35.1012C108.17 36.5175 106.471 37.2251 104.472 37.2251ZM64.9822 33.394C65.4198 32.9494 65.7635 32.4363 66.013 31.853C66.2632 31.2697 66.388 30.6525 66.388 29.9996C66.388 29.3477 66.2632 28.7296 66.013 28.1468C65.7634 27.5635 65.4163 27.0503 64.9723 26.6057C64.5276 26.1615 64.014 25.8146 63.4311 25.5649C62.8484 25.3148 62.2302 25.1899 61.5778 25.1899H59.1626V34.8097H61.5778C62.2441 34.8097 62.8692 34.6849 63.452 34.4348C64.0349 34.1851 64.545 33.8381 64.9822 33.394ZM107.865 33.4145C108.809 32.4567 109.281 31.319 109.281 29.9997C109.281 28.6814 108.809 27.5501 107.865 26.6058C106.921 25.6619 105.791 25.19 104.472 25.19C103.153 25.19 102.014 25.6619 101.057 26.6058C100.127 27.5501 99.6623 28.6814 99.6623 29.9997C99.6623 31.3189 100.127 32.4567 101.057 33.4145C102.014 34.345 103.153 34.81 104.472 34.81C105.791 34.8099 106.921 34.345 107.865 33.4145ZM79.256 33.4145C80.1997 32.4567 80.6717 31.319 80.6717 29.9997C80.6717 28.6814 80.1998 27.5501 79.256 26.6058C78.3117 25.6619 77.1804 25.19 75.8615 25.19C74.5428 25.19 73.4045 25.6619 72.4467 26.6058C71.5168 27.5501 71.0519 28.6814 71.0519 29.9997C71.0519 31.3189 71.5168 32.4567 72.4467 33.4145C73.4045 34.345 74.5428 34.81 75.8615 34.81C77.1804 34.8099 78.3117 34.345 79.256 33.4145Z" fill="#9BCBEA"/>
</g>
</svg>
