<svg width="168" height="60" viewBox="0 0 168 60" fill="none" xmlns="http://www.w3.org/2000/svg">
<path d="M53.8161 16.628C53.5261 17.7147 52.4348 18.3654 51.38 18.08C50.3253 17.7969 49.7043 16.6851 49.9942 15.6006C50.2842 14.5139 51.3755 13.8632 52.4303 14.1486C53.485 14.4294 54.106 15.5412 53.8161 16.628Z" fill="#ADD136"/>
<path d="M48.7454 16.9705C48.5056 17.8631 47.6107 18.3974 46.7408 18.1645C45.8733 17.9316 45.3618 17.0184 45.6016 16.1257C45.839 15.233 46.7363 14.6988 47.6061 14.9317C48.476 15.1646 48.9851 16.0778 48.7454 16.9705Z" fill="#ADD136"/>
<path d="M45.2249 19.3312C45.0285 20.0618 44.2956 20.5001 43.5833 20.3106C42.871 20.1189 42.4555 19.3723 42.6495 18.6394C42.8459 17.9066 43.581 17.4705 44.2911 17.66C45.0034 17.8518 45.4212 18.5983 45.2249 19.3312Z" fill="#ADD136"/>
<path d="M42.5217 25.1097C42.3596 25.717 41.7477 26.0823 41.1587 25.9225C40.5674 25.7626 40.2204 25.1416 40.3825 24.5343C40.5446 23.927 41.1564 23.5617 41.7455 23.7216C42.3368 23.8791 42.6838 24.5024 42.5217 25.1097Z" fill="#ADD136"/>
<path d="M43.0331 22.1394C42.855 22.8037 42.1884 23.201 41.5445 23.0275C40.8984 22.854 40.5194 22.1759 40.6975 21.5115C40.8756 20.8471 41.5423 20.4499 42.1884 20.6234C42.8299 20.7969 43.2089 21.475 43.0331 22.1394Z" fill="#ADD136"/>
<path d="M43.3893 27.653C43.2614 28.1279 42.7865 28.411 42.3254 28.2877C41.8642 28.1644 41.5925 27.6781 41.7203 27.2032C41.8459 26.7283 42.3231 26.4452 42.7843 26.5685C43.2432 26.6941 43.5148 27.1781 43.3893 27.653Z" fill="#ADD136"/>
<path d="M44.3116 29.5594C44.2112 29.9384 43.8276 30.1667 43.46 30.0685C43.0902 29.968 42.8733 29.5799 42.976 29.2009C43.0765 28.8197 43.46 28.5936 43.8276 28.6918C44.1975 28.7923 44.4144 29.1804 44.3116 29.5594Z" fill="#ADD136"/>
<path d="M45.6335 30.6119C45.5605 30.8858 45.2865 31.0479 45.0194 30.9771C44.7545 30.9064 44.597 30.6256 44.6701 30.3516C44.7431 30.0776 45.0171 29.9132 45.2842 29.9863C45.5513 30.0571 45.7066 30.3379 45.6335 30.6119Z" fill="#ADD136"/>
<path d="M43.1427 46.4975C42.8482 47.6002 41.7432 48.2577 40.6724 47.9701C39.6016 47.6824 38.9738 46.5568 39.266 45.4541C39.5605 44.3537 40.6656 43.6939 41.7363 43.9815C42.8071 44.2715 43.4372 45.397 43.1427 46.4975Z" fill="#F0C419"/>
<path d="M47.492 45.7669C47.2385 46.7167 46.2842 47.2852 45.3641 47.0363C44.4418 46.7875 43.9007 45.8172 44.1541 44.8697C44.4075 43.9199 45.3618 43.3537 46.2819 43.6003C47.2043 43.8469 47.7454 44.8172 47.492 45.7669Z" fill="#F0C419"/>
<path d="M50.8389 43.6551C50.6129 44.5021 49.7613 45.009 48.9394 44.7875C48.1152 44.566 47.6335 43.7008 47.8595 42.8537C48.0856 42.0067 48.9371 41.4999 49.7591 41.7213C50.581 41.9428 51.065 42.8081 50.8389 43.6551Z" fill="#F0C419"/>
<path d="M52.6837 40.7921C52.4987 41.4816 51.8093 41.8926 51.1403 41.7145C50.4714 41.5341 50.0787 40.831 50.2613 40.1438C50.4463 39.4543 51.1358 39.0433 51.8047 39.2214C52.4736 39.3995 52.8663 40.1049 52.6837 40.7921Z" fill="#F0C419"/>
<path d="M52.3595 37.7282C52.1997 38.3241 51.6015 38.6803 51.0239 38.525C50.444 38.3698 50.1038 37.7602 50.2636 37.1643C50.4234 36.5684 51.0216 36.2123 51.5992 36.3675C52.1791 36.5251 52.5193 37.1324 52.3595 37.7282Z" fill="#F0C419"/>
<path d="M51.2225 35.347C51.0947 35.8218 50.6198 36.1049 50.1586 35.9816C49.6974 35.8584 49.4257 35.3721 49.5536 34.8972C49.6814 34.4223 50.1563 34.1392 50.6175 34.2625C51.0787 34.3881 51.3504 34.8721 51.2225 35.347Z" fill="#F0C419"/>
<path d="M50.202 33.3995C50.1015 33.7785 49.718 34.0068 49.3504 33.9086C48.9805 33.8105 48.7636 33.42 48.8664 33.0411C48.9668 32.6621 49.3504 32.4338 49.718 32.5319C50.0878 32.6324 50.3047 33.0205 50.202 33.3995Z" fill="#F0C419"/>
<path d="M47.1152 31.3903C47.0422 31.6597 46.7705 31.8218 46.508 31.7533C46.2454 31.6826 46.0901 31.4063 46.1632 31.1346C46.2363 30.8629 46.5079 30.7031 46.7705 30.7716C47.0331 30.8424 47.1883 31.1187 47.1152 31.3903Z" fill="#F0C419"/>
<path d="M48.5924 32.3379C48.5056 32.662 48.1792 32.8561 47.8664 32.7716C47.5513 32.6872 47.3664 32.3561 47.4531 32.0319C47.5399 31.7077 47.8664 31.5137 48.1792 31.5981C48.4919 31.6826 48.6792 32.0137 48.5924 32.3379Z" fill="#F0C419"/>
<path d="M40.9852 29.8105C41.0423 30.2625 40.7295 30.6826 40.2866 30.7488C39.8436 30.8128 39.4395 30.4977 39.3825 30.0456C39.3254 29.5936 39.6382 29.1735 40.0811 29.1073C40.5217 29.0411 40.9258 29.3562 40.9852 29.8105Z" fill="#ED4D23"/>
<path d="M41.5331 15.418C41.6564 16.3883 40.9875 17.2855 40.04 17.4248C39.0925 17.5641 38.2272 16.8883 38.1039 15.9202C37.9807 14.9499 38.6496 14.0527 39.5971 13.9157C40.5446 13.7742 41.4121 14.4477 41.5331 15.418Z" fill="#ED4D23"/>
<path d="M37.9852 18.6668C38.0925 19.5092 37.5103 20.2901 36.6884 20.4088C35.8665 20.5298 35.1131 19.943 35.0058 19.1006C34.8985 18.2581 35.4807 17.4796 36.3026 17.3586C37.1268 17.2399 37.8802 17.8266 37.9852 18.6668Z" fill="#ED4D23"/>
<path d="M37.2409 26.2261C37.3345 26.9726 36.8209 27.6644 36.0926 27.7694C35.3643 27.8767 34.6953 27.3562 34.6017 26.6096C34.5081 25.863 35.0218 25.1713 35.7501 25.0663C36.4807 24.9612 37.1473 25.4795 37.2409 26.2261Z" fill="#ED4D23"/>
<path d="M39.3619 28.2786C39.4418 28.9178 39.0012 29.5114 38.3756 29.6028C37.7501 29.6941 37.1793 29.2489 37.0971 28.6096C37.0149 27.9704 37.4578 27.3768 38.0834 27.2854C38.709 27.1941 39.2797 27.6393 39.3619 28.2786Z" fill="#ED4D23"/>
<path d="M42.6884 30.5388C42.7272 30.8539 42.5103 31.1461 42.2021 31.1918C41.8939 31.2375 41.6108 31.0183 41.5719 30.7032C41.5331 30.3882 41.75 30.0959 42.0582 30.0503C42.3665 30.0046 42.6473 30.2238 42.6884 30.5388Z" fill="#ED4D23"/>
<path d="M44.1906 30.8287C44.218 31.0502 44.0673 31.2534 43.8504 31.2854C43.6358 31.3173 43.4372 31.1621 43.4098 30.9429C43.3824 30.7214 43.5331 30.5182 43.75 30.4863C43.9646 30.4543 44.1632 30.6073 44.1906 30.8287Z" fill="#ED4D23"/>
<path d="M46.0422 27.4156C45.7271 27.5685 45.355 27.4316 45.2089 27.1096C45.065 26.7877 45.202 26.4042 45.5194 26.2512C45.8344 26.0982 46.2066 26.2352 46.3527 26.5571C46.4965 26.879 46.3573 27.2626 46.0422 27.4156Z" fill="#1AA6DF"/>
<path d="M57.5124 25.379C56.6631 25.7877 55.6608 25.4201 55.2704 24.5548C54.8823 23.6895 55.2544 22.6553 56.1037 22.2466C56.953 21.8357 57.9553 22.2055 58.3457 23.0708C58.7338 23.9338 58.3617 24.9681 57.5124 25.379Z" fill="#1AA6DF"/>
<path d="M54.0855 22.9727C53.4074 23.2991 52.606 23.0046 52.2956 22.3151C51.9851 21.6257 52.2841 20.7992 52.9599 20.4727C53.638 20.1462 54.4394 20.4407 54.7499 21.1302C55.0604 21.8197 54.7613 22.6439 54.0855 22.9727Z" fill="#1AA6DF"/>
<path d="M50.6152 22.6439C50.033 22.9247 49.3435 22.6713 49.0764 22.0777C48.8093 21.4841 49.065 20.7741 49.6495 20.491C50.2316 20.2102 50.9211 20.4636 51.1883 21.0572C51.4554 21.6508 51.1997 22.3608 50.6152 22.6439Z" fill="#1AA6DF"/>
<path d="M47.9052 23.8288C47.3527 24.0959 46.6997 23.8562 46.4486 23.2923C46.1952 22.7284 46.4395 22.0572 46.9897 21.79C47.5422 21.5229 48.1951 21.7626 48.4463 22.3266C48.702 22.8882 48.4577 23.5617 47.9052 23.8288Z" fill="#1AA6DF"/>
<path d="M46.7933 25.8129C46.3481 26.0275 45.8207 25.8334 45.6175 25.3791C45.4144 24.9248 45.6084 24.3837 46.0536 24.1668C46.4988 23.9522 47.0262 24.1462 47.2294 24.6006C47.4349 25.0549 47.2385 25.5983 46.7933 25.8129Z" fill="#1AA6DF"/>
<path d="M45.8892 28.8858C45.6701 28.9908 45.4098 28.8972 45.3093 28.6735C45.2089 28.4497 45.3048 28.1826 45.5239 28.0753C45.7431 27.968 46.0034 28.0639 46.1038 28.2876C46.2066 28.5137 46.1107 28.7808 45.8892 28.8858Z" fill="#1AA6DF"/>
<path d="M46.0125 30.1004C45.8596 30.1735 45.6769 30.1073 45.6061 29.952C45.5354 29.7945 45.6039 29.6073 45.7568 29.5342C45.9098 29.4612 46.0924 29.5274 46.1632 29.6826C46.234 29.8402 46.1655 30.0274 46.0125 30.1004Z" fill="#1AA6DF"/>
<path d="M51.4485 32.0548C51.3915 31.6027 51.7042 31.1827 52.1472 31.1165C52.5901 31.0525 52.9942 31.3676 53.0513 31.8196C53.1083 32.2717 52.7955 32.6918 52.3526 32.758C51.9097 32.8219 51.5056 32.5068 51.4485 32.0548Z" fill="#C03A2B"/>
<path d="M49.8435 47.7943C49.6974 46.6345 50.4965 45.5615 51.6289 45.3948C52.7613 45.2304 53.7978 46.0364 53.9462 47.1939C54.0923 48.3537 53.2933 49.4267 52.1608 49.5934C51.0284 49.7601 49.9896 48.9541 49.8435 47.7943Z" fill="#C03A2B"/>
<path d="M37.5469 39.646C37.282 40.6346 36.2889 41.2282 35.3277 40.9702C34.3666 40.7122 33.8003 39.7008 34.0652 38.7099C34.33 37.7214 35.3232 37.1278 36.2843 37.3857C37.2455 37.646 37.8117 38.6574 37.5469 39.646Z" fill="#955BA5"/>
<path d="M45.5696 13.3929C45.2979 14.4134 44.2728 15.023 43.282 14.7582C42.2911 14.4911 41.7066 13.4477 41.9806 12.4272C42.2523 11.4066 43.2774 10.797 44.2683 11.0619C45.2591 11.329 45.8413 12.3724 45.5696 13.3929Z" fill="#ED4D23"/>
<path d="M36.8505 22.5458C36.951 23.338 36.4053 24.0709 35.6314 24.1827C34.8574 24.2969 34.1497 23.7467 34.0515 22.9544C33.951 22.1645 34.4967 21.4294 35.2706 21.3175C36.0423 21.2056 36.7501 21.7558 36.8505 22.5458Z" fill="#ED4D23"/>
<path d="M53.7636 43.9564C53.6403 42.9838 54.3115 42.082 55.2635 41.9428C56.2156 41.8035 57.0854 42.4816 57.2087 43.4542C57.332 44.429 56.6608 45.3286 55.7087 45.4678C54.7567 45.6094 53.8869 44.9313 53.7636 43.9564Z" fill="#C03A2B"/>
<path d="M55.5786 39.7899C55.4736 38.952 56.0512 38.1757 56.8685 38.057C57.6882 37.936 58.437 38.5205 58.542 39.3584C58.6471 40.1962 58.0694 40.9725 57.2521 41.0912C56.4348 41.2099 55.6859 40.6277 55.5786 39.7899Z" fill="#C03A2B"/>
<path d="M55.0056 35.7145C54.9051 34.92 55.453 34.1871 56.227 34.073C57.001 33.9588 57.711 34.5113 57.8115 35.3036C57.9119 36.0958 57.364 36.8309 56.59 36.9451C55.8161 37.057 55.106 36.5067 55.0056 35.7145Z" fill="#C03A2B"/>
<path d="M53.0695 33.5867C52.9873 32.9474 53.4302 32.3538 54.0558 32.2625C54.6814 32.1712 55.2521 32.6164 55.3343 33.2556C55.4142 33.8949 54.9736 34.4885 54.348 34.5798C53.7225 34.6711 53.1517 34.2259 53.0695 33.5867Z" fill="#C03A2B"/>
<path d="M49.7431 31.3241C49.7043 31.0091 49.9212 30.7168 50.2294 30.6712C50.5376 30.6255 50.8207 30.8447 50.8595 31.162C50.9006 31.4771 50.6814 31.7693 50.3732 31.815C50.0673 31.8607 49.7842 31.6415 49.7431 31.3241Z" fill="#C03A2B"/>
<path d="M48.2408 31.0365C48.2134 30.8173 48.3641 30.6119 48.581 30.5799C48.7956 30.5479 48.9942 30.7009 49.0216 30.9224C49.049 31.1415 48.8983 31.347 48.6814 31.379C48.4668 31.4109 48.2682 31.258 48.2408 31.0365Z" fill="#C03A2B"/>
<path d="M46.8961 34.9862C47.2111 34.8333 47.5833 34.9703 47.7294 35.2922C47.8732 35.6141 47.7363 35.9977 47.4189 36.1506C47.1038 36.3036 46.7317 36.1666 46.5856 35.8447C46.4417 35.5228 46.5787 35.1392 46.8961 34.9862Z" fill="#955BA5"/>
<path d="M38.8802 39.4542C39.5994 39.1072 40.4509 39.42 40.7797 40.1528C41.1085 40.8857 40.7934 41.7624 40.0742 42.1094C39.3551 42.4565 38.5035 42.1437 38.1747 41.4108C37.8437 40.6779 38.1587 39.8012 38.8802 39.4542Z" fill="#955BA5"/>
<path d="M42.4121 39.767C42.9669 39.4999 43.6244 39.7396 43.8778 40.3058C44.1313 40.872 43.887 41.5478 43.3322 41.8172C42.7774 42.0843 42.1199 41.8446 41.8665 41.2784C41.613 40.7122 41.8573 40.0364 42.4121 39.767Z" fill="#955BA5"/>
<path d="M45.0308 38.5729C45.5833 38.3058 46.2363 38.5455 46.4874 39.1095C46.7408 39.6711 46.4988 40.3446 45.9463 40.6117C45.3938 40.8788 44.7408 40.6391 44.4897 40.0752C44.2363 39.5113 44.4806 38.8401 45.0308 38.5729Z" fill="#955BA5"/>
<path d="M46.1449 36.5889C46.5901 36.3743 47.1175 36.5684 47.3207 37.0204C47.5239 37.4748 47.3299 38.0181 46.8847 38.2328C46.4395 38.4474 45.9121 38.2533 45.7089 37.799C45.5034 37.3469 45.6997 36.8035 46.1449 36.5889Z" fill="#955BA5"/>
<path d="M47.0468 33.5136C47.2659 33.4086 47.5262 33.5045 47.6267 33.7283C47.7271 33.952 47.6312 34.2191 47.4098 34.3264C47.1906 34.4314 46.9303 34.3378 46.8299 34.1118C46.7317 33.8881 46.8276 33.621 47.0468 33.5136Z" fill="#955BA5"/>
<path d="M46.9258 32.3013C47.0787 32.2283 47.2614 32.2945 47.3321 32.4497C47.4029 32.6073 47.3344 32.7945 47.1815 32.8675C47.0285 32.9406 46.8458 32.8744 46.7751 32.7191C46.7043 32.5616 46.7728 32.3767 46.9258 32.3013Z" fill="#955BA5"/>
<path d="M61.0032 36.1597C60.7954 36.0113 60.59 35.7168 60.59 35.3309C60.59 34.7967 61.0329 34.3538 61.5968 34.3538C61.8046 34.3538 62.01 34.4131 62.1584 34.5319C63.7269 35.5981 65.3547 36.1597 67.01 36.1597C68.8456 36.1597 70.1766 35.2122 70.1766 33.7351V33.6757C70.1766 32.1369 68.3707 31.5456 66.3593 30.984C63.9621 30.3036 61.3 29.4748 61.3 26.6644V26.605C61.3 23.9726 63.4895 22.2261 66.5077 22.2261C68.1355 22.2261 69.9095 22.7284 71.3889 23.5274C71.6857 23.7055 71.9506 24.0297 71.9506 24.4749C71.9506 25.0069 71.5076 25.4521 70.9437 25.4521C70.736 25.4521 70.5602 25.3927 70.4414 25.3333C69.1401 24.5936 67.7497 24.1507 66.4461 24.1507C64.6401 24.1507 63.4872 25.0982 63.4872 26.3699V26.4292C63.4872 27.879 65.3799 28.4406 67.4232 29.0616C69.7908 29.7716 72.3341 30.6894 72.3341 33.4405V33.4999C72.3341 36.3994 69.9369 38.0843 66.8913 38.0843C64.8799 38.082 62.6607 37.3423 61.0032 36.1597Z" fill="#231F20"/>
<path d="M76.7268 33.7328V24.5023H75.4848C74.9528 24.5023 74.4779 24.0297 74.4779 23.4955C74.4779 22.9339 74.9505 22.4887 75.4848 22.4887H76.7268V18.8814C76.7268 18.2604 77.1994 17.7285 77.85 17.7285C78.471 17.7285 79.003 18.2604 79.003 18.8814V22.491H82.9687C83.5303 22.491 84.0052 22.9635 84.0052 23.4978C84.0052 24.0594 83.5326 24.5046 82.9687 24.5046H79.003V33.4406C79.003 35.3036 80.0395 35.9839 81.5783 35.9839C82.3774 35.9839 82.7906 35.7762 82.9687 35.7762C83.5006 35.7762 83.9458 36.2191 83.9458 36.7533C83.9458 37.1666 83.6787 37.493 83.2952 37.6414C82.6445 37.9086 81.9345 38.0547 81.0463 38.0547C78.5897 38.0524 76.7268 36.8401 76.7268 33.7328Z" fill="#231F20"/>
<path d="M86.8499 23.4955C86.8499 22.8745 87.3522 22.3425 87.9732 22.3425C88.6239 22.3425 89.1261 22.8448 89.1261 23.4955V26.3653C90.2494 23.8197 92.4686 22.2831 94.3932 22.2831C95.0736 22.2831 95.5165 22.7854 95.5165 23.4361C95.5165 24.0571 95.1032 24.5023 94.5096 24.589C91.5508 24.9429 89.1239 27.1644 89.1239 31.5707V36.7784C89.1239 37.3994 88.6513 37.9313 88.0006 37.9313C87.3499 37.9313 86.8476 37.4291 86.8476 36.7784V23.4955" fill="#231F20"/>
<path d="M98.0005 17.6965C98.0005 16.9568 98.5918 16.4842 99.3315 16.4842C100.101 16.4842 100.692 16.9568 100.692 17.6965V18.0823C100.692 18.7924 100.101 19.2947 99.3315 19.2947C98.5918 19.2947 98.0005 18.7924 98.0005 18.0823V17.6965Z" fill="#ED4D23"/>
<path d="M98.2082 23.4955C98.2082 22.8745 98.7105 22.3425 99.3315 22.3425C99.9822 22.3425 100.484 22.8448 100.484 23.4955V36.7807C100.484 37.4314 100.012 37.9337 99.3612 37.9337C98.7105 37.9337 98.2082 37.4314 98.2082 36.7807V23.4955Z" fill="#231F20"/>
<path d="M104.854 17.6965C104.854 16.9568 105.446 16.4842 106.185 16.4842C106.955 16.4842 107.546 16.9568 107.546 17.6965V18.0823C107.546 18.7924 106.955 19.2947 106.185 19.2947C105.446 19.2947 104.854 18.7924 104.854 18.0823V17.6965Z" fill="#1AA6DF"/>
<path d="M105.06 23.4955C105.06 22.8745 105.562 22.3425 106.183 22.3425C106.834 22.3425 107.336 22.8448 107.336 23.4955V36.7807C107.336 37.4314 106.863 37.9337 106.213 37.9337C105.562 37.9337 105.06 37.4314 105.06 36.7807V23.4955Z" fill="#231F20"/>
<path d="M111.806 23.4955C111.806 22.8745 112.308 22.3425 112.929 22.3425C113.58 22.3425 114.082 22.8448 114.082 23.4955V25.0639C115.089 23.5548 116.45 22.1644 119.023 22.1644C121.507 22.1644 123.105 23.4955 123.934 25.2123C125.028 23.5251 126.655 22.1644 129.32 22.1644C132.84 22.1644 135 24.532 135 28.3196V36.7807C135 37.4314 134.498 37.9336 133.874 37.9336C133.224 37.9336 132.721 37.4314 132.721 36.7807V28.8516C132.721 25.8927 131.242 24.2352 128.756 24.2352C126.448 24.2352 124.555 25.9521 124.555 28.968V36.7784C124.555 37.4291 124.053 37.9314 123.402 37.9314C122.781 37.9314 122.276 37.4291 122.276 36.7784V28.7922C122.276 25.9224 120.767 24.2352 118.343 24.2352C115.916 24.2352 114.082 26.2466 114.082 29.057V36.7784C114.082 37.4291 113.61 37.9314 112.959 37.9314C112.308 37.9314 111.806 37.4291 111.806 36.7784V23.4955" fill="#231F20"/>
</svg>
