<svg width="168" height="60" viewBox="0 0 168 60" fill="none" xmlns="http://www.w3.org/2000/svg">
<path d="M24.6733 32.5928L35.833 38.84L36.2523 34.0882L33.1566 30.7899L28.5795 30.0352L24.6733 32.5928Z" fill="#FF4D00"/>
<path d="M26.553 11L35.833 38.84L45.113 29.56L26.553 11Z" fill="#FF7D00"/>
<path d="M25.0646 25.7446L24.6733 32.5928L38.9357 29.56L25.0646 25.7446Z" fill="#001AFF"/>
<path d="M8 29.56L17.9089 39.4689L19.7537 36.9952L19.4183 34.0253L14.8692 31.0764L8 29.56Z" fill="#E23400"/>
<path d="M25.5537 12.0063L8 29.56L19.4183 34.0253L25.5537 12.0063Z" fill="#FF4D00"/>
<path d="M19.4183 34.0253L17.9089 39.4689L26.553 48.12L34.687 39.993L19.4183 34.0253Z" fill="#FF7D00"/>
<path d="M57.4677 34.8499H55.7347V20.8041L57.4677 19.7978V34.8499Z" fill="#373737"/>
<path d="M135.16 22.3414H133.371V20.9648V20.4756H135.16V22.3414Z" fill="#373737"/>
<path d="M65.2243 24.0255C63.8337 24.0255 62.7296 24.6195 61.933 25.7865V24.2492H60.2349V34.8569H61.933V28.7983C61.933 26.9465 63.114 25.6537 64.7981 25.6537C66.4472 25.6537 67.4325 26.7858 67.4325 28.6795V34.8569H69.1306V28.2952C69.1306 27.0374 68.7742 25.9752 68.1034 25.2135C67.4186 24.4378 66.4193 24.0255 65.2243 24.0255Z" fill="#373737"/>
<path d="M82.6733 24.0255C81.2128 24.0255 79.8711 24.6125 78.8788 25.6747C77.9145 26.7089 77.3834 28.0925 77.3834 29.56V29.6019C77.3834 32.6836 79.6894 35.0945 82.6383 35.0945C84.0988 35.0945 85.4475 34.5075 86.4398 33.4453C87.4111 32.4041 87.9492 31.0275 87.9492 29.56V29.5181C87.9492 26.4364 85.6292 24.0255 82.6733 24.0255ZM86.2092 29.56V29.6019C86.2092 31.8171 84.6858 33.4872 82.6733 33.4872C80.6817 33.4872 79.1164 31.7612 79.1164 29.56V29.5181C79.1164 27.2889 80.6258 25.6118 82.6383 25.6118C84.6439 25.6118 86.2092 27.3448 86.2092 29.56Z" fill="#373737"/>
<path d="M91.7087 26.5761V24.2491H90.0106V34.8568H91.7087V30.6082C91.7087 27.785 93.2111 25.8843 95.5311 25.8843H95.7547V24.0675L95.6499 24.0605C94.0147 23.9976 92.5682 24.927 91.7087 26.5761Z" fill="#373737"/>
<path d="M108.878 24.0255C107.411 24.0255 106.272 24.6684 105.398 25.9822C104.748 24.7173 103.616 24.0255 102.198 24.0255C100.604 24.0255 99.7029 24.8851 99.1019 25.7446V24.2492H97.4039V34.8569H99.1019V28.8193C99.1019 26.9884 100.22 25.6537 101.757 25.6537C103.288 25.6537 104.203 26.7718 104.203 28.6376V34.8569H105.901V28.7634C105.901 27.82 106.167 27.0234 106.677 26.4643C107.145 25.9472 107.802 25.6607 108.522 25.6607C110.087 25.6607 110.981 26.7648 110.981 28.6865V34.8639H112.68V28.3231C112.673 25.6677 111.219 24.0255 108.878 24.0255Z" fill="#373737"/>
<path d="M131.316 25.8285V24.2422H128.13V20.5526L126.432 21.5448V24.2492H124.58V25.8354H126.425V31.9918C126.425 34.6403 128.249 35.0316 129.339 35.0316C130.024 35.0316 130.604 34.8848 131.177 34.5774L131.233 34.5494V32.9841L131.072 33.061C130.576 33.3126 130.177 33.4104 129.681 33.4104C128.633 33.4104 128.123 32.8793 128.123 31.7892V25.8285H131.316Z" fill="#373737"/>
<path d="M145.404 31.9778C144.503 32.9911 143.531 33.4872 142.455 33.4872C140.471 33.4872 138.919 31.7612 138.919 29.56V29.5181C138.919 27.3239 140.429 25.6118 142.364 25.6118C143.713 25.6118 144.573 26.3455 145.299 27.1422L145.383 27.233L146.508 25.9822L146.445 25.9123C145.656 25.0318 144.482 24.0255 142.392 24.0255C140.974 24.0255 139.66 24.6125 138.682 25.6747C137.724 26.7159 137.193 28.0995 137.193 29.56V29.6019C137.193 31.0554 137.724 32.4251 138.682 33.4593C139.66 34.5145 140.974 35.0945 142.392 35.0945C144.503 35.0945 145.712 33.9973 146.529 33.047L146.599 32.9701L145.502 31.894L145.404 31.9778Z" fill="#373737"/>
<path d="M119.129 24.0255C117.522 24.0255 116.376 24.4658 115.475 24.899L115.384 24.941L115.901 26.4154L116.013 26.3595C116.83 25.9682 117.753 25.6048 118.983 25.6048C120.807 25.6048 121.848 26.4434 121.848 28.3721H118.885C116.118 28.3721 114.531 29.581 114.531 31.6843V31.7263C114.531 33.9205 116.453 35.0735 118.347 35.0735C120.087 35.0735 121.198 34.2629 121.848 33.4942V34.8569H123.469V28.4C123.469 27.0653 123.12 25.9402 122.421 25.2135C121.666 24.4239 120.562 24.0255 119.129 24.0255ZM121.841 29.7417V30.9227C121.841 32.467 120.457 33.627 118.626 33.627C116.984 33.627 116.243 32.6137 116.243 31.6704V31.6284C116.243 30.7689 116.726 29.7417 119.032 29.7417H121.841V29.7417Z" fill="#373737"/>
<path d="M73.9383 23.2569C73.9383 21.7335 74.3296 21.1605 75.5385 21.1605C76.0067 21.1605 76.3771 21.2443 76.9431 21.419L77.0479 21.447V19.8747L77.013 19.8607C76.5099 19.6721 76.0207 19.5952 75.3429 19.5952C74.4205 19.5952 73.6588 19.8817 73.1347 20.4337C72.5477 21.0487 72.2402 21.9921 72.2402 23.18V24.2492H70.3954V25.8354H72.2402V34.8569H73.9383V25.8284H77.1248V24.2422H73.9383V23.2569V23.2569Z" fill="#373737"/>
<path d="M135.111 34.8499H133.413V25.3742V24.2491H135.111V34.8499Z" fill="#373737"/>
<path d="M152.224 24.0255C150.617 24.0255 149.471 24.4658 148.57 24.899L148.479 24.941L148.996 26.4154L149.108 26.3595C149.925 25.9682 150.848 25.6048 152.078 25.6048C153.901 25.6048 154.943 26.4434 154.943 28.3721H151.98C149.213 28.3721 147.626 29.581 147.626 31.6843V31.7263C147.626 33.9205 149.548 35.0735 151.442 35.0735C153.182 35.0735 154.293 34.2629 154.943 33.4942V34.8569H156.564V28.4C156.564 27.0653 156.214 25.9402 155.516 25.2135C154.761 24.4239 153.657 24.0255 152.224 24.0255ZM154.943 29.7417V30.9227C154.943 32.467 153.559 33.627 151.728 33.627C150.086 33.627 149.338 32.6137 149.338 31.6704V31.6284C149.338 30.7689 149.82 29.7417 152.126 29.7417H154.943V29.7417Z" fill="#373737"/>
<path d="M157.186 25.1925C157.186 25.0038 157.228 24.8291 157.319 24.6754C157.402 24.5147 157.528 24.3889 157.675 24.2981C157.829 24.2072 157.996 24.1583 158.171 24.1583C158.346 24.1583 158.513 24.2072 158.667 24.2981C158.821 24.3889 158.94 24.5147 159.024 24.6754C159.107 24.8361 159.156 25.0108 159.156 25.1925C159.156 25.3742 159.114 25.5419 159.031 25.7026C158.947 25.8634 158.828 25.9891 158.674 26.087C158.52 26.1848 158.353 26.2337 158.171 26.2337C157.989 26.2337 157.822 26.1848 157.668 26.087C157.514 25.9891 157.395 25.8634 157.312 25.7026C157.228 25.5489 157.186 25.3742 157.186 25.1925ZM157.346 25.1925C157.346 25.3532 157.381 25.5 157.458 25.6328C157.535 25.7655 157.633 25.8773 157.759 25.9542C157.885 26.0311 158.024 26.066 158.171 26.066C158.318 26.066 158.458 26.0241 158.583 25.9472C158.709 25.8703 158.814 25.7655 158.884 25.6258C158.954 25.493 158.996 25.3462 158.996 25.1855C158.996 25.0248 158.961 24.885 158.884 24.7453C158.814 24.6125 158.709 24.5077 158.583 24.4308C158.458 24.354 158.318 24.312 158.171 24.312C158.024 24.312 157.885 24.347 157.759 24.4238C157.633 24.5007 157.528 24.6055 157.458 24.7383C157.381 24.885 157.346 25.0318 157.346 25.1925ZM157.961 25.2973V25.7655H157.766V24.5846H158.15C158.29 24.5846 158.402 24.6125 158.479 24.6754C158.555 24.7383 158.597 24.8222 158.597 24.9409C158.597 25.0528 158.541 25.1436 158.423 25.1995C158.534 25.2484 158.59 25.3393 158.59 25.479V25.5629C158.59 25.6397 158.597 25.7026 158.611 25.7376V25.7585H158.409C158.395 25.7236 158.388 25.6677 158.388 25.5769C158.388 25.486 158.388 25.4441 158.381 25.4231C158.367 25.3323 158.304 25.2903 158.199 25.2834H157.961V25.2973ZM157.961 25.1156H158.178C158.248 25.1156 158.297 25.0947 158.339 25.0667C158.381 25.0388 158.402 24.9968 158.402 24.9479C158.402 24.8781 158.381 24.8361 158.346 24.8082C158.311 24.7802 158.248 24.7662 158.15 24.7662H157.961V25.1156V25.1156Z" fill="#373737"/>
</svg>
