<svg id="Layer_1" data-name="Layer 1" xmlns="http://www.w3.org/2000/svg" viewBox="0 0 600 169.97"><path d="M264.12,80.9a22.93,22.93,0,0,0,10.72-19.75c0-14.93-13.25-24.44-31.43-24.44H207.17v97h39.61c18.55,0,31.43-11.2,31.43-28.54C278.09,94.27,272.79,85.72,264.12,80.9Zm-41.9-30.46h21.19c10,0,16.5,4.69,16.5,13.24s-6.5,13.25-16.5,13.25H222.22ZM246.66,120H222.22V90.66h24.44c10,0,16.5,5,16.5,14.69S256.66,120,246.66,120Z" style="fill:#1c202a"/><rect x="284.23" y="61.15" width="14.45" height="72.49" style="fill:#1c202a"/><path d="M291.46,36.71A8.31,8.31,0,1,0,299.77,45,8.32,8.32,0,0,0,291.46,36.71Z" style="fill:#1c202a"/><path d="M365.75,68.26h-.12c-5.78-5.54-13.73-8.55-23.24-8.55-22,0-37.69,14.69-37.69,35.16S320.35,130,342.39,130c9.39,0,17.34-3,23.24-8.67v.6c0,14.81-9,24.45-22.88,24.45-11,0-20.71-5.9-22-17.22H305.91c1.56,18.78,17.34,30.46,36.84,30.46,22.64,0,37.45-15.53,37.45-37.69V61.15H365.75Zm-23.24,48.52c-13.73,0-23.24-8.67-23.24-21.91,0-13,9.39-22,23.24-22s23.24,9,23.24,22C365.63,108.11,356.36,116.78,342.51,116.78Z" style="fill:#1c202a"/><path d="M423.91,59.71c-22,0-37.69,15.65-37.69,37.69s15.65,37.69,37.69,37.69c15.65,0,29.26-7.71,33.71-20.59h-16c-4.1,5.66-10.48,7.82-17.7,7.82-12,0-20.71-7.58-22.76-19.38h60a38.31,38.31,0,0,0,.49-5.54C461.6,75.36,445.94,59.71,423.91,59.71Zm-22.4,30.82c2.41-11,10.84-18.06,22.52-18.06s20.11,7.11,22.52,18.06Z" style="fill:#1c202a"/><polygon points="513.62 61.15 492.9 114.86 472.19 61.15 456.66 61.15 485.2 133.28 475.32 158.21 490.74 158.21 529.15 61.15 513.62 61.15" style="fill:#1c202a"/><path d="M599.71,97.4c0-22-15.65-37.69-37.69-37.69S524.33,75.36,524.33,97.4,540,135.09,562,135.09c15.66,0,29.26-7.71,33.72-20.59H579.6c-4.09,5.66-10.47,7.82-17.7,7.82-12,0-20.71-7.58-22.76-19.38h60A29.07,29.07,0,0,0,599.71,97.4ZM539.5,90.53c2.41-11,10.84-18.06,22.52-18.06s20.11,7.11,22.52,18.06Z" style="fill:#1c202a"/><rect x="57.02" y="44.66" width="50.69" height="14.57" style="fill:#1c202a"/><rect x="57.02" y="111" width="50.69" height="14.57" style="fill:#1c202a"/><rect x="107.35" y="59.71" width="14.57" height="50.69" style="fill:#1c202a"/><rect x="41.72" y="59.71" width="14.57" height="50.69" style="fill:#1c202a"/><rect x="117.57" y="-5.91" width="14.57" height="95.85" transform="translate(6.86 100.59) rotate(-45)" style="fill:#1c202a"/><rect x="31.52" y="80.25" width="14.57" height="95.85" transform="translate(-79.27 64.98) rotate(-45)" style="fill:#1c202a"/><rect x="76.99" y="120.83" width="95.85" height="14.57" transform="translate(-54.01 125.85) rotate(-45)" style="fill:#1c202a"/><rect x="-9.18" y="34.78" width="95.85" height="14.57" transform="translate(-18.39 39.72) rotate(-45)" style="fill:#1c202a"/></svg>