<svg width="1200" height="424" viewBox="0 0 1200 424" fill="none" xmlns="http://www.w3.org/2000/svg">
<path fill-rule="evenodd" clip-rule="evenodd" d="M672.888 185.361H652.923C648.712 197.591 641.153 208.381 631.116 216.493C619.295 226.528 606.07 234.764 591.864 240.936C595.052 232.275 597.359 223.313 598.75 214.186L609.079 136.248H589.568L567.074 297.66H586.354L592.322 257.535C601.8 253.726 611.071 249.416 620.096 244.623L642.821 297.658H663.711L641.671 248.314C639.701 243.884 637.48 239.572 635.018 235.398C652.851 223.436 666.183 205.821 672.888 185.361ZM484.812 241.16L516.03 254.995C516.641 255.305 517.482 255.688 518.555 256.151C521.071 257.195 523.525 258.388 525.901 259.724C527.438 260.744 528.699 262.13 529.572 263.76C530.685 265.883 531.011 268.335 530.49 270.677C529.821 275.614 526.308 279.685 521.539 281.051C512.06 283.239 502.337 284.169 492.618 283.817C477.927 283.823 465.991 283.439 456.809 282.666L454.514 296.963C456.964 297.27 460.37 297.692 464.73 298.229C469.089 298.766 472.264 299.112 474.255 299.27C476.246 299.42 479.269 299.611 483.322 299.843C487.376 300.076 492.005 300.192 497.21 300.192C504.095 300.189 509.794 300.034 514.309 299.729C518.872 299.41 523.402 298.717 527.852 297.655C531.721 296.862 535.391 295.293 538.641 293.041C541.489 290.85 543.869 288.106 545.641 284.973C547.776 281.134 549.105 276.895 549.545 272.52C550.955 265.935 549.717 259.056 546.1 253.384C540.952 247.675 534.49 243.321 527.279 240.701L496.061 226.864C491.894 225.185 488.02 222.85 484.584 219.946C482.428 217.309 481.66 213.794 482.518 210.493C482.466 206.208 485.076 202.345 489.058 200.81C496.177 199.238 503.471 198.616 510.751 198.962C521.311 199.121 536.001 199.506 554.822 200.117L557.347 186.05C541.744 183.963 526.032 182.808 510.292 182.592C495.143 182.283 483.895 184.012 476.55 187.779C469.204 191.547 464.843 198.656 463.466 209.108C462.256 215.74 463.611 222.585 467.254 228.248C471.94 233.959 477.977 238.398 484.812 241.16ZM776.762 185.361H796.962C790.117 218.028 778.678 249.55 762.99 278.979C751.206 300.957 739.691 316.79 728.444 326.479C717.097 336.211 703.333 342.667 688.62 345.156L684.948 331.089C693.928 329.087 702.454 325.411 710.084 320.251C718.586 314.066 725.929 306.416 731.772 297.656H721.673C718.588 297.753 715.573 296.729 713.18 294.771C710.878 292.843 709.266 290.213 708.589 287.281L687.01 185.361H707.438L725.113 277.825C725.493 280.432 727.776 282.327 730.397 282.21H741.415C741.699 281.635 742.087 280.854 742.578 279.865C742.878 279.263 743.216 278.583 743.593 277.825C744.589 275.832 745.391 274.29 746.004 273.215C760.196 245.476 770.545 215.917 776.762 185.361ZM918.662 185.361H898.462C895.151 205.076 889.368 224.291 881.249 242.546C876.739 254.142 870.965 265.201 864.031 275.52C862.548 277.665 860.63 279.472 858.404 280.821C856.214 281.835 853.814 282.31 851.404 282.207H847.733L830.748 185.361H810.315L832.123 292.35C832.497 295.568 835.337 297.913 838.552 297.658H855.766C860.181 297.875 864.574 296.92 868.505 294.888C872.169 292.544 875.33 289.487 877.801 285.898C885.525 274.861 892.066 263.034 897.316 250.616C906.803 229.721 913.962 207.836 918.662 185.361ZM944.844 297.656H925.566L941.172 185.361H960.454L944.844 297.656ZM961.605 137.629H952.423H952.422C950.821 137.489 949.235 138.035 948.055 139.133C946.876 140.23 946.212 141.777 946.228 143.392L944.393 156.304C943.93 160.609 945.844 162.762 950.132 162.762H959.08C960.669 162.91 962.249 162.404 963.461 161.361C964.672 160.318 965.411 158.826 965.509 157.226L967.116 144.087C967.474 142.471 967.096 140.779 966.084 139.472C964.96 138.188 963.303 137.506 961.605 137.629ZM1073.62 297.656H1058.24L1059.61 275.057C1045.23 291.972 1028.63 300.426 1009.8 300.422C996.337 300.422 987.309 295.925 982.719 286.932C978.128 277.939 977.44 262.375 980.654 240.239C981.835 229.897 984.183 219.723 987.654 209.915C989.972 203.121 994.054 197.072 999.478 192.393C1004.03 188.643 1009.36 185.963 1015.08 184.55C1022.11 183.097 1029.27 182.441 1036.44 182.592C1054.08 182.689 1071.68 184.464 1089 187.895L1073.62 297.656ZM1067.65 199.656L1059.39 258.224C1042.25 274.981 1027.02 283.359 1013.71 283.359C1005.9 283.36 1001.12 280.669 999.364 275.286C997.603 269.908 997.871 258.763 1000.17 241.854C1002.92 223.253 1006.78 211.454 1011.76 206.458C1016.73 201.461 1026.94 198.963 1042.4 198.963C1048.22 198.966 1056.64 199.197 1067.65 199.656ZM225.885 115.423C195.279 119.607 172.265 145.558 171.616 176.58C138.148 176.58 111.012 205.239 111.012 240.589C110.399 272.04 132.983 299.12 163.914 304.022L352.54 190.454C342.471 168.04 318.499 155.396 294.415 159.798C285.57 130.07 256.49 111.24 225.885 115.423ZM275.527 304.613L288.791 288.255H274.258L258.214 304.616H184.579L353.504 194.283L366.497 211.935L336.18 304.615H275.54L275.527 304.613ZM357.839 304.483V304.618H349.177L370.247 214.45C390.97 221.752 403.701 242.711 400.69 264.563C397.678 286.415 379.757 303.111 357.839 304.483ZM297.856 264.277L310.702 251.183L319.652 251.186L309.039 264.277H297.856ZM337.509 223.931L327.977 233.648H334.676L342.55 223.932H337.509L337.509 223.931Z" fill="#277DFF"/>
</svg>
