<svg width="925" height="259" viewBox="0 0 925 259" fill="none" xmlns="http://www.w3.org/2000/svg">
<path d="M317.078 119.431C317.078 115.696 314.046 112.664 310.311 112.664C306.576 112.664 303.547 115.696 303.547 119.431" stroke="#0F172A" stroke-width="13.614" stroke-miterlimit="10"/>
<path d="M99.1977 197.892C99.1977 205.78 92.8066 212.182 84.9114 212.182C77.016 212.182 70.6077 204.771 70.6077 196.874L70.6251 197.892L70.6424 80.9202C70.6424 51.4968 94.4849 27.6484 123.901 27.6484C153.317 27.6484 177.16 51.4968 177.16 80.9202C177.16 110.344 153.317 134.192 123.901 134.192L56.3038 134.114C39.861 134.114 26.5312 120.78 26.5312 104.334" stroke="#0F172A" stroke-width="22.1968" stroke-miterlimit="10"/>
<path d="M124.526 137.884V219.787C124.526 226.171 129.699 231.346 136.082 231.346H153.255C159.637 231.346 164.811 226.171 164.811 219.787V193.408C164.811 168.455 185.036 148.225 209.983 148.225C234.93 148.225 255.155 168.455 255.155 193.408V219.787C255.155 226.171 260.328 231.346 266.711 231.346H283.884C290.266 231.346 295.44 226.171 295.44 219.787V124.081C295.44 76.8711 257.181 38.5938 209.974 38.5938C162.689 38.5938 124.395 76.9928 124.508 124.29L124.543 137.884H124.526Z" stroke="#0F172A" stroke-width="22.1968" stroke-miterlimit="10"/>
<path d="M369.102 205.812V117.715C369.102 78.1293 391.964 53.1875 433.8 53.1875C476.092 53.1875 499.18 78.1293 499.18 117.715V205.812H475.864V158.446H391.735V205.812H369.102ZM391.735 136.937H475.864V117.715C475.864 90.7145 461.688 74.6969 433.8 74.6969C405.908 74.6969 391.735 90.7145 391.735 117.715V136.937Z" fill="#0F172A"/>
<path d="M513.352 205.812V132.887C513.352 97.9685 533.921 81.2266 564.296 81.2266C594.431 81.2266 615 97.9685 615 133.127V134.322H592.517V132.887C592.517 111.123 581.038 102.273 564.296 102.273C547.314 102.273 536.075 111.123 536.075 132.887V205.812H513.352Z" fill="#0F172A"/>
<path d="M676.521 205.812C648.297 205.812 629.164 190.027 629.164 157.978L629.205 81.2266L651.887 81.2269V113.328H715.49V134.136H651.887V157.978C651.887 176.634 661.692 184.765 676.521 184.765C691.35 184.765 701.395 176.873 701.395 157.978V155.347H723.875V157.978C723.875 190.027 704.742 205.812 676.521 205.812Z" fill="#0F172A"/>
<path d="M738.062 205.811V113.211H760.786V205.811H738.062Z" fill="#0F172A"/>
<path d="M749.379 103.86C755.647 103.86 760.727 98.7795 760.727 92.5121C760.727 86.2448 755.647 81.1641 749.379 81.1641C743.112 81.1641 738.031 86.2448 738.031 92.5121C738.031 98.7795 743.112 103.86 749.379 103.86Z" fill="#0F172A"/>
<path d="M836.938 205.812C800.579 205.812 774.945 180.176 774.945 145.217C774.945 110.259 800.675 81.2266 837.03 81.2266C873.388 81.2266 898.465 110.259 898.465 145.217V153.374H798.25C801.513 173.883 816.894 185.303 836.938 185.303C851.853 185.303 862.34 180.642 869.099 170.62H893.568C884.714 192.062 863.74 205.812 836.938 205.812ZM798.949 133.565H875.158C870.729 115.153 855.539 103.629 836.894 103.629C817.784 103.629 803.378 115.386 798.949 133.565Z" fill="#0F172A"/>
</svg>
