<?xml version="1.0" encoding="utf-8"?>
<!-- Generator: Adobe Illustrator 26.3.1, SVG Export Plug-In . SVG Version: 6.00 Build 0)  -->
<svg version="1.1" id="Layer_1" xmlns="http://www.w3.org/2000/svg" xmlns:xlink="http://www.w3.org/1999/xlink" x="0px" y="0px"
	 viewBox="0 0 1073 463" style="enable-background:new 0 0 1073 463;" xml:space="preserve">
<style type="text/css">
	.st0{fill:#1F1C3B;}
	.st1{fill:#F03352;}
</style>
<path class="st0" d="M344.2,225.8l43,0.5c-6.8-23.4-15.1-48.3-20.4-63.4h-0.4C360.9,177.3,351.3,203.2,344.2,225.8 M308,264.3
	c11.5-0.2,13.9-4.4,17.1-15.3c10.1-33.1,30.1-86.8,38.3-105.1l15.9,0.2c7.8,18.5,25.7,72.7,34.8,106c3,11,4.7,15.2,16.8,15.7
	l-0.1,6.2l-47.8-0.6l0.1-6.2c11.7-0.2,13.9-1.5,11.3-12.5c-1.2-5.1-3-11.7-4.5-17.2l-48.5-0.6l-2.1,7.5c-5,17.8-3.2,21.9,10.3,22.4
	l-0.1,6.2l-41.6-0.5L308,264.3z"/>
<path class="st0" d="M467.6,228.6c-13.8-4.9-23.7-12.5-23.6-26.9c0.2-13.3,10.5-27.2,33.3-27c14.8,0.2,30.2,7.1,30.1,18.8
	c-0.1,6.7-4.9,9.2-10.3,9.5c-1.7-13.7-10.5-20-20.2-20.1c-9.9-0.1-17,5.6-17.1,14.2c-0.1,7.7,5.5,12.5,17.9,16.8l9.1,3.2
	c14.2,4.9,23,13.2,22.8,26.4c-0.2,17.9-14.2,28.8-37.4,28.5c-14.8-0.2-32.4-6.8-32.2-19.2c0.1-7.3,5.2-10.3,11.1-10.3
	c1.5,13.1,11.4,21.1,21.6,21.2c12.8,0.2,21.2-5,21.3-15.2c0.1-7.7-5.5-12.7-17.3-16.8L467.6,228.6z"/>
<path class="st0" d="M533.7,185.3l-14-0.2l0.1-8l14,0.2l0.3-22.4c1.8-0.9,8.6-3.5,17.7-4.3l-0.3,27l24.1,0.3l-0.1,8l-24.1-0.3
	l-0.7,55.4c-0.2,15.3,4.5,22.1,14.9,22.3c3.3,0,6.9-0.8,10.8-2.2l-0.1,7.7c-4.6,1.9-10.4,3.5-18.8,3.4c-15.9-0.2-24.7-8.3-24.4-33.1
	L533.7,185.3z"/>
<path class="st0" d="M587.4,265.8c12.2-0.4,14.1-2.7,14.2-11l0.7-59.1c0.1-8.2-2.2-10.2-13.9-11.1l0.1-6.2l29.2,0.4
	c0.9,3.5,0.9,12.6,0.9,16.1c3-8.2,11.3-17.9,23.9-17.8c10.9,0.1,19.1,6.8,18.9,16.8c-0.1,6.4-5.4,10.9-12.2,11.3
	c-1.3-9.3-5.3-16.1-12.9-16.2c-9.3-0.1-16.4,9.8-16.6,31.9l-0.4,34.1c-0.1,8.2,2.2,10.6,14.5,11.3l-0.1,5.7l-46.3-0.6L587.4,265.8z"
	/>
<path class="st0" d="M726,218.6c-1.8,1.4-5.5,3.4-9.9,4.6l-12.4,3.5c-13.2,3.7-17.1,10.9-17.2,18.2c-0.1,10.4,6.9,17.2,16,17.3
	c11.7,0.1,23.1-7.2,23.3-24.5L726,218.6z M674.8,194.8c0.1-10.8,14.1-19.7,34.3-19.5c24.1,0.3,34.9,11.9,34.6,38.5l-0.5,39.6
	c-0.1,8.2,1.3,10.4,13.2,10.7l-0.1,5.5c-4,1-9,1.7-15.5,1.6c-8.9-0.1-13.8-5.5-14-14.8c-7.1,10.7-16.1,15.7-30.8,15.5
	c-15.9-0.2-27.6-10.5-27.4-25c0.2-12.6,6.6-21.6,29.3-27l15.5-3.6c9.3-2.3,12.7-5.7,12.8-15c0.1-9.7-6-17.8-18-17.9
	c-14.2-0.2-19.3,9.4-21.1,21.4C680.3,204.7,674.7,202.1,674.8,194.8"/>
<path class="st0" d="M771.4,185.3l-14-0.2l0.1-8l14,0.2l0.3-22.4c1.8-0.9,8.6-3.5,17.7-4.3l-0.3,27l24.1,0.3l-0.1,8l-24.1-0.3
	l-0.7,55.4c-0.2,15.3,4.5,22.1,14.9,22.3c3.3,0,6.9-0.8,10.8-2.2l-0.1,7.7c-4.6,1.9-10.4,3.5-18.8,3.4c-15.9-0.2-24.7-8.3-24.4-33.1
	L771.4,185.3z"/>
<path class="st0" d="M864,182.9c-17.1-0.2-24.3,17.9-24.6,40.2c-0.3,22.3,6.4,40.6,23.6,40.8c17.1,0.2,24.3-17.9,24.6-40.2
	C887.9,201.4,881.2,183.1,864,182.9 M862.9,272c-26.6-0.3-42.4-19.7-42.1-49.2c0.4-29.5,16.6-48.5,43.3-48.2
	c26.6,0.3,42.4,19.7,42.1,49.2C905.9,253.4,889.6,272.4,862.9,272"/>
<path class="st0" d="M893.9,337.1c-3.7,0-6.6-2.1-6.6-5v-9.9c0-2.9,2.9-5,6.6-5c4.3,0,7.1,3.1,7.1,7.6v4.6
	C901.1,334,898.3,337.1,893.9,337.1 M882.5,340.7h4.9v-4.4h0.2c1.3,3.3,4.1,5.1,7.8,5.1c6.8,0,10.9-5.4,10.9-14.2
	s-4.1-14.2-10.9-14.2c-3.7,0-6.5,1.7-7.8,5.1h-0.2v-16h-4.9V340.7z M870.1,340.7h4.9v-27.1h-4.9V340.7z M872.6,308
	c2,0,2.9-1.1,2.9-2.7v-0.7c0-1.6-0.9-2.7-2.9-2.7s-2.9,1.1-2.9,2.7v0.7C869.6,306.9,870.5,308,872.6,308 M865.2,340.7v-4.1h-3.9V302
	h-4.9v33.7c0,3,1.7,5,5.1,5H865.2z M851.4,340.7v-4.1h-15.7l15.3-19.2v-3.7h-20.3v4.1h14.5l-15,18.9v4L851.4,340.7L851.4,340.7z
	 M820.4,340.7h4.9v-27.1h-4.9V340.7z M822.8,308c2,0,2.9-1.1,2.9-2.7v-0.7c0-1.6-0.9-2.7-2.9-2.7s-2.9,1.1-2.9,2.7v0.7
	C819.9,306.9,820.8,308,822.8,308 M806.3,340.7l9.4-27.1H811l-4.5,13l-2.9,9.4h-0.3l-2.8-9.4l-4.4-13h-4.9l9.4,27.1H806.3z
	 M766.6,330.9L765,336h-0.3l-1.4-5.1l-6-17.3h-4.9l10,28.2l-1.8,5.2h-4.4v4.1h2.7c4.1,0,5.4-1.1,6.7-4.5l11.8-33h-4.7L766.6,330.9z
	 M738,337.1c-3.7,0-6.6-2.1-6.6-5v-9.9c0-2.9,2.9-5,6.6-5c4.3,0,7.1,3.1,7.1,7.6v4.6C745.1,334,742.3,337.1,738,337.1 M726.6,340.7
	h4.9v-4.4h0.2c1.3,3.3,4.1,5.1,7.8,5.1c6.8,0,10.9-5.4,10.9-14.2s-4.1-14.2-10.9-14.2c-3.7,0-6.5,1.7-7.8,5.1h-0.2v-16h-4.9V340.7z"
	/>
<path class="st1" d="M287.5,333.7l-15.3-41.9l0,0l-60.3-165.2c-0.8-2.2-2.9-3.7-5.2-3.7c-2.4,0-4.5,1.4-5.3,3.5l-39.7,97.9
	l-28.5-24.6c-1.7-1.5-4.2-1.8-6.2-0.8s-3.3,3.1-3.1,5.4l5.9,100.3c0.1,2.1,1.4,3.9,3.3,4.8s4.1,0.6,5.8-0.6l55-41.9l84.8,73
	c1.1,0.9,2.4,1.4,3.7,1.4c1.1,0,2.2-0.3,3.2-1C287.5,338.8,288.4,336.1,287.5,333.7z M157.2,235.4L139.5,279l-3.6-61.9L157.2,235.4z
	 M148.3,287.3l17.9-44.1l18.8,16.2L148.3,287.3z M170.7,232.1l35.6-87.9l28.2,77.3l-40.4,30.7L170.7,232.1z M202.9,259.9l35.7-27.2
	l23,62.9l0,0l7.9,21.6L202.9,259.9z"/>
</svg>
