<svg width="168" height="60" viewBox="0 0 168 60" fill="none" xmlns="http://www.w3.org/2000/svg">
<path d="M29.169 13C19.6826 13 12 20.6141 12 30C12 39.3859 19.6898 47 29.169 47C38.6483 47 46.3381 39.3859 46.3381 30C46.3381 20.6141 38.6555 13 29.169 13ZM29.3128 37.8774H23.4484V34.3834H27.588V34.4048H28.515C30.9801 34.4048 33.093 33.067 33.093 30C33.093 27.1821 31.2172 25.5952 28.5582 25.5952H27.588H23.4484V22.1226H29.3128C33.7398 22.1226 37.3906 25.5668 37.3906 30C37.3906 34.4261 33.7254 37.8774 29.3128 37.8774Z" fill="#62B0FF"/>
<path fill-rule="evenodd" clip-rule="evenodd" d="M84.1545 36.7103H80.6474V26.2854H77.7512V23.3466H87.0579V26.2854H84.1545V36.7103Z" fill="#0A2240"/>
<path fill-rule="evenodd" clip-rule="evenodd" d="M114.691 29.2457C114.655 31.1955 114.511 32.8606 113.311 34.5258C111.989 36.3475 109.998 37.1444 107.748 37.1444C103.508 37.1444 100.555 34.2909 100.555 30.0925C100.555 25.7518 103.53 22.8983 107.871 22.8983C110.645 22.8983 112.794 24.1365 113.958 26.6342L110.63 28.0147C110.149 26.7409 109.128 25.887 107.713 25.887C105.406 25.887 104.205 28.0645 104.205 30.1068C104.205 32.1775 105.456 34.2909 107.77 34.2909C109.286 34.2909 110.451 33.5082 110.594 31.9711H107.734V29.2457H114.691V29.2457Z" fill="#0A2240"/>
<path fill-rule="evenodd" clip-rule="evenodd" d="M128.008 23.3466V30.861C128.008 32.5759 127.936 34.2838 126.592 35.5718C125.464 36.6747 123.696 37.059 122.122 37.059C120.548 37.059 118.773 36.6676 117.645 35.5718C116.301 34.2766 116.229 32.5759 116.229 30.861V23.3466H119.736V30.3842C119.736 32.1205 119.858 34.0134 122.115 34.0134C124.371 34.0134 124.493 32.1205 124.493 30.3842V23.3466H128.008Z" fill="#0A2240"/>
<path d="M133.728 23.3466H130.221V36.7103H133.728V23.3466Z" fill="#0A2240"/>
<path fill-rule="evenodd" clip-rule="evenodd" d="M143.43 26.7835C142.784 26.2498 141.964 25.894 141.102 25.894C140.455 25.894 139.6 26.2641 139.6 27.0112C139.6 27.7869 140.549 28.0929 141.159 28.285L142.051 28.5483C143.926 29.0962 145.378 30.0355 145.378 32.1988C145.378 33.5294 145.055 34.8886 143.984 35.7923C142.927 36.6747 141.512 37.0518 140.153 37.0518C138.45 37.0518 136.79 36.4826 135.41 35.529L136.912 32.7325C137.789 33.4939 138.824 34.1129 140.024 34.1129C140.843 34.1129 141.72 33.7073 141.72 32.768C141.72 31.7931 140.34 31.4587 139.593 31.2452C137.394 30.6261 135.942 30.0569 135.942 27.4738C135.942 24.7626 137.89 22.9907 140.592 22.9907C141.95 22.9907 143.617 23.4177 144.817 24.0866L143.43 26.7835Z" fill="#0A2240"/>
<path fill-rule="evenodd" clip-rule="evenodd" d="M150.552 26.2854V28.5198H155.784V31.4587H150.552V33.7643H156V36.7103H147.045V23.3466H156V26.2854H150.552Z" fill="#0A2240"/>
<path fill-rule="evenodd" clip-rule="evenodd" d="M57.844 23.3466H52.8708V26.2926H56.3779H57.1972C59.4538 26.2926 61.0421 27.6375 61.0421 30.0284C61.0421 32.6329 59.2526 33.7643 57.1612 33.7643H56.3707V33.743H52.8636V36.7032H57.8368C61.5739 36.7032 64.6929 33.7785 64.6929 30.0213C64.6929 26.2712 61.6026 23.3466 57.844 23.3466Z" fill="#0A2240"/>
<path fill-rule="evenodd" clip-rule="evenodd" d="M71.7718 27.3671L75.0849 36.7103H78.7645L73.6835 23.3466H69.8529L64.6642 36.7103H68.3294L71.7718 27.3671Z" fill="#0A2240"/>
<path fill-rule="evenodd" clip-rule="evenodd" d="M93.1451 27.3671L96.4581 36.7103H100.145L95.0639 23.3466H91.2334L86.0374 36.7103H89.7026L93.1451 27.3671Z" fill="#0A2240"/>
</svg>
