<svg width="16" height="16" viewBox="0 0 16 16" fill="black" stroke="black" stroke-width="1%"  xmlns="http://www.w3.org/2000/svg" role="presentation"><path fill-rule="evenodd" clip-rule="evenodd" d="M3.52745 8.00015C3.68128 6.60816 4.47001 5.40752 5.59765 4.69422C5.89851 5.73719 6.86017 6.5 8 6.5C9.13983 6.5 10.1015 5.73719 10.4024 4.69422C11.53 5.40753 12.3187 6.60816 12.4725 8.00015C11.1045 8.01487 10 9.12845 10 10.5C10 11.1346 10.2364 11.7139 10.626 12.1548C9.88697 12.6867 8.98007 13 8 13C7.01993 13 6.11303 12.6867 5.37402 12.1548C5.76358 11.7139 6 11.1346 6 10.5C6 9.12845 4.89552 8.01486 3.52745 8.00015ZM13.4922 8.20463C13.385 6.1792 12.1821 4.44437 10.4652 3.58209C10.2663 2.40032 9.23831 1.5 8 1.5C6.76169 1.5 5.73365 2.40032 5.53477 3.58209C3.81795 4.44437 2.61498 6.1792 2.5078 8.20463C1.62068 8.58862 1 9.47183 1 10.5C1 11.8807 2.11929 13 3.5 13C3.87065 13 4.22246 12.9193 4.53883 12.7746C5.48403 13.5409 6.6884 14 8 14C9.3116 14 10.516 13.5409 11.4612 12.7746C11.7775 12.9193 12.1294 13 12.5 13C13.8807 13 15 11.8807 15 10.5C15 9.47183 14.3793 8.58862 13.4922 8.20463ZM8 2.5C7.49264 2.5 7.0441 2.7519 6.77265 3.13745C6.60087 3.38144 6.5 3.67894 6.5 4C6.5 4.08478 6.50703 4.16791 6.52055 4.24885C6.63909 4.95885 7.25635 5.5 8 5.5C8.74365 5.5 9.3609 4.95885 9.47945 4.24886C9.49297 4.16791 9.5 4.08478 9.5 4C9.5 3.67894 9.39913 3.38144 9.22735 3.13745C8.9559 2.7519 8.50736 2.5 8 2.5ZM2 10.5C2 10.0265 2.21941 9.60421 2.56211 9.3293C2.81897 9.12326 3.14509 9 3.5 9C3.50918 9 3.51835 9.00008 3.52749 9.00025C4.34323 9.01491 5 9.68076 5 10.5C5 10.8767 4.86117 11.2209 4.63188 11.4843C4.40688 11.7428 4.09478 11.9235 3.74129 11.9807C3.66274 11.9934 3.58214 12 3.5 12C2.67157 12 2 11.3284 2 10.5ZM12.5 12C12.4179 12 12.3373 11.9934 12.2587 11.9807C11.9052 11.9235 11.5931 11.7428 11.3681 11.4843C11.1388 11.2209 11 10.8767 11 10.5C11 9.68076 11.6568 9.01491 12.4725 9.00025C12.4817 9.00008 12.4908 9 12.5 9C12.8549 9 13.181 9.12326 13.4379 9.3293C13.7806 9.60421 14 10.0265 14 10.5C14 11.3284 13.3284 12 12.5 12Z"></path></svg>
