<?xml version="1.0" encoding="UTF-8"?>
<svg width="34px" height="34px" viewBox="0 0 34 34" version="1.1" xmlns="http://www.w3.org/2000/svg" xmlns:xlink="http://www.w3.org/1999/xlink">
    <!-- Generator: Sketch 50.2 (55047) - http://www.bohemiancoding.com/sketch -->
    <title>Navigation-Icon-Shares</title>
    <desc>Created with Sketch.</desc>
    <defs>
        <linearGradient x1="54.2454064%" y1="100%" x2="54.2454075%" y2="0%" id="linearGradient-1">
            <stop stop-color="#FFFFFF" stop-opacity="0" offset="0%"></stop>
            <stop stop-color="#FFFFFF" offset="100%"></stop>
        </linearGradient>
        <linearGradient x1="48.8399833%" y1="41.0830078%" x2="50%" y2="50.6435547%" id="linearGradient-2">
            <stop stop-color="#FFFFFF" offset="0%"></stop>
            <stop stop-color="#FFFFFF" stop-opacity="0" offset="100%"></stop>
        </linearGradient>
        <rect id="path-3" x="0" y="0" width="28" height="28" rx="4"></rect>
        <filter x="-15.0%" y="-11.4%" width="130.0%" height="130.0%" filterUnits="objectBoundingBox" id="filter-4">
            <feMorphology radius="0.7" operator="dilate" in="SourceAlpha" result="shadowSpreadOuter1"></feMorphology>
            <feOffset dx="0" dy="1" in="shadowSpreadOuter1" result="shadowOffsetOuter1"></feOffset>
            <feGaussianBlur stdDeviation="1" in="shadowOffsetOuter1" result="shadowBlurOuter1"></feGaussianBlur>
            <feComposite in="shadowBlurOuter1" in2="SourceAlpha" operator="out" result="shadowBlurOuter1"></feComposite>
            <feColorMatrix values="0 0 0 0 0   0 0 0 0 0   0 0 0 0 0  0 0 0 0.2 0" type="matrix" in="shadowBlurOuter1"></feColorMatrix>
        </filter>
        <linearGradient x1="50%" y1="6.123234e-15%" x2="50%" y2="134.14917%" id="linearGradient-5">
            <stop stop-color="#FFFFFF" offset="0%"></stop>
            <stop stop-color="#FFFFFF" stop-opacity="0" offset="100%"></stop>
        </linearGradient>
        <path d="M7,17.8214857 L7,18.8 C7,20.5673143 10.135125,22 14,22 C17.864875,22 21,20.5673143 21,18.8 L21,17.8214857 C20.6082187,18.1437714 20.1289375,18.4278857 19.5849062,18.6715429 C18.1254063,19.3250286 16.1649687,19.7142857 14,19.7142857 C11.8350313,19.7142857 9.87459375,19.3250286 8.41509375,18.6715429 C7.8710625,18.4278857 7.39178125,18.1437714 7,17.8214857 L7,17.8214857 Z M7,14.6214857 L7,16.5001143 C7.380625,17.1094857 8.1764375,17.5611429 8.75678125,17.8285714 C10.0681875,18.416 11.9365312,18.8 14,18.8 C16.0634687,18.8 17.9318125,18.416 19.2432188,17.8285714 C19.8226875,17.5442286 20.6152188,17.1490286 21,16.4928 L21,14.6214857 C20.6082187,14.9437714 20.1289375,15.2278857 19.5849062,15.4715429 C18.1254063,16.1250286 16.1649687,16.5142857 14,16.5142857 C11.8350313,16.5142857 9.87459375,16.1250286 8.41509375,15.4715429 C7.8710625,15.2278857 7.39178125,14.9437714 7,14.6214857 L7,14.6214857 Z M7.00678125,11.4285714 L7.00678125,13.3072 C7.389375,13.9124571 8.1790625,14.3622857 8.75678125,14.6285714 C10.0681875,15.216 11.9365312,15.6 14,15.6 C16.0634687,15.6 17.9318125,15.216 19.2432187,14.6285714 C19.8226875,14.3442286 20.6152187,13.9490286 21,13.2928 L21,11.4285714 C20.6082187,11.7510857 20.1289375,12.0278857 19.5849062,12.2715429 C18.1254062,12.9250286 16.1649687,13.3142857 14,13.3142857 C11.8350312,13.3142857 9.87459375,12.9250286 8.41509375,12.2715429 C7.87303125,12.0288 7.3976875,11.7494857 7.00678125,11.4285714 Z M14,6 C10.1340312,6 7,7.43268571 7,9.2 C7,10.9673143 10.1340312,12.4 14,12.4 C17.8659688,12.4 21,10.9673143 21,9.2 C21,7.43268571 17.8659688,6 14,6 L14,6 Z" id="path-6"></path>
        <path d="M7.36401099,1.11881868 C7.31456044,1.05288462 7.25546703,0.98967033 7.18681319,0.929258242 C6.95052198,0.684725275 6.66074176,0.5625 6.31730769,0.5625 C5.97667582,0.5625 5.67997253,0.684725275 5.4271978,0.929258242 C5.18266484,1.17651099 5.06043956,1.47321429 5.06043956,1.81936813 C5.06043956,1.92098901 5.0728022,2.01857143 5.09752747,2.11195055 L3.07005495,3.45947802 C2.87225275,3.31936813 2.64148352,3.24931319 2.37774725,3.24931319 C2.03983516,3.24931319 1.74313187,3.37021978 1.48763736,3.61195055 C1.24590659,3.8592033 1.125,4.15590659 1.125,4.50206044 C1.125,4.83997253 1.24590659,5.13115385 1.48763736,5.37568681 C1.74313187,5.62846154 2.03983516,5.75480769 2.37774725,5.75480769 C2.63876374,5.75480769 2.86813187,5.68335165 3.06593407,5.54052198 L5.09752747,6.89629121 C5.0728022,6.98967033 5.06043956,7.08585165 5.06043956,7.18475275 C5.06043956,7.52818681 5.18266484,7.81936813 5.4271978,8.05837912 C5.67997253,8.31115385 5.97667582,8.4375 6.31730769,8.4375 C6.66074176,8.4375 6.95052198,8.31115385 7.18681319,8.05837912 C7.25546703,7.99796703 7.31456044,7.93747253 7.36401099,7.87706044 C7.5014011,7.67653846 7.57005495,7.44576923 7.57005495,7.18475275 C7.57005495,6.92653846 7.5014011,6.69436813 7.36401099,6.48832418 C7.31456044,6.41967033 7.25546703,6.35505495 7.18681319,6.29464286 C6.95052198,6.05291209 6.66074176,5.93200549 6.31730769,5.93200549 C6.04532967,5.93200549 5.79947802,6.0103022 5.57967033,6.1668956 L3.58928571,4.83997253 C3.61673077,4.73282967 3.63049451,4.62016484 3.63049451,4.50206044 C3.63049451,4.38395604 3.61813187,4.27129121 3.59340659,4.16414835 L5.59203297,2.83722527 C5.80631868,2.99381868 6.04804945,3.07211538 6.31730769,3.07211538 C6.66074176,3.07211538 6.95052198,2.94436813 7.18681319,2.68887363 C7.25546703,2.63118132 7.31456044,2.57208791 7.36401099,2.51167582 C7.5014011,2.30835165 7.57005495,2.07758242 7.57005495,1.81936813 C7.57005495,1.55835165 7.5014011,1.32486264 7.36401099,1.11881868" id="path-7"></path>
    </defs>
    <g id="Component-Library-active" stroke="none" stroke-width="1" fill="none" fill-rule="evenodd">
        <g id="Component-Library---WS-3.0" transform="translate(-1491.000000, -212.000000)">
            <g id="Navigation-Icon-Shares" transform="translate(1494.000000, 214.000000)">
                <g id="Group-2-Copy" transform="translate(16.000000, 16.000000)"></g>
                <g id="Rectangle-407">
                    <use fill="black" fill-opacity="1" filter="url(#filter-4)" xlink:href="#path-3"></use>
                    <use fill-opacity="0.979138361" fill="#FFFFFF" fill-rule="evenodd" xlink:href="#path-3"></use>
                    <use fill="url(#linearGradient-1)" fill-rule="evenodd" style="mix-blend-mode: overlay;" xlink:href="#path-3"></use>
                    <rect stroke-opacity="0.2" stroke="#000000" stroke-width="0.7" fill-opacity="0.270000011" fill="url(#linearGradient-2)" fill-rule="evenodd" x="-0.35" y="-0.35" width="28.7" height="28.7" rx="4"></rect>
                </g>
                <g id="Fill-1">
                    <use fill="#000000" xlink:href="#path-6"></use>
                    <use fill-opacity="0.4" fill="url(#linearGradient-5)" xlink:href="#path-6"></use>
                </g>
                <circle id="Oval-3" fill="#FFFFFF" cx="19.5" cy="19" r="5"></circle>
                <g id="UI-/-Icon-/-Share" transform="translate(15.000000, 15.000000)">
                    <mask id="mask-8" fill="white">
                        <use xlink:href="#path-7"></use>
                    </mask>
                    <g id="Share-Icon"></g>
                    <g id="UI-/-Color-/-Dark-Grey" mask="url(#mask-8)" fill="#4A4A4A" fill-rule="evenodd">
                        <g transform="translate(-11.812500, -11.250000)" id="Color">
                            <rect x="0" y="0" width="34" height="34"></rect>
                        </g>
                    </g>
                </g>
            </g>
        </g>
    </g>
</svg>