<?xml version="1.0" encoding="UTF-8"?>
<svg width="36px" height="36px" viewBox="0 0 36 36" version="1.1" xmlns="http://www.w3.org/2000/svg" xmlns:xlink="http://www.w3.org/1999/xlink">
    <!-- Generator: Sketch 50.2 (55047) - http://www.bohemiancoding.com/sketch -->
    <title>Navigation-Warehouses-Icon</title>
    <desc>Created with Sketch.</desc>
    <defs>
        <rect id="path-1" x="0" y="0" width="28" height="28" rx="4"></rect>
        <filter x="-20.4%" y="-16.8%" width="140.7%" height="140.7%" filterUnits="objectBoundingBox" id="filter-2">
            <feMorphology radius="0.7" operator="dilate" in="SourceAlpha" result="shadowSpreadOuter1"></feMorphology>
            <feOffset dx="0" dy="1" in="shadowSpreadOuter1" result="shadowOffsetOuter1"></feOffset>
            <feGaussianBlur stdDeviation="1.5" in="shadowOffsetOuter1" result="shadowBlurOuter1"></feGaussianBlur>
            <feComposite in="shadowBlurOuter1" in2="SourceAlpha" operator="out" result="shadowBlurOuter1"></feComposite>
            <feColorMatrix values="0 0 0 0 0   0 0 0 0 0   0 0 0 0 0  0 0 0 0.24 0" type="matrix" in="shadowBlurOuter1"></feColorMatrix>
        </filter>
        <linearGradient x1="50%" y1="123.541184%" x2="50%" y2="-2.48949813e-15%" id="linearGradient-3">
            <stop stop-color="#FFFFFF" stop-opacity="0" offset="0%"></stop>
            <stop stop-color="#FFFFFF" offset="100%"></stop>
        </linearGradient>
        <path d="M16.1614781,10.2 L17.7655696,10.2 C18.3303524,10.2 18.7744667,10.6489692 18.7744667,11.2028007 L18.7744667,12.7971993 C18.7744667,13.3585693 18.3227681,13.8 17.7655696,13.8 L16.1614781,13.8 C15.5966953,13.8 15.152581,13.3510308 15.152581,12.7971993 L15.152581,11.2028007 C15.152581,10.6414307 15.6042796,10.2 16.1614781,10.2 Z M11.9359448,10.2 L13.5400363,10.2 C14.1048191,10.2 14.5489334,10.6489692 14.5489334,11.2028007 L14.5489334,12.7971993 C14.5489334,13.3585693 14.0972348,13.8 13.5400363,13.8 L11.9359448,13.8 C11.371162,13.8 10.9270477,13.3510308 10.9270477,12.7971993 L10.9270477,11.2028007 C10.9270477,10.6414307 11.3787463,10.2 11.9359448,10.2 Z M5.46523781,10.6943398 L6.5995018,9.5600758 C6.99886355,9.16071405 7.63036891,9.16414697 8.02198695,9.555765 L9.149397,10.6831751 C9.54634556,11.0801236 9.53908503,11.7116614 9.14508621,12.1056602 L8.01082222,13.2399242 C7.61146047,13.639286 6.97995511,13.635853 6.58833707,13.244235 L5.46092701,12.1168249 C5.06397845,11.7198764 5.07123899,11.0883386 5.46523781,10.6943398 Z M20.3870114,10.2 L21.9911029,10.2 C22.5558857,10.2 23,10.6489692 23,11.2028007 L23,12.7971993 C23,13.3585693 22.5483014,13.8 21.9911029,13.8 L20.3870114,13.8 C19.8222286,13.8 19.3781143,13.3510308 19.3781143,12.7971993 L19.3781143,11.2028007 C19.3781143,10.6414307 19.8298129,10.2 20.3870114,10.2 Z M16.1614781,6 L17.7655696,6 C18.3303524,6 18.7744667,6.44896917 18.7744667,7.0028007 L18.7744667,8.5971993 C18.7744667,9.15856934 18.3227681,9.6 17.7655696,9.6 L16.1614781,9.6 C15.5966953,9.6 15.152581,9.15103083 15.152581,8.5971993 L15.152581,7.0028007 C15.152581,6.44143066 15.6042796,6 16.1614781,6 Z M20.3870114,6 L21.9911029,6 C22.5558857,6 23,6.44896917 23,7.0028007 L23,8.5971993 C23,9.15856934 22.5483014,9.6 21.9911029,9.6 L20.3870114,9.6 C19.8222286,9.6 19.3781143,9.15103083 19.3781143,8.5971993 L19.3781143,7.0028007 C19.3781143,6.44143066 19.8298129,6 20.3870114,6 Z M16.1614781,14.4 L17.7655696,14.4 C18.3303524,14.4 18.7744667,14.8489692 18.7744667,15.4028007 L18.7744667,16.9971993 C18.7744667,17.5585693 18.3227681,18 17.7655696,18 L16.1614781,18 C15.5966953,18 15.152581,17.5510308 15.152581,16.9971993 L15.152581,15.4028007 C15.152581,14.8414307 15.6042796,14.4 16.1614781,14.4 Z M20.3870114,14.4 L21.9911029,14.4 C22.5558857,14.4 23,14.8489692 23,15.4028007 L23,16.9971993 C23,17.5585693 22.5483014,18 21.9911029,18 L20.3870114,18 C19.8222286,18 19.3781143,17.5510308 19.3781143,16.9971993 L19.3781143,15.4028007 C19.3781143,14.8414307 19.8298129,14.4 20.3870114,14.4 Z M11.9359448,14.4 L13.5400363,14.4 C14.1048191,14.4 14.5489334,14.8489692 14.5489334,15.4028007 L14.5489334,16.9971993 C14.5489334,17.5585693 14.0972348,18 13.5400363,18 L11.9359448,18 C11.371162,18 10.9270477,17.5510308 10.9270477,16.9971993 L10.9270477,15.4028007 C10.9270477,14.8414307 11.3787463,14.4 11.9359448,14.4 Z M16.1614781,18.6 L17.7655696,18.6 C18.3303524,18.6 18.7744667,19.0489692 18.7744667,19.6028007 L18.7744667,21.1971993 C18.7744667,21.7585693 18.3227681,22.2 17.7655696,22.2 L16.1614781,22.2 C15.5966953,22.2 15.152581,21.7510308 15.152581,21.1971993 L15.152581,19.6028007 C15.152581,19.0414307 15.6042796,18.6 16.1614781,18.6 Z M20.3870114,18.6 L21.9911029,18.6 C22.5558857,18.6 23,19.0489692 23,19.6028007 L23,21.1971993 C23,21.7585693 22.5483014,22.2 21.9911029,22.2 L20.3870114,22.2 C19.8222286,22.2 19.3781143,21.7510308 19.3781143,21.1971993 L19.3781143,19.6028007 C19.3781143,19.0414307 19.8298129,18.6 20.3870114,18.6 Z M11.9359448,18.6 L13.5400363,18.6 C14.1048191,18.6 14.5489334,19.0489692 14.5489334,19.6028007 L14.5489334,21.1971993 C14.5489334,21.7585693 14.0972348,22.2 13.5400363,22.2 L11.9359448,22.2 C11.371162,22.2 10.9270477,21.7510308 10.9270477,21.1971993 L10.9270477,19.6028007 C10.9270477,19.0414307 11.3787463,18.6 11.9359448,18.6 Z M7.71041148,14.4 L9.314503,14.4 C9.8792858,14.4 10.3234001,14.8489692 10.3234001,15.4028007 L10.3234001,16.9971993 C10.3234001,17.5585693 9.87170147,18 9.314503,18 L7.71041148,18 C7.14562867,18 6.70151439,17.5510308 6.70151439,16.9971993 L6.70151439,15.4028007 C6.70151439,14.8414307 7.15321301,14.4 7.71041148,14.4 Z M7.71041148,18.6 L9.314503,18.6 C9.8792858,18.6 10.3234001,19.0489692 10.3234001,19.6028007 L10.3234001,21.1971993 C10.3234001,21.7585693 9.87170147,22.2 9.314503,22.2 L7.71041148,22.2 C7.14562867,22.2 6.70151439,21.7510308 6.70151439,21.1971993 L6.70151439,19.6028007 C6.70151439,19.0414307 7.15321301,18.6 7.71041148,18.6 Z" id="path-4"></path>
    </defs>
    <g id="Component-Library-active" stroke="none" stroke-width="1" fill="none" fill-rule="evenodd">
        <g id="Component-Library---WS-3.0" transform="translate(-1124.000000, -211.000000)">
            <g id="Navigation-Warehouses-Icon" transform="translate(1128.000000, 214.000000)">
                <g id="Rectangle-408">
                    <use fill="black" fill-opacity="1" filter="url(#filter-2)" xlink:href="#path-1"></use>
                    <rect stroke="#B7B4B4" stroke-width="0.7" fill="#FFFFFF" fill-rule="evenodd" x="-0.35" y="-0.35" width="28.7" height="28.7" rx="4"></rect>
                </g>
                <g id="Navigation-Warehouse-Icon">
                    <use fill="#000000" xlink:href="#path-4"></use>
                    <use fill-opacity="0.4" fill="url(#linearGradient-3)" xlink:href="#path-4"></use>
                </g>
            </g>
        </g>
    </g>
</svg>